<svg width="36" height="36" fill="none" xmlns="http://www.w3.org/2000/svg"><g clip-path="url(#clip0_4_9654)"><path d="M28.384 2.77H24.96V1.406C24.961.63 24.331 0 23.555 0H12.492c-.777 0-1.406.63-1.406 1.406V2.77H7.664a3.52 3.52 0 00-3.516 3.516v26.198A3.52 3.52 0 007.664 36h20.72a3.52 3.52 0 003.515-3.516V6.286a3.52 3.52 0 00-3.515-3.516zm-6.235.042v2.729h-8.251V2.812h8.25zm6.938 29.672a.704.704 0 01-.703.703H7.664a.704.704 0 01-.703-.703V6.286c0-.388.315-.703.703-.703h3.421v1.364c0 .777.63 1.406 1.407 1.406h11.063c.776 0 1.406-.63 1.406-1.406V5.583h3.423c.387 0 .703.315.703.703v26.198zM24.549 16.42c.55.55.55 1.44 0 1.99l-7.39 7.39c-.549.548-1.44.548-1.989 0l-3.672-3.673a1.407 1.407 0 011.989-1.99l2.678 2.679 6.395-6.395c.55-.55 1.44-.55 1.989 0z" fill="#007668"/><path d="M24.549 16.42c.55.549.55 1.44 0 1.988l-7.39 7.39c-.55.55-1.44.55-1.989 0l-3.672-3.672a1.407 1.407 0 011.989-1.989l2.678 2.678 6.395-6.395c.55-.55 1.44-.55 1.989 0z" fill="#FFB800"/></g><defs><clipPath id="clip0_4_9654"><path fill="#fff" d="M0 0h36v36H0z"/></clipPath></defs></svg>