<svg width="37" height="27" fill="none" xmlns="http://www.w3.org/2000/svg"><path fill-rule="evenodd" clip-rule="evenodd" d="M9.918 6.6V24h-3.19V6.6H3.393V3.7h9.86v2.34c.201-.496.474-.927.82-1.296a3.94 3.94 0 011.68-1.056c.561-.185 1.2-.278 1.915-.278 1.566 0 2.765.445 3.596 1.334.66.707 1.059 1.645 1.194 2.815.036.303.053.621.053.955v10.672c0 .334-.017.652-.053.955-.135 1.17-.534 2.109-1.194 2.815-.831.89-2.03 1.334-3.596 1.334-1.566 0-2.765-.444-3.596-1.334-.831-.89-1.247-2.146-1.247-3.77V8.514c0-.708.079-1.346.237-1.914H9.918zm2.391 18.13c1.424 1.481 3.34 2.06 5.36 2.06 1.863 0 3.64-.494 5.022-1.735a2.5 2.5 0 002.267 1.445h3.19a2.5 2.5 0 002.5-2.5v-5.812c1.658-.16 3.22-.754 4.404-2.024 1.374-1.475 1.86-3.432 1.86-5.446v-2c0-2.015-.486-3.971-1.86-5.446C33.634 1.75 31.674 1.2 29.656 1.2h-4.698a2.5 2.5 0 00-2.267 1.445C21.31 1.404 19.531.91 17.668.91c-1.126 0-2.22.18-3.215.597a2.489 2.489 0 00-1.2-.307h-9.86a2.5 2.5 0 00-2.5 2.5v2.9a2.5 2.5 0 002.5 2.5h.835V24a2.5 2.5 0 002.5 2.5h3.19c1.126 0 2.079-.745 2.391-1.77zM24.96 24h3.19v-8.265h1.507c1.586 0 2.775-.425 3.567-1.276.793-.85 1.19-2.098 1.19-3.74V8.716c0-1.643-.397-2.89-1.19-3.74-.792-.852-1.981-1.277-3.567-1.277h-4.698V24zm5.857-11.6c.271-.29.406-.783.406-1.479V8.514c0-.696-.135-1.189-.406-1.479a1.101 1.101 0 00-.168-.157c-.244-.185-.575-.278-.992-.278h-1.508v6.235h1.508c.417 0 .748-.092.992-.278.062-.046.118-.098.168-.157zm-11.495 6.99c0 1.333-.55 2-1.653 2-1.102 0-1.653-.667-1.653-2V8.31c0-1.334.551-2 1.653-2 1.102 0 1.653.666 1.653 2V19.39z" fill="#007668"/></svg>