<svg width="38" height="38" fill="none" xmlns="http://www.w3.org/2000/svg"><g clip-path="url(#clip0_4_9660)"><path d="M36.145 8.313c-1.29 0-2.5.501-3.412 1.412a4.793 4.793 0 00-1.413 3.412v4.247a3.348 3.348 0 00-3.924 1.51l-3.064 5.313c-.317.55-.72 1.04-1.2 1.455a8.531 8.531 0 00-2.945 6.449v4.776c0 .614.499 1.113 1.114 1.113h10.39c.615 0 1.114-.498 1.114-1.113v-2.668l4.437-7.606c.496-.85.758-1.82.758-2.805v-13.64a1.858 1.858 0 00-1.855-1.855zm-.372 15.495c0 .59-.157 1.172-.455 1.683l-4.588 7.866c-.1.17-.152.364-.152.561v1.855h-8.164v-3.662c0-1.83.793-3.568 2.176-4.767a7.894 7.894 0 001.67-2.025l3.065-5.313a1.117 1.117 0 012.044.269c.077.288.038.589-.111.847l-3.594 6.222a1.114 1.114 0 001.929 1.113l3.593-6.222c.427-.74.553-1.596.36-2.424v-6.674c0-.694.271-1.347.762-1.837a2.578 2.578 0 011.465-.735v13.243zM14.868 25.662a5.67 5.67 0 01-1.2-1.455l-3.064-5.313a3.348 3.348 0 00-3.924-1.51v-4.247c0-1.289-.502-2.5-1.413-3.412a4.792 4.792 0 00-3.412-1.412A1.858 1.858 0 000 10.168v13.64c0 .984.262 1.954.758 2.805l4.437 7.606v2.668C5.195 37.5 5.694 38 6.31 38h10.39c.615 0 1.113-.498 1.113-1.113V32.11a8.531 8.531 0 00-2.944-6.45zm.718 10.111H7.422v-1.855c0-.197-.052-.39-.152-.561l-4.588-7.866a3.344 3.344 0 01-.455-1.683V10.565a2.578 2.578 0 011.465.735c.49.49.761 1.143.761 1.837v6.674a3.319 3.319 0 00.361 2.424l3.593 6.223a1.113 1.113 0 001.928-1.114l-3.593-6.222a1.108 1.108 0 01-.111-.847 1.117 1.117 0 012.044-.268l3.064 5.312a7.888 7.888 0 001.67 2.025 6.305 6.305 0 012.177 4.767v3.662z" fill="#007668"/><path d="M29.02 10.02C29.02 4.495 24.524 0 19 0 13.475 0 8.98 4.495 8.98 10.02c0 5.524 4.495 10.02 10.02 10.02 5.525 0 10.02-4.496 10.02-10.02zm-17.813 0c0-4.298 3.496-7.793 7.793-7.793 4.297 0 7.793 3.495 7.793 7.793 0 1.573-.47 3.038-1.274 4.265a5.543 5.543 0 00-2.925-2.753c.54-.737.86-1.645.86-2.626A4.458 4.458 0 0019 4.453a4.458 4.458 0 00-4.453 4.453c0 .981.32 1.889.86 2.626a5.543 5.543 0 00-2.926 2.753 7.748 7.748 0 01-1.274-4.265zm5.566-1.114A2.23 2.23 0 0119 6.68a2.23 2.23 0 012.227 2.226A2.23 2.23 0 0119 11.133a2.23 2.23 0 01-2.227-2.227zm-2.562 7.257a3.29 3.29 0 013.25-2.804h3.078a3.29 3.29 0 013.25 2.804A7.754 7.754 0 0119 17.813a7.755 7.755 0 01-4.789-1.65z" fill="#FFB800"/></g><defs><clipPath id="clip0_4_9660"><path fill="#fff" d="M0 0h38v38H0z"/></clipPath></defs></svg>