<svg width="262" height="330" fill="none" xmlns="http://www.w3.org/2000/svg"><g opacity=".2" filter="url(#filter0_d_203_3)"><path fill-rule="evenodd" clip-rule="evenodd" d="M65.206 308.15l-.012-.005c-18.808-8.681-33.702-20.65-44.614-35.927l-.006-.007C9.738 256.893 4.23 239.288 4.021 219.464L4 217.443h86.423l.055 1.944c.29 10.233 4.211 18.27 11.765 24.295 7.761 6.11 16.985 9.187 27.77 9.187 8.359 0 15.649-1.767 21.927-5.242 6.283-3.579 11.211-8.6 14.802-15.102 3.574-6.472 5.346-14.061 5.248-22.832v-.045c.099-8.878-1.676-16.46-5.242-22.821l-.006-.011c-3.591-6.501-8.516-11.468-14.794-14.945l-.01-.006-.01-.005c-6.276-3.573-13.561-5.388-21.915-5.388-8.616 0-16.569 2.1-23.896 6.301l-.007.004c-7.183 4.077-12.437 9.725-15.82 16.972l-.661 1.419-77.788-15.302L24.314 0h213.977v71.798H97.639l-5.486 61.996c5.286-8.075 13.263-14.815 23.801-20.264 12.344-6.485 26.618-9.695 42.766-9.695 18.95 0 35.902 4.405 50.798 13.258 14.972 8.838 26.774 21.061 35.391 36.631 8.74 15.506 13.029 33.36 12.927 53.501.103 22.121-5.174 41.836-15.875 59.082-10.59 17.13-25.483 30.555-44.618 40.278l-.008.004c-19.164 9.633-41.625 14.414-67.322 14.414-24.261 0-45.877-4.267-64.807-12.853zm175.055-42.897c10.485-16.899 15.677-36.241 15.575-58.026.102-19.851-4.122-37.36-12.674-52.528-8.449-15.27-20.003-27.231-34.662-35.884-14.558-8.653-31.151-12.98-49.78-12.98-15.881 0-29.827 3.156-41.84 9.468-11.841 6.121-20.22 13.825-25.136 23.111-.072.135-.142.269-.212.404H89.7l6.108-69.02h140.483V2H26.177L13.961 174.244l74.517 14.659c3.563-7.635 9.112-13.59 16.645-17.865 7.635-4.378 15.931-6.566 24.89-6.566 8.652 0 16.287 1.883 22.904 5.649 6.617 3.665 11.809 8.908 15.576 15.728 3.766 6.719 5.599 14.66 5.497 23.821.102 9.061-1.731 17.001-5.497 23.821-3.767 6.821-8.959 12.115-15.576 15.881-6.617 3.665-14.252 5.497-22.904 5.497-11.198 0-20.869-3.206-29.013-9.62-8.042-6.413-12.216-15.015-12.522-25.806H6.021c.007.67.02 1.336.04 2 .541 18.626 5.924 35.163 16.146 49.612 10.689 14.965 25.297 26.723 43.825 35.274 18.629 8.449 39.956 12.674 63.981 12.674 25.449 0 47.591-4.734 66.424-14.201 18.832-9.569 33.441-22.752 43.824-39.549z" fill="#007668"/></g><defs><filter id="filter0_d_203_3" x="0" y="0" width="261.838" height="329.003" filterUnits="userSpaceOnUse" color-interpolation-filters="sRGB"><feFlood flood-opacity="0" result="BackgroundImageFix"/><feColorMatrix in="SourceAlpha" values="0 0 0 0 0 0 0 0 0 0 0 0 0 0 0 0 0 0 127 0" result="hardAlpha"/><feOffset dy="4"/><feGaussianBlur stdDeviation="2"/><feComposite in2="hardAlpha" operator="out"/><feColorMatrix values="0 0 0 0 0 0 0 0 0 0 0 0 0 0 0 0 0 0 0.25 0"/><feBlend in2="BackgroundImageFix" result="effect1_dropShadow_203_3"/><feBlend in="SourceGraphic" in2="effect1_dropShadow_203_3" result="shape"/></filter></defs></svg>