<svg width="96" height="96" fill="none" xmlns="http://www.w3.org/2000/svg"><circle cx="48" cy="48" r="48" fill="#fff"/><path fill-rule="evenodd" clip-rule="evenodd" d="M48 31.781V64.22c0 2.094-2.531 3.125-4 1.656L32.375 54.25h-6.25A3.134 3.134 0 0123 51.125v-6.25a3.134 3.134 0 013.125-3.125h6.25L44 30.125c1.469-1.469 4-.438 4 1.656zm23.531 10.063L68.22 38.53l-6.156 6.157-6.157-6.157-3.312 3.313L58.75 48l-6.156 6.156 3.312 3.313 6.157-6.157 6.156 6.157 3.312-3.313L65.375 48l6.156-6.156z" fill="#022723"/></svg>