<svg width="227" height="326" fill="none" xmlns="http://www.w3.org/2000/svg"><path fill-rule="evenodd" clip-rule="evenodd" d="M67.206 223.276v-9.33c0-16.876 1.327-30.458 4.037-40.673 2.701-10.181 6.734-18.468 12.172-24.762 5.33-6.269 11.84-11.888 19.513-16.865 6.477-4.25 12.233-8.341 17.271-12.271l.007-.005.008-.006c5.051-3.863 8.955-7.93 11.761-12.186l.008-.013.009-.013c2.816-4.13 4.234-8.823 4.234-14.144 0-4.755-1.137-8.855-3.356-12.369-2.247-3.558-5.283-6.318-9.146-8.297-3.868-1.981-8.184-2.987-12.984-2.987-5.171 0-9.929 1.193-14.307 3.57-4.277 2.378-7.743 5.651-10.414 9.844-2.527 4.124-3.819 8.94-3.819 14.515v2H0l.018-2.018C.225 74.586 5.382 55.979 15.66 41.61c10.206-14.371 23.753-24.89 40.59-31.543C73.004 3.347 91.378 0 111.352 0c21.977 0 41.663 3.235 59.028 9.745 17.406 6.425 31.219 16.2 41.35 29.359 10.194 13.138 15.23 29.524 15.23 49.018 0 12.548-2.178 23.681-6.593 33.352-4.283 9.504-10.29 17.911-18.007 25.21-7.556 7.142-16.386 13.645-26.478 19.515-7.235 4.221-13.271 8.567-18.131 13.03l-.009.008-.008.007c-4.789 4.301-8.38 9.212-10.804 14.738l-.006.012c-2.401 5.379-3.643 12.007-3.643 19.952v9.33H67.206zm107.667-58.804c9.977-5.803 18.681-12.216 26.112-19.24 7.533-7.126 13.387-15.321 17.56-24.585 4.276-9.366 6.414-20.207 6.414-32.525 0-19.138-4.938-35.07-14.812-47.795-9.875-12.826-23.363-22.395-40.465-28.707C152.579 5.207 133.136 2 111.351 2c-19.75 0-37.87 3.308-54.361 9.925-16.492 6.516-29.726 16.797-39.702 30.846C7.61 56.3 2.531 73.804 2.05 95.284c-.015.663-.026 1.33-.032 2H80.2c0-5.904 1.374-11.096 4.123-15.575 2.85-4.48 6.566-7.991 11.147-10.536 4.683-2.545 9.773-3.818 15.27-3.818 5.09 0 9.722 1.069 13.895 3.207 4.174 2.138 7.483 5.14 9.926 9.009 2.443 3.868 3.665 8.348 3.665 13.438 0 5.7-1.527 10.79-4.581 15.269-2.952 4.48-7.024 8.704-12.216 12.674-5.09 3.971-10.893 8.093-17.408 12.369-7.533 4.886-13.895 10.384-19.087 16.492-5.192 6.006-9.111 13.997-11.758 23.973-2.647 9.977-3.97 23.363-3.97 40.16v7.33h72.074v-7.33c0-8.144 1.272-15.066 3.817-20.767 2.545-5.803 6.312-10.943 11.3-15.423 4.988-4.581 11.147-9.009 18.476-13.284zM74.672 312.943l-.009-.008c-8.727-8.727-13.057-19.367-12.954-31.801-.103-12.146 4.24-22.583 12.963-31.2l.008-.008c8.823-8.61 19.454-12.937 31.784-12.937 11.748 0 22.111 4.346 31.009 12.926 9.028 8.605 13.64 19.039 13.747 31.201v.043c-.107 8.293-2.291 15.879-6.563 22.715-4.136 6.679-9.554 12.045-16.24 16.078l-.01.006-.01.006c-6.725 3.949-14.048 5.925-21.933 5.925-12.33 0-22.96-4.327-31.784-12.937l-.008-.009zm68.287-10.126c4.072-6.515 6.159-13.743 6.261-21.683-.102-11.606-4.479-21.531-13.132-29.777-8.551-8.245-18.426-12.368-29.624-12.368-11.808 0-21.937 4.123-30.387 12.368-8.347 8.246-12.47 18.171-12.368 29.777-.102 11.91 4.02 22.039 12.368 30.387 8.45 8.245 18.579 12.368 30.387 12.368 7.533 0 14.507-1.883 20.92-5.65 6.413-3.868 11.605-9.009 15.575-15.422z" fill="#B28D9C" opacity=".3"/></svg>