<svg width="181" height="150" fill="none" xmlns="http://www.w3.org/2000/svg"><g clip-path="url(#clip0_4_9783)"><path fill="#FAEDAD" d="M2 100h10v39H2z"/><path fill="#79CCC2" d="M36 95h96v11H36z"/><path d="M112.337 16.379a1.255 1.255 0 01.876-1.54 1.253 1.253 0 11.33 2.464 1.24 1.24 0 01-1.206-.924zm-3.336.433a1.26 1.26 0 01-.592-1.676 1.255 1.255 0 112.265 1.083c-.216.445-.66.707-1.127.707a1.177 1.177 0 01-.546-.114zm7.104-2.064a1.25 1.25 0 01-.33-1.745 1.245 1.245 0 011.742-.331c.569.388.728 1.163.341 1.745a1.254 1.254 0 01-1.036.548c-.262 0-.501-.069-.717-.217zm-10.497-1.46a1.26 1.26 0 01.649-1.654 1.256 1.256 0 11.501 2.407c-.478 0-.945-.285-1.15-.753zm10.896-3.342a1.254 1.254 0 011.093-1.392c.683-.08 1.309.411 1.389 1.095a1.255 1.255 0 01-1.093 1.392c-.046 0-.103.011-.148.011a1.253 1.253 0 01-1.241-1.106zm-10.338.023a1.263 1.263 0 01-.831-1.574 1.255 1.255 0 011.571-.833c.66.205 1.036.901.831 1.574-.171.536-.66.89-1.195.89-.126 0-.251-.011-.376-.057zm8.903-2.817a1.25 1.25 0 01-.08-1.768 1.244 1.244 0 011.765-.08 1.25 1.25 0 01.08 1.768 1.238 1.238 0 01-1.765.08zm-7.15-.902a1.256 1.256 0 111.731.4 1.247 1.247 0 01-1.731-.4zm4.805-.228a1.263 1.263 0 01-1.048-1.437 1.25 1.25 0 011.423-1.05c.684.104 1.15.742 1.048 1.438a1.25 1.25 0 01-1.241 1.06c-.057 0-.114 0-.182-.01zM173.588 131.431a1.257 1.257 0 01.877-1.54 1.254 1.254 0 11.33 2.464 1.264 1.264 0 01-1.207-.924zm-3.324.433a1.258 1.258 0 011.081-2.269c.626.296.888 1.049.592 1.676-.216.445-.66.708-1.127.708a1.124 1.124 0 01-.546-.115zm7.093-2.064a1.273 1.273 0 01-.342-1.745 1.258 1.258 0 011.742-.342c.569.388.717 1.163.341 1.745a1.255 1.255 0 01-1.036.547 1.152 1.152 0 01-.705-.205zm-10.486-1.46a1.256 1.256 0 01.649-1.654 1.257 1.257 0 011.002 2.304 1.253 1.253 0 01-1.651-.65zm10.895-3.342a1.255 1.255 0 011.093-1.391 1.253 1.253 0 01.296 2.486c-.045 0-.102.011-.148.011a1.246 1.246 0 01-1.241-1.106zm-10.349.023a1.263 1.263 0 01-.831-1.574 1.26 1.26 0 011.571-.833c.661.206 1.036.913.832 1.574-.171.536-.661.89-1.196.89-.125 0-.25-.011-.376-.057zm8.915-2.817a1.25 1.25 0 01-.08-1.768 1.243 1.243 0 011.765-.08 1.25 1.25 0 01.08 1.768c-.251.274-.581.41-.923.41-.307 0-.603-.114-.842-.33zm-7.15-.901a1.263 1.263 0 01.399-1.734 1.254 1.254 0 011.73.399 1.262 1.262 0 01-1.059 1.928c-.432 0-.831-.206-1.07-.593zm4.793-.229a1.25 1.25 0 01-1.047-1.425 1.25 1.25 0 011.423-1.05c.683.103 1.15.753 1.047 1.437a1.25 1.25 0 01-1.241 1.061c-.045-.011-.114-.011-.182-.023zM36.034 135.378a1.256 1.256 0 01.877-1.54 1.253 1.253 0 01.66 2.418 1.241 1.241 0 01-1.537-.878zm-3.336.433a1.26 1.26 0 01-.592-1.677 1.256 1.256 0 112.266 1.084c-.217.456-.66.707-1.127.707a1.182 1.182 0 01-.547-.114zm7.104-2.065a1.25 1.25 0 01-.33-1.745 1.245 1.245 0 011.742-.33c.57.387.717 1.163.342 1.745-.24.353-.638.547-1.036.547-.262 0-.501-.068-.718-.217zm-10.485-1.459a1.256 1.256 0 01.649-1.654 1.252 1.252 0 011.65.65 1.26 1.26 0 01-.648 1.654c-.16.068-.33.102-.501.102-.49 0-.945-.273-1.15-.752zm10.884-3.342a1.255 1.255 0 011.093-1.392c.683-.08 1.31.411 1.389 1.095.08.684-.41 1.312-1.093 1.392-.046 0-.103.011-.148.011a1.263 1.263 0 01-1.241-1.106zm-10.338.022a1.258 1.258 0 111.571-.832c-.17.536-.66.889-1.195.889-.125 0-.25-.011-.376-.057zm8.915-2.817a1.25 1.25 0 01-.08-1.768 1.245 1.245 0 011.765-.08 1.25 1.25 0 01.08 1.768 1.236 1.236 0 01-1.765.08zm-7.162-.89a1.261 1.261 0 01.399-1.733 1.255 1.255 0 011.73.399 1.262 1.262 0 01-1.058 1.928 1.302 1.302 0 01-1.07-.594zm4.805-.239a1.262 1.262 0 01-1.047-1.437 1.25 1.25 0 011.423-1.05c.683.103 1.15.753 1.047 1.438a1.25 1.25 0 01-1.24 1.06c-.058 0-.115 0-.183-.011zM129.221 106.874h-90.58a3.764 3.764 0 01-3.757-3.764V70.603a.86.86 0 01.854-.855.86.86 0 01.854.855v32.507c0 1.129.922 2.053 2.049 2.053h90.58a2.057 2.057 0 002.049-2.053V47.312c0-1.13-.922-2.053-2.049-2.053H40.394a.86.86 0 01-.854-.856.86.86 0 01.854-.855h88.827a3.764 3.764 0 013.757 3.764v55.798a3.764 3.764 0 01-3.757 3.764z" fill="#2E2B28"/><path d="M94.576 128.203h-21.29a.86.86 0 01-.854-.855v-21.329c0-.468.387-.856.853-.856.467 0 .854.388.854.856v20.473h19.583v-20.473c0-.468.387-.856.854-.856.466 0 .854.388.854.856v21.329a.86.86 0 01-.854.855z" fill="#2E2B28"/><path d="M103.035 128.249H64.781a.861.861 0 01-.854-.856.86.86 0 01.854-.855h38.254a.86.86 0 01.854.855.854.854 0 01-.854.856zM132.067 96.198H35.749a.86.86 0 01-.854-.855.86.86 0 01.854-.856h96.318c.466 0 .854.388.854.856a.854.854 0 01-.854.855zM86.299 100.304h-4.782a.86.86 0 01-.854-.855.86.86 0 01.854-.856h4.782a.86.86 0 01.854.856.853.853 0 01-.854.855zM84.705 102.928H83.11a.861.861 0 01-.854-.856.86.86 0 01.854-.855h1.594a.86.86 0 01.853.855.854.854 0 01-.853.856z" fill="#2E2B28"/><path fill-rule="evenodd" clip-rule="evenodd" d="M84.079 34.914a.882.882 0 00-.797-.536c-.046 0-.08.011-.08.034a9.474 9.474 0 01-3.051-.091.843.843 0 00-.945.49l-.865 1.962-2.585-1.152.877-1.985a.839.839 0 00-.262-1.026 9.518 9.518 0 01-2.095-2.179.874.874 0 00-1.013-.308l-2.05.799-1.047-2.715 2.038-.776a.845.845 0 00.535-.912c-.16-1.106-.148-2.099.034-3.034a.852.852 0 00-.49-.947l-2.026-.9 1.196-2.704 2.05.912a.85.85 0 001.024-.273 9.028 9.028 0 012.186-2.076.843.843 0 00.318-1.015l-.785-2.042 2.698-1.038.763 2.019a.86.86 0 00.922.547 8.989 8.989 0 012.983.058.843.843 0 00.945-.491l.888-2.019 2.721 1.21-.888 2.007a.835.835 0 00.262 1.026 9.059 9.059 0 012.072 2.201.84.84 0 001.013.32l2.015-.776 1.036 2.703-2.038.787a.853.853 0 00-.535.913 9.035 9.035 0 01-.068 3.034.852.852 0 00.49.947l1.992.878-1.173 2.658-1.992-.89a.854.854 0 00-1.025.274 9.028 9.028 0 01-2.186 2.075.843.843 0 00-.318 1.016l.785 2.041-2.71 1.05-.82-2.076zM77.5 22l3.539-2.154 4.28 1.5L87.279 25l-1.833 4L80 30l-3-3.5.5-4.5z" fill="#FAEDAD"/><path fill-rule="evenodd" clip-rule="evenodd" d="M109.848 72.95a.882.882 0 00-.797-.535c-.046 0-.08.011-.08.034a9.473 9.473 0 01-3.051-.091.843.843 0 00-.945.49l-.865 1.962-2.585-1.152.877-1.985a.838.838 0 00-.262-1.026 9.524 9.524 0 01-2.095-2.179.874.874 0 00-1.013-.308l-2.05.799-1.047-2.715 2.038-.776a.845.845 0 00.535-.912c-.159-1.106-.148-2.099.035-3.034a.852.852 0 00-.49-.947l-2.027-.9 1.196-2.704 2.05.912a.85.85 0 001.024-.273 9.017 9.017 0 012.186-2.076.844.844 0 00.319-1.015l-.786-2.042 2.698-1.038.763 2.019a.86.86 0 00.922.547 8.99 8.99 0 012.983.057.842.842 0 00.945-.49l.888-2.019 2.721 1.21-.888 2.007a.834.834 0 00.262 1.026 9.045 9.045 0 012.072 2.202.84.84 0 001.013.319l2.015-.776 1.037 2.703-2.038.787a.852.852 0 00-.535.913 9.022 9.022 0 01-.069 3.034.851.851 0 00.49.947l1.992.878-1.173 2.657-1.992-.89a.855.855 0 00-1.025.275 9 9 0 01-2.186 2.075.843.843 0 00-.318 1.016l.785 2.041-2.709 1.05-.82-2.076zm-6.579-12.913l3.539-2.154 4.281 1.5 1.958 3.654-1.833 4-5.445 1-3-3.5.5-4.5z" fill="#79CCC2"/><path d="M84.409 38.952a.864.864 0 01-.797-.537l-.888-2.258c-.751.057-1.503.034-2.266-.068l-.945 2.144c-.193.433-.694.627-1.127.433l-4.155-1.836a.894.894 0 01-.456-.48.856.856 0 01.012-.65l.967-2.166a11.24 11.24 0 01-1.525-1.597l-2.232.867a.852.852 0 01-.649-.012.893.893 0 01-.455-.479l-1.662-4.323a.856.856 0 01.011-.65.894.894 0 01.478-.456l2.22-.844a11.238 11.238 0 01.023-2.236l-2.209-.98a.893.893 0 01-.455-.48.856.856 0 01.011-.65l1.89-4.266a.894.894 0 01.479-.456.852.852 0 01.648.012l2.232.992a11.353 11.353 0 011.605-1.528l-.854-2.225a.856.856 0 01.012-.65.894.894 0 01.478-.456l4.303-1.654a.832.832 0 01.66.023.836.836 0 01.445.479l.831 2.213a10.73 10.73 0 012.186.045l.968-2.201a.85.85 0 011.127-.434l4.28 1.905a.853.853 0 01.433 1.13l-.968 2.19c.57.49 1.082 1.026 1.538 1.63L92.8 17.6a.849.849 0 011.104.49l1.651 4.301a.851.851 0 01-.49 1.106l-2.22.867c.057.753.046 1.494-.057 2.236l2.175.958a.893.893 0 01.455.479c.08.217.08.445-.011.65l-1.867 4.22a.893.893 0 01-.478.456.851.851 0 01-.65-.01l-2.174-.97a10.733 10.733 0 01-1.605 1.528l.854 2.224c.08.217.08.445-.012.65a.893.893 0 01-.478.457l-4.28 1.653a.734.734 0 01-.308.058zm-1.127-4.574c.341 0 .66.216.797.536l.82 2.076 2.71-1.05-.786-2.041a.843.843 0 01.318-1.016 9.028 9.028 0 002.186-2.075.854.854 0 011.025-.274l1.992.89 1.173-2.658-1.992-.878a.852.852 0 01-.49-.947 9.035 9.035 0 00.068-3.034.853.853 0 01.535-.913l2.038-.787-1.036-2.703-2.015.776a.84.84 0 01-1.013-.32 9.059 9.059 0 00-2.072-2.2.835.835 0 01-.262-1.027l.888-2.008-2.721-1.209-.888 2.019a.843.843 0 01-.945.49 8.989 8.989 0 00-2.983-.057.86.86 0 01-.922-.547l-.763-2.019-2.698 1.038.785 2.042a.843.843 0 01-.318 1.015 9.028 9.028 0 00-2.186 2.076.85.85 0 01-1.025.273l-2.05-.912-1.195 2.703 2.027.901c.364.16.57.56.49.947-.183.935-.194 1.928-.035 3.034.057.4-.17.776-.535.912l-2.038.776 1.048 2.715 2.049-.799a.874.874 0 011.013.308 9.518 9.518 0 002.095 2.179c.319.24.433.673.262 1.026l-.877 1.985 2.585 1.152.865-1.962a.843.843 0 01.945-.49 9.474 9.474 0 003.051.09c0-.022.034-.033.08-.033z" fill="#2E2B28"/><path d="M81.904 31.195a5.96 5.96 0 01-2.413-.513c-3.006-1.334-4.372-4.882-3.04-7.893 1.332-3.011 4.873-4.38 7.878-3.045 3.006 1.334 4.372 4.881 3.04 7.893a5.969 5.969 0 01-3.313 3.16 6.19 6.19 0 01-2.152.398zm0-10.254c-1.64 0-3.199.947-3.905 2.544a4.28 4.28 0 002.163 5.634 4.19 4.19 0 003.256.08 4.28 4.28 0 00.205-7.893 4.16 4.16 0 00-1.719-.365zM110.139 76.956a.865.865 0 01-.797-.536l-.888-2.258c-.751.057-1.502.034-2.265-.069l-.945 2.145a.85.85 0 01-1.127.433l-4.156-1.836a.893.893 0 01-.455-.48.856.856 0 01.011-.65l.968-2.167a11.235 11.235 0 01-1.526-1.596l-2.231.866a.852.852 0 01-.65-.011.893.893 0 01-.454-.48l-1.663-4.322a.857.857 0 01.012-.65.894.894 0 01.478-.456l2.22-.844a11.238 11.238 0 01.023-2.236l-2.209-.98a.893.893 0 01-.455-.48.857.857 0 01.01-.65l1.89-4.266a.893.893 0 01.479-.456.852.852 0 01.649.011l2.231.993a11.354 11.354 0 011.606-1.529l-.854-2.224a.857.857 0 01.011-.65.893.893 0 01.478-.456l4.304-1.654a.832.832 0 01.66.023.834.834 0 01.444.479l.831 2.212a10.722 10.722 0 012.186.046l.968-2.201c.194-.434.695-.628 1.127-.434l4.281 1.905c.433.194.626.696.433 1.13l-.968 2.19a10.42 10.42 0 011.537 1.63l2.197-.844a.85.85 0 011.105.49l1.65 4.3a.85.85 0 01-.489 1.107l-2.22.867c.057.753.045 1.494-.057 2.236l2.174.958a.894.894 0 01.456.479.85.85 0 01-.012.65l-1.867 4.22a.893.893 0 01-.478.456.853.853 0 01-.649-.011l-2.174-.97a10.792 10.792 0 01-1.606 1.529l.854 2.224c.08.217.08.445-.011.65a.893.893 0 01-.478.456l-4.304 1.654a.58.58 0 01-.285.057zm-1.127-4.562a.88.88 0 01.797.536l.82 2.064 2.71-1.049-.786-2.042a.844.844 0 01.319-1.015 9.037 9.037 0 002.186-2.076.85.85 0 011.024-.273l1.993.89 1.173-2.658-1.993-.879a.852.852 0 01-.489-.946 9.048 9.048 0 00.068-3.034.853.853 0 01.535-.913l2.038-.787-1.036-2.703-2.015.776a.841.841 0 01-1.014-.32 9.045 9.045 0 00-2.072-2.201.837.837 0 01-.262-1.027l.889-2.007-2.722-1.21-.888 2.02a.849.849 0 01-.945.49 8.983 8.983 0 00-2.982-.057.86.86 0 01-.923-.547l-.762-2.02-2.699 1.039.786 2.041a.843.843 0 01-.319 1.016 9.035 9.035 0 00-2.186 2.075.85.85 0 01-1.025.274l-2.049-.912-1.195 2.703 2.026.901c.365.16.57.559.49.947-.182.935-.194 1.927-.034 3.034.057.399-.171.775-.535.912l-2.038.776 1.047 2.714 2.05-.798a.875.875 0 011.013.308 9.504 9.504 0 002.095 2.178c.318.24.432.673.261 1.027l-.876 1.985 2.584 1.152.865-1.962a.844.844 0 01.945-.49 9.482 9.482 0 003.052.09c0-.022.034-.022.079-.022z" fill="#2E2B28"/><path d="M107.635 69.2c-.82 0-1.64-.171-2.414-.513-3.006-1.335-4.372-4.882-3.04-7.893 1.332-3.011 4.873-4.38 7.879-3.045a5.968 5.968 0 013.153 3.319 5.95 5.95 0 01-.113 4.573 5.97 5.97 0 01-3.313 3.16 6.19 6.19 0 01-2.152.4zm0-10.254c-1.64 0-3.199.947-3.905 2.544a4.278 4.278 0 002.163 5.634 4.19 4.19 0 003.256.08 4.262 4.262 0 002.368-2.258 4.21 4.21 0 00.08-3.262 4.265 4.265 0 00-2.254-2.373 4.042 4.042 0 00-1.708-.365zM36.876 71.025H4.178a3.818 3.818 0 01-3.814-3.821V4.528A3.818 3.818 0 014.178.708h32.698a3.818 3.818 0 013.814 3.82v62.676c0 2.11-1.719 3.821-3.814 3.821zM4.178 2.418a2.11 2.11 0 00-2.106 2.11v62.676a2.11 2.11 0 002.106 2.11h32.698a2.11 2.11 0 002.106-2.11V4.528a2.11 2.11 0 00-2.106-2.11H4.178z" fill="#2E2B28"/><path d="M39.734 9.969H1.48a.86.86 0 01-.854-.856.86.86 0 01.854-.855h38.254a.86.86 0 01.854.855.854.854 0 01-.854.856zM39.734 63.463H1.252a.86.86 0 01-.854-.856.86.86 0 01.854-.855h38.482a.86.86 0 01.854.855.853.853 0 01-.854.856zM23.453 6.319h-5.806a.86.86 0 01-.854-.856.86.86 0 01.854-.855h5.806a.86.86 0 01.854.855.854.854 0 01-.854.856zM20.527 68.687a2.286 2.286 0 01-2.277-2.281 2.286 2.286 0 012.277-2.282 2.286 2.286 0 012.277 2.282 2.271 2.271 0 01-2.277 2.28zm0-2.84a.571.571 0 000 1.14.571.571 0 000-1.14z" fill="#2E2B28"/><path d="M31.776 62.505a.86.86 0 01-.854-.856v-4.608c0-5.748-4.668-10.425-10.406-10.425S10.11 51.293 10.11 57.041v4.608a.86.86 0 01-.854.856.86.86 0 01-.854-.856v-4.608c0-6.695 5.431-12.136 12.114-12.136 6.683 0 12.114 5.44 12.114 12.136v4.608c0 .48-.387.856-.854.856z" fill="#2E2B28"/><path d="M23.806 46.81a.835.835 0 01-.763-.479.849.849 0 01.399-1.14 6.625 6.625 0 003.745-6c0-3.673-2.982-6.673-6.66-6.673-3.677 0-6.66 2.989-6.66 6.673a6.643 6.643 0 003.677 5.965c.422.217.592.73.376 1.152a.853.853 0 01-1.15.377 8.343 8.343 0 01-4.61-7.494c0-4.62 3.756-8.384 8.367-8.384 4.611 0 8.368 3.765 8.368 8.384 0 3.228-1.799 6.125-4.702 7.54a.98.98 0 01-.387.08zM7.013 150a.864.864 0 01-.762-.468l-4.702-9.33a.883.883 0 01-.091-.387V99.358a.86.86 0 01.853-.856h9.393a.86.86 0 01.854.856v40.457a.92.92 0 01-.091.387l-4.69 9.33a.864.864 0 01-.764.468zm-3.848-10.391l3.848 7.642 3.849-7.642v-39.396H3.165v39.396z" fill="#2E2B28"/><path d="M13.172 100.213H.854A.861.861 0 010 99.358V87.54a.86.86 0 01.854-.856h12.319a.86.86 0 01.853.856v11.805a.863.863 0 01-.854.867zM1.708 98.502h10.61V88.396H1.709v10.106zM11.613 140.681H2.505a.86.86 0 01-.854-.855c0-.468.387-.856.854-.856h9.108c.467 0 .854.388.854.856a.853.853 0 01-.854.855zM8.197 146.612h-2.39a.86.86 0 01-.854-.855c0-.468.387-.856.854-.856h2.39c.467 0 .854.388.854.856a.853.853 0 01-.854.855z" fill="#2E2B28"/><path d="M11.305 88.396H2.721a.86.86 0 01-.854-.855v-5.03a.86.86 0 01.854-.856h8.584a.86.86 0 01.854.856v5.03a.854.854 0 01-.854.855zm-7.73-1.71h6.876v-3.32H3.575v3.32zM4.953 116.558a.861.861 0 01-.854-.856v-16.31a.86.86 0 01.854-.856.86.86 0 01.853.856v16.31a.854.854 0 01-.853.856zM9.279 126.253a.861.861 0 01-.854-.856V99.392a.86.86 0 01.854-.856.86.86 0 01.854.856v26.005a.854.854 0 01-.854.856zM9.279 140.396a.86.86 0 01-.854-.855v-5.817c0-.468.387-.856.854-.856.466 0 .854.388.854.856v5.817a.854.854 0 01-.854.855zM4.953 140.396a.86.86 0 01-.854-.855v-12.547a.86.86 0 01.854-.855.86.86 0 01.853.855v12.547a.854.854 0 01-.853.855zM12.979 97.453h-1.594a.86.86 0 01-.854-.856.86.86 0 01.854-.855h1.594a.86.86 0 01.854.855.853.853 0 01-.854.856zM7.742 97.453H.911a.86.86 0 01-.854-.856.86.86 0 01.854-.855h6.831a.86.86 0 01.854.855.854.854 0 01-.854.856zM7.742 91.065H.911a.86.86 0 01-.854-.855.86.86 0 01.854-.855h6.831a.86.86 0 01.854.855.854.854 0 01-.854.855zM12.637 91.065h-1.252a.86.86 0 01-.854-.855.86.86 0 01.854-.855h1.252a.86.86 0 01.854.855.854.854 0 01-.854.855zM164.116 73.66h-4.486a.861.861 0 01-.854-.856c0-.467.388-.855.854-.855h3.632v-1.95h-18.535v1.95h5.397a.86.86 0 01.854.855.86.86 0 01-.854.856H143.873a.86.86 0 01-.853-.856v-3.661a.86.86 0 01.853-.855h20.243a.86.86 0 01.854.855v3.661a.853.853 0 01-.854.856z" fill="#2E2B28"/><path fill-rule="evenodd" clip-rule="evenodd" d="M161.816 73.66v-.856a.86.86 0 00-.854-.855.86.86 0 00-.853.855v.856h1.707zm-13.935 0v-.856a.86.86 0 00-.854-.855.86.86 0 00-.854.855v.856h1.708z" fill="#2E2B28"/><path d="M147.881 102.049c0 3.377 2.744 6.125 6.114 6.125 3.37 0 6.114-2.748 6.114-6.125v-28.39h-.479a.861.861 0 01-.854-.855c0-.467.388-.855.854-.855h3.632v-1.95h-18.535v1.95h5.397a.86.86 0 01.854.855.86.86 0 01-.854.856h-2.243v28.389z" fill="#FAEDAD"/><path d="M153.995 54.11c-7.218 0-13.993-2.817-19.093-7.927-5.101-5.11-7.913-11.908-7.913-19.128 0-7.231 2.812-14.018 7.913-19.128C139.991 2.817 146.777 0 153.995 0s13.992 2.817 19.092 7.927c5.101 5.11 7.913 11.908 7.913 19.128 0 7.231-2.812 14.018-7.913 19.128-5.1 5.121-11.886 7.927-19.092 7.927zm0-52.4c-13.947 0-25.298 11.373-25.298 25.345s11.351 25.344 25.298 25.344c13.946 0 25.297-11.372 25.297-25.344 0-13.972-11.351-25.344-25.297-25.344z" fill="#2E2B28"/><path d="M153.995 50.186c-12.729 0-23.089-10.38-23.089-23.131 0-12.752 10.36-23.131 23.089-23.131 12.728 0 23.089 10.38 23.089 23.131 0 12.752-10.361 23.131-23.089 23.131zm0-44.551c-11.795 0-21.381 9.603-21.381 21.42 0 11.817 9.586 21.42 21.381 21.42s21.381-9.603 21.381-21.42c0-11.817-9.598-21.42-21.381-21.42zM153.983 69.793a.86.86 0 01-.854-.855V53.426a.86.86 0 01.854-.856.86.86 0 01.854.856v15.512a.854.854 0 01-.854.855zM153.995 109.885c-4.315 0-7.822-3.513-7.822-7.836V72.804a.86.86 0 01.854-.855.86.86 0 01.854.855v29.245c0 3.377 2.744 6.125 6.114 6.125 3.37 0 6.114-2.748 6.114-6.125V72.804a.86.86 0 01.854-.855.86.86 0 01.853.855v29.245c0 4.323-3.506 7.836-7.821 7.836z" fill="#2E2B28"/><path d="M164.116 73.66h-4.486a.861.861 0 01-.854-.856c0-.467.388-.855.854-.855h3.632v-1.95h-18.535v1.95h5.397a.86.86 0 01.854.855.86.86 0 01-.854.856h-6.251a.86.86 0 01-.853-.856v-3.661a.86.86 0 01.853-.855h20.243a.86.86 0 01.854.855v3.661a.853.853 0 01-.854.856zM153.983 143.305H20.493a.861.861 0 01-.854-.856.86.86 0 01.854-.855h132.636v-24.865c0-.468.387-.856.854-.856.467 0 .854.388.854.856v25.72a.854.854 0 01-.854.856z" fill="#2E2B28"/></g><defs><clipPath id="clip0_4_9783"><path fill="#fff" d="M0 0h181v150H0z"/></clipPath></defs></svg>