<svg width="181" height="150" fill="none" xmlns="http://www.w3.org/2000/svg"><g clip-path="url(#clip0_4_9921)"><path d="M175 108.791C175 128.246 159.259 144 139.863 144c-19.395 0-35.136-15.754-35.136-35.209 0-19.455 15.741-35.209 35.136-35.209 19.396 0 35.137 15.754 35.137 35.209z" stroke="#FAEDAD" stroke-width="12"/><path d="M151.964 108.791c0 6.71-5.428 12.132-12.1 12.132-6.673 0-12.1-5.422-12.1-12.132s5.427-12.132 12.1-12.132c6.672 0 12.1 5.422 12.1 12.132z" stroke="#FAEDAD" stroke-width="12"/><path fill-rule="evenodd" clip-rule="evenodd" d="M25.092 93.77c-.024-.501-.339-.956-.79-1.128-.06-.023-.11-.024-.122.007-1.376-.313-1.743-.887-2.986-1.66a1.165 1.165 0 00-1.489.19L17.6 93.404l-2.85-3.865 2.132-2.25c.399-.395.46-1.04.157-1.525-.762-1.206-1.34-1.589-1.7-3.01a1.238 1.238 0 00-1.187-.929l-3.099.052-.053-5.21 3.072-.027a1.199 1.199 0 001.155-.968c.332-1.582.833-.922 1.532-2.1.296-.486.22-1.13-.183-1.53L14.341 69.8l2.904-4.066 2.26 2.27c.403.4 1.016.457 1.488.144a12.551 12.551 0 013.905-1.716c.543-.128.93-.632.92-1.217l-.038-2.165 5.074-.05.018 2.123c.01.585.395 1.084.95 1.207 1.456.326 1.723.844 2.912 1.58.488.308 1.1.225 1.49-.19l2.162-2.293 3.002 4.01-2.157 2.277a1.233 1.233 0 00-.157 1.525c.775 1.264 1.325 1.582 1.658 3.03a1.19 1.19 0 001.182.943l3.042-.038.044 5.19-3.078.041c-.548.002-1.04.414-1.154.969-.308 1.467-.836 1.833-1.578 3.082-.295.486-.22 1.13.183 1.53l2.202 2.195-2.853 3.016-2.196-2.21a1.18 1.18 0 00-1.487-.145 12.549 12.549 0 01-3.906 1.716c-.542.128-.93.632-.918 1.217l.037 3.165-5.095.06-.065-3.23zm-1.36-19.832l5.73-1.14 4.92 3.19.796 5.943-4.382 4.504-7.684-1.384-2.247-6.26 2.866-4.853z" fill="#79CCC2"/><path d="M99.23 103.918H5.786C2.593 103.918 0 101.32 0 98.122V5.358C0 2.402 2.397 0 5.348 0h125.541a5.46 5.46 0 015.452 5.461v62.432a.872.872 0 01-.865.866.871.871 0 01-.864-.866V5.461a3.732 3.732 0 00-3.723-3.729H5.348a3.628 3.628 0 00-3.62 3.626v92.775a4.067 4.067 0 004.058 4.065H99.23c.473 0 .865.392.865.866a.862.862 0 01-.865.854z" fill="#1E243A"/><path d="M122.165 14.664H1.152a.871.871 0 01-.864-.866c0-.473.392-.866.864-.866h121.013c.472 0 .864.393.864.866a.872.872 0 01-.864.866z" fill="#1E243A"/><path d="M24.606 13.452a.871.871 0 01-.864-.866V1.616c0-.473.392-.866.864-.866.473 0 .864.393.864.866v10.97a.871.871 0 01-.864.866zM8.217 10.184A3.166 3.166 0 015.06 7.02a3.166 3.166 0 013.157-3.163c1.74 0 3.158 1.42 3.158 3.163a3.166 3.166 0 01-3.158 3.164zm0-4.607a1.43 1.43 0 00-1.429 1.432 1.43 1.43 0 001.43 1.432c.783 0 1.429-.647 1.429-1.432 0-.785-.646-1.432-1.43-1.432zM17.449 10.184A3.166 3.166 0 0114.29 7.02a3.166 3.166 0 013.158-3.163c1.74 0 3.158 1.42 3.158 3.163a3.15 3.15 0 01-3.158 3.164zm0-4.607a1.43 1.43 0 00-1.43 1.432 1.43 1.43 0 102.859 0 1.423 1.423 0 00-1.43-1.432zM101.42 5.889H29.85a.871.871 0 01-.865-.866c0-.474.392-.866.865-.866h71.57c.472 0 .864.392.864.866a.872.872 0 01-.864.866zM68.343 10.392H29.85a.871.871 0 01-.865-.866c0-.474.392-.866.865-.866h38.493c.473 0 .865.392.865.866a.872.872 0 01-.865.866zM135.534 14.664h-4.38a.872.872 0 01-.864-.866c0-.473.392-.866.864-.866h4.38c.472 0 .864.393.864.866a.872.872 0 01-.864.866zM27.983 87.291a7.529 7.529 0 01-5.37-2.228c-2.963-2.968-2.963-7.794 0-10.762a7.593 7.593 0 0112.965 5.381 7.58 7.58 0 01-2.225 5.38 7.548 7.548 0 01-5.37 2.23zm-4.15-11.766c-2.281 2.286-2.281 6.016 0 8.314 2.283 2.286 6.005 2.286 8.299 0 2.282-2.286 2.282-6.016 0-8.314-2.294-2.286-6.016-2.286-8.298 0z" fill="#1E243A"/><path d="M29.826 97.475h-3.699a1.996 1.996 0 01-1.994-1.997v-2.54a.27.27 0 00-.196-.255c-.83-.219-1.636-.52-2.409-.889-.103-.046-.23-.034-.3.047l-1.74 1.743a1.97 1.97 0 01-1.405.589 1.95 1.95 0 01-1.406-.589l-2.594-2.598a1.976 1.976 0 01-.587-1.409c0-.53.207-1.039.587-1.408l1.499-1.501c.08-.081.103-.22.034-.324a13.506 13.506 0 01-1.198-2.632.274.274 0 00-.254-.185h-1.96c-.53 0-1.025-.208-1.405-.577a1.976 1.976 0 01-.588-1.409v-3.683c0-.531.207-1.04.588-1.409.38-.381.876-.577 1.406-.577h1.706c.115 0 .218-.081.253-.208.265-.982.657-1.951 1.141-2.875a.263.263 0 00-.046-.312l-1.187-1.19a2.003 2.003 0 010-2.817l2.662-2.667a1.994 1.994 0 012.812 0l1.187 1.19c.08.08.208.103.311.046.922-.497 1.902-.89 2.905-1.155a.27.27 0 00.196-.254v-1.709c0-.531.207-1.04.576-1.408.38-.382.876-.59 1.406-.59h3.688c.53 0 1.037.208 1.406.59.38.38.588.877.588 1.408v1.963c0 .115.069.208.184.254.9.312 1.787.716 2.616 1.2.104.059.242.047.323-.034l1.475-1.478a1.994 1.994 0 012.812 0l2.593 2.598c.38.381.588.878.588 1.409s-.207 1.04-.587 1.409l-1.73 1.731c-.08.081-.091.197-.045.3.368.763.668 1.571.887 2.414a.27.27 0 00.254.196h2.547c.53 0 1.025.208 1.406.59.38.38.587.877.587 1.408v3.695c0 .53-.207 1.039-.587 1.408-.38.381-.876.59-1.406.59h-2.79c-.115 0-.207.069-.253.184a13.688 13.688 0 01-.899 2.113.262.262 0 00.046.312l1.97 1.974a2.003 2.003 0 010 2.818l-2.661 2.667a1.97 1.97 0 01-1.406.589 1.95 1.95 0 01-1.406-.59l-1.971-1.974a.261.261 0 00-.311-.046c-.657.347-1.36.647-2.086.89a.275.275 0 00-.185.253v2.76c0 .53-.207 1.039-.588 1.408-.334.335-.83.543-1.36.543zm-8.401-7.436c.3 0 .6.07.876.197a12.04 12.04 0 002.097.785 2.002 2.002 0 011.475 1.928v2.54c0 .15.116.266.265.266h3.688c.093 0 .15-.046.185-.081a.253.253 0 00.08-.185v-2.76c0-.865.554-1.627 1.372-1.893a12.15 12.15 0 001.821-.774 1.99 1.99 0 012.351.347l1.97 1.974c.07.07.14.081.185.081a.236.236 0 00.185-.08l2.662-2.668a.286.286 0 00.08-.185.237.237 0 00-.08-.185l-1.97-1.974a1.982 1.982 0 01-.347-2.344c.312-.577.577-1.2.784-1.847a1.983 1.983 0 011.89-1.374h2.79c.091 0 .15-.047.184-.081a.253.253 0 00.08-.185v-3.695a.253.253 0 00-.08-.185.252.252 0 00-.185-.08h-2.547a1.997 1.997 0 01-1.924-1.49 12.053 12.053 0 00-.773-2.101 2.008 2.008 0 01.38-2.287l1.73-1.731a.286.286 0 00.08-.185.237.237 0 00-.08-.185l-2.594-2.598a.257.257 0 00-.368 0l-1.476 1.478a1.984 1.984 0 01-2.42.3 13.717 13.717 0 00-2.293-1.062 1.986 1.986 0 01-1.349-1.894v-1.963a.253.253 0 00-.08-.184.252.252 0 00-.185-.081h-3.688a.252.252 0 00-.184.08.253.253 0 00-.081.185v1.71c0 .9-.6 1.685-1.475 1.928-.888.242-1.74.577-2.547 1.016a1.99 1.99 0 01-2.351-.347l-1.187-1.19a.257.257 0 00-.37 0l-2.661 2.668a.258.258 0 000 .37l1.187 1.189a2 2 0 01.357 2.344 12.515 12.515 0 00-1.003 2.54 2.02 2.02 0 01-1.924 1.478H12.25a.252.252 0 00-.184.08.252.252 0 00-.081.186v3.683c0 .092.046.15.08.185.035.034.093.08.185.08h1.96c.852 0 1.613.543 1.89 1.363.264.797.622 1.57 1.048 2.31.461.784.334 1.789-.3 2.424l-1.498 1.501a.286.286 0 00-.08.185c0 .046.01.127.08.184l2.593 2.599c.07.069.139.08.185.08a.236.236 0 00.184-.08l1.74-1.744c.334-.37.853-.566 1.372-.566zM52.093 26.21h-39.07a.871.871 0 01-.864-.866c0-.473.391-.866.864-.866h39.07c.472 0 .864.393.864.866a.872.872 0 01-.864.866zM44.717 35.448H28.006a.872.872 0 01-.864-.866c0-.474.392-.866.864-.866h16.711c.473 0 .865.392.865.866a.872.872 0 01-.865.866zM73.76 93.873H59.7a.871.871 0 01-.865-.866c0-.474.392-.866.864-.866h14.06c.473 0 .865.392.865.866a.872.872 0 01-.864.866zM84.594 81.633h-15.79a.872.872 0 01-.864-.865c0-.474.392-.867.864-.867h15.79c.472 0 .864.393.864.867a.871.871 0 01-.864.865zM59.815 65.122h-9.796a.871.871 0 01-.865-.866c0-.473.392-.866.865-.866h9.796c.472 0 .864.393.864.866a.872.872 0 01-.864.866zM139.821 150c-5.566 0-10.96-1.085-16.031-3.245a40.95 40.95 0 01-13.092-8.833 40.881 40.881 0 01-8.817-13.116 41.182 41.182 0 01-3.238-16.062c0-5.576 1.083-10.98 3.238-16.06a41.073 41.073 0 018.817-13.117 40.782 40.782 0 0113.092-8.833 40.97 40.97 0 0116.031-3.245c5.567 0 10.961 1.085 16.032 3.245a40.979 40.979 0 0113.092 8.833 40.878 40.878 0 018.817 13.116A41.19 41.19 0 01181 108.744c0 5.577-1.083 10.981-3.238 16.062a41.076 41.076 0 01-8.817 13.116 40.767 40.767 0 01-13.092 8.833A40.927 40.927 0 01139.821 150zm0-80.906c-21.816 0-39.565 17.782-39.565 39.639 0 21.857 17.749 39.639 39.565 39.639 21.817 0 39.566-17.782 39.566-39.639 0-21.858-17.749-39.639-39.566-39.639z" fill="#1E243A"/><path d="M139.821 138.684c-7.987 0-15.501-3.117-21.137-8.763-5.647-5.658-8.747-13.175-8.747-21.176 0-8.002 3.112-15.53 8.747-21.177 5.648-5.657 13.15-8.763 21.137-8.763s15.501 3.117 21.137 8.763c5.647 5.658 8.748 13.175 8.748 21.177 0 8.001-3.112 15.53-8.748 21.176-5.647 5.646-13.15 8.763-21.137 8.763zm0-58.275c-15.593 0-28.27 12.713-28.27 28.324 0 15.622 12.689 28.323 28.27 28.323 15.594 0 28.271-12.712 28.271-28.323 0-15.61-12.689-28.324-28.271-28.324z" fill="#1E243A"/><path d="M139.821 127.034a18.122 18.122 0 01-12.907-5.357 18.195 18.195 0 01-5.348-12.932c0-4.885 1.902-9.48 5.348-12.933a18.121 18.121 0 0112.907-5.357c4.876 0 9.463 1.905 12.908 5.358a18.193 18.193 0 015.348 12.932c0 4.884-1.902 9.479-5.348 12.932a18.123 18.123 0 01-12.908 5.357zm0-34.974c-9.173 0-16.642 7.482-16.642 16.673 0 9.191 7.469 16.673 16.642 16.673 9.174 0 16.643-7.482 16.643-16.673 0-9.191-7.469-16.673-16.643-16.673z" fill="#1E243A"/><path d="M139.821 115.372c-3.653 0-6.627-2.979-6.627-6.639s2.974-6.639 6.627-6.639c3.654 0 6.627 2.979 6.627 6.639-.011 3.66-2.973 6.639-6.627 6.639zm0-11.65a5.021 5.021 0 00-5.013 5.023 5.02 5.02 0 005.013 5.022 5.022 5.022 0 005.014-5.022c-.012-2.772-2.259-5.023-5.014-5.023z" fill="#1E243A"/><path d="M140.075 109.726a.803.803 0 01-.565-.231L95.9 65.792a.799.799 0 111.13-1.132l43.609 43.692a.802.802 0 010 1.132.767.767 0 01-.564.242z" fill="#1E243A"/><path d="M104.336 73.92c-.035 0-.069 0-.104-.011l-17.737-2.17c-.346-.047-.83-.174-1.21-.544l-7.007-7.031a.817.817 0 010-1.143.813.813 0 011.14 0l7.008 7.031c.011.012.092.07.265.081l15.42 1.894-27.59-27.63a2.42 2.42 0 00-1.406-.682l-13.577-1.651c-.276-.035-.392.173-.426.23a.367.367 0 00.069.44l13.046 13.035h4.414c.45 0 .807.358.807.809 0 .45-.357.808-.807.808h-4.748a.783.783 0 01-.565-.231L58.04 43.877a1.971 1.971 0 01-.38-2.287 2.012 2.012 0 012.074-1.131l13.577 1.651c.887.115 1.728.52 2.35 1.143l29.24 29.293a.789.789 0 01.149.924.776.776 0 01-.714.45z" fill="#1E243A"/><path d="M104.244 74.013a.802.802 0 01-.565-.231L74.44 44.477a3.997 3.997 0 01-1.14-2.344l-1.683-13.579a1.97 1.97 0 011.106-2.043 1.977 1.977 0 012.293.38l6.258 6.27a.799.799 0 11-1.13 1.132l-6.257-6.27c-.184-.184-.38-.115-.461-.08a.367.367 0 00-.22.404l1.684 13.578c.069.531.31 1.028.68 1.409l27.59 27.642-1.913-15.414a.342.342 0 00-.115-.231L86.887 41.059v4.654a.81.81 0 01-.807.808.81.81 0 01-.806-.809V39.12a.804.804 0 011.371-.565l15.628 15.657c.311.311.519.727.576 1.166l2.201 17.735a.807.807 0 01-.437.82c-.127.046-.243.08-.369.08zM27.141 112.636a.872.872 0 01-.864-.866v-1.501c0-.474.392-.866.864-.866.473 0 .865.392.865.866v1.501a.872.872 0 01-.865.866zM27.141 128.223a.871.871 0 01-.864-.866v-2.771c0-.473.392-.866.864-.866.473 0 .865.393.865.866v2.771a.871.871 0 01-.865.866zm0-7.851a.872.872 0 01-.864-.866v-2.771c0-.474.392-.866.864-.866.473 0 .865.392.865.866v2.771a.872.872 0 01-.865.866zM28.582 134.747h-1.44a.871.871 0 01-.865-.866v-1.443c0-.474.392-.866.864-.866.473 0 .865.392.865.866v.577h.576c.472 0 .864.393.864.866a.871.871 0 01-.864.866zM90.356 134.747H87.59a.871.871 0 01-.864-.866c0-.473.391-.866.864-.866h2.766c.472 0 .864.393.864.866a.871.871 0 01-.864.866zm-7.722 0h-2.766a.871.871 0 01-.864-.866c0-.473.392-.866.864-.866h2.766c.473 0 .865.393.865.866a.871.871 0 01-.865.866zm-7.722 0h-2.766a.871.871 0 01-.864-.866c0-.473.392-.866.864-.866h2.766c.473 0 .865.393.865.866a.871.871 0 01-.865.866zm-7.721 0h-2.766a.871.871 0 01-.865-.866c0-.473.392-.866.865-.866h2.766c.472 0 .864.393.864.866a.871.871 0 01-.864.866zm-7.722 0h-2.766a.871.871 0 01-.864-.866c0-.473.391-.866.864-.866h2.766c.472 0 .864.393.864.866a.871.871 0 01-.864.866zm-7.722 0h-2.766a.871.871 0 01-.864-.866c0-.473.392-.866.864-.866h2.766c.473 0 .865.393.865.866a.871.871 0 01-.865.866zm-7.721 0h-2.767a.871.871 0 01-.864-.866c0-.473.392-.866.864-.866h2.767c.472 0 .864.393.864.866a.871.871 0 01-.864.866zm-7.722 0h-2.766a.871.871 0 01-.865-.866c0-.473.392-.866.865-.866h2.766c.472 0 .864.393.864.866a.871.871 0 01-.864.866zM96.695 134.747h-1.499a.871.871 0 01-.864-.866c0-.473.392-.866.864-.866h1.499c.472 0 .864.393.864.866a.871.871 0 01-.864.866zM159.068 34.986a1.148 1.148 0 01-.553-1.536 1.143 1.143 0 011.532-.554c.577.265.83.958.554 1.535-.196.416-.611.67-1.049.67a1.03 1.03 0 01-.484-.115zm3.354-.578a1.15 1.15 0 112.051-1.04 1.15 1.15 0 01-.507 1.549c-.161.08-.346.127-.519.127-.415 0-.83-.243-1.025-.636zm-6.454-3.233a1.147 1.147 0 01.852-1.385 1.145 1.145 0 011.383.854 1.147 1.147 0 01-.852 1.386 1.125 1.125 0 01-.266.035c-.518 0-.991-.358-1.117-.89zm9.623.74a1.155 1.155 0 01.461-2.263c.622.126 1.026.738.899 1.362a1.158 1.158 0 01-1.13.924c-.08 0-.149 0-.23-.024zm-8.367-3.903a1.145 1.145 0 01-.185-1.617 1.152 1.152 0 011.625-.184c.496.392.588 1.12.185 1.616a1.152 1.152 0 01-.899.439 1.256 1.256 0 01-.726-.254zm6.765-.266a1.156 1.156 0 01.138-1.628 1.151 1.151 0 011.625.139 1.166 1.166 0 01-.138 1.628 1.118 1.118 0 01-.738.265c-.334 0-.668-.138-.887-.404zm-3.7-2.344c0-.635.519-1.154 1.153-1.154s1.152.52 1.152 1.154c0 .635-.518 1.155-1.152 1.155-.634 0-1.153-.52-1.153-1.155zM5.728 145.278a1.149 1.149 0 01-.553-1.536 1.144 1.144 0 011.533-.554c.576.265.83.958.553 1.535-.196.416-.611.67-1.049.67a1.04 1.04 0 01-.484-.115zm3.354-.578a1.153 1.153 0 01.507-1.547 1.146 1.146 0 011.544.508 1.153 1.153 0 01-1.026 1.674c-.414 0-.83-.231-1.025-.635zm-6.454-3.233a1.147 1.147 0 01.853-1.385 1.145 1.145 0 011.383.854 1.148 1.148 0 01-.853 1.386 1.117 1.117 0 01-.265.034c-.519 0-.992-.358-1.118-.889zm9.623.739a1.155 1.155 0 01.461-2.263c.622.127 1.026.739.899 1.363a1.158 1.158 0 01-1.13.923c-.08 0-.15 0-.23-.023zm-8.367-3.903a1.144 1.144 0 01-.184-1.616 1.152 1.152 0 011.625-.185c.495.393.587 1.12.184 1.617-.23.288-.565.438-.899.438a1.251 1.251 0 01-.726-.254zm6.765-.265a1.156 1.156 0 01.138-1.628 1.15 1.15 0 011.625.138 1.166 1.166 0 01-.138 1.628 1.116 1.116 0 01-.737.266 1.113 1.113 0 01-.888-.404zm-3.7-2.344c0-.635.52-1.155 1.153-1.155.634 0 1.153.52 1.153 1.155s-.52 1.155-1.153 1.155c-.634 0-1.152-.52-1.152-1.155zM170.973 66.565a.872.872 0 01-.864-.866v-5.888c0-.474.392-.866.864-.866.473 0 .865.392.865.866v5.888a.872.872 0 01-.865.866z" fill="#1E243A"/><path d="M173.912 63.621h-5.878a.872.872 0 01-.864-.866c0-.473.392-.866.864-.866h5.878a.87.87 0 01.864.866.87.87 0 01-.864.866zM56.53 123.836a.872.872 0 01-.864-.866v-5.889c0-.473.392-.866.864-.866.473 0 .865.393.865.866v5.889a.872.872 0 01-.865.866z" fill="#1E243A"/><path d="M59.47 120.891H53.59a.871.871 0 01-.864-.866c0-.473.392-.866.864-.866h5.878c.473 0 .864.393.864.866a.871.871 0 01-.864.866z" fill="#1E243A"/></g><defs><clipPath id="clip0_4_9921"><path fill="#fff" d="M0 0h181v150H0z"/></clipPath></defs></svg>