<svg width="182" height="155" fill="none" xmlns="http://www.w3.org/2000/svg"><g clip-path="url(#clip0_4_10135)"><path d="M2 6h5v38H2V6zM7 40v4l15.5.5v-4L7 40zM64.5 5.5L68 6v21l-4.5.5.84-22h.16zM120 82h5v9h-5zM134 73h5v18h-5zM148 58h5v34h-5z" fill="#79CCC2"/><path d="M32.559 104.03h10.247V80.953c0-9.783-7.928-17.734-17.684-17.734S7.437 71.169 7.437 80.953v23.077H16.9c.192 0 .371.054.523.149l.473-3.179-5.396-6-.5-12.5 4.9-1.547L23 77l1.5-3 1 2 4.5 4.5 7.5 1.5.5 13-5.441 6.5v2.53z" fill="#FAEDAD"/><path d="M26.058 106.027h-1.873a6.178 6.178 0 01-4.38-1.797l-6.864-6.753a6.312 6.312 0 01-1.874-4.475V82.068a.996.996 0 111.991 0v10.946c0 1.14.469 2.255 1.277 3.053l6.863 6.753a4.23 4.23 0 002.986 1.222h1.874a4.251 4.251 0 002.987-1.222l6.863-6.752a4.328 4.328 0 001.276-3.054V82.08a.996.996 0 111.992 0v10.934c0 1.668-.68 3.3-1.874 4.475l-6.863 6.753a6.218 6.218 0 01-4.38 1.785z" fill="#2E2B28"/><path d="M17.568 113.837a.997.997 0 01-.996-.999v-12.096a.996.996 0 111.991 0v12.096a.997.997 0 01-.995.999zM32.559 113.837a.997.997 0 01-.995-.999v-11.861a.996.996 0 111.99 0v11.861a.997.997 0 01-.995.999z" fill="#2E2B28"/><path d="M43.802 106.027H32.558a.997.997 0 01-.995-.999c0-.552.445-.998.995-.998h10.248V80.953c0-9.783-7.929-17.734-17.684-17.734-9.756 0-17.685 7.95-17.685 17.734v23.077H16.9c.55 0 .995.446.995.998a.997.997 0 01-.995.999H6.44a.997.997 0 01-.995-.999V80.953c0-10.875 8.83-19.73 19.675-19.73 10.846 0 19.676 8.855 19.676 19.73v24.075a.997.997 0 01-.995.999z" fill="#2E2B28"/><path d="M37.829 83.067c-3.362 0-6.817-1.045-9.475-2.854-1.651-1.128-2.905-2.49-3.713-3.993-.738 1.515-1.897 2.865-3.42 3.981-2.506 1.82-5.844 2.878-9.158 2.878a.996.996 0 01-.996-.999c0-.552.445-.998.996-.998 2.904 0 5.82-.904 7.987-2.49 1.616-1.186 3.549-3.265 3.549-6.494a.996.996 0 111.99 0c0 5.379 6.325 8.984 12.24 8.984.55 0 .995.446.995.998 0 .54-.445.987-.995.987zM.995 154.753a.996.996 0 01-.995-.998v-27.458c0-8.879 7.203-16.101 16.057-16.101h.902c.55 0 .995.446.995.998a.996.996 0 01-.995.998h-.902c-7.753 0-14.066 6.33-14.066 14.105v27.458a.996.996 0 01-.996.998zM49.248 154.753a.996.996 0 01-.995-.998v-27.458c0-7.775-6.313-14.105-14.066-14.105h-1.125a.996.996 0 01-.995-.998c0-.552.445-.998.995-.998h1.125c8.854 0 16.056 7.222 16.056 16.101v27.458a.996.996 0 01-.995.998z" fill="#2E2B28"/><path d="M39 154.706a.996.996 0 01-.995-.998v-24.075a.997.997 0 111.99 0v24.075a.996.996 0 01-.995.998zM11.126 154.706a.996.996 0 01-.995-.998v-24.075a.997.997 0 111.99 0v24.075a.996.996 0 01-.995.998zM162.687 128.576H49.236a.997.997 0 01-.996-.999c0-.552.445-.998.996-.998h112.456V28.362H23.704v33.87a.996.996 0 11-1.99 0V27.364c0-.552.444-.998.995-.998h139.978c.551 0 .996.446.996.998v100.225c0 .54-.445.987-.996.987z" fill="#2E2B28"/><path d="M22.709 41.093H6.44a.996.996 0 01-.995-.998V.998C5.446.446 5.89 0 6.44 0H30.79c.773 0 1.51.235 2.143.67l2.085 1.456 1.92-1.398A3.758 3.758 0 0139.153 0H63.63c.55 0 .995.446.995.998v25.873a.996.996 0 11-1.99 0V1.997H39.151c-.375 0-.738.117-1.042.34l-2.495 1.82a.983.983 0 01-1.148.012l-2.67-1.855a1.71 1.71 0 00-1.007-.317H7.437v37.1h15.272c.55 0 .995.446.995.998a.996.996 0 01-.995.998z" fill="#2E2B28"/><path d="M21.82 45.156H2.213a.996.996 0 01-.996-.998V5.696c0-.552.445-.998.996-.998h4.228c.55 0 .995.446.995.998a.996.996 0 01-.995.998H3.209V43.16h18.61c.55 0 .996.446.996.998a.996.996 0 01-.996.998zM67.858 27.869a.996.996 0 01-.996-.998V6.694h-2.647a.996.996 0 01-.995-.998c0-.552.445-.998.995-.998h3.643c.55 0 .995.446.995.998V26.87a.996.996 0 01-.995.998zM35.018 27.869a.996.996 0 01-.995-.998V3.382a.996.996 0 111.99 0v23.489a.996.996 0 01-.995.998zM97.383 56.349H35.018a.996.996 0 01-.995-.999V36.266a.996.996 0 111.99 0v18.086h61.37c.55 0 .995.446.995.998a.996.996 0 01-.995.999zM153.365 92.52h-33.262a.996.996 0 01-.995-.998c0-.551.445-.998.995-.998h33.262c.55 0 .995.447.995.998a.996.996 0 01-.995.999z" fill="#2E2B28"/><path d="M42.748 56.29a.996.996 0 01-.996-.998v-5.403a.996.996 0 111.991 0v5.403a.996.996 0 01-.995.998zM50.595 56.29a.996.996 0 01-.996-.998V43.078a.996.996 0 111.991 0v12.214a.996.996 0 01-.995.998zM58.324 56.29a.996.996 0 01-.995-.998v-6.107a.996.996 0 111.99 0v6.107a.996.996 0 01-.995.998zM66.171 56.407a.996.996 0 01-.995-.998v-10.1a.996.996 0 111.99 0v10.1a.996.996 0 01-.995.998zM73.9 56.29a.996.996 0 01-.995-.998v-3.054a.996.996 0 111.991 0v3.054a.996.996 0 01-.995.998zM81.748 56.29a.996.996 0 01-.996-.998V43.078a.996.996 0 111.991 0v12.214a.996.996 0 01-.995.998zM89.477 56.407a.996.996 0 01-.995-.998V37.675a.996.996 0 111.99 0V55.41a.996.996 0 01-.995.998zM97.383 74.552H49.248a.996.996 0 01-.996-.998c0-.552.445-.998.996-.998h48.135c.55 0 .996.446.996.998a.996.996 0 01-.996.998zM97.383 92.52H49.248a.996.996 0 01-.996-.998c0-.551.445-.998.996-.998h48.135c.55 0 .996.447.996.998a.996.996 0 01-.996.999zM143.761 110.607H52.527a.996.996 0 01-.995-.998c0-.552.445-.999.995-.999h91.234c.551 0 .996.447.996.999a.996.996 0 01-.996.998zM124.765 92.52h-4.662a.996.996 0 01-.995-.998v-9.454c0-.552.445-.998.995-.998h4.662c.55 0 .995.447.995.998v9.454a.996.996 0 01-.995.999zm-3.666-1.996h2.67v-7.457h-2.67v7.457zM139.065 92.52h-4.661a.996.996 0 01-.996-.997V72.086c0-.552.445-.998.996-.998h4.661c.55 0 .995.446.995.998v19.437a.996.996 0 01-.995.998zm-3.666-1.996h2.67v-17.44h-2.67v17.44zM153.365 92.52h-4.661a.996.996 0 01-.996-.997V57.488c0-.552.445-.998.996-.998h4.661c.55 0 .995.446.995.998v34.035a.996.996 0 01-.995.998zm-3.666-1.996h2.67V58.486h-2.67v32.038zM26.058 11.72h-13.82a.996.996 0 01-.995-.998c0-.551.445-.998.996-.998h13.82c.55 0 .995.447.995.998a.996.996 0 01-.995.999zM26.058 21.586h-13.82a.996.996 0 01-.995-.998c0-.552.445-.999.996-.999h13.82c.55 0 .995.447.995.999a.996.996 0 01-.995.998zM22.662 31.334H12.004a.996.996 0 01-.995-.999c0-.552.445-.998.995-.998h10.658c.55 0 .995.446.995.998a.996.996 0 01-.995.998zM57.797 11.72h-13.82a.996.996 0 01-.995-.998c0-.551.445-.998.995-.998h13.82c.55 0 .996.447.996.998a.996.996 0 01-.996.999zM57.797 21.586h-13.82a.996.996 0 01-.995-.998c0-.552.445-.999.995-.999h13.82c.55 0 .996.447.996.999a.996.996 0 01-.996.998zM171.401 155h-54.694a.996.996 0 01-.995-.998c0-.552.445-.998.995-.998h54.694c.551 0 .996.446.996.998a.996.996 0 01-.996.998zM181.005 140.555h-28.811a.997.997 0 01-.996-.999c0-.552.445-.998.996-.998h28.811c.55 0 .995.446.995.998a.997.997 0 01-.995.999zM93.6 154.06a3.293 3.293 0 01-3.28-3.288 3.293 3.293 0 013.28-3.288 3.293 3.293 0 013.28 3.288 3.293 3.293 0 01-3.28 3.288zm0-4.58c-.714 0-1.288.576-1.288 1.292 0 .716.574 1.292 1.288 1.292.715 0 1.288-.576 1.288-1.292 0-.716-.585-1.292-1.288-1.292zM176.437 28.221a3.293 3.293 0 01-3.279-3.288 3.293 3.293 0 013.279-3.288 3.293 3.293 0 013.279 3.288 3.293 3.293 0 01-3.279 3.288zm0-4.592c-.714 0-1.288.576-1.288 1.292 0 .717.574 1.292 1.288 1.292.714 0 1.288-.575 1.288-1.292 0-.704-.574-1.292-1.288-1.292zM62.306 141.67a.996.996 0 01-.995-.998v-3.288a.997.997 0 111.99 0v3.288a.996.996 0 01-.995.998z" fill="#2E2B28"/><path d="M64.004 140.085h-3.279a.996.996 0 01-.995-.998c0-.552.445-.999.995-.999h3.28c.55 0 .995.447.995.999a.996.996 0 01-.996.998zM91.234 21.997a.996.996 0 01-.995-.998V17.71a.996.996 0 111.99 0V21a.996.996 0 01-.995.998z" fill="#2E2B28"/><path d="M92.933 20.411h-3.28a.996.996 0 01-.995-.998c0-.552.445-.998.995-.998h3.28c.55 0 .995.446.995.998a.996.996 0 01-.995.998zM178.018 86.238a.997.997 0 01-.996-.999v-3.288a.997.997 0 111.991 0v3.288a.996.996 0 01-.995.999z" fill="#2E2B28"/><path d="M179.716 84.652h-3.279a.996.996 0 01-.996-.998c0-.552.445-.998.996-.998h3.279c.551 0 .996.446.996.998a.996.996 0 01-.996.998z" fill="#2E2B28"/></g><defs><clipPath id="clip0_4_10135"><path fill="#fff" d="M0 0h182v155H0z"/></clipPath></defs></svg>