<svg width="183" height="152" fill="none" xmlns="http://www.w3.org/2000/svg"><g clip-path="url(#clip0_4_9685)"><path d="M78.287 145.645a1.29 1.29 0 01.907-1.583 1.299 1.299 0 011.591.903 1.29 1.29 0 01-1.249 1.63 1.283 1.283 0 01-1.249-.95zm-3.452.446a1.291 1.291 0 01-.612-1.724 1.303 1.303 0 011.732-.61c.648.305.919 1.079.612 1.724a1.277 1.277 0 01-1.166.727 1.224 1.224 0 01-.566-.117zm7.352-2.122a1.293 1.293 0 01-.353-1.794 1.306 1.306 0 011.802-.352c.59.399.754 1.196.354 1.794-.248.363-.66.563-1.073.563a1.189 1.189 0 01-.73-.211zm-10.862-1.501a1.288 1.288 0 01.671-1.7 1.302 1.302 0 011.708.668 1.292 1.292 0 01-1.19 1.806c-.494 0-.966-.282-1.19-.774zm11.274-3.436a1.292 1.292 0 011.131-1.43 1.295 1.295 0 011.438 1.126 1.292 1.292 0 01-1.131 1.43c-.047.012-.106.012-.154.012-.636.011-1.201-.481-1.284-1.138zm-10.697.036a1.297 1.297 0 01-.86-1.618 1.3 1.3 0 011.626-.856c.683.211 1.072.938.86 1.618a1.307 1.307 0 01-1.237.914c-.13-.012-.26-.023-.39-.058zm9.213-2.908a1.28 1.28 0 01-.083-1.818 1.294 1.294 0 011.827-.082 1.28 1.28 0 01.082 1.818c-.26.281-.6.422-.954.422a1.34 1.34 0 01-.872-.34zm-7.399-.915a1.292 1.292 0 01.413-1.782 1.306 1.306 0 011.79.41c.377.598.2 1.396-.412 1.783a1.319 1.319 0 01-.683.199 1.349 1.349 0 01-1.108-.61zm4.972-.246a1.287 1.287 0 11.389-2.544c.707.105 1.19.762 1.084 1.465a1.291 1.291 0 01-1.285 1.091c-.059 0-.117 0-.188-.012zM8.377 72.283a1.29 1.29 0 01.907-1.583 1.298 1.298 0 011.59.903 1.29 1.29 0 01-1.249 1.63 1.293 1.293 0 01-1.248-.95zm-3.44.446a1.29 1.29 0 01-.613-1.724 1.303 1.303 0 011.732-.61 1.29 1.29 0 01.612 1.724 1.297 1.297 0 01-1.166.727c-.2.012-.389-.035-.566-.117zm7.34-2.122a1.293 1.293 0 01-.354-1.794c.4-.587 1.202-.75 1.802-.34a1.29 1.29 0 01-1.449 2.134zM1.425 69.106a1.292 1.292 0 01.671-1.7 1.303 1.303 0 011.708.668 1.292 1.292 0 01-1.19 1.806c-.506 0-.977-.293-1.19-.774zM12.7 65.67a1.292 1.292 0 011.131-1.43 1.295 1.295 0 011.438 1.125 1.292 1.292 0 01-1.131 1.43c-.047 0-.106.012-.153.012-.648 0-1.214-.48-1.285-1.138zm-10.697.023a1.297 1.297 0 01-.86-1.618 1.3 1.3 0 012.486.762 1.307 1.307 0 01-1.237.915c-.142 0-.271-.012-.39-.06zm9.213-2.896a1.278 1.278 0 01-.082-1.817 1.293 1.293 0 011.826-.083c.53.481.565 1.302.082 1.818-.26.281-.6.422-.954.422-.306 0-.625-.117-.872-.34zm-7.399-.926a1.292 1.292 0 01.413-1.782c.6-.376 1.402-.2 1.79.41.377.598.2 1.395-.412 1.782a1.293 1.293 0 01-1.79-.41zm4.96-.235a1.298 1.298 0 01-1.084-1.477 1.291 1.291 0 011.473-1.079 1.291 1.291 0 01-.2 2.568c-.047 0-.118 0-.189-.012zM102.392 18.49a1.29 1.29 0 01.907-1.583 1.297 1.297 0 011.59.903 1.29 1.29 0 01-.907 1.583 1.293 1.293 0 01-1.59-.903zm-3.44.446a1.291 1.291 0 01-.613-1.724 1.303 1.303 0 011.732-.61 1.29 1.29 0 01.612 1.724 1.275 1.275 0 01-1.166.727c-.2.011-.389-.024-.565-.117zm7.339-2.123a1.293 1.293 0 01-.353-1.794 1.295 1.295 0 011.803-.34 1.29 1.29 0 11-1.45 2.134zm-10.85-1.489a1.292 1.292 0 01.671-1.7 1.303 1.303 0 011.709.668 1.292 1.292 0 01-1.19 1.806c-.507 0-.978-.293-1.19-.774zm11.275-3.435a1.291 1.291 0 011.131-1.43 1.296 1.296 0 011.437 1.125 1.292 1.292 0 01-1.131 1.43c-.047 0-.106.012-.153.012-.648 0-1.214-.48-1.284-1.137zm-10.698.023a1.297 1.297 0 01-.86-1.618 1.3 1.3 0 012.486.762 1.307 1.307 0 01-1.237.915 1.35 1.35 0 01-.389-.059zm9.213-2.907a1.278 1.278 0 01-.082-1.818 1.293 1.293 0 011.826-.082c.53.48.565 1.302.082 1.818a1.283 1.283 0 01-.954.422c-.306 0-.624-.106-.872-.34zm-7.399-.915a1.292 1.292 0 01.413-1.782 1.304 1.304 0 011.791.41c.377.598.2 1.396-.413 1.782a1.32 1.32 0 01-.683.2 1.32 1.32 0 01-1.108-.61zm4.96-.246a1.292 1.292 0 11.389-2.556 1.291 1.291 0 01-.2 2.568c-.047.011-.118 0-.189-.012zM62.971 82.25H49.188a.888.888 0 01-.883-.88c0-.48.4-.88.883-.88h13.785c.483 0 .883.4.883.88s-.4.88-.883.88z" fill="#2E2B28"/><path d="M129.595 116.075h-77.31c-2.25 0-4.075-1.817-4.075-4.056V63.525c0-2.24 1.826-4.057 4.076-4.057h77.309c2.25 0 4.077 1.817 4.077 4.057v48.505a4.08 4.08 0 01-4.077 4.045zm-77.31-54.848a2.307 2.307 0 00-2.308 2.298v48.505a2.307 2.307 0 002.309 2.298h77.309a2.306 2.306 0 002.309-2.298V63.525a2.307 2.307 0 00-2.309-2.298h-77.31z" fill="#2E2B28"/><path d="M52.286 61.227a2.307 2.307 0 00-2.31 2.298v48.505a2.307 2.307 0 002.31 2.298h77.309a2.306 2.306 0 002.309-2.298V63.525a2.307 2.307 0 00-2.309-2.298h-77.31z" fill="#79CCC2"/><path d="M132.835 82.25h-13.902a.888.888 0 01-.884-.88c0-.48.401-.88.884-.88h13.902c.483 0 .884.4.884.88s-.401.88-.884.88zM112.571 82.25H69.569a.888.888 0 01-.883-.88c0-.48.4-.88.883-.88h43.002c.483 0 .884.4.884.88s-.401.88-.884.88z" fill="#2E2B28"/><path d="M68.933 85.544H63.36a.888.888 0 01-.883-.88v-7.198c0-.481.4-.88.883-.88h5.573c.483 0 .883.399.883.88v7.199a.88.88 0 01-.883.879zm-4.69-1.759h3.806v-5.44h-3.805v5.44zM118.485 85.544h-5.573a.887.887 0 01-.883-.88v-7.198c0-.481.4-.88.883-.88h5.573c.483 0 .884.399.884.88v7.199a.88.88 0 01-.884.879zm-4.689-1.759h3.805v-5.44h-3.805v5.44zM109.26 61.227a.887.887 0 01-.883-.88V49.42c0-1.29-1.06-2.345-2.356-2.345h-30.16a2.358 2.358 0 00-2.357 2.345v10.927c0 .481-.4.88-.884.88a.888.888 0 01-.883-.88V49.42c0-2.263 1.85-4.104 4.123-4.104h30.161c2.273 0 4.123 1.841 4.123 4.104v10.927a.88.88 0 01-.884.88z" fill="#2E2B28"/><path d="M102.086 60.934a.888.888 0 01-.884-.88v-6.401c0-.2-.165-.352-.353-.352H81.032c-.2 0-.353.164-.353.352v6.401c0 .481-.4.88-.884.88a.888.888 0 01-.883-.88v-6.401c0-1.161.954-2.11 2.12-2.11h19.817c1.166 0 2.12.949 2.12 2.11v6.401c0 .493-.4.88-.883.88zM159.909 53.078h-44.393a.887.887 0 01-.883-.88V24.88c0-.48.4-.88.883-.88h44.404c.483 0 .884.4.884.88v27.319a.899.899 0 01-.895.88zM116.4 51.32h42.637V25.76H116.4v25.56z" fill="#2E2B28"/><path d="M116.4 51.32h42.637V25.76H116.4v25.56z" fill="#FAEDAD"/><path d="M167.237 45.082h-6.963a.888.888 0 01-.884-.88c0-.48.401-.879.884-.879h6.079v-25.56h-42.637v6.777c0 .48-.4.88-.883.88a.888.888 0 01-.884-.88v-7.656c0-.481.401-.88.884-.88h44.404c.483 0 .883.399.883.88v27.318a.88.88 0 01-.883.88z" fill="#2E2B28"/><path d="M174.659 36.992h-6.963a.888.888 0 01-.884-.88c0-.48.401-.88.884-.88h6.079V9.673h-42.637v6.778c0 .48-.4.88-.883.88a.888.888 0 01-.884-.88V8.794c0-.481.401-.88.884-.88h44.404c.483 0 .883.399.883.88v27.318a.88.88 0 01-.883.88z" fill="#2E2B28"/><path d="M182.117 29.077h-6.963a.888.888 0 01-.884-.879c0-.48.401-.88.884-.88h6.079V1.759h-42.637v6.778c0 .48-.4.879-.883.879a.888.888 0 01-.884-.88V.88c0-.48.401-.879.884-.879h44.404c.483 0 .883.399.883.88v27.318a.88.88 0 01-.883.88zM43.556 152H.884a.888.888 0 01-.884-.879v-42.467c0-.481.4-.88.884-.88h42.672c.483 0 .883.399.883.88v42.467a.88.88 0 01-.883.879zm-41.789-1.759h40.905v-40.708H1.767v40.708z" fill="#2E2B28"/><path d="M43.297 144.156H1.119a.887.887 0 01-.883-.879c0-.481.4-.88.883-.88h42.178c.483 0 .883.399.883.88s-.4.879-.883.879zM25.52 133.818a.876.876 0 01-.624-.258L14.62 123.345l-9.527 9.469a.892.892 0 01-1.248 0 .882.882 0 010-1.243l10.15-10.091a.892.892 0 011.249 0l10.912 10.837a.882.882 0 010 1.243.883.883 0 01-.637.258z" fill="#2E2B28"/><path d="M40.087 134.221a.876.876 0 01-.624-.258l-6.593-6.55-6.456 6.425a.892.892 0 01-1.25 0 .88.88 0 010-1.242l7.081-7.047a.886.886 0 011.25 0l7.216 7.171a.882.882 0 01-.624 1.501zM52.722 11.549H18.438a.888.888 0 01-.884-.88c0-.48.4-.879.884-.879h34.284c.483 0 .883.399.883.88 0 .48-.4.879-.883.879zM62.264 25.736H32.222a.888.888 0 01-.884-.88c0-.48.4-.879.884-.879h30.042c.483 0 .884.399.884.88 0 .48-.4.879-.884.879zM72.632 25.501h-4.241a.888.888 0 01-.884-.879c0-.48.4-.88.884-.88h4.241c.483 0 .884.4.884.88s-.4.88-.884.88zM45.653 39.454H11.958a.888.888 0 01-.883-.88c0-.48.4-.879.883-.879h33.695c.483 0 .884.399.884.88 0 .492-.4.879-.884.879zM8.07 11.549H2.77a.888.888 0 01-.884-.88c0-.48.4-.879.884-.879H8.07c.484 0 .884.399.884.88 0 .48-.4.879-.884.879zM159.225 150.839h-26.508a.888.888 0 01-.884-.879c0-.481.401-.879.884-.879h26.508c.483 0 .884.398.884.879a.888.888 0 01-.884.879zM165.823 126.569h-32.988a.888.888 0 01-.884-.879c0-.481.401-.88.884-.88h32.988c.483 0 .883.399.883.88 0 .48-.4.879-.883.879zM178.9 138.763h-23.327a.889.889 0 01-.884-.88c0-.48.401-.879.884-.879H178.9c.483 0 .883.399.883.879 0 .481-.4.88-.883.88zM149.329 138.763h-6.834a.888.888 0 01-.883-.88c0-.48.4-.879.883-.879h6.834c.483 0 .883.399.883.879 0 .481-.4.88-.883.88zM122.821 150.839h-3.888a.888.888 0 01-.884-.879c0-.481.401-.879.884-.879h3.888c.483 0 .883.398.883.879s-.4.879-.883.879z" fill="#2E2B28"/></g><defs><clipPath id="clip0_4_9685"><path fill="#fff" d="M0 0h183v152H0z"/></clipPath></defs></svg>