<svg width="168" height="139" fill="none" xmlns="http://www.w3.org/2000/svg"><g clip-path="url(#clip0_4_10003)"><path d="M1 99a8 8 0 018-8h47v6.706c0 1.499-.421 2.968-1.216 4.24l-2.568 4.108a8.003 8.003 0 00-1.216 4.24V138H9a8 8 0 01-8-8V99z" fill="#79CCC2"/><path d="M111.051 100.563v-46.49c0-14.883-12.103-26.984-26.989-26.984-14.885 0-26.988 12.1-26.988 26.984v45.758C59.382 98.887 64.6 97 67 97c3 0 7.5-.5 8-1 .4-.4 1.166-5.833 1.5-8.5L63.716 73V52.5l40.693.5v18.5L102.5 76l-11 11.5V94l3 2.5 14 2 2.551 2.063z" fill="#FAEDAD"/><path d="M85.653 91.255h-3.18a7.089 7.089 0 01-5.053-2.092L65.903 77.606a12.445 12.445 0 01-3.651-8.838V44.294a.888.888 0 111.778 0v24.484c0 2.866 1.11 5.554 3.138 7.583l11.518 11.547a5.343 5.343 0 003.797 1.58h3.18a5.3 5.3 0 003.797-1.58l11.507-11.557a10.682 10.682 0 003.139-7.583V44.294a.888.888 0 111.778 0v24.484c0 3.337-1.297 6.474-3.651 8.838L90.705 89.163a7.089 7.089 0 01-5.052 2.092z" fill="#2E2B28"/><path d="M111.94 101.452a.888.888 0 01-.889-.889v-46.49c0-14.883-12.103-26.984-26.989-26.984-14.885 0-26.988 12.1-26.988 26.984v45.758a.888.888 0 11-1.779 0V54.073c0-7.687 2.992-14.904 8.421-20.343 5.43-5.428 12.658-8.42 20.346-8.42 7.69 0 14.907 2.992 20.347 8.42 5.429 5.428 8.421 12.656 8.421 20.343v46.49a.889.889 0 01-.89.889z" fill="#2E2B28"/><path d="M104.555 53.707H63.654a.888.888 0 110-1.778h40.901a.889.889 0 110 1.778zM78.456 67.481H67.995a3.118 3.118 0 01-2.239-.94 3.04 3.04 0 01-.878-2.26l.146-5.115a3.115 3.115 0 013.117-3.033H78.31a3.108 3.108 0 013.118 3.033l.146 5.115a3.123 3.123 0 01-.879 2.26 3.1 3.1 0 01-2.238.94zm-10.315-9.57c-.732 0-1.318.576-1.339 1.297l-.146 5.115a1.34 1.34 0 001.339 1.38h10.46a1.34 1.34 0 001.339-1.38l-.146-5.115a1.326 1.326 0 00-1.339-1.297H68.141zM100.131 67.481H89.67a3.118 3.118 0 01-2.239-.94 3.04 3.04 0 01-.879-2.26l.147-5.115a3.115 3.115 0 013.117-3.033h10.168a3.107 3.107 0 013.117 3.033l.147 5.115a3.122 3.122 0 01-.879 2.26 3.116 3.116 0 01-2.238.94zm-10.315-9.57c-.732 0-1.318.576-1.339 1.297l-.146 5.115a1.34 1.34 0 001.339 1.38h10.461a1.338 1.338 0 001.338-1.38l-.146-5.115a1.326 1.326 0 00-1.339-1.297H89.816z" fill="#2E2B28"/><path d="M86.667 62.702h-5.126a.888.888 0 110-1.778h5.126a.888.888 0 110 1.778zM84.063 82.197a7.572 7.572 0 01-5.367-2.217.89.89 0 010-1.255.89.89 0 011.256 0 5.816 5.816 0 008.222 0 .89.89 0 011.255 0 .89.89 0 010 1.255 7.528 7.528 0 01-5.366 2.217zM118.112 138.633a.889.889 0 01-.889-.889v-18.731c0-8.116-1.548-13.44-4.874-16.766-3.327-3.326-8.651-4.874-16.78-4.874h-.25a4.703 4.703 0 01-4.697-4.696v-5.606a.888.888 0 111.778 0v5.606a2.92 2.92 0 002.918 2.918h.252c16.852 0 23.421 6.568 23.421 23.418v18.731a.873.873 0 01-.879.889zM103.469 139c-.491 0-.889-.95-.889-2.125v-16.75c0-1.175.398-2.125.889-2.125.492 0 .889.95.889 2.125v16.75c0 1.175-.397 2.125-.889 2.125zM49.908 138.633a.889.889 0 01-.889-.889v-18.731c0-9.455 1.684-15.239 5.45-18.753 3.515-3.274 8.892-4.665 17.972-4.665a2.92 2.92 0 002.918-2.918v-5.68a.888.888 0 111.779 0v5.68a4.703 4.703 0 01-4.697 4.696c-8.589 0-13.61 1.255-16.758 4.194-3.38 3.148-4.886 8.535-4.886 17.456v18.731a.887.887 0 01-.889.879zM64.635 139c-.492 0-.89-.95-.89-2.125v-16.75c0-1.175.398-2.125.89-2.125.491 0 .889.95.889 2.125v16.75c0 1.175-.398 2.125-.89 2.125zM167.111 88.379h-54.543a.889.889 0 110-1.779h53.653V1.778H84.899V26.2a.888.888 0 11-1.778 0V.889c0-.492.398-.889.89-.889h83.1c.491 0 .889.397.889.889v86.6a.889.889 0 01-.889.89z" fill="#2E2B28"/><path d="M161.001 82.009h-47.879a.889.889 0 110-1.778h46.99V8.148H91.008v18.397a.888.888 0 11-1.778 0V7.259c0-.492.397-.89.89-.89h70.871c.492 0 .889.398.889.89v73.86a.873.873 0 01-.879.89z" fill="#2E2B28"/><path d="M130.425 49.367a.873.873 0 01-.764-.44.877.877 0 01.324-1.213c8.045-4.696 7.699-9.873 7.333-15.364-.167-2.458-.335-5 .23-7.541.649-2.908 2.197-5.397 4.718-7.625a.883.883 0 011.255.084.883.883 0 01-.083 1.255c-4.969 4.372-4.676 8.911-4.352 13.712.188 2.855.387 5.804-.596 8.691-1.109 3.253-3.599 5.972-7.616 8.325a1.022 1.022 0 01-.449.116z" fill="#2E2B28"/><path d="M122.359 41.135a.982.982 0 01-.439-.115.89.89 0 01-.335-1.213c2.291-4.048 4.969-6.579 8.212-7.74 2.877-1.025 5.827-.868 8.682-.721 4.802.25 9.352.48 13.652-4.55a.882.882 0 011.255-.094.882.882 0 01.094 1.255c-2.186 2.552-4.655 4.131-7.553 4.832-2.531.607-5.083.47-7.542.345-5.492-.282-10.68-.554-15.252 7.562a.901.901 0 01-.774.44z" fill="#2E2B28"/><path d="M137.245 41.23a.852.852 0 01-.627-.262l-7.176-7.175a.889.889 0 011.255-1.255l7.176 7.175a.89.89 0 010 1.255.935.935 0 01-.628.261zM134.431 45.81a.856.856 0 01-.628-.261l-8.881-8.88a.89.89 0 010-1.255.89.89 0 011.255 0l8.881 8.88a.889.889 0 01-.627 1.516zM146.189 32.423a.856.856 0 01-.628-.262l-7.176-7.174a.89.89 0 010-1.255.891.891 0 011.256 0l7.176 7.174a.89.89 0 010 1.255.856.856 0 01-.628.262zM150.708 29.536a.852.852 0 01-.627-.261l-8.882-8.88a.89.89 0 010-1.255.891.891 0 011.256 0l8.881 8.88a.89.89 0 01-.628 1.516zM131.544 16.368h-35.88a.888.888 0 110-1.778h35.88a.888.888 0 110 1.778zM128.615 27.141h-15.064a.889.889 0 110-1.778h15.064a.889.889 0 110 1.778zM152.779 73.58h-31.696a.888.888 0 110-1.779h31.696a.888.888 0 110 1.778zM138.971 61.237h-17.888a.888.888 0 110-1.778h17.888a.888.888 0 110 1.778zM49.95 139H8.264C3.704 139 0 135.298 0 130.737v-31.92c0-4.56 3.703-8.263 8.264-8.263h47.92a.888.888 0 110 1.778H8.265a6.49 6.49 0 00-6.486 6.485v31.92a6.491 6.491 0 006.486 6.485H49.95a.888.888 0 110 1.778z" fill="#2E2B28"/><path d="M49.95 111.441H39.594a.889.889 0 110-1.778H49.95a.888.888 0 110 1.778zM31.33 111.441H.89a.889.889 0 110-1.778h30.44a.888.888 0 110 1.778z" fill="#2E2B28"/><path d="M35.567 117.758a4.26 4.26 0 01-4.258-4.257v-6.066c0-.492.398-.889.89-.889h6.746c.492 0 .89.397.89.889v6.066a4.277 4.277 0 01-4.268 4.257zm-2.48-9.445v5.178c0 1.37 1.12 2.478 2.48 2.478a2.49 2.49 0 002.479-2.478v-5.178h-4.959zM45.368 92.332a.888.888 0 01-.889-.889v-2.908a4.902 4.902 0 00-4.895-4.894h-8.045a4.901 4.901 0 00-4.895 4.894v2.908a.888.888 0 11-1.779 0v-2.908a6.678 6.678 0 016.674-6.672h8.044a6.678 6.678 0 016.675 6.672v2.908a.895.895 0 01-.89.889z" fill="#2E2B28"/><path d="M44.929 87.176H26.204a.888.888 0 110-1.778H44.93a.888.888 0 110 1.778zM68.466 10.197h-45.61a.888.888 0 110-1.778h45.61a.888.888 0 110 1.778zM45.661 27.141H10.304a.888.888 0 110-1.778H45.66a.888.888 0 110 1.778zM145.154 102.99a3.2 3.2 0 110-6.402 3.2 3.2 0 010 6.402zm0-4.623c-.785 0-1.423.638-1.423 1.422 0 .785.638 1.423 1.423 1.423a1.424 1.424 0 000-2.845zM41.906 43.687a3.2 3.2 0 110-6.401 3.2 3.2 0 010 6.401zm0-4.623c-.785 0-1.423.638-1.423 1.423a1.424 1.424 0 002.845 0c0-.785-.637-1.423-1.422-1.423zM139.013 132.944a3.2 3.2 0 110-6.401 3.2 3.2 0 010 6.401zm0-4.623c-.785 0-1.423.638-1.423 1.423a1.424 1.424 0 002.846 0c0-.785-.638-1.423-1.423-1.423zM16.11 72.847a3.2 3.2 0 110-6.402 3.2 3.2 0 010 6.402zm0-4.633c-.785 0-1.423.638-1.423 1.422a1.424 1.424 0 002.845 0 1.43 1.43 0 00-1.422-1.423zM38.914 61.917a.888.888 0 01-.89-.889v-3.974a.888.888 0 111.78 0v3.974a.888.888 0 01-.89.89z" fill="#2E2B28"/><path d="M40.85 59.982h-3.976a.888.888 0 110-1.778h3.975a.888.888 0 110 1.778zM159.108 121.743a.889.889 0 01-.889-.889v-3.975a.889.889 0 111.779 0v3.975a.89.89 0 01-.89.889z" fill="#2E2B28"/><path d="M161.043 119.808h-3.975a.889.889 0 110-1.778h3.975a.889.889 0 110 1.778z" fill="#2E2B28"/></g><defs><clipPath id="clip0_4_10003"><path fill="#fff" d="M0 0h168v139H0z"/></clipPath></defs></svg>