<svg width="594" height="753" fill="none" xmlns="http://www.w3.org/2000/svg"><path d="M1177.15 354.544l27.37 8.207m-27.37-8.207l-5.37-2.803m5.37 2.803l-28.53-22.113m55.9 30.32l-32.74-11.01m32.74 11.01l-7.26-7.185m-25.48-3.825l25.48 3.825m-25.48-3.825l-6.13-6.647m6.13 6.647l-23.16-19.31m23.16 19.31l-27.43-23.897m52.91 27.722l-31.61-10.472m31.61 10.472l28.66-11.624m-28.66 11.624l-7.33-7.724m-24.28-2.748l-21.3-17.25m21.3 17.25l-28.81-17.51m28.81 17.51l24.28 2.748m-24.28-2.748l-8.5-.242m-8.53-12.421l-4.27-4.587m4.27 4.587l-24.29-32.698m20.02 28.111l-7.51-.26m7.51.26l-20.02-28.111m20.02 28.111l-25.71-28.631m18.2 28.371l-18.2-28.371m18.2 28.371l-28.91-18.846m28.91 18.846l20.31 17.268m-20.31-17.268l-11.49 10.658m-1.02-38.509l-5.69-.52m5.69.52l-24.35-32.697m18.66 32.177l-10.71 9.525m10.71-9.525l-18.66-32.177m18.66 32.177l-27.57-25.252m16.86 34.777l-16.86-34.777m16.86 34.777l-31.9-14.519m31.9 14.519l-15.61 22.504m15.61-22.504l17.42 29.504m-25.37-71.206l-8.91 6.925m8.91-6.925l-28.61-22.17m19.7 29.095l-19.7-29.095m19.7 29.095l-15.04 20.258m15.04-20.258l-32.98-13.777m13.28-15.318l-13.28 15.318m13.28-15.318l-58.2-6.74m212.75 105.816l-35.99 3.9m35.99-3.9l-8.1-6.591m-27.89 10.491l27.89-10.491m-27.89 10.491l-8.87.779m8.87-.779l-32.78-2.99m60.67-7.501l-36.76 11.27m36.76-11.27l31.12-17.602m-31.12 17.602l-8.76 4.01m-28 7.26l-23.91-3.769m23.91 3.769l-35.35 7.78m35.35-7.78l28-7.26m-28 7.26l-10.75 13.425m-13.16-17.194l-11.44 11.549m11.44-11.549l-31.8-6.61m-49.32-44.023l16.29 37.023m-16.29-37.023l-17.94-34.035m17.94 34.035l-52.88-6.815m52.88 6.815l16.28 37.023m-16.28-37.023l-20.23 32.845m36.52 4.178l17.86 30.265m-17.86-30.265l-19.39 33.515m19.39-33.515l33.03 7m-33.03-7l17.86 30.284 15.17-23.284m20.36 18.159l-20.36-18.159m20.36 18.159l-35.53 5.106m35.53-5.106l24.6 5.645m-24.6-5.645l-13.91 23.822m-6.45-41.981l-15.17 23.265m0 0l-37.25 3.25m37.25-3.25l21.62 18.716m-21.62-18.716l-17.53 32.735m-19.72-29.485l-17.13-37.693m17.13 37.693l-48.59.891m48.59-.891l19.38-33.515m-19.38 33.515l19.72 29.485m-19.72-29.485l-20.95 37.673m6.11-142.246l-34.94 27.22m34.94-27.22l-44.92-22.058m44.92 22.058l-69.141-10.936m34.201 38.156l-34.201-38.156m34.201 38.156l-52.317-14.464m52.317 14.464l32.65 39.66m-32.65-39.66l-26.471 33.979m16.491-83.257l-24.221 11.122m24.221-11.122l-57.568-19.125m33.347 30.247l-18.116 23.692m18.116-23.692l-33.347-30.247m33.347 30.247l-41.829-23.005m23.713 46.697l-23.713-46.697m23.713 46.697l-32.747-20.981m32.747 20.981l25.846 48.443m-25.846-48.443l-14.66 35.705m-.571-89.644l-8.482 7.242m8.482-7.242l-30.52-29.132m22.038 36.374l-9.034 25.716m9.034-25.716l-22.038-36.374m22.038 36.374l-24.703-27.369m15.669 53.085l-15.669-53.085m15.669 53.085l-23.666-21.371m23.666 21.371l-10.9 41.443m10.9-41.443l18.087 56.686m-31.091-118.776l-2.665 9.005m2.665-9.005l-17.725-29.727m15.06 38.732l-15.06-38.732m15.06 38.732l-7.997 31.714m7.997-31.714l-19.963-24.008m4.903-14.724l-4.903 14.724m4.903-14.724l-19.192-20.962m204.145 192.062l-36.51-4.178m0 0l-31.46 38.584m31.46-38.584l-59.121-5.681m27.661 44.265l-27.661-44.265m27.661 44.265l-46.662-4.735m46.662 4.735l27.64 36.782m-27.64-36.782l-21.53 37.71m-6.131-81.975l-19.001 39.53m19.001-39.53l-40.506-12.738m40.506 12.738l-40.506-12.719 21.505 52.249M914.42 230.588l12.766 62.814m-12.766-62.814l-11.966-55.722m11.966 55.722l-25.084-15.634m25.084 15.634l-13.327 49.556m26.093 13.258l28.987 15.243m-28.987-15.243l15.907 59.713m-15.907-59.713l-13.337 51.766m13.337-51.766l-26.093-13.258m76.585 80.769l-21.505-52.268m21.505 52.268l-34.585-7.798m34.585 7.798l25.132 42.445m-25.132-42.445l-13.975 41.313m-7.53-93.581l-13.08 44.47m0 0l20.61 49.111m-20.61-49.111l-12.613 47.291m12.613-47.291l-29.244-7.947m335.091-25.419l-39.88 21.612m39.88-21.612l-8.4 10.695m-31.48 10.917l31.48-10.917m-31.48 10.917l-9.62 17.528m9.62-17.528l-38.75 20.685m70.23-31.602l-41.1 28.445m41.1-28.445l33.32-2.247m-33.32 2.247l-8.47 25.549m-32.63 2.896l-29.13 3.157m29.13-3.157l-41.13 28.52m41.13-28.52l32.63-2.896m-32.63 2.896l-9.86 28.78m-19.27-25.623l-12 25.363m12-25.363l-38.51 18.177m26.51 7.186l-26.51-7.186m26.51 7.186l-41.37 24.528m41.37-24.528l31.27.26m-31.27-.26l-11.62 30.321m-14.89-37.507l-14.86 31.714m14.86-31.714l-39.15 14.019m24.29 17.695l-24.29-17.695m24.29 17.695l-41.81 16.432m41.81-16.432l-13.25 28.742m13.25-28.742l29.75 5.793m-54.04-23.488l-17.52 34.127m17.52-34.127l-40.67 8.188m221.88-74.233l-41.79 27.796m41.79-27.796l-8.11 37.748m-33.68-9.952l33.68 9.952m-33.68-9.952l-9.43 36.336m9.43-36.336l-42.49 31.676m76.17-21.724l-43.11 26.384m43.11-26.384l35.01 24.509m-35.01-24.509l-8.77 43.559m-34.34-17.175l-33.06-4.66m33.06 4.66l-43.56 26.311m43.56-26.311l34.34 17.175m-34.34-17.175l-9.93 35.873m-23.13-40.533l-10.5 30.971m10.5-30.971l-42.89 30.061m-71.56 10.639l28.56 12.31m-28.56-12.31l-23.15-25.939m23.15 25.939l-44.1 5.013m44.1-5.013l-14.25 22.652m42.81-10.342l31.61.52m-31.61-.52l-12.14 15.746m12.14-15.746l43-22.949m-43 22.949l-42.81 10.342m118.2-32.381l-32.39-.91m32.39.91l-43.78 22.559m43.78-22.559l33.63 9.562m-33.63-9.562l-10.93 26.068m-21.46-26.978l-11.39 23.469m0 0l-43.75 15.226m43.75-15.226l32.85 3.509m-32.85-3.509l-11.77 16.042m-31.98-.816l-30.67-5.404m30.67 5.404l-43.07 3.824m43.07-3.824l31.98.816m-31.98-.816l-12.53 7.612m-27.04-61.607l-20.95 30.952m20.95-30.952l-49.17.928m28.22 30.024l-28.22-30.024m28.22 30.024l-41.253 2.525m41.253-2.525l29.85 17.639m-29.85-17.639l-11.14 19.032m-17.08-49.056l-13.033 32.549m13.033-32.549l-39.107-1.132m26.074 33.681l-26.074-33.681m26.074 33.681l-36.679 2.953m36.679-2.953l30.113 16.507m-30.113-16.507l-8.472 20.907m-17.602-54.588l-10.605 36.634m10.605-36.634l-33.223-1.82m22.618 38.454l-22.618-38.454m22.618 38.454l-35.108 3.026m35.108-3.026l-9.491 23.525m9.491-23.525l28.207 17.954m-50.825-56.408l-16.631-55.238m16.631 55.238l-12.49 41.48m12.49-41.48l-32.195-1.225m15.564-54.013l-12.756-65.024m12.756 65.024l-30.643-5.218m30.643 5.218l-15.564 54.013m162.595 51.84l-12.4 9.228m12.4-9.228l-40.99 1.393m28.59 7.835l-28.59-7.835m28.59 7.835l-40.69 4.568m40.69-4.568l30.54 3.788m-30.54-3.788l-12.53 7.335m-16.06-15.17l-12.1 12.403m12.1-12.403l-38.585 4.4m-63.315-14.928l25.617 20.499m-25.617-20.499l-19.705-42.705m19.705 42.705l-36.517 2.748m36.517-2.748l-12.68 25.308m38.297-4.809l24.884 10.806m-24.884-10.806l-14.298 19.551m14.298-19.551l37.698-5.571m-37.698 5.571l-38.297 4.809m102.48-2.377l-26.485-8.003m26.485 8.003l-39.299 8.374m39.299-8.374l28.16 2.767m-28.16-2.767l-13.244 14m-13.241-22.003l-12.814 16.377m0 0l-39.182 8.745m39.182-8.745l26.055 5.626m-26.055-5.626l-14.726 19.867m-24.456-11.122l-23.999-14.742m23.999 14.742l-40.325 5.663m40.325-5.663l24.456 11.122m-24.456-11.122l-16.755 23.414m-10.1-330.484l-13.118 40.088m13.118-40.088l-14.289-35.686m14.289 35.686l-27.559-12.848m27.559 12.848l-13.118 40.106-14.441-52.954m14.441 52.936l-14.441-52.936m14.441 52.936l-36.021 2.655m36.021-2.655l11.757 65.19m-11.757-65.19l-20.029 58.395m18.858-134.169l-13.27 22.838m13.27-22.838l-33.546 2.302m20.276 20.536l-21.58 55.591m21.58-55.591l-20.276-20.536m20.276 20.536l-40.106 33.997m40.106-33.997l-21.581 55.609-18.525-21.612m18.526 21.594l-18.526-21.594m18.526 21.594l-42.086 60.103m42.086-60.103l15.992 55.74m-15.992-55.74l-24.675 80.397m25.979-156.524l-19.83 54.533m19.83-54.533l-41.696 69.944m21.866-15.411l-23.56 81.697m23.56-81.697l-21.866 15.411m21.866-15.411l-42.742 88.548m19.182-6.851l-19.182 6.851m19.182-6.851l-42.324 88.251m42.324-88.251l-24.989 87.843m24.989-87.843l17.411 20.294m-15.717-86.58l-20.876 73.137m20.876-73.137l-42.029 103.291m42.029-103.291l-20.886 73.137m.01 0l-23.142 81.4m23.132-81.4l-21.143 30.154m21.143-30.154l-40.829 95.697m40.829-95.697l-23.142 81.4m1.999-51.246l-19.686 65.543m19.686-65.543l-43.97 90.275m174.169-124.848l-17.887 59.806m17.887-59.806l-31.786-6.795m13.899 66.601l-13.899-66.601m13.899 66.601l-38.05 2.507m38.05-2.507l15.079 59.231m-15.079-59.231l-20.943 59.825m7.044-126.426l-24.151 69.108m24.151-69.108l-40.667 24.657m-59.735 67.957l17.335-.408m0 0l17.125 16.822m-17.125-16.822l-24.799 79.655m24.799-79.655l42.4-67.549m-42.4 67.549l-17.345.408m17.345-.408l-41.172 75.403m100.088-98.501l-16.516-44.451m16.516 44.451l-41.791 39.902m41.791-39.902l17.107 57.318m-17.107-57.318l-24.037 70.557m7.521-115.008l-25.275 84.353m25.275-84.353l-25.275 84.371m0-.018l17.754 30.655m-17.754-30.637l-41.924 62.833m41.924-62.833l17.754 30.637m-17.754-30.637l-24.198 74.419m-17.726-11.586l-16.373-4.252m16.373 4.252l-43.799 57.912m43.799-57.912l17.726 11.586m-17.726-11.586l-23.665 63.928m13.432-128.878l17.687-14.297m-17.687 14.297l-26.931 64.504m26.931-64.504l-24.284 24.732m24.284-24.732l-55.946 77.483m55.946-77.483l-26.94 64.504m44.627-78.801l-44.618 78.801m44.618-78.801l-23.827 74.995m-20.791 3.806l20.791-3.806m-18.144-35.966l-31.662 52.751m31.662-52.751l-64.391 69.239m32.729-16.488l29.006-12.979m-29.006 12.979l-32.805 44.933m32.805-44.933l-32.729 16.488m32.729-16.488l-60.659 45.472m89.665-58.451l-61.811 57.912m61.811-57.912l20.8-3.806m-20.8 3.806l-32.434 55.981m-29.377 1.931l-27.854.539m27.854-.539l-52.947 16.135m52.947-16.135l29.377-1.931m-29.377 1.931l-27.759 30.265m27.835-58.71l-27.93 28.984m27.93-28.984l-54.984 18.883m27.054 10.101l-25.093 15.596m25.093-15.596l-27.054-10.101m1.961 25.697l25.188 14.13m-25.188-14.13l-27.112-16.748m27.112 16.748l-46.151-9.302m46.151 9.302l25.084-15.596m-25.084 15.596l25.179 14.13m-25.179-14.13l-22.381 11.605m20.42-37.302l27.045 10.101m-27.045-10.101l-25.151 8.949m25.151-8.949l-51.196-4.679m188.715-47.477l-27.426 62.164m27.426-62.164l-53.234 59.787m25.808 2.377l-25.808-2.377m25.808 2.377l-56.955 38.137m56.955-38.137l20.134 6.016m-20.134-6.016l-29.91 45.899m4.102-48.276l-31.147 40.514m31.147-40.514l-57.136 32.196m25.989 8.318l-25.989-8.318m25.989 8.318l-49.283 8.393m49.283-8.393l27.045 7.762m-27.045-7.762l-26.027 24.435m.038-32.753l-23.294 16.711m0 0l23.256 16.042m-23.256-16.042l-24.275-19.236m24.275 19.236l-41.2-9.469m41.2 9.469l23.285-16.711m-23.285 16.711l-19.667 12.477m306.548-162.948l-16.812 45.453m16.812-45.453l-36.022.594m19.21 44.859l-19.21-44.859m19.21 44.859l-40.467 2.6m40.467-2.6l23.837 22.56m-23.837-22.56L864.9 469.236m-2.637-69.461l-21.257 47.459m21.257-47.459l-41.144 13.239m41.144-13.239l-21.257 47.477-19.887-34.238m19.887 34.22l-19.887-34.22m19.887 34.22l-41.972 24.657m41.972-24.657l23.894 22.002m-23.894-22.002l-18.678 33.087m-1.209-67.307l-22.085 58.877m22.085-58.877l-41.952 43.782m19.867 15.095l-19.867-15.095m19.867 15.095l-42.019 42.26m42.019-42.26l-19.344 40.7m19.344-40.7l23.294 8.43m-43.161-23.525l-22.152 57.355m22.152-57.355l-41.391 52.342m167.534-41.944l-16.326 20.405m16.326-20.405l-40.41 2.042m24.084 18.363L864.9 469.236m24.084 18.363l-42.666 2.804m42.666-2.804l23.57 17.751m-23.57-17.751l-19.096 23.117m-4.988-41.48l-18.582 21.167m18.582-21.167l-42.572 11.085m-65.313 33.83l22.675-1.56m-22.675 1.56l-19.239-5.013m19.239 5.013l-43.857 41.461m43.857-41.461l-19.963 40.143m42.638-41.703l23.114-1.931m-23.114 1.931l-20.4 32.623m20.4-32.623l42.638-32.27m-42.638 32.27l-42.638 41.703m109.266-63.891l-23.99-10.082m23.99 10.082l-43.514 20.257m43.514-20.257l23.57 20.313m-23.57-20.313l-20.763 27.703m-3.227-37.785l-19.524 30.339m0 0l-43.514 34.554m43.514-34.554l22.751 7.446m-22.751-7.446l-21.648 29.263m-21.866 5.291l-22.238 9.08m22.238-9.08l-45.608 37.73m45.608-37.73l21.866-5.291m-21.866 5.291l-22.542 28.743m1.028-64.819l-24.618 46.474m24.618-46.474l-50.044 39.883m25.426 6.591l-25.426-6.591m25.426 6.591l-53.357 22.356m53.357-22.356l23.894-1.318m-23.894 1.318l-25.902 29.003m.476-35.594l-27.931 28.947m27.931-28.947l-53.072 16.673m25.141 12.274l-25.141-12.274m25.141 12.274l-46.579 2.933m46.579-2.933l27.455 6.647m-27.455-6.647l-24.512 17.806m-.629-30.08l-21.438 15.207m21.438-15.207l-42.923-3.565m21.485 18.772l22.067 14.873m-22.067-14.873l-21.485-18.772m21.485 18.772l-36.336-11.79m36.336 11.79l-17.887 9.061m141.717-35.668l-23.37 28.65m23.37-28.65l-49.796 30.321m26.426-1.671l-26.426 1.671m26.426-1.671l-52.843 20.257m52.843-20.257l23.066-8.987m-23.066 8.987l-26.645 19.885m.219-18.214l-26.417 18.586m26.417-18.586l-51.967 11.159m25.55 7.427l-25.55-7.427m25.55 7.427l-47.245 3.323m47.245-3.323l26.198-.372m-26.198.372l-25.046 11.679m-.504-19.106l-21.695 10.75m21.695-10.75l-39.954-5.812m18.259 16.562l22.199 8.356m-22.199-8.356l-18.259-16.562m18.259 16.562l-37.155-11.938m37.155 11.938l22.19 8.356m-22.19-8.356l-20.467 4.754m707.633-220.824l-43.78 19.05m43.78-19.05l-8.05 48.74m-35.73-29.69l35.73 29.69m-35.73-29.69l-9.32 39.809m9.32-39.809l-44.27 18.698m80 10.992l-45.05 10.119m45.05-10.119L1330 477.48m-37.29-38.286l-8.65 41.702m-36.4-31.583l-34.95-21.111m34.95 21.111l-45.35 7.613m45.35-7.613l36.4 31.583m-36.4-31.583l-9.8 30.358m-25.15-51.469l-10.4 28.724m10.4-28.724l-44.56 16.506m34.16 12.218l-34.16-12.218m34.16 12.218l-45.48 5.199m45.48-5.199l35.55 22.745m-35.55-22.745l-10.81 18.809m-23.35-31.027l-11.32 17.417m11.32-17.417l-44.62 12.533m33.3 4.884l-33.3-4.884m33.3 4.884l-45.48 2.822m45.48-2.822l-11.75 8.856m11.75-8.856l34.67 13.61m-67.97-18.494l-12.18 7.706m12.18-7.706l-44.51 6.796M1330 477.48l-45.94 3.416m45.94-3.416l-7.92 40.496m-38.02-37.08l38.02 37.08m-38.02-37.08l-9.14 29.968m9.14-29.968l-46.2-1.225m46.2 1.225l-46.2-1.206m84.22 38.286l-47.16-7.112m47.16 7.112l39.8 33.7m-39.8-33.7l-8.46 26.514m-38.7-33.626l-37.06-31.174m37.06 31.174l-37.06-31.193m37.06 31.193l-47.3-11.976m47.3 11.976l38.7 33.626m-38.7-33.626l-9.61 17.547m-27.45-48.74l-10.24 19.217m10.24-19.217l-46.36-3.936m46.36 3.955l-46.36-3.955m46.36 3.955l-10.24 19.198m-116.27-33.941l33.73 6.034m-33.73-6.034l-32.33-.91m32.33.91l-45.11 2.005m45.11-2.005l-12.61 2.377m46.34 3.657l35.18 14.78m-35.18-14.78l-12.17 4.308m12.17-4.308l46.42 4.754m-46.42-4.754l-46.34-3.657m128.88 31.564l-36.12-23.153m36.12 23.153l-47.36-13.127m47.36 13.127l37.69 29.523m-37.69-29.523l-10.66 10.175m-25.46-33.328l-11.24 10.026m0 0l-47.35-10.472m47.35 10.472l36.7 23.302m-36.7-23.302l-11.67 6.276m-35.68-16.748l-34.17-7.965m34.17 7.965l-47.36-.186m47.36.186l35.68 16.748m-35.68-16.748l-12.67 7.687m-41.22-18.939l-12.78 2.915m12.78-2.915l-43.07 3.547m30.29-.632l-30.29.632m30.29-.632l-43.71 12.125m43.71-12.125l32.5.372m-32.5-.372l-13.38 9.303m-16.91-8.671l-13.42 11.493m13.42-11.493l-41.404 11.233m27.984.26l-27.984-.26m27.984.26l-42.796 19.273m42.796-19.273l30.33-2.822m-30.33 2.822l-14.62 19.106m-13.364-19.366l-14.812 19.533m14.812-19.533l-40.781 14.241m40.781-14.241l-14.812 19.552m0-.019l28.176-.167m-54.145-5.125l25.969 5.311m-25.969-5.311l-16.764 25.289m16.764-25.289l-41.211 12.292m67.18-6.981l-42.733 19.978m42.733-19.978l-16.44 26.588m16.44-26.588l28.176-.186m90.83-30.859l-13.19 7.779m13.19-7.779l-45.88 8.931m32.69-1.152l-32.69 1.152m32.69-1.152l-46.93 20.165m46.93-20.165l34.69 7.873m-34.69-7.873l-13.72 19.738m-18.97-18.586l-14.24 19.013m14.24-19.013l-44.95 21.928m-70.909 20.164l26.293 6.61m-26.293-6.61l-24.447-12.997m24.447 12.997l-43.476 14.223m43.476-14.223l-18.554 30.265m44.847-23.655l44.616-26.774m-44.616 26.774l28.777.984 15.839-27.758m-44.616 26.774l28.777.966m-28.777-.966l-17.735 32.679m17.735-32.679l-44.847 23.655m120.173-53.344l-30.71 2.915m30.71-2.915l-46.549 30.655m46.549-30.655l33.21-.427m-33.21.427l-15.03 29.262m-15.68-26.347l-15.839 27.74m0 0l31.519-1.393m-31.519 1.393l-16.65 35.018m16.65-35.018l-46.512 31.713m416.321-5.96l-48.26-7.186m48.26 7.186l-7.69 19.793m-40.57-26.979l40.57 26.979m-40.57-26.979l-8.85 13.647m8.85-13.647l-48.31-16.079m88.88 43.058l-49.42-13.332m49.42 13.332l42.54 23.191m-42.54-23.191l-8.04 15.857m-41.38-29.189l-39.46-29.726m39.46 29.726l-49.44-19.625m49.44 19.625l41.38 29.189m-41.38-29.189l-9.22 13.982m-30.24-43.708l-9.98 10.101m9.98-10.101l-48.35-19.348m38.37 29.449l-38.37-29.449m38.37 29.449l-49.43-19.701m49.43 19.701l40.22 33.607m-40.22-33.607l-10.37 15.708m-28-45.157l-11.06 9.748m11.06-9.748l-48.37-17.026m48.37 17.026l-48.37-17.007m37.31 26.755l-37.31-26.755m37.31 26.755l-37.31-26.774m37.31 26.774l-49.45-13.684m49.45 13.684l-11.55 19.998m11.55-19.998l39.06 35.409m-76.37-62.183l-12.14 13.09m12.14-13.09l-48.35-9.061m48.35 9.08l-48.35-9.08m48.35 9.08l-12.14 13.071m240.28 89.533l-50.58-7.334m50.58 7.334l-7.22 20.034-43.36-27.368m0 0l-50.6-15.207m50.6 15.207l-8.44 17.917-42.16-33.124m0 0l-50.59-17.899m50.59 17.899l-9.65 19.384-40.94-37.283m-88.51-49.093l37.9 33.682m-37.9-33.682l-36.21-22.151m36.21 22.151l-49.45.39m49.45-.39l-12.7 25.958m50.6 7.724l50.61 15.411m-50.61-15.411l39.73 38.88 10.88-23.469m-50.61-15.411l-50.6-7.724m50.6 7.724l-12.1 29.206-38.5-36.93m-23.51-48.109L1107 505.517m13.24-22.541l-48.41 11.865m35.17 10.676l-35.17-10.676m35.17 10.676l-49.45 22.3m49.45-22.3l36.75 25.568M1107 505.517l-13.87 36.782m-21.3-47.458l-14.28 32.976m14.28-32.976l-48.24 29.689m33.96 3.287l-33.96-3.287m33.96 3.287l-49.47 34.424m49.47-34.424l35.58 14.482m-35.58-14.482l-15.04 40.755m-18.92-44.042l-15.51 37.711m15.51-37.711l-48.169 36.411m32.659 1.3l-32.659-1.3m32.659 1.3l-49.461 35.649m49.461-35.649l-16.199 38.212m16.199-38.212l34.43 6.331m-67.089-7.631l-29.862-3.305m29.862 3.305l-16.802 36.949m16.802-36.949l-48.225 32.122m18.363-35.427l-27.112-9.024m27.112 9.024l-46.846 23.302m46.846-23.302l-18.363 35.427m216.554-61.978l-50.62 11.214m50.62-11.214l-13.32 37.265-37.3-26.051m0 0l-50.62 26.273m50.62-26.273l-14.54 41.889-36.08-15.616m-83.891 29.318l33.262 2.563m-33.262-2.563l-31.423-4.827m31.423 4.827l-49.473 25.921m49.473-25.921l-17.363 30.878m50.625-28.315l50.629-31.881m-50.629 31.881l34.869 7.91 15.76-39.791m-50.629 31.881l-50.625 28.315m50.625-28.315l-16.983 32.883-33.642-4.568M912.554 505.35l-19.029 27.22m19.029-27.22l-42.666 5.366m23.637 21.854l-23.637-21.854m23.637 21.854l-44.885 3.732m44.885-3.732l24.922 16.042m-24.922-16.042l-20.753 28.631m-2.884-50.485l-21.248 25.586m21.248-25.586l-44.333 7.39m23.085 18.196l-23.085-18.196m23.085 18.196l-45.313 8.43m45.313-8.43l24.132 24.899m-24.132-24.899l-22.152 24.806m-.933-43.002l-22.228 26.626m22.228-26.626l-44.399 21.817m22.171 4.809l-22.171-4.809m22.171 4.809l-45.322 20.498m45.322-20.498l-23.103 22.596m23.103-22.596l23.161 16.376m-45.332-21.185l-23.151 25.307m23.151-25.307l-44.408 34.034m181.699-25.345l-19.734 32.326m19.734-32.326l-45.675 12.589m25.941 19.737l-25.941-19.737m25.941 19.737l-47.331 4.828m47.331-4.828l28.483 12.125m-28.483-12.125l-19.915 29.021m-6.026-48.758l-21.39 24.565m21.39-24.565l-46.284-.093m-68.483 4.122l22.219 2.098m-22.219-2.098l-21.257 8.727m21.257-8.727l-46.465 31.602m46.465-31.602l-24.046 23.21m46.265-21.112l23.894 14.465m-23.894-14.465l-23.381 20.313m23.381-20.313l46.264-6.22m-46.264 6.22l-46.265 21.112m117.423-2.674l-24.894-24.658m24.894 24.658l-47.264-3.973m47.264 3.973l27.416 24.193m-27.416-24.193l-20.953 19.644m-3.941-44.302l-22.37 20.685m0 0l-47.275 5.848m47.275-5.848l26.311 23.617m-26.311-23.617l-22.038 18.233m-25.237-12.385l-22.884.799m22.884-.799l-47.435 25.104m47.435-25.104l25.237 12.385m-25.237-12.385l-23.123 24.528m3.028-38.212l-25.208 22.875m25.208-22.875l-49.711 28.872m24.503-5.997l-24.503 5.997m24.503-5.997l-50.92 20.406m50.92-20.406l22.419-8.392m-22.419 8.392l-26.112 18.809m1.609-12.812l-26.417 14.409m26.417-14.409l-51.244 12.051m24.827 2.358l-24.827-2.358m24.827 2.358l-47.474 4.382m47.474-4.382l24.808-1.597m-24.808 1.597l-24.599 11.215m-.228-13.573l-22.647 6.74m0 0l22.875 6.833m-22.875-6.833l-20.019-10.342m20.019 10.342l-41.305-5.273m41.305 5.273l-20.019-10.324m20.019 10.324l22.638-6.74m-22.638 6.74l-22.304 6.87m143.117-40.05l-24.551 24.305m24.551-24.305l-48.531 27.201m23.98-2.896l-23.98 2.896m23.98-2.896l-49.007 20.517m49.007-20.517l24.312-.576m-24.312.576l-24.189 25.121m.209-22.225l-25.027 17.621m25.027-17.621l-49.407 12.812m24.38 4.809l-24.38-4.809m24.38 4.809l-47.721 5.496m47.721-5.496l24.818 4.604m-24.818-4.604l-23.866 18.307m-.514-23.116l-23.341 10.305m23.341-10.305l-45.179.037m45.179-.037l-23.351 10.305m.01 0l23.855 12.811m290.661-58.506l-18.05 30.748m18.05-30.748l-48.398 16.896m30.348 13.852l-30.348-13.852m30.348 13.852l-49.482 5.57m49.482-5.57l32.11 4.957m-32.11-4.957l-18.534 20.517m-11.814-34.369l-19.134 19.422m19.134-19.422l-48.369-4.549m29.235 23.971l-29.235-23.971m29.235 23.971l-49.502-7.52m49.502 7.52l30.948 14.947m-30.948-14.947l-19.715 11.939m-9.52-35.91l-20.267 16.451m20.267-16.451l-48.349-5.384m28.082 21.835l-28.082-21.835m28.082 21.835l-49.511-.055m49.511.055l-20.895 14.279m20.895-14.279l29.787 19.459m-57.869-41.294l-21.429 21.78m21.429-21.78l-48.36 12.143m207.536 16.599l-50.644 15.56m50.644-15.56l-18.211 22.931-32.433-7.371m0 0l-50.663-3.008m50.663 3.008l-19.429 11.623-31.234-14.631m-79.298-19.514l28.616 14.334m-28.616-14.334l-26.931-9.637m26.931 9.637l-49.492 21.742m49.492-21.742l-22.076 23.339m50.692-9.005l50.682 5.18m-50.682-5.18l30.044 14.687 20.638-9.507m-50.682-5.18l-50.692 9.005m50.692-9.005l-21.847 14.612-28.845-5.607m-4.855-32.976l-22.561 31.379m22.561-31.379l-48.501 25.697m25.94 5.682l-25.94-5.682m25.94 5.682l-49.463 20.313m49.463-20.313l27.416 1.597m-27.416-1.597l-23.199 23.08m-2.741-28.762l-23.523 25.995m23.523-25.995l-48.684 13.703m25.161 12.292l-25.161-12.292m25.161 12.292l-49.483 6.053m49.483-6.053l26.264 2.767m-26.264-2.767l-24.361 15.411m-.8-27.703l-24.322 18.345m24.322-18.345l-23.865-12.811m23.865 12.811l-48.083 2.507m48.083-2.507l-24.331 18.345m.009 0l25.122 9.358m101.24-34.127l-50.615 21.483m50.615-21.483l-23.027 20.61-27.588.873m0 0l-50.625 12.644m50.625-12.644l-24.284 13.387-26.341-.743m-2.741-176.057l-52.196-1.152m0 0l-19.039 7.446m19.039-7.446l-26.045-13.628m26.045 13.628l-42.171-12.18m23.132 19.626l-23.132-19.626m23.132 19.626l-36.012-17.806m36.012 17.806l23.77 20.907m-23.77-20.907l-14.698 6.703m7.692-27.777l-16.126 1.448m16.126-1.448l-38.259-13.517m22.133 14.965l-12.88 1.82m12.88-1.82l-22.133-14.965m22.133 14.965l-33.509-21.315m20.629 23.135l-20.629-23.135m20.629 23.135l-32.034-24.714m32.034 24.714l21.314 24.509m-21.314-24.509l-11.7 4.01m2.447-20.795l-11.376-6.35m11.376 6.35l-30.644-25.865m19.268 19.515l-11.405-1.579m11.405 1.579l-19.268-19.515m19.268 19.515l-30.596-31.435m19.191 29.856l-19.191-29.856m19.191 29.856l-34.232-30.005m34.232 30.005l-13.803 6.109m13.803-6.109l20.334 28.724m-28.197-46.66l-11.328-11.92m11.328 11.92l-28.378-41.721m17.05 29.801l-17.05-29.801m17.05 29.801l-15.041-.149m15.041.149l-33.442-42.427m16.392 12.626l-16.392-12.626m16.392 12.626l-30.795-55.034m206.412 180.643l-47.56-2.525m0 0l-16.925 9.767m16.925-9.767l-38.468-14.204m21.543 23.971l-21.543-23.971m21.543 23.971l-33.842-17.658m33.842 17.658l21.533 21.946m-21.533-21.946l-13.318 6.814m-8.225-30.785l-12.299 6.313m12.299-6.313l-33.014-20.499m-54.566-58.729l20.429 36.114m-20.429-36.114l-18.401-42.278m18.401 42.278l-40.439-31.193m40.439 31.193l-21.457 15.523m41.886 20.591l21.362 30.247m-21.362-30.247l-18.801 16.265m18.801-16.265l34.137 22.615m-34.137-22.615l21.362 30.265m-21.362-30.265l-41.886-20.591m96.738 70.018l-20.715-26.812m20.715 26.812l-33.49-19.162m33.49 19.162l20.524 24.472m-20.524-24.472l-12.062 5.904m-8.653-32.716l-12.775 7.65m0 0l21.428 25.066m-21.428-25.084l-40.163-13.982m40.163 13.982l21.428 25.084m-21.428-25.084l-16.345 12.291m-23.818-26.273l-23.085-36.856m23.085 36.856l-49.625-5.032m49.625 5.032l23.818 26.273m-23.818-26.273l-26.569 28.483m6.54-123.14l-22.038 11.085m22.038-11.085l-14.403-42.408m14.403 42.408l-18.278-20.907-11.394 25.14m7.634 6.852l-5.988-11.215-1.646 4.363m7.634 6.852l-24.703 49.631m24.703-49.631l18.982 46.716m-18.982-46.716l-18.258 48.053m25.893-101.546l-15.269 46.641m15.269-46.641l-15.993 89.384m.724-42.743l-17.069 56.483m17.069-56.483l-.724 42.743m.724-42.743l-17.003 64.653-7.977 3.88m24.98-68.533l-24.98 68.533m7.911-12.05l-7.911 12.05m7.911-12.05l-11.49 11.345-29.92-44.525m41.41 33.18l2.941-4.438 3.504 2.86m-6.445 1.578l-23.542 10.732m23.542-10.732l-8.501 10.639-32.909-43.819m57.755 19.44l-24.256 25.79m24.256-25.79l-8.415 28.798-12.461.242-18.478-32.958m15.098 29.708l-33.499-45.23m33.499 45.23l-15.098-29.708m15.098 29.708l-53.995-110.217m20.496 64.987l-20.496-64.987m20.496 64.987l-56.203-131.774m56.203 131.774l-31.91-57.43m31.91 57.43l17.868 43.912m.533-28.39l-38.897-80.509m38.897 80.509l-62.762-160.869m23.865 80.36l-23.865-80.36m23.865 80.36l-35.707-66.787m35.707 66.787l-64.532-163.84m40.667 83.48l-40.667-83.48m40.667 83.48l-69.236-182.37m198.692 357.982l-26.54 31.824m26.54-31.824l-37.24 1.337m37.24-1.337l-37.24 1.355m10.7 30.469l-10.7-30.469m10.7 30.469l-10.7-30.487m10.7 30.487l-30.196 2.024m30.196-2.024l23.056 33.515m-23.056-33.515l-20.81 32.512m10.11-62.999l-19.496 32.511m19.496-32.511l-29.987 12.31m29.987-12.292l-29.987 12.292m29.987-12.292l-19.496 32.493m-84.562-195.887l24.293 74.344m-24.293-74.344l-28.825-97.053m28.825 97.053l-57.394-118.962m57.394 118.962l-27.16-19.069m51.453 93.413l49.778 101.342m-49.778-101.342l19.887 55.814m-19.887-55.814l-26.902-23.599m26.902 23.599l-51.453-93.413m51.453 93.413l-51.453-93.394m111.722 214.937l-10.491-20.201m10.491 20.201l-40.382-65.729m40.382 65.729l9.386 30.488m-9.386-30.488l-24.161-14.167m13.67-6.034l-29.891-45.528m0 0l16.221 51.562m-16.221-51.562l-28.816-38.453m28.816 38.453l-46.789-79.413m296.02 220.916l-14.851 6.982m14.851-6.982l-34.851-15.132m20 22.114l-20-22.114m20 22.114l-31.766-19.737m31.766 19.737l18.449 20.851m-18.449-20.851l-14.003 1.43m-5.997-23.544l-11.766 2.377m11.766-2.377L524.3 528.429m20.82 20.945l-20.82-20.945m20.82 20.945l-35.032-15.913m35.032 15.913l17.763 21.167m-17.763-21.167l-15.194.835m-5.626-21.78l-14.212 5.032m14.212-5.032l-37.773-12.793m23.561 17.825l-23.561-17.825m23.561 17.825l-46.17-.297m46.17.297l-21.438 8.486m21.438-8.486l19.838 16.748m-43.399-34.573l-22.609 17.528m22.609-17.528l-50.387 2.21m159.195 72.116l-18.896 4.624m18.896-4.624l-32.452-19.421m13.556 24.045l-13.556-24.045m13.556 24.045l-34.261-17.603m34.261 17.603l16.688 16.692m-16.688-16.692l-20.658 4.864m7.102-28.909l-20.705 6.442m20.705-6.442l-32.957-20.332m-66.008-17.045l24.732 8.783m-24.732-8.783l-27.778-15.318m27.778 15.318l-58.974 20.647m58.974-20.647l-32.671 25.456m57.403-16.673l15.526 22.262m-15.526-22.262l-32.795 24.824m32.795-24.824l41.276 8.262m-41.276-8.262l-57.403 16.673m110.931 18.363l-12.252-26.774m12.252 26.774l-37.992-12.774m37.992 12.774l13.603 22.467m-13.603-22.467l-24.084 10.733m11.832-37.507l-25.74 14m25.74-14l-25.75 14m.01 0l13.908 23.507m-13.918-23.507l-48.321 2.562m48.321-2.562l13.918 23.507m-13.918-23.507l-29.52 19.886m-18.801-17.324l-24.608-8.151m24.608 8.151l-59.868 21.502m59.868-21.502l18.801 17.324m-18.801-17.324l-35.775 29.857m16.06-78.782l-31.196 35.965m31.196-35.965l-43.866-1.003m12.67 36.968l-12.67-36.968m12.67 36.968l-35.85-38.1m35.85 38.1l26.303 4.809m-26.303-4.809l-24.151 5.422m11.481-42.39l-23.18-1.132m23.18 1.132l-33.547-44.655m10.367 43.523l-10.367-43.523m10.367 43.523l-39.982-95.159m39.982 95.159l11.699 43.522m-11.699-43.522l-26.75-39.883m16.383-3.64l-29.615-51.636m29.615 51.636l-45.037-90.015m15.422 38.379l-15.422-38.379m15.422 38.379l-40.182-41.498m40.182 41.498l-30.92-34.498m30.92 34.498l13.232 55.276m-28.654-93.655l-17.973-40.96m17.973 40.96l-24.76-3.119m24.76 3.119l-38.287-18.363m20.314-22.597l-24.551-69.814m24.551 69.814l-42.6-31.88m42.6 31.88l-24.551-69.795m24.551 69.795l-20.314 22.597m155.844 194.81l-35.26 29.653m35.26-29.653l-50.454.613m15.194 29.04l-15.194-29.04m15.194 29.04L355.5 537.806m40.487 50.467l24.093 8.355m-24.093-8.355l-25.846 3.899m10.652-32.939L355.5 537.806m25.293 21.427l-38.449-83.405m-53.414-96.774l5.34-1.133 3.922 8.133m-9.262-7l-13.527-15.244m13.527 15.244l-30.52 41.052m30.52-41.052l-22.323 28.835m31.585-21.835l15.355 57.837m-15.355-57.837l-24.703 31.323m24.703-31.323l44.152 89.774m-44.152-89.774l-31.585 21.835M355.5 537.806l-13.156-61.978m13.156 61.978l-41.953-93.915m41.953 93.915l14.641 54.366M355.5 537.806l-26.931-12.607m13.775-49.371l-28.797-31.937m0 0l-40.058-26.514m40.058 26.514l15.022 81.308m-15.022-81.308l-29.701 17.974m-10.357-44.488l-4.731-10.175-2.151.687m6.882 9.488l-30.662 51.005m30.662-51.005l10.357 44.488m-10.357-44.488l-25.436 62.74m21.448-286.702l-28.569-21.909m28.569 21.909l-28.569-98.89m28.569 98.89l-58.717-128.06m30.148 106.151l-30.148-106.15m30.148 106.15l-46.493-56.167m46.493 56.167l30.234 99.893m-30.234-99.893l-16.963 45.861m16.963-122.842l-30.148-29.17m30.148 29.17L190.679 1m20.105 64.355l-16.345 49.984m16.345-49.984L190.679 1m20.105 64.355l-41.753-25.772m25.408 75.756l-25.408-75.756m25.408 75.756l-42.381 4.957m42.381-4.957l29.53 102.028m-29.53-102.028l-13.204 94.304M190.679 1l-21.648 38.583M190.679 1l-39.754 2.228m18.106 36.355l-16.973 80.713m16.973-80.713L150.925 3.228m18.106 36.355L128.802 62.57m23.256 57.726L128.802 62.57m23.256 57.726l-43.78 19.812m43.78-19.812l-17.916 89.18m17.916-89.18l29.177 89.347M150.925 3.228L128.802 62.57m22.123-59.342L113.18 45.99m15.622 16.58L113.18 45.99m15.622 16.58l-20.524 77.539m20.524-77.538L89.01 105.312m24.17-59.323l-24.17 59.323m24.17-59.323l-36.574 59.843m194.56 165.567l-18.049 37.934m18.049-37.934l-47.197-54.032m29.148 91.966l-29.148-91.966m29.148 91.966l18.049-37.915m-18.049 37.915l-40.248 1.819m40.248-1.819l22.286 54.477m-22.286-54.477l-13.241 79.394m31.29-117.309l-47.197-54.051m0 0l-11.1 93.785m11.1-93.785l-42.734-7.724m-72.957-69.535l25.864 69.368m-25.864-69.368L89.01 105.312m19.268 34.796l-43.771 26.31m43.771-26.31l25.855 69.368m-25.855-69.368l-23.076 70.798m48.94-1.43l30.425 93.228m-30.425-93.228l-22.694 73.899m22.694-73.899l47.093.167m31.634 101.509l-31.634-101.509m31.634 101.509l-48.302-8.448m48.302 8.448l27.007 77.575m-27.007-77.575l-17.116 87.954m-14.518-189.463l-16.668 93.061m0 0l-53.119-19.329m53.119 19.329l31.186 96.402m-31.186-96.402l-23.666 69.22m-29.453-88.549l-26.246-72.469m26.246 72.469l-54.262-23.432m54.262 23.432l22.685-73.899m-22.685 73.899l29.453 88.549m-29.453-88.549l-29.52 44.748m7.082-222.811l-24.503 61.106m24.503-61.106l-12.404.52m12.404-.52l-39.059 46.586m14.556 14.52l-14.556-14.52m14.556 14.52l-42.343 24.528m42.343-24.528l20.695 44.488m-20.695-44.488l-27.54 46.735m39.64-107.321l-26.655 46.066m26.654-46.066l-36.27 53.512m9.616-7.446l-27.788 39.048m27.788-39.048l-9.615 7.446m9.614-7.446l-38.04 34.61m10.253 4.438l-10.253-4.438m10.253 4.438l-39.497 14.483m39.497-14.483l14.803 22.207m-14.803-22.207l-30.187 24.546m48.36-56.148L11.91 186.508m28.426-27.164L3.563 183.129l8.348 3.379m0 0l-29.244 18.921m0 0l9.31 10.063m142.156-6.016l-48.93 1.43m0 0l-28.017 49.037m28.016-49.037l-48.235 2.247m20.22 46.79l-20.22-46.79m20.22 46.79l-51.74-20.759m51.74 20.759l24.74 68.18m-24.74-68.18L23.62 282.057m13.347-68.904l-31.52 26.031m31.52-26.031l-44.99 2.339m13.47 23.692l-13.47-23.692m13.47 23.692l-45.522-11.159m45.523 11.159l18.172 42.873M5.448 239.184l-34.642 8.95m21.171-32.642l-32.052 12.533m0 0l10.881 20.109M275.403 363.81l-16.993 56.296m16.993-56.296l-35.527 24.917m35.527-24.917l-16.993 56.315-18.534-31.398m18.534 31.379l-18.534-31.379m18.534 31.379l-36.307 47.96m36.307-47.96l3.875-1.225 4.322-10.992m-8.197 12.217l-21.885 54.793m21.885-54.793l3.884-1.225 4.313-10.992m-26.731-19.162l-17.773 79.339m17.773-79.339l-44.123 10.379m26.35 68.96l-26.35-68.96m26.35 68.96l-52.681-13.424m52.681 13.424l8.891 10.695 5.531-3.862m-14.422-6.833l-31.224 30.6m4.874-99.56l-26.331 55.536m26.331-55.536l-54.852-27.182m28.521 82.718l-28.521-82.718m28.521 82.718l-60.925-50.058m60.925 50.058l-37.222 8.912m37.222-8.912l21.457 44.024m-49.978-126.742l-32.404 32.66m32.404-32.66l-58.973-43.801m184.679 79.766l-23.78 60.493m23.78-60.493l-30.082 67.01m6.302-6.517l-6.302 6.517m6.302-6.517l-37.602 50.838m37.602-50.838l5.226 11.735m-5.226-11.735l-29.454 62.944m23.152-56.427l-31.3 44.321m31.3-44.321l-45.646 23.767m-82.382-94.082l23.703 58.97m-23.703-58.97l-26.57-76.461m26.57 76.461l-63.23-64.838m63.23 64.838l-40.792-7.26m64.495 66.23l19.306 43.393M132.2 463.554l-42.057-8.151m42.057 8.151l58.679 35.112M132.2 463.554l-64.495-66.23m137.52 121.896l-14.346-20.554m14.346 20.554l-53.719-12.273m53.719 12.273l8.148 12.106m-8.148-12.106l-38.469 28.724m24.123-49.278l-39.373 8.281m0 0l-61.363-51.544m61.363 51.544l15.25 40.997m-15.25-40.997l-41.401 7.965m-19.962-59.509l-22.438-58.079m22.438 58.079l-63.572-67.27m63.572 67.27l19.962 59.509m-19.962-59.509l-40.715 2.6m32.5-129.88l-36.66 11.623m36.66-11.623L23.62 282.057m21.648 57.689L23.62 282.057m21.648 57.689l-59.602-57.708m59.602 57.708l22.437 57.578m-22.437-57.578l-41.43-13.331m19.782-44.358l-37.954-.019m37.954.019l-52.814-33.923m14.86 33.904l-14.86-33.904m14.86 33.904l-50.044-28.557m50.044 28.557l18.173 44.377m-18.173-44.377l-38.65-4.809m23.79-29.095l-35.184 5.347m0 0l11.395 23.748M67.705 397.324l-41.133-9.191m41.133 9.191L3.84 326.415m22.733 61.718L3.838 326.415m22.733 61.718l-60.316-59.472m60.316 59.472l22.856 69.87m-22.856-69.87l-37.393 9.748m14.66-71.466l-37.583 2.246m37.583-2.246l-56.822-49.186m19.239 51.432l-19.24-51.432m19.24 51.432l-51.644-28.167m51.644 28.167l22.923 69.22m-22.923-69.22l-32.462 26.496m13.223-77.928l-32.405 23.265m0 0l19.182 54.663m701.99 259.723l-42.657-3.602m42.657 3.602l-42.657-3.584m0-.018l-21.286 5.069m21.286-5.069l-37.346-11.828m16.06 16.897l-16.06-16.897m16.06 16.897l21.286-5.051m-21.286 5.051l-39.459-7.483m39.459 7.483l19.001 12.143m-19.001-12.143l-23.399 9.84m44.685-14.891l-37.346-11.846m0 0l-23.399 9.414m23.399-9.414l-37.687-11.734m14.288 21.148l-14.288-21.148m14.288 21.148l-41.819-4.122m41.819 4.122l16.06 17.323m-16.06-17.323l-26.521 16.117m12.233-37.265l-27.531 17.026m27.531-17.026l-43.438-3.621m15.907 20.647l-15.907-20.647m15.907 20.647l-48.378 4.865m48.378-4.865l-30.462 23.284m30.462-23.284l15.298 20.239m-31.205-40.886l-32.471 25.512m32.471-25.512l-54.576 12.533m54.576-12.533l-32.481 25.512m148.667 18.883l21.828 10.268m-21.828-10.268l-23.77 11.864m23.77-11.864l-42.4-2.303m64.228 12.571l-45.598 1.596m45.598-1.596l-24.218 15.318m-21.38-13.722l-18.63-14.167m18.63 14.167l-44.818 2.823m44.818-2.823l21.38 13.722m-21.38-13.722l-26.236 19.422m7.606-33.589l-26.188 16.99m26.188-16.99l-42.581-1.206m-63.676-15.374l17.916 18.419m0 0l16.335 19.923m-16.335-19.923l-32.31 27.35m32.31-27.35l45.76-3.045m-45.76 3.045l-17.926-18.419m17.926 18.419l-51.949 10.397m114.102 4.754l-16.393-18.196m16.393 18.196l-45.818 4.772m45.818-4.772l18.582 16.599m-18.582-16.599l-29.063 24.416m12.67-42.612l-29.425 22.968m0 0l-48.645 7.427m48.645-7.427l16.755 19.644m-16.755-19.644l-31.548 27.832m-17.097-20.405l-19.639-16.953m19.639 16.953l-51.834 10.397m51.834-10.397l17.097 20.405m-17.097-20.405l-32.442 27.201m24.731-85.949l22.095 12.979m-22.095-12.979l-33.689 28.613m33.689-28.613l-49.939-4.456m72.034 17.435l-55.784 15.634m55.784-15.634l-34.023 28.816m-21.761-13.182l-16.25-33.069m16.25 33.069l-43.447-30.488m43.447 30.488l21.752 13.183m-21.752-13.183l-27.673 16.283m27.673-16.283l21.761 13.182m-38.011-46.251l-27.197 2.581m27.197-2.581l-41.572-66.973m14.375 69.554l-14.375-69.554m14.375 69.554l-44.295-60.215m44.295 60.215l15.774 46.771m-15.774-46.771l-28.968 14.352m14.593-83.906l-29.92 9.339m29.92-9.339l-44.723-63.334m14.803 72.673l-14.803-72.673m14.803 72.673l-42.923-18.679m42.923 18.679l-31.29 37.079m31.29-37.079l15.327 74.567m-30.13-147.24l-28.12 53.994m28.12-53.994l-35.793 18.252m160.099 158.306l-32.195 27.35m0 0l-17.239-24.249m17.239 24.249l32.186-27.349m-32.186 27.349l-46.512-7.315m46.512 7.315l19.392 16.804m-19.392-16.804l-29.643 19.125m61.829-46.474l-49.425 3.1m0 0l-29.273 16.934m29.273-16.934l-44.742-32.419m-58.25-93.246l11.633 55.758m-11.633-55.758l-7.673-35.742m7.673 35.742l-37.031 31.194m37.031-31.194l-30.291 59.955m41.924-4.197l46.617 37.488m-46.617-37.488l15.174 62.109m-15.174-62.109l-31.701 44.86m31.701-44.86l-41.924 4.197m104.01 82.644l-15.469-49.353m15.469 49.353l-46.912-24.732m46.912 24.732l16.869 26.44m-16.869-26.44l-31.234 16.896m15.765-66.249l-31.443 24.621m0 0l15.678 41.628m-15.678-41.628l-33.052 24.416m33.052-24.416l-46.875-17.249m352.794 37.599l23.752 15.838m-23.752-15.838l-25.759 20.499m25.759-20.499l-47.616 5.7m71.368 10.138l-49.511 4.661m49.511-4.661l25.122 9.358m-25.122-9.358l-25.532 12.106m-23.979-7.445l-21.857-14.799m21.857 14.799l-49.511 9.432m49.511-9.432l23.979 7.445m-23.979-7.445l-26.703 17.509m4.846-32.308l-27.654 24.231m27.654-24.231l-47.645 7.817m19.991 16.414l-19.991-16.414m19.991 16.414l-49.521 10.546m49.521-10.546l22.808 8.077m-22.808-8.077l-27.874 22.244m7.883-38.658l-29.53 26.96m29.53-26.96l-48.303 8.188m18.773 18.772l-18.773-18.772m18.773 18.772l-49.521 7.966m49.521-7.966l-29.035 24.881m29.035-24.881l21.647 11.698m-40.42-30.47l-30.748 26.738m30.748-26.738l-49.539 6.796m241.977-3.305l-50.654 2.748m50.654-2.748l-25.532 5.385-25.122-2.637m0 0l-50.682 10.064m50.682-10.064l-26.769 11.698-23.913-1.634m0 0l-50.682 14.167m50.682-14.167l-27.987 19.236-22.695-5.069m-71.168-3.732l20.486 16.915m-20.486-16.915l-18.791-19.942m18.791 19.942l-49.606 1.782m49.606-1.782l-30.215 23.933m50.701-7.018l50.682-13.183m-50.682 13.183l21.467 11.511 29.215-24.694m-50.682 13.183l-50.701 7.018m50.701-7.018l-30.443 26.57-20.258-19.552m11.424-43.875l-30.815 21.724m30.815-21.724l-49.035 2.321m18.22 19.403l-18.22-19.403m18.22 19.403l-49.939-7.613m49.939 7.613l19.391 22.151m-19.391-22.151l-32.052 17.862m13.832-37.265l-31.719 11.79m31.719-11.79l-48.103-9.544m16.384 21.334l-16.384-21.334m16.384 21.334l-49.968-14.835m49.968 14.835l17.887 25.475m-17.887-25.475l-33.842 8.282m17.458-29.616l-33.584 6.499m33.584-6.499l-48.73-17.212m15.146 23.711l-15.146-23.711m15.146 23.711l-50.644-19.366m50.644 19.366l-36.013-1.56m36.013 1.56l16.126 23.117m-31.272-46.828l-13.823-41.665m13.823 41.665l-35.498 4.345m35.498-4.345l-48.312-12.366m34.489-29.299l-10.223-40.663m10.223 40.663l-44.503 4.79m44.503-4.79l-34.489 29.299m182.756 80.676l-51.443-4.289m51.443 4.289l-31.919 23.284-19.524-27.573m0 0l-51.729-17.193m51.729 17.193l-33.937 12.682-17.792-29.875m-66.77-42.483l14.631 17.806m-14.631-17.806l-12.814-16.711m12.814 16.711l-50.92-17.509m50.92 17.509l-38.126-8.43m52.757 26.236l52.139 24.677m-52.139-24.677l16.554 26.719 35.585-2.042m-52.139-24.677l-52.757-26.236m52.757 26.236l-37.517-6.87-15.24-19.366m72.196-173.94l-29.358 66.936m29.358-66.936l-34.68 51.209m5.322 15.727l-5.322-15.727m5.322 15.727l-41.258 33.941m41.258-33.941l6.74 28.761m-6.74-28.761l-34.537 53.511m29.215-69.238l-35.936 49.668m35.936-49.668l-46.617 16.618m46.617-16.618l-35.946 49.687-10.671-33.069m10.681 33.05l-10.681-33.05m10.681 33.05l-51.586-13.257m51.586 13.257l6.721 19.57m-6.721-19.57l-40.315 27.053m29.634-60.103l-40.905 19.793m40.905-19.793l-56.651-33.032m15.746 52.825l-15.746-52.825m15.746 52.825L69.4 525.366m56.451 42.371l-40.849 14.037m40.849-14.037l11.271 40.31m-27.017-93.135L69.4 525.366m40.705-10.454l-60.677-56.909m176.007 117.811l-34.28 45.453m34.28-45.453l-41.277 24.75m6.997 20.703l-6.997-20.703m6.997 20.703l-45.97 10.955m45.97-10.955l10.014 24.509m-10.014-24.509l-38.117 20.09m31.12-40.793l-38.973 31.658m38.973-31.658l-47.036 7.483M69.4 525.366l15.602 56.408M69.4 525.366l-19.972-67.363M69.4 525.366l-57.85-53.735m57.85 53.735l40.696-10.454-60.668-56.909M69.4 525.366L30.646 538.92m54.356 42.854l11.243 39.289m-11.243-39.289l-39.772 9.191m39.773-9.191l52.119 26.273m-52.12-26.273L30.646 538.92m114.539 93.302l-8.063-24.175m8.063 24.175l-48.94-11.159m48.94 11.159l7.853 9.135m-7.853-9.135l-40.572 7.074m32.509-31.249l-40.877 13.016m0 0L45.23 590.965m51.015 30.098l8.368 18.233m-8.368-18.233l-40.696.223m-10.32-30.321L30.647 538.92m14.584 52.045l-51.606-37.042m51.606 37.042l10.319 30.321m-10.32-30.321L6.048 594.01m43.38-136.007L11.55 471.631m37.878-13.628l-60.25-60.122m22.372 73.75l-22.371-73.75m22.37 73.75l-55.793-47.347m55.794 47.347l19.096 67.289M11.55 471.631l-35.023 22.69m12.652-96.44l-33.423 26.403m33.423-26.403l-55.385-42.724m21.962 69.127l-21.962-69.127m21.962 69.127l-50.282-23.246m50.282 23.246l20.771 70.037m-20.771-70.037l-30.653 38.546m8.691-107.673l-28.32 45.881m0 0l19.629 61.792m105.543 76.09l-37.022 15.003m37.022-15.003l-54.119-44.599m54.119 44.599l-37.031 15.003-17.088-59.602m17.097 59.602l-17.097-59.602m17.097 59.602l-50.739-32.048m50.74 32.048L6.046 594.01m-12.423-40.087l-37.03 12.626m19.933-72.228l-33.642 27.554m33.642-27.554l-51.424-31.491m51.424 31.491l-33.642 27.573-17.782-59.064m17.782 59.045l-17.782-59.045m17.782 59.045l-48.407-15.095m48.407 15.095l13.708 44.674m-13.708-44.674l-35.222 26.032m17.44-85.077l-30.625 43.95m0 0l13.185 41.127m293.506 97.869l-38.106-.798m38.106.798l-48.131-4.419m10.025 3.621l-10.025-3.621m10.025 3.621l-50.511-7.372m50.511 7.372l12.794 9.079m-12.794-9.079l-40.002-8.968m29.977 5.347l-40.486-3.751m40.486 3.751l-48.425-2.061m7.939-1.69l-7.939 1.69m7.939-1.69l-49.016-7.649m49.016 7.649l10.509-1.596m-10.509 1.596l-40.22-5.273m32.281 6.963l-41.077-9.339m41.077 9.339l-49.064-18.01m7.987 8.671l-7.987-8.671m7.987 8.671L14.472 612.41m49.064 17.547l-40.639-6.016m40.639 6.016l8.796 2.376m-16.783-11.047l-41.077-8.876m41.077 8.876L6.047 594.01m169.81 60.047l-52.796-18.047m52.796 18.047l-39.087-9.543-13.709-8.504m0 0l-50.73-3.677m50.73 3.677l-40.315-4.141-10.414.464m-57.86-19.923l8.425 11.531m-8.425-11.531l-8.425-18.4m8.425 18.4L-34.6 591.652m49.073 20.758l-41.077-1.559m49.502 13.09l49.435 8.392m-49.435-8.392l9.738 6.833 39.697 1.559m-49.435-8.392l-49.502-13.09m49.502 13.09l-40.572 1.411-8.93-14.501M6.047 594.01l-40.648-2.358m40.648 2.358l-49.454-27.461m8.806 25.103l-8.806-25.103m8.806 25.103l-49.054-17.268m49.054 17.268l7.996 19.199m-7.996-19.199l-41.515 6.201m32.71-31.304l-40.25 7.835m40.25-7.835l-48.931-18.642m8.682 26.477l-8.682-26.477m8.682 26.477l-49.016-7.13m49.016 7.13l7.54 23.469m-7.54-23.469l-41.896 15.374m33.214-41.851l-40.334 19.347m0 0l7.12 22.504m98.946 21.093l-49.51-12.998m49.51 12.998l-41.438 7.705-8.073-20.703m0 0l-49.435-8.095m49.435 8.095l-42.238 15.411-7.197-23.506m1515.021 24.918l45.52 24.713m-45.52-24.713l-7.56 21.111m7.56-21.111l-51.8-9.47m97.32 34.183l-53.08-3.602m53.08 3.602l-6.59 23.915m-46.49-27.517l46.49 27.517m-46.49-27.517l-7.93 23.971m7.93-23.971l-44.24-30.581m44.24 30.581l-53.09-8.523m53.09 8.523l-7.93 23.989-45.16-32.512m99.58 36.04l-54.42-3.546m54.42 3.546l48.91 25.53m-48.91-25.53l-6.92 25.493m-47.5-29.039l-45.16-32.494m45.16 32.494l-54.44-5.831m54.44 5.831l47.5 29.039m-47.5-29.039l-8.34 27.034m-27.97-81.586l-8.85 22.058m8.85-22.058l-51.82-13.74m42.97 35.798l-9.28 26.663m9.28-26.663l-42.97-35.798m42.97 35.798l-53.09-10.193m43.81 36.856l-43.81-36.856m43.81 36.856l-54.44-5.867m54.44 5.867l46.1 32.865m-46.1-32.865l-9.75 30.191m-23.94-92.652l-10.12 25.605m10.12-25.605l-51.81-13.814m41.69 39.419l-10.63 30.989m10.63-30.989l-41.69-39.419m41.69 39.419l-53.1-8.653m42.47 39.642l-42.47-39.642m42.47 39.642l-54.44-3.658m54.44 3.658l-11.18 34.016m11.18-34.016l44.69 36.058m-75.75-106.466l-11.41 30.766m11.41-30.766l-51.83-9.674m40.42 40.44l-40.42-40.44m40.42 40.44l-11.97 35.984m11.97-35.984l-53.11-3.862m12.69-36.578l-12.69 36.578m12.69-36.578l-51.82.334m346.92 120.522l-55.83-.037m55.83.037l-5.81 26.905m-50.02-26.942l50.02 26.942m-50.02-26.942l-7.3 26.942m7.3-26.942l-55.84-2.005m105.86 28.947h-57.32m57.32 0l52.75 27.869m-52.75-27.869l-6.14 27.944m-51.18-27.944l-48.54-28.947m48.54 28.947l-57.34-.297m57.34.297l51.18 27.944m-51.18-27.944l-7.72 28.018m-40.82-56.965l-8.8 28.65m8.8-28.65l-55.85-2.674m-99.13-39.716l43.26 37.674m-43.26-37.674l-41.14-39.846m41.14 39.846l-54.45-.093m54.45.093l-12.6 37.507m55.86.167l45.58 33.068m-45.58-33.068l-11.77 33.05m11.77-33.05l55.87 2.042m-55.87-2.042l-55.86-.167m158.78 33.533l-47.05-31.324m47.05 31.324l-57.34-.298m57.34.298l49.62 28.315m-49.62-28.315l-9.29 28.389m-37.76-59.713l-10.29 31.026m0 0l-57.35-.018m57.35.018l48.05 28.687m-48.05-28.687l-10.87 28.743m-46.48-28.761l-44.09-33.217m44.09 33.217l-57.36-.019m57.36.019l46.48 28.761m-46.48-28.761l-12.44 28.835m-60.19-139.405l-13.31 39.753m13.31-39.753l-39.13-36.244m39.13 36.244l-53.1 5.496m39.79 34.257l-39.79-34.257m39.79 34.257l-54.46 5.849m54.46-5.849l41.85 37.6m-41.85-37.6l-14.02 37.711m-11.8-113.708l-13.97 41.74m13.97-41.74l-51.83 15.876m37.86 25.864l-14.67 40.106m14.67-40.106l-37.86-25.864m37.86 25.864l-53.12 14.724m38.45 25.382l-38.45-25.382m38.45 25.382l-54.47 10.287m54.47-10.287l40.44 31.862m-40.44-31.862l-15.44 35.353m-7.75-101.323l-15.26 40.588m15.26-40.588l-51.85 24.156m36.59 16.432l-16.02 35.669m16.02-35.669l-36.59-16.432m36.59 16.432l-53.12 18.234m37.1 17.435l-37.1-17.435m37.1 17.435l-54.476 10.732m54.476-10.732l-16.85 29.93m16.85-29.93l39.03 25.066m-59.6-77.167l-16.53 34.666m16.53-34.666l-51.841 24.992m35.311 9.674l-35.311-9.674m35.311 9.674l-17.376 28.167m17.376-28.167l-53.131 15.986m17.82-25.66l-17.82 25.66m17.82-25.66l-51.853 18.363m275.044 30.21l-13.27 33.198m13.27-33.198l-55.87.111m42.6 33.087l-42.6-33.087m42.6 33.087l-57.36.075m57.36-.075l44.92 28.854m-44.92-28.854l-14.01 28.929m-28.59-62.016l-14.76 33.162m14.76-33.162l-55.88 3.491m-93.506-14.334l37.626 19.198m-37.626-19.198l-35.755-12.181m35.755 12.181l-54.471 7.185m54.471-7.185l-18.268 23.19m55.894-3.992l55.88-4.864m-55.88 4.864l39.63 25.475m-39.63-25.475l-17.75 26.199m17.75-26.199l-55.894 3.992m152.894 20.815l-41.12-29.671m41.12 29.671l-57.37.668m57.37-.668l43.35 28.854m-43.35-28.854l-15.58 28.909m-25.54-58.58l-16.25 30.339m0 0l41.79 28.241m-41.79-28.241l-17.17 28.316m17.17-28.316l-57.38.724m511.57 27.034l-58.89.075m58.89-.075l-4.86 29.709m-54.03-29.634l54.03 29.634m-54.03-29.634l-6.52 29.708m6.52-29.708l-58.9.074m112.93 29.56l-60.55.074m60.55-.074l57.16 31.36m-57.16-31.36l-5.13 31.434m-55.42-31.36l-52.38-29.634m52.38 29.634l55.42 31.36m-107.8-60.994l52.37 29.634m-52.37-29.634l-8.18 29.708m8.18-29.708l-58.91.074m111.28 29.56l-60.55.074m60.55-.074l55.43 31.36m-55.43-31.36l-6.88 31.435m-53.67-31.361l-50.73-29.634m50.73 29.634l-60.57.074m60.57-.074l53.67 31.361m-53.67-31.361l-8.64 31.435m-42.09-61.069l-9.84 29.708m9.84-29.708l-58.92.056m49.08 29.652l-49.08-29.652m49.08 29.652l-60.58.075m60.58-.075l-10.4 31.454m10.4-31.454l51.93 31.361m-101.01-61.013l-11.5 29.727m11.5-29.727l-58.92.074m346.84 60.716l-62.29.074m62.29-.074l-3.55 33.347m-58.74-33.273l58.74 33.273m-58.74-33.273l-5.42 33.348m5.42-33.348l-62.31.075M1573 838.024l-64.16.075m64.16-.075l62.39 35.353M1573 838.024l-3.74 35.427m-60.42-35.352l-56.89-33.273m56.89 33.273l-64.17.093m64.17-.093l60.42 35.352m-60.42-35.352l-5.72 35.445m-51.17-68.718l-7.28 33.366m7.28-33.366l-62.31.074m-112.51-31.286l50.18 31.379m-50.18-31.379l-47.42-29.653m47.42 29.653l-60.58.074m60.58-.074l-12.15 31.453m62.33-.074l53.18 33.273m-53.18-33.273l-11 33.347m11-33.347l62.33-.093m-62.33.093l53.19 33.273m-53.19-33.273l-62.33.074m179.69 33.125l-55.03-33.292m55.03 33.292l-64.17.074m64.17-.074l58.45 35.352m-58.45-35.352l-7.69 35.445m-47.34-68.737l-9.14 33.366m0 0l56.48 35.371m-56.49-35.371l-64.18.074m64.18-.074l56.49 35.371m-56.49-35.371l-9.67 35.445m-54.51-35.371l-51.33-33.273m51.33 33.273l-64.2.093m64.2-.093l54.51 35.371m-54.51-35.371l-11.66 35.464m-74.94-129.843l-13.16 29.727m13.16-29.727l-58.93.075m45.77 29.652l-45.77-29.652m45.77 29.652l-60.59.074m60.59-.074l48.43 31.379m-48.43-31.379l-13.92 31.453m-31.85-61.105l-14.82 29.726m14.82-29.726l-58.93.055m44.11 29.671l-44.11-29.671m44.11 29.671l-60.6.074m60.6-.074l46.67 31.379m-46.67-31.379l-15.68 31.454m-28.43-61.125l-16.49 29.745m16.49-29.745l-58.96.075m42.47 29.67l-42.47-29.67m42.47 29.67l-60.61.056m60.61-.056l-17.43 31.454m17.43-31.454l44.92 31.38m-87.39-61.05l-40.21-27.592m40.21 27.592l-18.14 29.726m18.14-29.726l-58.953.074m18.743-27.666l-38.144-22.207m38.144 22.207l-57.383.26m57.383-.26l-18.743 27.666m271.043 60.827l-12.87 33.366m12.87-33.366l-62.35.074m49.48 33.292l-49.48-33.292m49.48 33.292l-64.2.074m64.2-.074l52.54 35.371m-52.54-35.371l-13.64 35.464m-35.84-68.756l-14.72 33.366m14.72-33.366l-62.35.075m-105.53-31.324l43.18 31.398m-43.18-31.398l-40.813-29.652m40.813 29.652l-60.614.074m60.614-.074l-19.19 31.472m62.37-.074l45.76 33.31m-45.76-33.31l-18.46 33.384m18.46-33.384l62.35-.074m-62.35.074l-62.37.074m172.35 33.143l-47.63-33.291m47.63 33.291l-64.22.093m64.22-.093l50.56 35.39m-50.56-35.39l-15.62 35.464m-32.01-68.755l-16.59 33.384m0 0l-64.22.074m64.22-.074l48.6 35.371m-48.6-35.371l-17.6 35.464m-46.62-35.39l-43.91-33.31m43.91 33.31l-64.238.075m64.238-.075l46.62 35.39m-46.62-35.39l-19.59 35.483m-82.831-215.161l-18.716 19.366m18.716-19.366l-34.033-7.297m34.033 7.297l-53.138 8.04m34.422 11.326l-34.422-11.326m34.422 11.326l-54.47.539m54.47-.539l36.203 16.005m-36.203-16.005l-19.695 16.86m4.378-43.523l-19.105 15.337m19.105-15.337l-51.862 4.252m32.757 11.085l-20.048 11.865m20.048-11.865l-32.757-11.085m32.757 11.085l-53.119-2.135m33.071 14l-33.071-14m33.071 14l-54.433-2.73m54.433 2.73l34.775 16.321m-34.775-16.321l-21.076 15.114m8.367-38.064l-20.362 8.95m20.362-8.95l-51.881-5.124m31.519 14.074l-21.362 11.27m21.362-11.27l-31.519-14.074m31.519 14.074l-53.129-3.231m53.129 3.231l-21.372 11.27m.01 0l33.357 17.844m-43.514-43.188l-21.61 10.843m21.61-10.843l-51.882-.075m30.272 10.918l31.757 14.501m-31.757-14.501l-30.272-10.918m30.272 10.918l-22.685 14.445m22.685-14.445l-53.128 5.57m84.885 8.931l-54.442-.056m54.442.056l-22.485 16.581m22.485-16.581l33.367 17.844m-95.396-43.263l-22.856 16.488m22.856-16.488l-51.872 15.003m259.017 28.612l-19.239 22.467m19.239-22.467l-55.898.855m36.659 21.612l-36.659-21.612m36.659 21.612l-57.393-.371m57.393.371l38.64 27.406m-38.64-27.406l-20.314 27.462m-16.345-49.074l-20.734 21.241m20.734-21.241l-55.851-1.207m-87.809-17.9l31.957 16.637m-31.957-16.637l-30.443-8.875m30.443 8.875l-54.509 7.112m54.509-7.112l-23.903 18.809m55.86-2.172l33.595 23.414m-33.595-23.414l-23.799 23.451m23.799-23.451l55.852 1.263m-55.852-1.263l-55.86 2.172m55.86-2.172l-55.86 2.191m146.829 21.52l-35.117-22.448m35.117 22.448l-57.374-.297m57.374.297l37.079 27.833m-37.079-27.833L875.98 744.37m-13.193-50.355l-22.257 22.151m0 0l-57.394.037m57.394-.037l35.45 28.204m-35.45-28.204l-23.571 28.278m-33.823-28.241l-32.061-21.279m32.061 21.279l-57.412.724m57.412-.724l-32.061-21.26m32.061 21.26l33.823 28.241m-33.823-28.241l-25.198 28.315m-13.403-77.278l-24.066 15.987m24.066-15.987l-29.016-1.485m29.016 1.485l-53.186 12.218m29.12 3.769l-29.12-3.769m29.12 3.769l-54.575 5.774m54.575-5.774l30.606 11.697m-30.606-11.697l-25.398 14.947m20.448-32.419l-24.17 13.703m24.17-13.703l-51.872 14.26m27.702-.557l-25.455 9.543m25.455-9.543l-27.702.557m27.702-.557l-53.205 6.684m27.75 2.859l-27.75-2.859m27.75 2.859l-54.576 2.043m54.576-2.043l29.177 9.173m-29.177-9.173l-26.826 10.194m24.579-19.18l-25.503 6.127m25.503-6.127l-51.872 4.642 26.369 1.485m0 0l-26.826 4.902m0 0l27.75 8.151m112.007-4.271l-25.351 22.003m25.351-22.003l-56.004 3.25m30.653 18.753l-30.653-18.753m30.653 18.753l25.351-21.984m-25.351 21.984l-57.45.279m57.45-.279l32.214 27.591m-32.214-27.591l-26.731 27.647m52.082-49.631l-56.004 3.231m0 0l-26.797 19.032m26.797-19.032l-56.003 1.021m29.206 18.011l-29.206-18.011m29.206 18.011l-57.451.854m57.451-.854l30.719 27.368m-30.719-27.368l-28.235 27.442m-.971-45.453l-28.245 18.865m0 0l29.216 26.588m353.898-.408l-19.801 29.726m19.801-29.726l-58.954.056m39.153 29.67l-39.153-29.67m39.153 29.67l-60.639.075m60.639-.075l41.424 31.398m-41.424-31.398l-20.952 31.472m-18.201-61.142l-21.486 29.745m21.486-29.745l-59.003.074m37.517 29.671L875.98 744.37m37.517 29.671l-60.668.074m60.668-.074l39.687 31.397m-39.687-31.397l-22.695 31.49M875.98 744.37l-23.151 29.745m23.151-29.745l-59.021.074m35.87 29.671l-35.87-29.671m35.87 29.671l-60.687.074m60.687-.074l-24.427 31.49m24.427-31.49l37.973 31.416m-73.843-61.087l-24.817 29.745m24.817-29.745l-59.021.074m257.622 60.846l-20.328 33.385m20.328-33.385l-62.376.074m42.048 33.311l-42.048-33.311m42.048 33.311l-64.229.092m64.229-.092l44.648 35.408m-44.648-35.408l-21.572 35.482m-20.476-68.793l-22.181 33.403m22.181-33.403l-62.382.093m-98.66-31.342l36.26 31.416m-36.26-31.416l-34.204-29.671m34.204 29.671l-60.64.074m60.64-.074l-26.141 31.491m62.401-.075l38.402 33.311m-38.402-33.311l-25.808 33.403m25.808-33.403l62.4-.074m-62.4.074l-62.401.075m165.002 33.161l-40.201-33.31m40.201 33.31l-64.199.075m64.199-.075l42.657 35.39m-42.657-35.39l-23.494 35.483m-16.707-68.793l-23.998 33.385m0 0l-64.21.092m64.21-.092l40.705 35.408m-40.705-35.408l-25.437 35.501m-38.773-35.409l-36.593-33.328m36.593 33.328l-64.266.075m64.266-.075l38.773 35.409m-38.773-35.409l-27.387 35.502m-17.269-129.992l-26.436 29.745m26.436-29.745l-58.945.056m32.509 29.689l-32.509-29.689m32.509 29.689l-60.61.075m60.61-.075l34.499 31.417m-34.499-31.417l-27.911 31.491m-4.598-61.18l-28.101 29.764m28.101-29.764l-58.954.074m30.853 29.69l-30.853-29.69m30.853 29.69l-60.621 1.318m60.621-1.318l32.699 31.416m-32.699-31.416l-29.711 31.49m-1.142-61.18l-29.768 31.008m0 0l30.91 30.172m124.82-.148l-27.673 33.403m27.673-33.403l-62.41.074m34.737 33.329l-34.737-33.329m34.737 33.329l-64.343.074m64.343-.074l36.879 35.427m-36.879-35.427l-29.482 35.501m-5.255-68.83l-29.606 33.403m29.606-33.403l-62.41.074m32.804 33.329l-32.804-33.329m32.804 33.329l-64.342.316m64.342-.316l34.861 35.427m-34.861-35.427l-31.519 35.52m-1.285-68.849l-31.538 33.645m0 0l32.823 35.204m992.924-1.3l-66.13.074m66.13-.074l-1.85 37.711m-64.28-37.637l64.28 37.637m-64.28-37.637l-3.96 37.73m3.96-37.73l-66.14.093m130.42 37.544l-68.24.093m68.24-.093l68.46 40.05-70.46.111m2-40.161l-2 40.161m-66.24-40.068l-62.18-37.637m62.18 37.637l-68.25.074m68.25-.074l66.24 40.068m-66.24-40.068l-4.24 40.161m-57.94-77.798l-6.07 37.711m6.07-37.711l-66.14.093m66.14-.093l-6.07 37.729-60.07-37.636m60.07 37.618l-60.07-37.618m60.07 37.618l-68.25.093m68.25-.093l64.01 40.087m-64.01-40.087l-6.48 40.18m-53.59-77.798l-8.18 37.711m8.18-37.711l-66.16.074m66.16-.074l-8.18 37.729-57.98-37.655m57.98 37.637l-57.98-37.637m57.98 37.637l-68.27.092m68.27-.092l-8.72 40.198m8.72-40.198l61.77 40.087m-119.75-77.724l-10.29 37.729m10.29-37.729l-66.17.093m326.89 77.445l-70.48.093m0 0l-70.49.093m-130.04-39.995l59.55 40.106m-59.55-40.106l-55.88-37.636m55.88 37.636l-68.27.093m68.27-.093l59.54 40.106-70.5.093m10.96-40.199l-10.96 40.199m70.51-.093l70.49-.111m-185.92-77.631l-12.39 37.729m12.39-37.729l-66.18.093m53.79 37.636l-53.79-37.636m53.79 37.636l-68.28.093m68.28-.093l57.31 40.106m-57.31-40.106l-13.21 40.199m-40.58-77.835l-14.49 37.729m14.49-37.729l-66.18.074m51.69 37.655l-51.69-37.655m51.69 37.655l-68.3.093m68.3-.093l55.07 40.106m-55.07-40.106l-15.46 40.217m-36.23-77.872l-16.61 37.748m16.61-37.748l-66.2.093m49.59 37.655l-49.59-37.655m49.59 37.655l-68.31.093m68.31-.093l-17.71 40.217m17.71-40.217l52.84 40.124m-102.43-77.779l-18.72 37.748m18.72-37.748l-66.21.093m309.69 77.482l-70.52.093m0 0l-70.53.111m-121.15-40.031l50.6 40.124m-50.6-40.124l-47.49-37.655m47.49 37.655l-68.31.093m68.31-.093l-19.95 40.217m70.55-.093l70.55-.093m-70.55.093l-70.55.093m-27.54-77.872l-20.82 37.748m20.82-37.748l-66.22.074m66.22-.074l-66.22.093m45.4 37.655l-45.4-37.655m45.4 37.655l-45.4-37.674m45.4 37.674l-68.304.092m68.304-.092l48.36 40.124m-48.36-40.124l-22.21 40.217m-23.19-77.891l-22.904 37.766m22.904-37.766l-66.151.093m66.151-.074l-66.151.074m66.151-.074l-22.904 37.747m0 0l-43.247-37.673m43.247 37.673l-68.255.093m68.255-.093l46.094 40.125m-46.094-40.125l-24.465 40.236m-18.782-77.909l-25.008 37.766m25.008-37.766l-66.142.093m41.134 37.673l-41.134-37.673m41.134 37.673l-68.264.093m68.264-.093l-26.788 40.236m26.788-40.236l43.79 40.143m-84.924-77.816l-27.13 37.766m27.13-37.766l-66.16.093m292.213 77.519l-70.57.093m0 0l-70.559.111m-112.054-40.05l41.476 40.143m-41.476-40.143l-39.03-37.673m39.03 37.673l-68.36.093m68.36-.093l-29.12 40.236m70.596-.093l70.578-.093m-70.578.093l-70.596.093m-9.91-77.909l-29.33 37.766m29.33-37.766l-66.361.074m37.031 37.692l-37.031-37.692m37.031 37.692l-68.474.093m68.474-.093l39.24 40.143m-39.24-40.143l-31.376 40.254m-5.655-77.946l-31.443 37.785m31.443-37.785l-66.38.093m34.937 37.692l-34.937-37.692m34.937 37.692l-68.464-.334m68.464.334l37.098 40.161m-37.098-40.161l-33.528 40.254m-1.409-77.946l-33.527 37.358m0 0l34.936 40.588m141.242-.204l-70.616.111m0 0l-70.626.093m-32.338-267.892l26.379 1.485m-26.379-1.485l-26.826 7.074m26.826-7.074l-51.919 9.191m78.298-7.706l-53.205 5.589m53.205-5.589l-26.845 4.995m-26.36.594l26.36-.594m-26.36.594l-28.187 15.931m28.187-15.931l-25.093 2.117m25.093-2.117l-53.204 19.143m79.564-19.737l-54.547 16.525m54.547-16.525l27.759 8.263m-27.759-8.263l-28.235 16.432m-26.312.093l-25.017 3.212m25.017-3.212l-54.566 28.835m54.566-28.835l26.312-.093m-26.312.093l-29.663 27.592m32.757-41.406l-28.111 17.026m28.111-17.026l-51.929 17.75m23.818-.724l-29.549 25.623m29.549-25.623l-23.818.724m23.818-.724l-53.215 25.549m23.666.074l-23.666-.074m23.666.074l-54.566 31.714m54.566-31.714l24.903-1.243m-24.903 1.243l-31.081 35.204m36.812-60.103l-29.397 24.825m29.397-24.825l-51.929 19.719m22.532 5.106l-30.9 31.788m30.9-31.788l-22.532-5.106m22.532 5.106l-53.223 23.971m22.323 7.817l-22.323-7.817m22.323 7.817l-54.576 25.103m54.576-25.103l-32.509 37.785m32.509-37.785l23.485 3.49m-15.117-40.384l-30.691 29.077m30.691-29.077l-51.939 15.114m21.248 13.963l-21.248-13.963m21.248 13.963l-32.253 32.92m32.253-32.92l-53.224 14.334m31.976-28.297l-31.976 28.297m31.976-28.297l-52.214 3.714m287.223-50.745l-55.994 8.169m55.994-8.169l-28.273 19.143m-27.721-10.974l27.721 10.974m-27.721-10.974l-29.749 31.175m29.749-31.175l-55.975 27.685m83.696-16.711l-57.47 20.201m57.47-20.201l29.234 26.663m-29.234-26.663l-29.796 35.426m-27.674-15.225l-26.226-3.49m26.226 3.49l-57.479 36.281m57.479-36.281l27.674 15.225m-27.674-15.225l-31.376 43.987m5.15-47.477l-31.253 39.771m31.253-39.771l-55.984 36.447m-78.061 21.613l22.067 12.682m-22.067-12.682l-20.971-18.586m20.971 18.586l-54.851 8.281m54.851-8.281l-33.927 33.923m55.994-21.241l23.246 9.061m-23.246-9.061l-34.252 40.495m34.252-40.495l55.994-34.295m-55.994 34.295l-55.994 21.241m136.719-52.212l-24.731-3.324m24.731 3.324l-57.479 40.032m57.479-40.032l26.103 7.706m-26.103-7.706l-32.956 45.565m8.225-48.889l-32.748 43.356m0 0l-57.498 31.434m57.498-31.434l24.523 5.533m-24.523-5.533l-34.546 41.164m-22.952-9.73l-21.742-19.254m21.742 19.254l-57.536 10.213m57.536-10.213l22.952 9.73m-22.952-9.73l-36.117 31.844m27.331-103.607l-33.88 26.867m33.88-26.867l-20.238-24.583m20.238 24.583l-54.423-5.979m20.543 32.846l-20.543-32.846m20.543 32.846l-56.089-21.185m56.089 21.185l20.914 25.642m-20.914-25.642l-35.803 19.181m35.803-19.181l20.924 25.642m-7.282-77.092l-34.185 18.604m34.185-18.604l-53.491-15.059m19.306 33.663l-35.546 11.661m35.546-11.661l-19.306-33.663m19.306 33.663l-54.795-27.591m19.249 39.252l-19.249-39.252m19.249 39.252l-55.813-39.753m55.813 39.753l20.286 40.366m-20.286-40.366l-36.412 4.419m52.652-49.743l-35.489 6.072m35.489-6.072l-53.404-28m17.915 34.072l-36.564-.501m36.564.501l-17.915-34.072m17.915 34.072l-54.956-38.453m18.392 37.952l-18.392-37.952m18.392 37.952l-56.032-46.178m56.032 46.178l-37.088-5.794m37.088 5.794l19.401 44.172m-.752-77.743l-37.041-4.381m37.041 4.381l-54.109-33.737m17.068 29.356l-17.068-29.356m17.068 29.356l-37.64-8.226m37.64 8.226l-55.366-38.751m38.298 9.395l-38.298-9.395m38.298 9.395l-54.348-28.965m222.634 182.853l-35.794 29.467m0 0l-20.933-35.928m20.933 35.928l35.784-29.467m-35.784 29.467l-57.374-24.732m57.374 24.732l21.419 21.631m-21.419-21.631l-37.326 14.835m73.11-44.302l-56.717-6.461m0 0l-36.441 11.196m36.441-11.196l-56.698-35.947m-75.433-90.35l18.944 40.384m-18.944-40.384l-17.726-30.525m17.726 30.525L113.78 655.97m56.251 38.583l-37.679-8.56m56.623 48.944l56.489 49.966m-56.489-49.966l19.829 48.165m-19.829-48.165l-36.965-7.798m36.965 7.798l-56.623-48.944m133.369 146.053l-20.257-47.143m20.257 47.143l-56.917-48.944m56.917 48.944l20.048 39.567m-20.048-39.567l-38.078 2.024m17.821-49.167l-36.66-1.801m0 0l18.839 50.968m-18.839-50.968l-39.087-1.17m39.087 1.17l-56.794-55.963m487.781 18.141l-59.03 8.763m59.03-8.763l-29.805 31.063m-29.225-22.3l29.225 22.3m-29.225-22.3l-31.482 39.754m31.482-39.754l-59.05 28.762m88.275-6.462l-60.707 17.454m60.707-17.454l30.929 30.191m-30.929-30.191l-31.539 35.947m-29.168-18.493l-27.568-10.992m27.568 10.992l-60.715 29.782m60.715-29.782l29.168 18.493m-29.168-18.493l-33.308 37.58m5.74-48.572l-33.147 40.774m33.147-40.774l-59.059 37.859m25.912 2.915l-25.912-2.915m25.912 2.915l-60.725 32.642m60.725-32.642l27.407 7.798m-27.407-7.798l-35.08 32.994m9.168-35.909l-34.813 35.557m34.813-35.557l-59.069 35.631m24.256-.074l-24.256.074m24.256-.074l-60.735 26.068m60.735-26.068l-36.841 24.045m36.841-24.045l25.645.352m-49.901-.278l-36.479 25.994m36.479-25.994l-59.069 22.114m296.401-71.875l-62.468 5.756m62.468-5.756l-31.567 33.681m-30.901-27.925l30.901 27.925m-30.901-27.925l-33.432 36.207m33.432-36.207l-62.476 19.087m93.377 8.838l-64.333 8.282m64.333-8.282l32.842 35.26m-32.842-35.26l-33.509 36.021m-30.824-27.739l-29.044-17.12m29.044 17.12l-64.352 15.726m64.352-15.726l30.824 27.739m-30.824-27.739l-35.499 34.461m6.455-51.581l-35.308 32.846m35.308-32.846l-62.487 25.196m-86.38 25.716l23.894-2.023m-23.894 2.023l-22.59-3.88m22.59 3.88l-60.677 9.229m60.677-9.229l-38.611 12.645m62.505-14.668l25.313 1.411m-25.313-1.411l-39.058 14.909m39.058-14.909l62.486-23.693m-62.486 23.693l-62.505 14.668m152.17-30.711l-27.179-7.65m27.179 7.65l-64.352 17.454m64.352-17.454l28.853 18.735m-28.853-18.735l-37.488 28.52m10.309-36.17l-37.173 25.104m0 0l-64.371 13.498m64.371-13.498l26.864 11.066m-26.864-11.066l-39.487 20.127m-24.884-6.629l-23.447-.241m23.447.241l-64.362 4.067m64.362-4.067l24.884 6.629m-24.884-6.629l-41.468 11.122m34.042-27.888l-38.087 13.109m38.087-13.109l-58.745-6.796m20.658 19.905l-20.658-19.905m20.658 19.905l-60.002-21.167m60.002 21.167l22.066 3.416m-22.066-3.416l-40.163-.836m19.505-19.069l-39.344-1.262m39.344 1.262l-58.126-37.543m18.782 36.281l-18.782-36.281m18.782 36.281l-59.678-39.754m59.678 39.754l19.839 20.331m-19.839-20.331l-41.962-4.29m23.18-31.991l-40.896-3.473m40.896 3.473l-57.926-52.138m17.03 48.665l-17.03-48.665m17.03 48.665l-59.64-45.564m59.64 45.564l-43.866 1.17m43.866-1.17l17.716 35.464m-34.746-84.129l-17.707-54.793m17.707 54.793l-42.61 3.101m42.61-3.101l-58.012-50.689m40.305-4.104l-19.658-41.146m19.658 41.146l-56.993-45.546m56.993 45.546l-40.305 4.104m216.788 163.691l-40.915 4.308m40.915-4.308l-62.229-4.252m21.314 8.56l-21.314-8.56m21.314 8.56l-64.123-9.86m64.123 9.86l22.894 7.055m-22.894-7.055l-43.523 6.201m22.209-14.761l-42.809-1.3m42.809 1.3l-61.801-24.621m-77.356-81.028l15.774 46.734m-15.774-46.734l-15.402-53.79m15.402 53.79l-59.802-37.6m59.802 37.6l-45.808 13.424m61.582 33.31l16.678 36.653m-16.678-36.653l-46.94 12.775m46.94-12.775l61.582 34.294m-61.582-34.294l-61.582-33.31m142.156 90.925l-18.992-23.321m18.992 23.321l-63.886-20.962m63.886 20.962l20.6 16.061m-20.6-16.061l-45.713 7.316m26.721-30.637l-44.894 2.359m44.894-2.359l-44.904 2.359m.01 0l18.173 28.278m-18.183-28.278L95.94 844.542m63.619 23.878l18.183 28.278m-18.183-28.278l-47.816 15.188M95.94 844.542L81.3 798.457m14.64 46.085l-63.714-19.069m63.714 19.069l15.803 39.066M95.94 844.542l-50.082 26.793m106.447-207.307l-38.525-8.058m38.525 8.058l-16.05-19.57m16.05 19.57l-55.537-26.124m17.012 18.066l-17.011-18.066m17.011 18.066l-56.251-16.284m56.251 16.284l18.572 30.023M113.78 655.97l-38.345-1.968m60.82-9.544l-39.486-6.554m39.486 6.554l-54.032-12.57m14.546 6.016l-39.24 1.782m39.24-1.782l-14.546-6.016m14.546 6.016l-53.12-2.897m13.88 4.679l-13.88-4.679m13.88 4.679l-52.957 3.881m52.957-3.881l17.906 14.316M57.53 639.686l-38.012 11.902m62.706-19.7l-38.573 3.119m38.573-3.119l-50.14-1.059m11.567 4.178l-39.078 8.56m39.078-8.56l-11.567-4.178m11.567 4.178l-51.482.817m12.404 7.743l-12.404-7.743m12.404 7.743l-53.29 5.236m53.29-5.236l-40.344 15.875m40.344-15.875l14.945 8.021m12.566-20.759l-39.915 4.995m39.915-4.995l-50.33-5.31m10.415 10.305l-10.415-10.305m10.415 10.305l-40.887 12.979m40.887-12.979l-51.653-.13m41.238-10.175l-41.238 10.175m41.238-10.175l-50.386-6.666m200.985 67.14l-37.335-4.4m37.335 4.4l-56.917-31.991m19.582 27.591l-19.582-27.591m19.582 27.591l37.326 4.401-56.908-31.992m19.582 27.591l-57.47-17.676m57.47 17.676l16.688 49.65m-16.688-49.65l-41.658 16.432m22.076-44.023l-37.888 9.915m37.888-9.915l-55.918-2.414m-68.236-2.785l12.947 10.639m-12.947-10.639l-10.766-13.109m10.766 13.109l-53.414 5.681m53.414-5.681l-42.628 21.278m55.575-10.639l15.698 10.695m-15.698-10.695l-42.419 23.896m42.419-23.896l55.29-7.854m-55.29 7.854l-55.575 10.639m128.894-6.164l-18.03-12.329m18.03 12.329l-57.621 6.22m57.621-6.22l15.812 34.108m-15.812-34.108l-43.39 31.1m25.36-43.429l-39.591 18.549m0 0l-58.117 13.201m58.117-13.201l14.231 24.88m-14.231-24.88l-45.76 35.037m-12.357-21.836l-13.156-13.257m13.156 13.257l-58.288 15.504m58.288-15.504l12.356 21.836m-12.356-21.836l-47.931 36.486m66.637-84.13l-42.648 18.79m42.648-18.79l-9.148-16.841m9.148 16.841l-51.663-.074m9.015 18.864l-9.015-18.864m9.015 18.864l-53.309 5.255m53.309-5.255l10.786 15.597m-10.786-15.597l-44.799 26.218m78.298-61.849l-42.514 16.767m42.514-16.767l-50.339-5.161m7.825 21.928l-44.294 24.119m44.294-24.119l-7.825-21.928m7.825 21.928l-51.491.928m7.197 23.191l-7.197-23.191m7.197 23.191l-52.976 3.881m52.976-3.881l8.51 20.963m-8.51-20.963L-202.24 688.5m83.267-74.808l-43.666 22.856m43.666-22.856l-50.139-.78 6.473 23.636m0 0l-45.779 27.072m0 0l6.178 24.88m110.893-18.419l-45.132 28.761m45.132-28.761l-55.585 10.621m10.453 18.14l-10.453-18.14m10.453 18.14l-58.146 13.128m58.146-13.128l10.357 20.982m-10.357-20.982l-49.94 35.576m39.487-53.716l-47.693 31.268m47.693-31.268l-55.308 7.798m7.615 23.47l-7.615-23.47m7.615 23.47l-57.659 6.053m57.659-6.053l8.206 22.448m-8.206-22.448l-51.795 32.474m44.18-55.944l-50.044 29.523m0 0l5.864 26.421m358.125-13.201l-44.4 16.19m44.4-16.19l-58.346-33.218m58.346 33.218l-44.41 16.19m.01 0L81.3 798.457M53.36 698.025l13.937 49.408m-13.937-49.408L7.056 731.187m46.303-33.162l-59.202-3.008m73.139 52.416l-60.24-16.246m60.24 16.246l14.003 51.024m-14.003-51.024l-47.807 29.374m-12.433-45.62l-12.899-36.17m12.9 36.17l-61.45 5.273m61.45-5.273l12.432 45.62m-12.433-45.62l-50.158 43.671m37.26-79.841l-48.55 41.443m48.55-41.443l-59.993 10.157m59.992-10.157l-48.559 41.443-11.433-31.286m11.443 31.286l-11.443-31.286m11.443 31.286l-61.83 10.918m61.83-10.918l-52.015 44.878m52.015-44.878l11.28 38.398m-11.28-38.398l11.29 38.398m-22.733-69.684l-50.387 42.204m50.387-42.204l-60.287 14.65m60.287-14.65l-50.396 42.204-9.891-27.554m207.421 78.633l-49.073 27.016M81.3 798.457l-61.81-21.65m61.81 21.65l-49.083 27.016-12.727-48.666m12.737 48.666L19.49 776.807m12.737 48.666l-64-6.499m64 6.499l13.632 45.862m-13.632-45.862l-52.376 39.456m39.639-88.122l-51.263 42.167m51.263-42.167l-62.591-1.949m62.59 1.949l-62.6-1.949m-73.11-27.48l9.815 33.96m-9.815-33.96l-9.9-27.554m9.9 27.554l-61.962 12.774m61.962-12.774l-53.69 43.411m63.505-9.451l9.815 39.846m-9.815-39.846l-55.232 45.472m55.232-45.472l63.295-6.48m-63.295 6.48l-63.505 9.451m63.505-9.451l-63.505 9.469m138.138 28.167l-11.328-44.116m11.328 44.116l-64.818 2.21m64.818-2.21l-11.338-44.116m11.338 44.116l11.624 45.955m-11.624-45.955l-54.746 46.363m43.418-90.479l-53.49 46.326m0 0l-65.047 5.626m65.047-5.626l53.48-46.326m-53.48 46.326l10.072 44.153m-10.072-44.153l-56.632 46.307m-8.415-40.681l-8.273-36.021m8.273 36.021l-65.133 6.721m65.133-6.721l-8.273-36.003m8.273 36.003l8.415 40.681m-8.415-40.681l-58.393 44.32m93.91-151.306l-52.062 40.328m52.062-40.328l-60.297 14.594m60.297-14.594l-60.297 14.612m8.235 25.716l-8.235-25.716m8.235 25.716l-8.235-25.734m8.235 25.734l-61.839 10.844m61.839-10.844l8.272 30.655m-8.272-30.655l-55.242 40.088m55.242-40.088l8.272 30.637m-16.507-56.371l-53.604 36.578m53.604-36.578l-60.001 10.026m60.001-10.008l-60.001 10.008m60.001-10.008l-53.604 36.56m0 0l-6.397-26.552m6.397 26.552l-61.477 5.143m61.477-5.143l6.597 29.244m-6.597-29.244l-56.718 35.631m50.321-62.183l-55.08 31.695m0 0l4.759 30.488m126.829-15.838l-56.86 42.742m0 0l-6.654-33.291m6.654 33.291l56.86-42.724m-56.86 42.724l-65.057 5.57m65.057-5.57l6.74 37.599m-6.74-37.599l-60.078 41.22m116.938-83.944l-63.514 9.433m0 0l-58.403 38.861m58.403-38.861l-63.315 6.387m4.912 32.474l-4.912-32.474m4.912 32.474l-64.846 2.136m64.846-2.136l4.979 35.65m-4.979-35.65l-61.743 37.767m56.831-70.241l-59.934 34.61m0 0l3.103 35.631m995.762-1.393l-66.351.761m66.351-.761l-33.566 37.395m-32.785-36.634l32.785 36.634m-32.785-36.634l-35.641 37.284m35.641-37.284l-66.323 6.722m66.323-6.722l-35.651 37.284m68.436-.65l-68.426.65m68.426-.65l34.947 40.645-70.683.037m35.736-40.682l-35.736 40.682m-32.69-40.032l32.69 40.032m-63.372-70.594l30.672 30.562m-30.672-30.562l-37.773 33.756m37.773-33.756l-66.341 9.785m97.013 20.777l-68.445 3.194m68.445-3.194l32.7 40.032m-32.7-40.032l-37.992 40.143m-30.453-36.949l-28.568-23.971m28.568 23.971l-68.455 3.769m68.455-3.769l30.453 36.949m-30.453-36.949l-40.249 37.116m11.681-61.087l-39.887 27.74m39.887-27.74l-66.351 9.061m26.464 18.679l-26.464-18.679m26.464 18.679l-68.464 2.432m68.464-2.432l-42.505 33.496m42.505-33.496l28.206 33.347m-54.67-52.026l-42 21.111m42-21.111l-66.352 4.493m262.416 47.255l-70.692.111m0 0l-70.702.167m-96.67-30.915l25.959 31.064m-25.959-31.064l-24.352-16.618m24.352 16.618l-68.503-.093m68.503.093l-44.761 31.138m70.72-.074l70.711-.149m-70.711.149l-70.72.074m20.409-47.756l-44.151 16.525m44.151-16.525l-66.417-.854m66.417.854l-44.151 16.544-22.266-17.398m22.266 17.379l-22.266-17.379m22.266 17.379l-68.636-.594m68.636.594l23.742 31.231m-23.742-31.231l-47.008 31.342m24.742-48.721l-46.37 16.785m46.37-16.785l-66.313-8.745m19.943 25.53l-19.943-25.53m19.943 25.53l-68.531-4.307m68.531 4.307l21.628 31.936m-21.628-31.936l-49.121 32.011m29.178-57.541l-48.588 21.223m48.588-21.223l-65.999-13.09m17.411 34.313l-17.411-34.313m17.411 34.313l-68.255-4.717m68.255 4.717l-51.348 36.355m51.348-36.355l19.41 36.318m-36.821-70.631l-50.844 29.596m50.844-29.596l-65.885-12.273m244.205 82.718l-70.75.111m0 0l-70.749.075m-87.665-41.035l16.907 41.072m-16.907-41.072l-15.041-41.869m15.04 41.869l-68.283-3.1m68.284 3.1L7.047 954.35m70.759-.074l70.758-.037m-70.758.037l-70.76.074m38.812-83.015l-53.243 38.769m53.243-38.769l-66.008-6.406m12.765 45.175l-12.765-45.175m12.765 45.175l-68.388.965m68.388-.965L7.047 954.35m-14.432-44.246l-56.346 44.357m43.58-89.532l-55.622 46.14m55.623-46.14l-66.37.408m66.37-.408l-66.37.427m10.747 45.713l-10.748-45.732m10.748 45.732l-68.579-.018m68.579.018l-10.748-45.713m10.748 45.713l12.042 43.392m-12.042-43.392l-58.745 43.522m47.998-89.254l-57.832 45.714m57.832-45.714l-66.704 2.154m8.872 43.56l-8.872-43.56m8.872 43.56l57.832-45.695m-57.832 45.695l-68.655 1.132m68.655-1.132l-60.972 43.652m60.972-43.652l9.834 43.54m47.998-89.235l-66.704 2.135m0 0l-59.783 44.692m59.783-44.692l-66.808 3.639M7.047 954.35l-70.778.111m0 0l-70.787.13m-78.489-42.408l7.683 42.52m-7.683-42.52l-7.025-41.053m7.025 41.053l-68.702 1.486m68.702-1.486l-63.133 42.631m70.816-.111l70.806-.112m-70.806.112l-70.816.111m56.108-83.684l-61.677 42.539m61.677-42.539l-66.818 3.621m66.818-3.621l-66.818 3.64m5.141 38.899l-5.141-38.899m5.141 38.899l-5.141-38.918m5.141 38.918l-68.674 1.114m68.674-1.114l5.569 41.145m-5.569-41.145l-65.257 41.238m60.116-80.156l-63.533 40.032m63.533-40.032l-66.722 2.117m66.722-2.098l-66.722 2.098m66.722-2.098l-63.533 40.013m0 0l-3.189-37.915m3.189 37.915l-68.617-.038m68.617.038l3.417 40.124m-3.417-40.124L-417.8 955m64.228-78.132L-419 914.745m0 0l1.2 40.255m141.66-.186l-70.826.093m0 0L-417.8 955" stroke="url(#paint0_linear_4_9314)" stroke-width=".3" stroke-miterlimit="10" stroke-linejoin="round"/><defs><linearGradient id="paint0_linear_4_9314" x1="170.801" y1="38.03" x2="527.092" y2="817.206" gradientUnits="userSpaceOnUse"><stop stop-color="#007668"/><stop offset="1" stop-color="#fff" stop-opacity="0"/></linearGradient></defs></svg>