<svg width="256" height="186" fill="none" xmlns="http://www.w3.org/2000/svg"><g opacity=".3" fill="#007668" stroke="#E1F3F1"><path d="M207.302 95.2h-47.227v4.516h46.894l.049.01 43.454 8.738c.228.007.484.058.687.098l.026.006c.257.05.442.085.574.085 1.107 0 1.855-.327 2.368-.703.521-.382.824-.831 1.021-1.125l.01-.015c.322-.656.828-2.327-.732-4.391l-.003-.004-15.521-20.918-.133-.178.044-.219c.18-.893.182-1.795.182-2.753V21.869c0-11.692-9.92-21.369-21.92-21.369H117.24c-12 0-21.92 9.677-21.92 21.369v55.106h4.749V21.869c0-9.229 7.712-16.664 17.171-16.664h99.835c9.459 0 17.171 7.435 17.171 16.664v56.478c0 1.004-.201 2.187-.393 3.141l-.002.012-.003.012c-.147.582-.017 1.19.489 1.858l.002.002 14.18 19.017.777 1.042-1.275-.253-40.193-7.977h-.526z"/><path d="M188.661 56.23l-.42.069v9.173c0 1.263-.944 2.352-2.374 2.352-1.26 0-2.374-1.11-2.374-2.352v-11.41c0-1.242 1.114-2.353 2.374-2.353 7.746 0 14.105-6.305 14.105-14.001s-6.359-14.002-14.105-14.002-14.105 6.306-14.105 14.002c0 1.241-1.114 2.352-2.374 2.352-1.261 0-2.375-1.11-2.375-2.352 0-10.37 8.396-18.706 18.854-18.706 10.27 0 18.854 8.34 18.854 18.706 0 9.252-6.901 17.039-16.06 18.523zM186.283 78.788a2.955 2.955 0 01-2.969-2.969 2.955 2.955 0 012.969-2.969 2.954 2.954 0 012.969 2.97 2.954 2.954 0 01-2.969 2.968zm0-4.143c-.328 0-.611.128-.807.348a1.097 1.097 0 00-.271.73c0 .307.149.572.327.75.179.18.444.328.751.328.308 0 .573-.149.752-.327.178-.179.327-.444.327-.751s-.149-.573-.327-.751a1.08 1.08 0 00-.752-.327zM5.36 184.643l.06-.029.064-.013 43.498-8.748.049-.009h89.729c12 0 21.92-9.677 21.92-21.369V98.187c0-11.882-9.729-21.369-21.92-21.369H38.925c-12 0-21.92 9.677-21.92 21.369v56.478c0 .959.002 1.86.182 2.754l.044.218-.133.179-15.521 20.917-.003.004c-.806 1.066-1.052 1.966-1.073 2.684-.02.701.173 1.273.352 1.723.182.268.47.655.961.986.513.346 1.277.651 2.427.651.195 0 .41 0 .622-.021.216-.022.386-.061.497-.117zm132.9-103.12v-.19h.5c9.459 0 17.171 7.435 17.171 16.664v56.478c0 9.229-7.712 16.664-17.171 16.664H48.696h0-.002 0-.007 0-.002 0-.007 0-.002 0-.007 0-.002 0-.007 0-.002 0-.007 0-.002 0-.007 0-.002 0-.008 0-.002 0-.007 0-.002 0-.007 0-.002 0-.007 0-.002 0-.007 0-.002 0-.007 0-.002 0-.007 0-.002 0-.008 0-.002 0-.007 0-.002 0-.007 0-.002 0-.007 0-.002 0-.007 0-.002 0-.007 0-.002 0-.007 0-.002 0-.008 0-.002 0-.007 0-.002 0-.007 0-.002 0-.007 0-.002 0-.007 0-.002 0-.007 0-.002 0-.007 0-.002 0-.008 0-.002 0-.007 0-.002 0-.007 0-.002 0-.007 0-.002 0-.007 0-.002 0-.007 0-.002 0-.007 0-.002 0-.008 0-.002 0-.007 0-.002 0-.007 0-.002 0-.007 0-.002 0-.007 0-.002 0-.007 0-.002 0-.007 0-.002 0-.008 0-.002 0-.007 0-.002 0-.007 0-.002 0-.007 0-.002 0-.007 0-.002 0-.007 0-.002 0-.007 0-.002 0-.008 0-.002 0-.007 0-.002 0-.007 0-.002 0-.007 0-.002 0-.007 0-.002 0-.007 0-.002 0-.007 0-.002 0-.008 0-.002 0-.007 0-.002 0-.002l-40.192 7.977-1.275.253.777-1.042 14.172-19.006c.296-.447.476-1.251.484-1.945-.19-.946-.383-2.105-.383-3.091V98.187c0-9.229 7.712-16.664 17.17-16.664h99.336zM3.741 182.43v-2.853h1v2.853h-1z"/><path d="M59.237 138.001c5.86 0 10.614-4.724 10.614-10.529 0-5.806-4.755-10.53-10.614-10.53-5.86 0-10.614 4.724-10.614 10.53 0 5.805 4.755 10.529 10.614 10.529zm0-16.544a5.836 5.836 0 015.865 5.825c0 3.333-2.73 5.824-5.865 5.824a5.835 5.835 0 01-5.865-5.824c0-3.133 2.718-5.825 5.865-5.825zM88.747 138.001c5.86 0 10.614-4.724 10.614-10.529 0-5.806-4.755-10.53-10.614-10.53-5.86 0-10.614 4.724-10.614 10.53 0 5.805 4.754 10.529 10.614 10.529zm0-16.544a5.836 5.836 0 015.865 5.825c0 3.333-2.73 5.824-5.865 5.824a5.835 5.835 0 01-5.866-5.824c0-3.133 2.719-5.825 5.866-5.825zM118.257 138.001c5.859 0 10.614-4.724 10.614-10.529 0-5.806-4.755-10.53-10.614-10.53-5.86 0-10.615 4.724-10.615 10.53 0 5.805 4.755 10.529 10.615 10.529zm0-16.544a5.835 5.835 0 015.865 5.825c0 3.333-2.73 5.824-5.865 5.824a5.835 5.835 0 01-5.866-5.824c0-3.133 2.719-5.825 5.866-5.825z"/></g></svg>