<svg width="37" height="27" viewBox="0 0 37 27" fill="none" xmlns="http://www.w3.org/2000/svg">
<path fill-rule="evenodd" clip-rule="evenodd" d="M9.91758 6.60016V24.0002H6.72758V6.60016H3.39258V3.70016H13.2526V6.03928C13.4543 5.54447 13.7275 5.11276 14.0721 4.74416C14.5158 4.26948 15.0641 3.92148 15.7172 3.70016C15.7289 3.69617 15.7407 3.69223 15.7526 3.68832C16.3145 3.50288 16.953 3.41016 17.6681 3.41016C19.2341 3.41016 20.4327 3.85482 21.2641 4.74416C21.9245 5.45071 22.3226 6.38912 22.4584 7.55939C22.4935 7.86213 22.5111 8.18039 22.5111 8.51416V19.1862C22.5111 19.5199 22.4935 19.8382 22.4584 20.1409C22.3226 21.3112 21.9245 22.2496 21.2641 22.9562C20.4327 23.8455 19.2341 24.2902 17.6681 24.2902C16.1021 24.2902 14.9034 23.8455 14.0721 22.9562C13.2407 22.0668 12.8251 20.8102 12.8251 19.1862V8.51416C12.8251 7.80639 12.904 7.16839 13.0619 6.60016H9.91758ZM12.3093 24.7304C13.7334 26.211 15.6496 26.7902 17.6681 26.7902C19.5319 26.7902 21.3086 26.2963 22.6911 25.0549C23.0889 25.9085 23.9545 26.5002 24.9584 26.5002H28.1484C29.5291 26.5002 30.6484 25.3809 30.6484 24.0002V18.1884C32.3062 18.0273 33.8682 17.4343 35.0524 16.1635C36.4265 14.6888 36.9124 12.7324 36.9124 10.7182V8.71716C36.9124 6.70291 36.4265 4.74651 35.0524 3.27184C33.6341 1.7498 31.6741 1.20016 29.6564 1.20016H24.9584C23.9545 1.20016 23.0889 1.79181 22.6911 2.64543C21.3086 1.40401 19.5319 0.910156 17.6681 0.910156C16.5421 0.910156 15.4479 1.09039 14.4532 1.5068C14.0969 1.31132 13.6877 1.20016 13.2526 1.20016H3.39258C2.01187 1.20016 0.892578 2.31944 0.892578 3.70016V6.60016C0.892578 7.98087 2.01187 9.10016 3.39258 9.10016H4.22758V24.0002C4.22758 25.3809 5.34687 26.5002 6.72758 26.5002H9.91758C11.0443 26.5002 11.9969 25.7548 12.3093 24.7304ZM24.9584 24.0002H28.1484V15.7352H29.6564C31.2417 15.7352 32.4307 15.3098 33.2234 14.4592C34.016 13.6085 34.4124 12.3615 34.4124 10.7182V8.71716C34.4124 7.07382 34.016 5.82682 33.2234 4.97616C32.4307 4.12549 31.2417 3.70016 29.6564 3.70016H24.9584V24.0002ZM30.8164 12.4002C31.087 12.1102 31.2224 11.6172 31.2224 10.9212V8.51416C31.2224 7.81816 31.087 7.32516 30.8164 7.03516C30.7659 6.97685 30.7099 6.92441 30.6484 6.87783C30.4041 6.69271 30.0734 6.60016 29.6564 6.60016H28.1484V12.8352H29.6564C30.0734 12.8352 30.4041 12.7426 30.6484 12.5575C30.7099 12.5109 30.7659 12.4585 30.8164 12.4002ZM19.3211 19.3892C19.3211 20.7232 18.7701 21.3902 17.6681 21.3902C16.5661 21.3902 16.0151 20.7232 16.0151 19.3892V8.31116C16.0151 6.97716 16.5661 6.31016 17.6681 6.31016C18.7701 6.31016 19.3211 6.97716 19.3211 8.31116V19.3892Z" fill="#007668"/>
</svg>
