<svg width="36" height="36" viewBox="0 0 36 36" fill="none" xmlns="http://www.w3.org/2000/svg">
<g clip-path="url(#clip0_4_9654)">
<path d="M28.3835 2.7702H24.9612V1.40625C24.9612 0.629517 24.3317 0 23.555 0H12.492C11.7153 0 11.0858 0.629517 11.0858 1.40625V2.7702H7.66406C5.72552 2.7702 4.14844 4.34729 4.14844 6.28583V32.4844C4.14844 34.4229 5.72552 36 7.66406 36H28.3835C30.322 36 31.8991 34.4229 31.8991 32.4844V6.28583C31.8991 4.34729 30.3217 2.7702 28.3835 2.7702ZM22.1487 2.8125V5.54068H13.898C13.898 4.60602 13.898 3.83395 13.898 2.8125H22.1487ZM29.0866 32.4844C29.0866 32.8722 28.771 33.1875 28.3835 33.1875H7.66406C7.27625 33.1875 6.96094 32.8722 6.96094 32.4844V6.28583C6.96094 5.89828 7.27625 5.5827 7.66406 5.5827H11.0855V6.94693C11.0855 7.72366 11.7153 8.35318 12.4917 8.35318H23.555C24.3314 8.35318 24.9612 7.72366 24.9612 6.94693V5.5827H28.3835C28.771 5.5827 29.0866 5.89828 29.0866 6.28583V32.4844ZM24.549 16.4193C25.0983 16.9687 25.0983 17.8591 24.549 18.4081L17.159 25.7981C16.61 26.3474 15.7195 26.3474 15.1702 25.7981L11.4977 22.1256C10.9487 21.5766 10.9487 20.6862 11.4977 20.1368C12.0471 19.5878 12.9372 19.5878 13.4865 20.1368L16.1647 22.815L22.5602 16.4196C23.1095 15.8703 23.9996 15.8703 24.549 16.4193Z" fill="#007668"/>
<path d="M24.5489 16.4196C25.0982 16.9689 25.0982 17.8593 24.5489 18.4084L17.159 25.7983C16.6099 26.3476 15.7195 26.3476 15.1702 25.7983L11.4977 22.1259C10.9487 21.5768 10.9487 20.6864 11.4977 20.1371C12.047 19.588 12.9372 19.588 13.4865 20.1371L16.1647 22.8153L22.5601 16.4198C23.1094 15.8705 23.9996 15.8705 24.5489 16.4196Z" fill="#FFB800"/>
</g>
<defs>
<clipPath id="clip0_4_9654">
<rect width="36" height="36" fill="white"/>
</clipPath>
</defs>
</svg>
