<svg width="38" height="38" viewBox="0 0 38 38" fill="none" xmlns="http://www.w3.org/2000/svg">
<g clip-path="url(#clip0_4_9660)">
<path d="M36.1446 8.3125C36.1445 8.3125 36.1445 8.3125 36.1444 8.3125C34.8559 8.3125 33.6444 8.81429 32.7333 9.7254C31.8221 10.6365 31.3203 11.8481 31.3203 13.1366V17.3841C29.852 16.9087 28.1971 17.5049 27.396 18.8941L24.332 24.207C24.015 24.7567 23.6111 25.2462 23.1315 25.6619C21.2606 27.2841 20.1875 29.6347 20.1875 32.1109V36.8867C20.1875 37.5015 20.686 38 21.3008 38H31.6914C32.3062 38 32.8047 37.5015 32.8047 36.8867V34.219L37.2418 26.6126C37.7379 25.7622 38 24.7923 38 23.8079V10.168C38 9.14486 37.1676 8.3125 36.1446 8.3125ZM35.7734 23.8078C35.7734 24.3985 35.6161 24.9805 35.3185 25.4907L30.7298 33.357C30.6304 33.5273 30.5781 33.7208 30.5781 33.918V35.7734H22.4141V32.1109C22.4141 30.2806 23.2072 28.5433 24.59 27.3443C25.2574 26.7658 25.8194 26.0844 26.2608 25.3193L29.3248 20.0064C29.6322 19.4736 30.3158 19.2903 30.8486 19.5972C31.1068 19.7462 31.2917 19.9868 31.3689 20.2748C31.4461 20.5627 31.4066 20.8636 31.2575 21.1218L27.6644 27.344C27.357 27.8765 27.5394 28.5574 28.0718 28.8649C28.6044 29.1722 29.2852 28.99 29.5926 28.4575L33.1857 22.2352C33.6128 21.4954 33.739 20.639 33.5468 19.8111V13.1366C33.5468 12.4427 33.817 11.7904 34.3076 11.2998C34.7097 10.8977 35.2203 10.6437 35.7734 10.5651V23.8078H35.7734Z" fill="#007668"/>
<path d="M14.8684 25.6619C14.3889 25.2462 13.9851 24.7568 13.668 24.207L10.604 18.8942C9.80281 17.5049 8.14781 16.9088 6.67969 17.3842V13.1367C6.67969 11.8481 6.17789 10.6366 5.26671 9.72548C4.35553 8.81422 3.14398 8.31243 1.85547 8.3125C0.832363 8.3125 0 9.14486 0 10.168V23.8078C0 24.7923 0.262141 25.7621 0.758219 26.6126L5.19531 34.219V36.8867C5.19531 37.5015 5.69377 38 6.30859 38H16.6992C17.314 38 17.8125 37.5015 17.8125 36.8867V32.1109C17.8125 29.6347 16.7394 27.2841 14.8684 25.6619ZM15.5859 35.7734H7.42188V33.918C7.42188 33.7208 7.36955 33.5273 7.27025 33.357L2.68152 25.4907C2.38391 24.9805 2.22656 24.3985 2.22656 23.8078V10.5652C2.77964 10.6439 3.29027 10.8978 3.69231 11.2999C4.18289 11.7905 4.45312 12.4428 4.45312 13.1366V19.8111C4.26097 20.639 4.38714 21.4955 4.81427 22.2353L8.40728 28.4575C8.71484 28.99 9.39572 29.1723 9.92809 28.8649C10.4605 28.5574 10.643 27.8766 10.3355 27.3441L6.74248 21.1218C6.59337 20.8636 6.55381 20.5628 6.631 20.2749C6.70826 19.9869 6.89307 19.7463 7.15135 19.5974C7.68424 19.2902 8.36794 19.4735 8.67513 20.0066L11.7391 25.3193C12.1804 26.0846 12.7425 26.7659 13.4098 27.3443C14.7928 28.5433 15.5859 30.2806 15.5859 32.1109V35.7734Z" fill="#007668"/>
<path d="M29.0195 10.0195C29.0195 4.49476 24.5248 0 19 0C13.4752 0 8.98047 4.49476 8.98047 10.0195C8.98047 15.5443 13.4752 20.0391 19 20.0391C24.5248 20.0391 29.0195 15.5443 29.0195 10.0195ZM11.207 10.0195C11.207 5.72249 14.703 2.22656 19 2.22656C23.297 2.22656 26.793 5.72249 26.793 10.0195C26.793 11.5928 26.3239 13.0584 25.5189 14.2846C24.9261 13.0388 23.8793 12.0501 22.5937 11.5316C23.1335 10.7949 23.4531 9.88742 23.4531 8.90625C23.4531 6.4508 21.4555 4.45312 19 4.45312C16.5445 4.45312 14.5469 6.4508 14.5469 8.90625C14.5469 9.88742 14.8665 10.7949 15.4062 11.5317C14.1207 12.0502 13.0739 13.0388 12.4811 14.2847C11.6761 13.0584 11.207 11.5928 11.207 10.0195ZM16.7734 8.90625C16.7734 7.67852 17.7723 6.67969 19 6.67969C20.2277 6.67969 21.2266 7.67852 21.2266 8.90625C21.2266 10.134 20.2277 11.1328 19 11.1328C17.7723 11.1328 16.7734 10.134 16.7734 8.90625ZM14.2113 16.1634C14.4449 14.5792 15.813 13.3594 17.4609 13.3594H20.539C22.187 13.3594 23.555 14.5792 23.7886 16.1634C22.4665 17.1962 20.8039 17.8125 19 17.8125C17.1961 17.8125 15.5335 17.1962 14.2113 16.1634Z" fill="#FFB800"/>
</g>
<defs>
<clipPath id="clip0_4_9660">
<rect width="38" height="38" fill="white"/>
</clipPath>
</defs>
</svg>
