<svg width="1640" height="450" viewBox="0 0 1640 450" fill="none" xmlns="http://www.w3.org/2000/svg">
<mask id="mask0_4_8817" style="mask-type:alpha" maskUnits="userSpaceOnUse" x="0" y="0" width="1640" height="450">
<path d="M0 60C0 26.8629 26.8629 0 60 0H1580C1613.14 0 1640 26.8629 1640 60V450H0V60Z" fill="#1D2437"/>
</mask>
<g mask="url(#mask0_4_8817)">
<path opacity="0.3" d="M-1237.29 391.891L-1316.07 399.177M-1237.29 391.891L-1221.84 389.402M-1237.29 391.891L-1155.17 372.257M-1316.07 399.177L-1221.84 389.402M-1316.07 399.177L-1295.19 392.798M-1221.84 389.402L-1295.19 392.798M-1221.84 389.402L-1204.19 383.5M-1221.84 389.402L-1155.17 372.257M-1221.84 389.402L-1142.87 368.186M-1295.19 392.798L-1204.19 383.5M-1295.19 392.798L-1377.67 382.478M-1295.19 392.798L-1274.06 385.94M-1204.19 383.5L-1142.87 368.186M-1204.19 383.5L-1121.28 367.955M-1204.19 383.5L-1274.06 385.94M-1204.19 383.5L-1179.72 383.286M-1155.17 372.257L-1142.87 368.186M-1155.17 372.257L-1085.25 343.227M-1142.87 368.186L-1121.28 367.955M-1142.87 368.186L-1085.25 343.227M-1142.87 368.186L-1068.89 342.766M-1121.28 367.955L-1068.89 342.766M-1121.28 367.955L-1038.06 351.223M-1121.28 367.955L-1179.72 383.286M-1121.28 367.955L-1088.21 377.417M-1085.25 343.227L-1068.89 342.766M-1085.25 343.227L-1015.18 314.197M-1068.89 342.766L-1038.06 351.223M-1068.89 342.766L-1015.18 314.197M-1068.89 342.766L-989.536 320.346M-1038.06 351.223L-989.536 320.346M-1038.06 351.223L-946.243 338.331M-1038.06 351.223L-993.126 371.202M-1038.06 351.223L-1088.21 377.417M-1015.18 314.197L-989.536 320.346M-1015.18 314.197L-932.817 294.514M-989.536 320.346L-932.817 294.514M-989.536 320.346L-946.243 338.331M-989.536 320.346L-894.593 308.114M-932.817 294.514L-894.593 308.114M-932.817 294.514L-765.289 288.53M-1377.67 382.478L-1274.06 385.94M-1377.67 382.478L-1354.35 376.626M-1274.06 385.94L-1354.35 376.626M-1274.06 385.94L-1248.55 386.632M-1274.06 385.94L-1179.72 383.286M-1354.35 376.626L-1248.55 386.632M-1354.35 376.626L-1443.92 360.998M-1354.35 376.626L-1329.14 380.187M-1248.55 386.632L-1179.72 383.286M-1248.55 386.632L-1146.79 393.54M-1248.55 386.632L-1329.14 380.187M-1248.55 386.632L-1217.59 398.551M-1179.72 383.286L-1146.79 393.54M-1179.72 383.286L-1088.21 377.417M-946.243 338.331L-993.126 371.202M-946.243 338.331L-894.593 308.114M-946.243 338.331L-794.033 332.281M-946.243 338.331L-993.099 371.202M-946.243 338.331L-888.017 367.493M-993.126 371.202L-1044.53 398.073M-993.126 371.202L-937.311 400.958M-993.126 371.202L-1088.21 377.417M-993.126 371.202L-1044.53 398.089L-1088.21 377.417M-1146.79 393.54L-1088.21 377.417M-1146.79 393.54L-1044.53 398.073M-1146.79 393.54L-1217.59 398.551M-1146.79 393.54L-1106.76 414.69M-1088.21 377.417L-1044.53 398.073M-1044.53 398.073L-937.311 400.958M-1044.53 398.073L-1106.76 414.69M-1044.53 398.073L-994.057 427.136M-937.311 400.958L-888.017 367.493M-937.311 400.958L-797.458 401.749M-937.311 400.958L-993.099 371.202M-937.311 400.958L-994.057 427.136M-937.311 400.958L-877.002 434.406M-894.593 308.114L-794.033 332.281M-894.593 308.114L-765.289 288.53M-894.593 308.114L-695.582 298.405M-794.033 332.281L-695.582 298.405M-794.033 332.281L-643.439 319.439M-794.033 332.281L-888.017 367.493M-794.033 332.281L-717.832 362.449M-765.289 288.53L-695.582 298.405M-765.289 288.53L-599.598 271.551M-695.582 298.405L-643.439 319.439M-695.582 298.405L-599.598 271.551M-695.582 298.405L-575.184 277.98M-643.439 319.439L-575.184 277.98M-643.439 319.439L-549.181 300.811M-643.439 319.439L-717.832 362.449M-643.439 319.439L-601.242 351.14M-599.598 271.551L-575.184 277.98M-599.598 271.551L-511.751 245.686M-575.184 277.98L-549.181 300.811M-575.184 277.98L-511.751 245.686M-575.184 277.98L-504.079 253.681M-549.181 300.811L-504.079 253.681M-549.181 300.811L-481.063 281.837M-549.181 300.811L-517.807 337.606M-549.181 300.811L-601.242 351.14M-511.751 245.686L-504.079 253.681M-511.751 245.686L-460.731 219.293M-504.079 253.681L-460.731 219.293M-504.079 253.681L-481.063 281.837M-504.079 253.681L-446.62 232.366M-460.731 219.293L-446.62 232.366M-460.731 219.293L-405.492 200.681M-993.099 371.202L-888.017 367.493M-888.017 367.493L-797.458 401.749M-888.017 367.493L-717.832 362.449M-797.458 401.749L-717.832 362.449M-797.458 401.749L-663.14 397.546M-797.458 401.749L-877.002 434.406M-797.458 401.749L-735.478 435.23M-717.832 362.449L-663.14 397.546M-717.832 362.449L-601.242 351.14M-717.832 362.449L-601.242 351.157L-663.14 397.546M-481.063 281.837L-517.807 337.606M-481.063 281.837L-446.62 232.366M-481.063 281.837L-408.862 267.957M-481.063 281.837L-442.702 325.836M-517.807 337.606L-601.242 351.14M-517.807 337.606L-563.593 390.622M-517.807 337.606L-479.419 383.566M-517.807 337.606L-442.702 325.836M-663.14 397.546L-601.242 351.14M-663.14 397.546L-563.593 390.622M-663.14 397.546L-735.478 435.23M-663.14 397.546L-622.916 434.225M-601.242 351.14L-563.593 390.622M-563.593 390.622L-622.916 434.225M-563.593 390.622L-527.288 432.609M-563.593 390.622L-479.419 383.566M-1443.92 360.998L-1329.14 380.187M-1443.92 360.998L-1419.75 370.494M-1329.14 380.187L-1419.75 370.494M-1329.14 380.187L-1301.44 395.749M-1329.14 380.187L-1217.59 398.551M-1419.75 370.494L-1301.44 395.749M-1419.75 370.494L-1515.66 368.499M-1419.75 370.494L-1395.37 393.177M-1301.44 395.749L-1217.59 398.551M-1301.44 395.749L-1183.07 421.07M-1301.44 395.749L-1395.37 393.177M-1301.44 395.749L-1273.08 421.3M-1217.59 398.551L-1183.07 421.07M-1217.59 398.551L-1106.76 414.69M-1183.07 421.07L-1106.76 414.69M-1183.07 421.07L-1063.98 442.846M-1183.07 421.07L-1273.08 421.3M-1183.07 421.07L-1149.61 447.99M-1106.76 414.69L-1063.98 442.846M-1106.76 414.69L-994.057 427.136M-1063.98 442.846L-994.057 427.136M-1063.98 442.846L-943.64 457.436M-1063.98 442.846L-1025.84 468.365M-1063.98 442.846L-1149.61 447.99M-994.057 427.136L-943.64 457.436M-994.057 427.136L-877.002 434.406M-1515.66 368.499L-1395.37 393.177M-1515.66 368.499L-1492.31 402.013M-1395.37 393.177L-1492.31 402.013M-1395.37 393.177L-1368.24 425.438M-1395.37 393.177L-1273.08 421.3M-1492.31 402.013L-1368.24 425.438M-1492.31 402.013L-1593.09 423.773M-1492.31 402.013L-1467.07 440.687M-1368.24 425.438L-1273.08 421.3M-1368.24 425.438L-1242.86 448.797M-1368.24 425.438L-1467.07 440.687M-1368.24 425.438L-1339.63 457.287M-1273.08 421.3L-1242.86 448.797M-1273.08 421.3L-1149.61 447.99M-943.64 457.436L-1025.84 468.365M-943.64 457.436L-877.002 434.406M-943.64 457.436L-816.693 461.886M-943.64 457.436L-902.622 477.547M-1025.84 468.365L-1116.84 468.827M-1025.84 468.365L-990.906 482.344M-1025.84 468.365L-1149.61 447.99M-1025.84 468.365L-902.622 477.547M-1242.86 448.797L-1149.61 447.99M-1242.86 448.797L-1116.84 468.827M-1242.86 448.797L-1339.63 457.287M-1242.86 448.797L-1211.4 471.942M-1149.61 447.99L-1116.84 468.827M-1116.84 468.827L-990.906 482.344M-1116.84 468.827L-1211.4 471.942M-1116.84 468.827L-1082.95 483.07M-990.906 482.344L-902.622 477.547M-990.906 482.344L-866.946 485.74M-990.906 482.344L-1082.95 483.07M-990.906 482.344L-954.847 489.103M-877.002 434.406L-816.693 461.886M-877.002 434.406L-735.478 435.23M-816.693 461.886L-735.478 435.23M-816.693 461.886L-697.966 464.128M-816.693 461.886L-902.622 477.547M-816.693 461.886L-784.634 478.784M-735.478 435.23L-697.966 464.128M-735.478 435.23L-622.916 434.225M-697.966 464.128L-622.916 434.225M-697.966 464.128L-592.391 466.75M-697.966 464.128L-784.634 478.784M-697.966 464.128L-673.58 482.691M-622.916 434.225L-592.391 466.75M-622.916 434.225L-527.288 432.609M-592.391 466.75L-527.288 432.609M-592.391 466.75L-491.338 469.437M-592.391 466.75L-565.073 487.636M-592.391 466.75L-673.58 482.691M-527.288 432.609L-479.419 383.566M-527.288 432.609L-491.338 469.437M-527.288 432.609L-434.619 431.521M-479.419 383.566L-442.702 325.836M-479.419 383.566L-391.216 378.934M-479.419 383.566L-434.619 431.521M-902.622 477.547L-866.946 485.74M-902.622 477.547L-784.634 478.784M-866.946 485.74L-784.634 478.784M-866.946 485.74L-749.808 489.796M-866.946 485.74L-954.847 489.103M-866.946 485.74L-830.859 492.252M-784.634 478.784L-749.808 489.796M-784.634 478.784L-673.58 482.691M-491.338 469.437L-565.073 487.636M-491.338 469.437L-434.619 431.521M-491.338 469.437L-386.229 471.876M-491.338 469.437L-454.84 491.906M-565.073 487.636L-636.698 497.23M-565.073 487.636L-523.917 504.995M-565.073 487.636L-673.58 482.691M-565.073 487.636L-454.84 491.906M-749.808 489.796L-673.58 482.691M-749.808 489.796L-636.698 497.23M-749.808 489.796L-830.859 492.252M-749.808 489.796L-711.694 502.225M-673.58 482.691L-636.698 497.23M-636.698 497.23L-523.917 504.995M-636.698 497.23L-711.694 502.225M-636.698 497.23L-594.31 514.869M-523.917 504.995L-454.84 491.906M-523.917 504.995L-407.848 510.023M-523.917 504.995L-594.31 514.869M-523.917 504.995L-475.692 525.782M-446.62 232.366L-408.862 267.957M-446.62 232.366L-405.492 200.681M-446.62 232.366L-367.295 220.958M-446.62 232.366L-408.862 267.973L-367.295 220.958M-408.862 267.957L-367.295 220.958M-408.862 267.957L-305.178 270.314M-408.862 267.957L-442.702 325.836M-408.862 267.957L-351.211 319.802M-405.492 200.681L-367.295 220.958M-405.492 200.681L-308.932 202.726M-367.295 220.958L-305.178 270.314M-367.295 220.958L-308.932 202.726M-367.295 220.958L-251.856 251.142M-367.295 220.958L-305.178 270.331L-251.856 251.142M-305.178 270.314L-251.856 251.142M-305.178 270.314L-184.04 323.676M-305.178 270.314L-351.211 319.802M-305.178 270.314L-234.155 341.694M-308.932 202.726L-251.856 251.142M-308.932 202.726L-188.917 264.825M-251.856 251.142L-184.04 323.676M-251.856 251.142L-188.917 264.825M-251.856 251.142L-128.827 329.759M-184.04 323.676L-128.827 329.759M-184.04 323.676L-62.2162 402.029M-184.04 323.676L-112.113 401.667M-184.04 323.676L-234.155 341.694M-188.917 264.825L-128.827 329.759M-188.917 264.825L-67.9431 356.531M-188.917 264.825L-128.8 329.759M-128.827 329.759L-62.2162 402.029M-128.8 329.759L-67.9431 356.531M-128.8 329.759L-11.2787 414.723M-128.8 329.759L-62.189 402.029M-67.9431 356.531L-11.2787 414.723M-67.9431 356.531L58.6202 436.681M-442.702 325.836L-391.216 378.934M-442.702 325.836L-351.211 319.802M-391.216 378.934L-351.211 319.802M-391.216 378.934L-281.695 381.159M-391.216 378.934L-434.619 431.521M-391.216 378.934L-330.935 432.049M-351.211 319.802L-281.695 381.159M-351.211 319.802L-234.155 341.694M-62.2162 402.029L-112.113 401.667M-112.113 401.667L-161.407 416.602M-112.113 401.667L-40.7345 472.387M-112.113 401.667L-234.155 341.694M-112.113 401.667L-62.189 402.029M-112.113 401.667L6.39483 468.612M-281.695 381.159L-234.155 341.694M-281.695 381.159L-161.407 416.586M-281.695 381.159L-330.935 432.049M-281.695 381.159L-212.509 443.802M-234.155 341.694L-161.407 416.586M-234.155 341.694L-161.407 416.602M-161.407 416.586L-212.509 443.802M-161.407 416.602L-40.7345 472.387M-161.407 416.602L-212.509 443.802M-161.407 416.602L-91.7542 482.674M-40.7345 472.387L6.39483 468.612M-40.7345 472.387L85.3357 523.804M-40.7345 472.387L-91.7542 482.674M-40.7345 472.387L27.3835 529.145M-11.2787 414.723L-62.189 402.029M-11.2787 414.723L66.2378 471.992M-11.2787 414.723L58.6202 436.681M-11.2787 414.723L149.755 483.515M-11.2787 414.723L66.2651 471.992M-62.189 402.029L66.2378 471.992M-62.189 402.029L6.39483 468.612M66.2378 471.992L6.39483 468.612M58.6202 436.681L149.755 483.515M58.6202 436.681L243.958 498.154M149.755 483.515L66.2651 471.992M149.755 483.515L244.178 523.409M149.755 483.515L243.958 498.154M149.755 483.515L324.352 523.887M66.2651 471.992L244.178 523.409M66.2651 471.992L6.39483 468.612M66.2651 471.992L159.619 521.694M244.178 523.409L324.352 523.887M244.178 523.409L396.58 537.734M244.178 523.409L159.619 521.694M244.178 523.409L324.078 550.279M243.958 498.154L324.352 523.887M243.958 498.154L402.224 514.919M324.352 523.887L396.58 537.734M324.352 523.887L402.224 514.919M396.58 537.734L324.078 550.279M396.58 537.734L474.617 522.865M396.58 537.734L529.418 529.475M396.58 537.734L324.379 523.887M396.58 537.734L324.105 550.279M396.58 537.734L460.999 548.037M402.224 514.919L324.379 523.887M402.224 514.919L474.617 522.865M402.224 514.919L549.585 510.765M6.39483 468.612L85.3357 523.804M6.39483 468.612L159.619 521.694M85.3357 523.804L159.619 521.694M85.3357 523.804L249.274 557.664M85.3357 523.804L27.3835 529.145M85.3357 523.804L171.429 564.555M159.619 521.694L249.274 557.664M159.619 521.694L324.078 550.279M249.274 557.664L324.078 550.279M249.274 557.664L391.127 565.116M249.274 557.664L171.429 564.555M249.274 557.664L324.188 579.359M324.078 550.279L391.127 565.116M391.127 565.116L324.188 579.359M391.127 565.116L460.999 548.037M391.127 565.116L509.717 556.708M391.127 565.116L324.105 550.279M391.127 565.116L447.737 576.194M-434.619 431.521L-386.229 471.876M-434.619 431.521L-330.935 432.049M-386.229 471.876L-330.935 432.049M-386.229 471.876L-269.749 474.184M-386.229 471.876L-454.84 491.906M-386.229 471.876L-338.525 493.719M-330.935 432.049L-269.749 474.184M-330.935 432.049L-212.509 443.802M-330.935 432.049L-269.749 474.201L-212.509 443.802M-269.749 474.184L-212.509 443.802M-269.749 474.184L-148.939 496.076M-269.749 474.184L-338.525 493.719M-269.749 474.184L-215.989 503.561M-212.509 443.802L-148.939 496.076M-212.509 443.802L-91.7542 482.674M-148.939 496.076L-91.7542 482.674M-148.939 496.076L-27.993 533.596M-148.939 496.076L-93.2615 532.212M-148.939 496.076L-215.989 503.561M-91.7542 482.674L-27.993 533.596M-91.7542 482.674L27.3835 529.145M-454.84 491.906L-407.848 510.023M-454.84 491.906L-338.525 493.719M-407.848 510.023L-338.525 493.719M-407.848 510.023L-285.039 512.512M-407.848 510.023L-475.692 525.782M-407.848 510.023L-352.883 530.547M-338.525 493.719L-285.039 512.512M-338.525 493.719L-215.989 503.561M-27.993 533.596L-93.2615 532.212M-27.993 533.596L27.3835 529.145M-27.993 533.596L98.2416 570.407M-27.993 533.596L29.4661 569.237M-93.2615 532.212L-159.79 530.497M-93.2615 532.212L-34.5417 561.176M-93.2615 532.212L-215.989 503.561M-93.2615 532.212L29.4661 569.237M-285.039 512.512L-215.989 503.561M-285.039 512.512L-159.79 530.497M-285.039 512.512L-352.883 530.547M-285.039 512.512L-225.278 537.108M-215.989 503.561L-159.79 530.497M-159.79 530.497L-34.5417 561.176M-159.79 530.497L-225.278 537.108M-159.79 530.497L-97.4811 556.477M-34.5417 561.176L29.4661 569.237M-34.5417 561.176L96.7345 594.673M-34.5417 561.176L-97.4811 556.477M-34.5417 561.176L30.3431 586.694M27.3835 529.145L98.2416 570.407M27.3835 529.145L171.429 564.555M98.2416 570.407L171.429 564.555M98.2416 570.407L251.822 590.255M98.2416 570.407L29.4661 569.237M98.2416 570.407L172.799 596.157M171.429 564.555L251.822 590.255M171.429 564.555L324.188 579.359M251.822 590.255L324.188 579.359M251.822 590.255L385.894 592.86M251.822 590.255L172.799 596.157M251.822 590.255L322.379 606.064M324.188 579.359L385.894 592.86M324.188 579.359L447.737 576.194M385.894 592.86L322.379 606.064M385.894 592.86L447.737 576.194M385.894 592.86L490.482 582.392M385.894 592.86L437.379 600.905M29.4661 569.237L96.7345 594.673M29.4661 569.237L172.799 596.157M96.7345 594.673L172.799 596.157M96.7345 594.673L248.836 612.658M96.7345 594.673L30.3431 586.694M96.7345 594.673L173.429 612.329M172.799 596.157L248.836 612.658M172.799 596.157L322.379 606.064M248.836 612.658L322.379 606.064M248.836 612.658L384.825 615.609M248.836 612.658L173.429 612.329M248.836 612.658L320.927 623.027M322.379 606.064L384.825 615.609M322.379 606.064L437.379 600.905M384.825 615.609L320.927 623.027M384.825 615.609L437.379 600.905M384.825 615.609L491.77 605.009M384.825 615.609L320.954 623.027M384.825 615.609L443.736 619.829M-1593.09 423.773L-1467.07 440.687M-1593.09 423.773L-1569.91 467.046M-1467.07 440.687L-1569.91 467.046M-1467.07 440.687L-1440.25 476.031M-1467.07 440.687L-1339.63 457.287M-1569.91 467.046L-1440.25 476.031M-1569.91 467.046L-1677.24 501.038M-1569.91 467.046L-1545.03 504.072M-1440.25 476.031L-1339.63 457.287M-1440.25 476.031L-1309.71 482.789M-1440.25 476.031L-1545.03 504.072M-1440.25 476.031L-1412.03 502.984M-1339.63 457.287L-1309.71 482.789M-1339.63 457.287L-1211.4 471.942M-1309.71 482.789L-1211.4 471.942M-1309.71 482.789L-1178.79 487.405M-1309.71 482.789L-1412.03 502.984M-1309.71 482.789L-1278.59 499.489M-1211.4 471.942L-1178.79 487.405M-1211.4 471.942L-1082.95 483.07M-1178.79 487.405L-1082.95 483.07M-1178.79 487.405L-1047.9 489.911M-1178.79 487.405L-1144.98 495.269M-1178.79 487.405L-1278.59 499.489M-1082.95 483.07L-1047.9 489.911M-1082.95 483.07L-954.847 489.103M-1677.24 501.038L-1545.03 504.072M-1677.24 501.038L-1654.44 536.992M-1545.03 504.072L-1654.44 536.992M-1545.03 504.072L-1518.7 530.678M-1545.03 504.072L-1412.03 502.984M-1545.03 504.072L-1412.03 503M-1654.44 536.992L-1518.7 530.678M-1654.44 536.992L-1769 566.913M-1654.44 536.992L-1630.11 560.533M-1518.7 530.678L-1412.03 503M-1518.7 530.678L-1412.03 502.984M-1518.7 530.678L-1382.57 520.046M-1518.7 530.678L-1630.11 560.533M-1518.7 530.678L-1491.05 546.257M-1412.03 502.984L-1382.57 520.046M-1412.03 502.984L-1278.59 499.489M-1412.03 503L-1278.59 499.489M-1412.03 503L-1382.57 520.046M-1047.9 489.911L-1144.98 495.269M-1047.9 489.911L-954.847 489.103M-1047.9 489.911L-918.048 491.691M-1047.9 489.911L-1011.59 492.021M-1144.98 495.269L-1246.25 508.391M-1144.98 495.269L-1109.96 499.093M-1144.98 495.269L-1278.59 499.489M-1144.98 495.269L-1011.59 492.021M-1382.57 520.046L-1278.59 499.489M-1382.57 520.046L-1246.25 508.391M-1382.57 520.046L-1491.05 546.257M-1382.57 520.046L-1351.88 529.079M-1278.59 499.489L-1246.25 508.391M-1246.25 508.391L-1109.96 499.093M-1246.25 508.391L-1351.88 529.079M-1246.25 508.391L-1212.66 513.963M-1109.96 499.093L-1011.59 492.021M-1109.96 499.093L-973.644 498.928M-1109.96 499.093L-1212.66 513.963M-1109.96 499.093L-1073.49 505.918M-954.847 489.103L-918.048 491.691M-954.847 489.103L-830.859 492.252M-918.048 491.691L-830.859 492.252M-918.048 491.691L-792.252 502.456M-918.048 491.691L-1011.59 492.021M-918.048 491.691L-879.55 499.95M-830.859 492.252L-792.252 502.456M-830.859 492.252L-711.694 502.225M-792.252 502.456L-711.694 502.225M-792.252 502.456L-669.058 519.568M-792.252 502.456L-879.55 499.95M-792.252 502.456L-750.164 519.419M-711.694 502.225L-669.058 519.568M-711.694 502.225L-594.31 514.869M-711.694 502.225L-669.058 519.584M-669.058 519.568L-750.164 519.419M-594.31 514.869L-669.058 519.584M-594.31 514.869L-546.057 537.322M-594.31 514.869L-475.692 525.782M-669.058 519.584L-546.057 537.322M-669.058 519.584L-621.737 543.191M-669.058 519.584L-750.164 519.419M-1011.59 492.021L-973.644 498.928M-1011.59 492.021L-879.55 499.95M-973.644 498.928L-879.55 499.95M-973.644 498.928L-838.559 516.831M-973.644 498.928L-1073.49 505.918M-973.644 498.928L-934.132 516.452M-879.55 499.95L-838.559 516.831M-879.55 499.95L-750.164 519.419M-546.057 537.322L-621.737 543.191M-546.057 537.322L-475.692 525.782M-546.057 537.322L-420.918 549.949M-546.057 537.322L-492.653 564.192M-621.737 543.191L-750.164 519.419M-621.737 543.191L-704.57 544.064L-750.164 519.419M-621.737 543.191L-704.57 544.048M-621.737 543.191L-570.69 572.204M-621.737 543.191L-492.653 564.192M-838.559 516.831L-750.164 519.419M-838.559 516.831L-704.57 544.048M-838.559 516.831L-934.132 516.452M-838.559 516.831L-795.293 542.811M-750.164 519.419L-704.57 544.048M-704.57 544.048L-795.293 542.811M-704.57 544.048L-656.646 575.139M-704.57 544.048L-570.69 572.204M-1769 566.913L-1630.11 560.533M-1769 566.913L-1746.89 584.486M-1630.11 560.533L-1746.89 584.486M-1630.11 560.533L-1604.63 572.649M-1630.11 560.533L-1491.05 546.257M-1746.89 584.486L-1604.63 572.649M-1746.89 584.486L-1869.32 605.075M-1746.89 584.486L-1723.74 598.564M-1604.63 572.649L-1491.05 546.257M-1604.63 572.649L-1462.33 555.225M-1604.63 572.649L-1723.74 598.564M-1604.63 572.649L-1578.1 585.062M-1491.05 546.257L-1462.33 555.225M-1491.05 546.257L-1351.88 529.079M-1462.33 555.225L-1351.88 529.079M-1462.33 555.225L-1320.04 537.734M-1462.33 555.225L-1578.1 585.062M-1462.33 555.225L-1432.47 569.171M-1351.88 529.079L-1320.04 537.734M-1351.88 529.079L-1212.66 513.963M-1351.88 529.079L-1212.66 513.979M-1320.04 537.734L-1212.66 513.979M-1320.04 537.734L-1212.66 513.963M-1320.04 537.734L-1177.72 525.585M-1320.04 537.734L-1286.81 555.488M-1320.04 537.734L-1432.47 569.171M-1212.66 513.963L-1177.72 525.585M-1212.66 513.963L-1073.49 505.918M-1212.66 513.979L-1073.49 505.918M-1212.66 513.979L-1177.72 525.585M-1869.32 605.075L-1723.74 598.564M-1869.32 605.075L-1848.55 622.863L-1723.74 598.564M-1723.74 598.564L-1578.1 585.062M-1723.74 598.564L-1699.43 614.472L-1578.1 585.062M-1578.1 585.062L-1432.47 569.171M-1578.1 585.062L-1550.32 602.273L-1432.47 569.171M-1177.72 525.585L-1286.81 555.488M-1177.72 525.585L-1073.49 505.918M-1177.72 525.585L-1035.38 525.931M-1177.72 525.585L-1141.14 548.631M-1286.81 555.488L-1432.47 569.171M-1286.81 555.488L-1401.15 590.008L-1432.47 569.171M-1286.81 555.488L-1141.14 548.631M-1286.81 555.488L-1251.98 581.419L-1141.14 548.631M-1073.49 505.918L-1035.38 525.931M-1073.49 505.918L-934.132 516.452M-1035.38 525.931L-934.132 516.452M-1035.38 525.931L-893.031 545.729M-1035.38 525.931L-1141.14 548.631M-1035.38 525.931L-995.455 558.588M-934.132 516.452L-893.031 545.729M-934.132 516.452L-795.293 542.811M-893.031 545.729L-795.293 542.811M-893.031 545.729L-750.658 576.292M-893.031 545.729L-995.455 558.588M-893.031 545.729L-849.738 581.914M-795.293 542.811L-750.658 576.292M-795.293 542.811L-656.646 575.139M-750.658 576.292L-656.646 575.139M-750.658 576.292L-608.284 607.944M-750.658 576.292L-704.022 610.219M-750.658 576.292L-849.738 581.914M-656.646 575.139L-570.69 572.204M-656.646 575.139L-608.284 607.944M-656.646 575.139L-517.834 603.658M-570.69 572.204L-492.653 564.192M-570.69 572.204L-435.852 592.893M-570.69 572.204L-517.834 603.658M-1141.14 548.631L-995.455 558.588M-1141.14 548.631L-1102.81 581.716L-995.455 558.588M-995.455 558.588L-849.738 581.914M-995.455 558.588L-953.614 595.778L-849.738 581.914M-608.284 607.944L-704.022 610.219M-608.284 607.944L-517.834 603.658M-608.284 607.944L-465.883 630.957M-608.284 607.944L-558.305 635.358M-704.022 610.219L-849.738 581.914M-704.022 610.219L-804.39 617.241L-849.738 581.914M-704.022 610.219L-558.305 635.358M-704.022 610.219L-655.139 639.414L-558.305 635.358M-475.692 525.782L-420.918 549.949M-475.692 525.782L-352.883 530.547M-420.918 549.949L-352.883 530.547M-420.918 549.949L-291.724 553.263M-420.918 549.949L-492.653 564.192M-420.918 549.949L-361.185 575.369M-352.883 530.547L-291.724 553.263M-352.883 530.547L-225.278 537.108M-291.724 553.263L-225.278 537.108M-291.724 553.263L-161.297 560.747M-291.724 553.263L-361.185 575.369M-291.724 553.263L-227.963 575.287M-225.278 537.108L-161.297 560.747M-225.278 537.108L-97.4811 556.477M-161.297 560.747L-97.4811 556.477M-161.297 560.747L-30.843 578.947M-161.297 560.747L-94.7961 580.809M-161.297 560.747L-227.963 575.287M-97.4811 556.477L-30.843 578.947M-97.4811 556.477L30.3431 586.694M-492.653 564.192L-435.852 592.893M-492.653 564.192L-361.185 575.369M-435.852 592.893L-361.185 575.369M-435.852 592.893L-299.615 597.179M-435.852 592.893L-517.834 603.658M-435.852 592.893L-378.529 618.659M-361.185 575.369L-299.615 597.179M-361.185 575.369L-227.963 575.287M-30.843 578.947L-94.7961 580.809M-30.843 578.947L30.3431 586.694M-30.843 578.947L102.9 607.004M-30.843 578.947L38.3711 599.553M-94.7961 580.809L-163.572 593.651M-94.7961 580.809L-27.4997 598.844M-94.7961 580.809L-227.963 575.287M-94.7961 580.809L38.3711 599.553M-299.615 597.179L-227.963 575.287M-299.615 597.179L-163.572 593.651M-299.615 597.179L-378.529 618.659M-299.615 597.179L-239.307 614.62M-227.963 575.287L-163.572 593.651M-163.572 593.651L-27.4997 598.844M-163.572 593.651L-239.307 614.62M-163.572 593.651L-100.139 609.839M-27.4997 598.844L38.3711 599.553M-27.4997 598.844L109.038 621.132M-27.4997 598.844L-100.139 609.839M-27.4997 598.844L39.0564 620.621M30.3431 586.694L102.9 607.004M30.3431 586.694L173.429 612.329M102.9 607.004L173.429 612.329M102.9 607.004L249.466 625.121M102.9 607.004L38.3711 599.553M102.9 607.004L178.06 623.703M173.429 612.329L249.466 625.121M173.429 612.329L320.927 623.027M249.466 625.121L320.927 623.027M249.466 625.121L386.113 629.011M249.466 625.121L178.06 623.703M249.466 625.121L320.269 635.078M320.927 623.027L386.113 629.011M386.113 629.011L320.269 635.078M386.113 629.011L443.736 619.829M386.113 629.011L505.004 624.33M386.113 629.011L443.736 619.846M386.113 629.011L320.954 623.027M386.113 629.011L450.312 635.111M38.3711 599.553L109.038 621.132M38.3711 599.553L178.06 623.703M109.038 621.132L178.06 623.703M109.038 621.132L250.096 639.348M109.038 621.132L39.0564 620.621M109.038 621.132L178.663 643.436M178.06 623.703L250.096 639.348M178.06 623.703L320.269 635.078M250.096 639.348L320.269 635.078M250.096 639.348L387.455 644.227M250.096 639.348L178.663 643.436M250.096 639.348L318.79 655.602M320.269 635.078L387.455 644.227M320.269 635.078L450.312 635.111M320.269 635.078L387.483 644.227M387.455 644.227L318.79 655.602M-517.834 603.658L-465.883 630.957M-517.834 603.658L-378.529 618.659M-465.883 630.957L-378.529 618.659M-465.883 630.957L-323.454 635.902M-465.883 630.957L-558.305 635.358M-465.883 630.957L-412.534 649.173M-378.529 618.659L-323.454 635.902M-378.529 618.659L-239.307 614.62M-323.454 635.902L-239.307 614.62M-323.454 635.902L-180.971 629.226M-323.454 635.902L-412.534 649.173M-323.454 635.902L-266.707 646.502M-239.307 614.62L-180.971 629.226M-239.307 614.62L-100.139 609.839M-180.971 629.226L-100.139 609.839M-180.971 629.226L-38.4599 629.176M-180.971 629.226L-120.826 641.903M-180.971 629.226L-266.707 646.502M-100.139 609.839L-38.4599 629.176M-100.139 609.839L39.0564 620.621M-558.305 635.358L-412.534 649.173M-558.305 635.358L-505.888 655.717L-412.534 649.173M-412.534 649.173L-266.707 646.502M-412.534 649.173L-356.609 659.492L-266.707 646.502M-38.4599 629.176L-120.826 641.903M-38.4599 629.176L39.0564 620.621M-38.4599 629.176L103.996 648.48M-38.4599 629.176L25.0821 649.898M-120.826 641.903L-266.707 646.502M-120.826 641.903L-207.303 654.942L-266.707 646.502M-120.826 641.903L25.0821 649.898M-120.826 641.903L-57.9419 654.876L25.0821 649.898M39.0564 620.621L103.996 648.48M39.0564 620.621L178.663 643.436M103.996 648.48L178.663 643.436M103.996 648.48L246.37 666.515M103.996 648.48L25.0821 649.898M103.996 648.48L170.771 668.971M178.663 643.436L246.37 666.515M178.663 643.436L318.79 655.602M246.37 666.515L318.79 655.602M246.37 666.515L388.798 671.889M246.37 666.515L170.771 668.971M246.37 666.515L316.488 680.198M318.79 655.602L388.798 671.889M318.79 655.602L387.483 644.227M318.79 655.602L457.19 657.827M318.79 655.602L388.825 671.889M388.798 671.889L316.488 680.198M25.0821 649.898L170.771 668.971M25.0821 649.898L91.364 668.196L170.771 668.971M170.771 668.971L316.488 680.198M170.771 668.971L240.67 680.857L316.488 680.198M324.379 523.887L474.617 522.865M474.617 522.865L529.418 529.475M474.617 522.865L549.585 510.765M474.617 522.865L596.002 512.05M529.418 529.475L596.002 512.05M529.418 529.475L633.075 513.666M529.418 529.475L460.999 548.037M529.418 529.475L571.724 535.426M549.585 510.765L596.002 512.05M549.585 510.765L659.708 498.763M596.002 512.05L633.075 513.666M596.002 512.05L659.708 498.763M596.002 512.05L692.452 493.126M633.075 513.666L692.452 493.126M633.075 513.666L725.278 491.724M633.075 513.666L571.724 535.426M633.075 513.666L666.75 517.227M659.708 498.763L692.452 493.126M659.708 498.763L747.911 475.8M692.452 493.126L725.278 491.724M692.452 493.126L747.911 475.8M692.452 493.126L780.518 465.216M725.278 491.724L780.518 465.216M725.278 491.724L823.81 465.085M725.278 491.724L765.009 497.148M725.278 491.724L666.75 517.227M747.911 475.8L780.518 465.216M747.911 475.8L829.592 438.758M780.518 465.216L829.592 438.758M780.518 465.216L823.81 465.085M780.518 465.216L876.776 427.548M829.592 438.758L876.776 427.548M829.592 438.758L918.233 389.896M324.105 550.279L460.999 548.037M460.999 548.037L509.717 556.708M460.999 548.037L571.724 535.426M509.717 556.708L571.724 535.426M509.717 556.708L607.126 541.031M509.717 556.708L447.737 576.194M509.717 556.708L548.051 562.758M571.724 535.426L607.126 541.031M571.724 535.426L666.75 517.227M823.81 465.085L765.009 497.148M823.81 465.085L876.776 427.548M823.81 465.085L940.209 437.39M823.81 465.085L885.572 478.866M765.009 497.148L703.522 524.002M765.009 497.148L819.125 511.589M765.009 497.148L666.75 517.227M765.009 497.148L703.522 524.018M765.009 497.148L885.572 478.866M607.126 541.031L666.75 517.227M607.126 541.031L703.522 524.018M607.126 541.031L548.051 562.758M607.126 541.031L641.843 546.273M666.75 517.227L703.522 524.018M703.522 524.018L641.843 546.273M703.522 524.002L819.125 511.589M703.522 524.002L641.843 546.273M703.522 524.002L750.569 534.915M819.125 511.589L885.572 478.866M819.125 511.589L961.965 507.121M819.125 511.589L750.569 534.915M819.125 511.589L895.6 536.877M876.776 427.548L940.209 437.39M876.776 427.548L918.233 389.896M876.776 427.548L929.385 408.986L962.184 431.307M940.209 437.39L957.443 427.433L962.184 431.307M940.209 437.39L1011.31 481.454M940.209 437.39L885.572 478.866M940.209 437.39L992.763 480.053M918.233 389.896L962.184 431.307M918.233 389.896L964.266 469.255M962.184 431.307L1011.31 481.454M962.184 431.307L964.266 469.255M962.184 431.307L1011.12 488.708L1034.08 492.153M962.184 431.307L1034.08 492.153M1011.31 481.454L1034.08 492.153M1011.31 481.454L1044.39 491.527L1130.51 451.995M1011.31 481.454L1002.85 477.514L992.763 480.053M1011.31 481.454L1079.07 490.983M1011.31 481.454L1035.78 490.9L1130.51 451.995M964.266 469.255L1034.08 492.153M964.266 469.255L988.489 494.824L1024.36 495.038L1077.54 465.777M1034.08 492.153L1130.51 451.995M1034.08 492.153L1077.54 465.777M1034.08 492.153L1189.5 394.298M1130.51 451.995L1189.5 394.298M1130.51 451.995L1292.28 335.001M1130.51 451.995L1222.35 401.007M1130.51 451.995L1079.07 490.983M1077.54 465.777L1189.5 394.298M1077.54 465.777L1258.19 322.951M1189.5 394.298L1258.19 322.951M1189.5 394.298L1292.28 335.001M1189.5 394.298L1375.25 248.834M1258.19 322.951L1375.25 248.834M1258.19 322.951L1457.48 161.035M885.572 478.866L961.965 507.121M885.572 478.866L992.763 480.053M885.572 478.866L992.763 480.069M961.965 507.121L992.763 480.069M961.965 507.121L992.763 480.053M961.965 507.121L1048.88 508.918M961.965 507.121L895.6 536.877M961.965 507.121L1021.86 535.987M992.763 480.053L1048.88 508.918M992.763 480.053L1079.07 490.983M992.763 480.069L1079.07 490.983M992.763 480.069L1048.88 508.918M1292.28 335.001L1222.35 401.007M1292.28 335.001L1375.25 248.834M1292.28 335.001L1457.48 229.382M1292.28 335.001L1370.45 318.071M1222.35 401.007L1079.07 490.983M1222.35 401.007L1165.11 450.561M1222.35 401.007L1299.79 380.055M1222.35 401.007L1370.45 318.071M1222.35 401.007L1370.45 318.088M1048.88 508.918L1079.07 490.983M1048.88 508.918L1165.11 450.561M1048.88 508.918L1021.86 535.987M1048.88 508.918L1118.42 496.34M1079.07 490.983L1165.11 450.561M1165.11 450.561L1118.42 496.34M1165.11 450.561L1248.05 416.421M1165.11 450.561L1299.79 380.055M447.737 576.194L490.482 582.392M447.737 576.194L548.051 562.758M490.482 582.392L548.051 562.758M490.482 582.392L581.918 564.868M490.482 582.392L437.379 600.905M490.482 582.392L530.788 583.661M548.051 562.758L581.918 564.868M548.051 562.758L641.843 546.273M581.918 564.868L641.843 546.273M581.918 564.868L682.752 550.741M581.918 564.868L530.788 583.661M581.918 564.868L625.649 565.61M641.843 546.273L682.752 550.741M641.843 546.273L750.569 534.915M682.752 550.741L750.569 534.915M682.752 550.741L815.645 550.477M682.752 550.741L744.458 558.274M682.752 550.741L625.649 565.61M750.569 534.915L815.645 550.477M750.569 534.915L895.6 536.877M437.379 600.905L491.77 605.009M437.379 600.905L530.788 583.661M491.77 605.009L530.788 583.661M491.77 605.009L590.384 589.382M491.77 605.009L443.736 619.829M491.77 605.009L551.229 609.328M530.788 583.661L590.384 589.382M530.788 583.661L625.649 565.61M815.645 550.477L744.458 558.274M815.645 550.477L895.6 536.877M815.645 550.477L985.392 568.808M815.645 550.477L909.684 573.078M744.458 558.274L699.768 578.04M744.458 558.274L838.853 580.315M744.458 558.274L625.649 565.61M744.458 558.274L909.684 573.078M590.384 589.382L625.649 565.61M590.384 589.382L699.741 578.04M590.384 589.382L551.229 609.328M590.384 589.382L659.708 598.91M625.649 565.61L699.741 578.04M625.649 565.61L699.768 578.04M699.741 578.04L659.708 598.91M699.768 578.04L838.853 580.315M699.768 578.04L659.708 598.91M699.768 578.04L784.737 595.695M838.853 580.315L909.684 573.078M838.853 580.315L1011.18 599.404M838.853 580.315L784.737 595.695M838.853 580.315L941.825 606.823M895.6 536.877L985.392 568.808M895.6 536.877L1021.86 535.987M985.392 568.808L1021.86 535.987M985.392 568.808L1088.58 534.981M985.392 568.808L909.684 573.078M985.392 568.808L1054.91 573.622M1021.86 535.987L1088.58 534.981M1021.86 535.987L1118.42 496.34M1088.58 534.981L1118.42 496.34M1088.58 534.981L1203.67 450.495M1088.58 534.981L1054.91 573.622M1088.58 534.981L1165.58 499.571M1118.42 496.34L1203.67 450.495M1118.42 496.34L1248.05 416.421M1203.67 450.495L1248.05 416.421M1203.67 450.495L1319.32 413.651M1203.67 450.495L1292.66 419.866M1203.67 450.495L1165.58 499.571M1248.05 416.421L1299.79 380.055M1248.05 416.421L1319.32 413.651M1248.05 416.421L1358.26 400.117M1299.79 380.055L1370.45 318.071M1299.79 380.055L1422.41 351.75M1299.79 380.055L1370.45 318.088M1299.79 380.055L1358.26 400.117M909.684 573.078L1011.18 599.404M909.684 573.078L1054.91 573.622M1011.18 599.404L1054.91 573.622M1011.18 599.404L1127.71 554.598M1011.18 599.404L941.825 606.823M1011.18 599.404L1085.57 602.866M1054.91 573.622L1127.71 554.598M1054.91 573.622L1165.58 499.571M1319.32 413.651L1303.95 412.646L1292.66 419.866M1319.32 413.651L1358.26 400.117M1319.32 413.651L1407.17 450.1M1319.32 413.651L1383.58 439.253M1292.66 419.866L1248.47 471.217M1292.66 419.866L1363.77 447.676M1292.66 419.866L1165.58 499.571M1292.66 419.866L1383.58 439.253M1127.71 554.598L1165.58 499.571M1127.71 554.598L1248.47 471.217M1127.71 554.598L1085.57 602.866M1127.71 554.598L1205.23 543.405M1165.58 499.571L1248.47 471.217M1248.47 471.217L1363.77 447.676M1248.47 471.217L1205.23 543.405M1248.47 471.217L1333.96 487.174M1363.77 447.676L1377.39 438.643L1383.58 439.253M1363.77 447.676L1452.02 492.961M1363.77 447.676L1333.96 487.174M1363.77 447.676L1436.98 503.379M1375.25 248.834L1457.48 229.382M1375.25 248.834L1457.48 161.035M1375.25 248.834L1544.26 135.137M1457.48 229.382L1544.26 135.137M1457.48 229.382L1591.3 179.515M1457.48 229.382L1370.45 318.071M1457.48 229.382L1506.31 270.1M1457.48 161.035L1544.26 135.137M1457.48 161.035L1602.13 78M1544.26 135.137L1591.3 179.515M1544.26 135.137L1602.13 78M1544.26 135.137L1664.43 112.256M1591.3 179.515L1664.43 112.256M1591.3 179.515L1713.29 183.916M1591.3 179.515L1506.31 270.1M1591.3 179.515L1629.31 263.242M1602.13 78L1664.43 112.256M1602.13 78L1716.55 79.9782M1664.43 112.256L1713.29 183.916M1664.43 112.256L1716.55 79.9782M1664.43 112.256L1780.23 132.664M1713.29 183.916L1780.23 132.664M1713.29 183.916L1839.31 201.506M1713.29 183.916L1764.86 263.094M1713.29 183.916L1629.31 263.242M1716.55 79.9782L1780.23 132.664M1716.55 79.9782L1825.19 117.943M1780.23 132.664L1825.19 117.943M1780.23 132.664L1839.31 201.506M1780.23 132.664L1894.76 170.613M1825.19 117.943L1894.76 170.613M1825.19 117.943L1930.47 171.074M1370.45 318.071L1422.41 351.75M1370.45 318.071L1506.31 270.1M1422.41 351.75L1506.31 270.1M1422.41 351.75L1370.45 318.088M1422.41 351.75L1538.25 353.366M1422.41 351.75L1358.26 400.117M1422.41 351.75L1460.52 422.24M1370.45 318.088L1506.31 270.1M1506.31 270.1L1538.25 353.366M1506.31 270.1L1629.31 263.242M1839.31 201.506L1764.86 263.094M1839.31 201.506L1894.76 170.613M1839.31 201.506L1965.29 224.865M1839.31 201.506L1764.89 263.094M1839.31 201.506L1905.73 264.363M1764.86 263.094L1677.29 345.865M1764.86 263.094L1830.18 328.704M1764.86 263.094L1629.31 263.242M1538.25 353.366L1629.31 263.242M1538.25 353.366L1677.29 345.865M1538.25 353.366L1460.52 422.24M1538.25 353.366L1587.52 431.455M1629.31 263.242L1677.29 345.865M1677.29 345.865L1830.18 328.704M1677.29 345.865L1587.52 431.455M1677.29 345.865L1745.4 407.321M1830.18 328.704L1905.73 264.363M1830.18 328.704L1986.37 307.9M1830.18 328.704L1764.89 263.094M1830.18 328.704L1745.4 407.321M1830.18 328.704L1915.15 368.433M1894.76 170.613L1965.29 224.865M1894.76 170.613L1930.47 171.074M1894.76 170.613L2007.19 211.974M1965.29 224.865L2007.19 211.974M1965.29 224.865L2087.17 246.642M1965.29 224.865L1905.73 264.363M1965.29 224.865L2044.56 266.358M1930.47 171.074L2007.19 211.974M1930.47 171.074L2034.86 218.584M2007.19 211.974L2087.17 246.642M2007.19 211.974L2034.86 218.584M2007.19 211.974L2116.68 242.702M2087.17 246.642L2116.68 242.702M2087.17 246.642L2200.86 259.5M2087.17 246.642L2044.56 266.358M2087.17 246.642L2174.06 268.435M2034.86 218.584L2116.68 242.702M2034.86 218.584L2140.71 239.701L2116.68 242.702M2116.68 242.702L2200.86 259.5M2200.86 259.5L2174.06 268.435M1764.89 263.094L1905.73 264.363M1905.73 264.363L1986.37 307.9M1905.73 264.363L2044.56 266.358M1986.37 307.9L2044.56 266.358M1986.37 307.9L2135.29 289.47M1986.37 307.9L1915.15 368.433M1986.37 307.9L2082.98 327.534M2044.56 266.358L2135.29 289.47M2044.56 266.358L2174.06 268.435M2135.29 289.47L2174.06 268.435M2135.29 289.47L2266.32 279.562M2135.29 289.47L2082.98 327.534M2135.29 289.47L2235 297.416M2174.06 268.435L2266.32 279.562M2266.32 279.562L2235 297.416M1358.26 400.117L1407.17 450.1M1358.26 400.117L1460.52 422.24M1358.26 400.117L1407.17 450.116L1460.52 422.24M1407.17 450.1L1460.52 422.24M1407.17 450.1L1511.68 492.681M1407.17 450.1L1396.02 449.012L1383.58 439.253M1407.17 450.1L1470.16 498.747M1407.17 450.1L1395.99 449.012L1383.58 439.253M1460.52 422.24L1511.68 492.681M1460.52 422.24L1587.52 431.455M1511.68 492.681L1587.52 431.455M1511.68 492.681L1663.31 480.762M1511.68 492.681L1486.08 502.176L1470.16 498.747M1511.68 492.681L1601.55 519.848M1587.52 431.455L1663.31 480.762M1587.52 431.455L1745.4 407.321M1663.31 480.762L1745.4 407.321M1663.31 480.762L1838.68 436.318M1663.31 480.762L1770.45 488.675M1663.31 480.762L1601.55 519.848M1745.4 407.321L1838.68 436.318M1745.4 407.321L1915.15 368.433M1383.58 439.253L1452.02 492.961M1383.58 439.253L1470.16 498.747M1452.02 492.961L1470.16 498.747M1452.02 492.961L1560.26 538.097M1452.02 492.961L1436.98 503.379M1452.02 492.961L1536.8 548.845M1470.16 498.747L1560.26 538.097M1470.16 498.747L1601.55 519.848M1838.68 436.318L1770.45 488.675M1838.68 436.318L1915.15 368.433M1838.68 436.318L2020.67 378.753M1838.68 436.318L1956.09 429.873M1770.45 488.675L1714.88 527.2M1770.45 488.675L1891.5 481.438M1770.45 488.675L1601.55 519.848M1770.45 488.675L1956.09 429.873M1560.26 538.097L1601.55 519.848M1560.26 538.097L1714.88 527.2M1560.26 538.097L1536.8 548.845M1560.26 538.097L1670.98 563.599M1601.55 519.848L1714.88 527.2M1714.88 527.2L1891.5 481.438M1714.88 527.2L1670.98 563.599M1714.88 527.2L1834.04 534.272M1891.5 481.438L1956.09 429.873M1891.5 481.438L2074.49 421.713M1891.5 481.438L1834.04 534.272M1891.5 481.438L2008.7 483.746M1915.15 368.433L2020.67 378.753M1915.15 368.433L2082.98 327.534M2020.67 378.753L2082.98 327.534M2020.67 378.753L2192.23 327.517M2020.67 378.753L1956.09 429.873M2020.67 378.753L2139.92 366.916M2082.98 327.534L2192.23 327.517M2082.98 327.534L2235 297.416M2192.23 327.517L2235 297.416M2192.23 327.517L2336.27 302.163M2192.23 327.517L2139.92 366.916M2192.23 327.517L2303.47 323.248M2235 297.416L2336.27 302.163M2336.27 302.163L2303.47 323.248M1956.09 429.873L2074.49 421.713M1956.09 429.873L2139.92 366.916M2074.49 421.713L2139.92 366.916M2074.49 421.713L2248.1 368.911M2074.49 421.713L2008.7 483.746M2074.49 421.713L2182.12 430.367M2139.92 366.916L2248.1 368.911M2139.92 366.916L2303.47 323.248M2248.1 368.911L2303.47 323.248M2248.1 368.911L2396.74 343.903M2248.1 368.911L2182.12 430.367M2248.1 368.911L2341.53 392.435M2303.47 323.248L2396.74 343.903M2396.74 343.903L2341.53 392.435M320.954 623.027L443.736 619.829M320.954 623.027L443.736 619.846M443.736 619.829L505.004 624.33M443.736 619.829L551.229 609.328M505.004 624.33L551.229 609.328M505.004 624.33L443.736 619.846M505.004 624.33L618.58 617.686M505.004 624.33L450.312 635.111M505.004 624.33L572.355 633.067M443.736 619.846L551.229 609.328M551.229 609.328L618.58 617.686M551.229 609.328L659.708 598.91M618.58 617.686L659.708 598.91M618.58 617.686L738.951 614.027M618.58 617.686L572.355 633.067M618.58 617.686L694.918 631.995M659.708 598.91L738.951 614.027M659.708 598.91L784.737 595.695M738.951 614.027L784.737 595.695M738.951 614.027L878.201 618.346M738.951 614.027L826.633 634.699M738.951 614.027L694.918 631.995M784.737 595.695L878.201 618.346M784.737 595.695L941.825 606.823M784.737 595.695L878.228 618.346M450.312 635.111L387.483 644.227M450.312 635.111L518.732 645.645M450.312 635.111L572.355 633.067M387.483 644.227L518.732 645.645M387.483 644.227L457.19 657.827M518.732 645.645L572.355 633.067M518.732 645.645L647.734 648.151M518.732 645.645L457.19 657.827M518.732 645.645L594.248 662.888M572.355 633.067L647.734 648.151M572.355 633.067L694.918 631.995M878.201 618.346L826.633 634.699M826.633 634.699L779.613 652.387M826.633 634.699L919.631 658.981M826.633 634.699L694.918 631.995M826.633 634.699L878.228 618.346M826.633 634.699L976.158 643.93M647.734 648.151L694.918 631.995M647.734 648.151L779.613 652.387M647.734 648.151L594.248 662.888M647.734 648.151L731.388 669.828M694.918 631.995L779.613 652.387M779.613 652.387L919.631 658.981M779.613 652.387L731.388 669.828M779.613 652.387L870.419 677.098M919.631 658.981L976.158 643.93M919.631 658.981L1068.83 668.213M919.631 658.981L870.419 677.098M919.631 658.981L1013.01 683.132M941.825 606.823L878.228 618.346M941.825 606.823L1038.8 632.226M941.825 606.823L1085.57 602.866M878.228 618.346L1038.8 632.226M878.228 618.346L976.158 643.93M1038.8 632.226L1085.57 602.866M1038.8 632.226L1163.85 605.158M1038.8 632.226L976.186 643.931M1038.8 632.226L1118.45 646.683M1038.8 632.226L976.158 643.93M1085.57 602.866L1163.85 605.158M1085.57 602.866L1205.23 543.405M1163.85 605.158L1205.23 543.405M1163.85 605.158L1291.35 551.697M1163.85 605.158L1118.45 646.683M1163.85 605.158L1247.23 617.901M1205.23 543.405L1291.35 551.697M1205.23 543.405L1333.96 487.174M1291.35 551.697L1333.96 487.174M1291.35 551.697L1414.9 535.113M1291.35 551.697L1381.41 584.617M1291.35 551.697L1247.23 617.901M1333.96 487.174L1414.9 535.113M1333.96 487.174L1436.98 503.379M976.158 643.93L1068.83 668.213M1068.83 668.213L1118.45 646.683M1068.83 668.213L976.186 643.931M1068.83 668.213L1202.71 661.718M1068.83 668.213L1013.01 683.132M1068.83 668.213L1154.15 685.192M976.186 643.931L1118.45 646.683M1118.45 646.683L1202.71 661.718M1118.45 646.683L1247.23 617.901M1414.9 535.113L1381.41 584.617M1414.9 535.113L1436.98 503.379M1414.9 535.113L1521.49 562.808M1414.9 535.113L1502.09 588.343M1381.41 584.617L1247.23 617.901M1381.41 584.617L1337.74 639.76M1381.41 584.617L1472.66 624.445M1381.41 584.617L1502.09 588.343M1202.71 661.718L1247.23 617.901M1202.71 661.718L1337.74 639.76M1202.71 661.718L1154.15 685.192M1202.71 661.718L1292.61 676.719M1247.23 617.901L1337.74 639.76M1337.74 639.76L1292.61 676.719M1337.74 639.76L1432.87 661.438M1337.74 639.76L1472.66 624.445M457.19 657.827L388.825 671.889M457.19 657.827L531.336 676.027M457.19 657.827L594.248 662.888M388.825 671.889L531.336 676.027M388.825 671.889L316.515 680.198M388.825 671.889L462.314 682.637M531.336 676.027L594.248 662.888M531.336 676.027L673.847 684.401M531.336 676.027L462.314 682.637M531.336 676.027L608.195 691.572M594.248 662.888L673.847 684.401M594.248 662.888L731.388 669.828M673.847 684.401L731.388 669.828M673.847 684.401L816.385 693.765M673.847 684.401L608.195 691.572M673.847 684.401L754.076 704.15M731.388 669.828L816.385 693.765M731.388 669.828L870.419 677.098M816.385 693.765L870.419 677.098M816.385 693.765L958.923 700.837M816.385 693.765L899.957 715.855M816.385 693.765L754.076 704.15M870.419 677.098L958.923 700.837M870.419 677.098L1013.01 683.132M316.515 680.198L462.314 682.637M316.515 680.198L390.004 684.978L462.314 682.637M462.314 682.637L608.195 691.572M462.314 682.637L539.365 693.023L608.195 691.572M608.195 691.572L754.076 704.15M608.195 691.572L688.753 708.651L754.076 704.15M958.923 700.837L899.957 715.855M958.923 700.837L1013.01 683.132M958.923 700.837L1101.71 702.419M958.923 700.837L1045.89 722.086M899.957 715.855L754.076 704.15M899.957 715.855L838.168 726.075L754.076 704.15M899.957 715.855L1045.89 722.086M899.957 715.855L987.584 739.445L1045.89 722.086M1013.01 683.132L1101.71 702.419M1013.01 683.132L1154.15 685.192M1101.71 702.419L1154.15 685.192M1101.71 702.419L1245.45 695.66M1101.71 702.419L1045.89 722.086M1101.71 702.419L1193.97 718.278M1154.15 685.192L1245.45 695.66M1154.15 685.192L1292.61 676.719M1245.45 695.66L1292.61 676.719M1245.45 695.66L1389.28 682.489M1245.45 695.66L1193.97 718.278M1245.45 695.66L1342.86 703.013M1292.61 676.719L1389.28 682.489M1292.61 676.719L1432.87 661.438M1389.28 682.489L1432.87 661.438M1389.28 682.489L1535.05 665.295M1389.28 682.489L1492.93 681.104M1389.28 682.489L1342.86 703.013M1432.87 661.438L1472.66 624.445M1432.87 661.438L1535.05 665.295M1432.87 661.438L1571.93 650.459M1472.66 624.445L1502.09 588.343M1472.66 624.445L1600.76 628.698M1472.66 624.445L1571.93 650.459M1045.89 722.086L1193.97 718.278M1045.89 722.086L1137.77 742.758L1193.97 718.278M1193.97 718.278L1342.86 703.013M1193.97 718.278L1291.65 729.537L1342.86 703.013M1535.05 665.295L1492.93 681.104M1535.05 665.295L1571.93 650.459M1535.05 665.295L1681.62 649.75M1535.05 665.295L1644.79 657.811M1492.93 681.104L1342.86 703.013M1492.93 681.104L1445.28 704.826L1342.86 703.013M1492.93 681.104L1644.79 657.811M1492.93 681.104L1600.92 675.005L1644.79 657.811M1436.98 503.379L1521.49 562.808M1436.98 503.379L1536.8 548.845M1521.49 562.808L1536.8 548.845M1521.49 562.808L1640.24 592.942M1521.49 562.808L1502.09 588.343M1521.49 562.808L1620.9 610.318M1536.8 548.845L1640.24 592.942M1536.8 548.845L1670.98 563.599M1536.8 548.845L1640.27 592.959L1670.98 563.599M1640.24 592.942L1670.98 563.599M1640.24 592.942L1788.72 581.172M1640.24 592.942L1620.9 610.318M1640.24 592.942L1756.28 616.961M1670.98 563.599L1788.72 581.172M1670.98 563.599L1834.04 534.272M1788.72 581.172L1834.04 534.272M1788.72 581.172L1951.21 543.553M1788.72 581.172L1906.3 593.635M1788.72 581.172L1756.28 616.961M1834.04 534.272L1951.21 543.553M1834.04 534.272L2008.7 483.746M1502.09 588.343L1600.76 628.698M1502.09 588.343L1620.9 610.318M1600.76 628.698L1620.9 610.318M1600.76 628.698L1733.07 638.424M1600.76 628.698L1571.93 650.459M1600.76 628.698L1710.47 646.535M1620.9 610.318L1733.07 638.424M1620.9 610.318L1756.28 616.961M1951.21 543.553L1906.3 593.635M1951.21 543.553L2008.7 483.746M1951.21 543.553L2117.72 495.846M1951.21 543.553L1834.07 534.272L2008.7 483.746M1951.21 543.553L2062.76 555.587M1906.3 593.635L1873.94 628.517M1906.3 593.635L2020.78 601.795M1906.3 593.635L1756.28 616.961M1906.3 593.635L2062.76 555.587M1733.07 638.424L1756.28 616.961M1733.07 638.424L1873.94 628.517M1733.07 638.424L1710.47 646.535M1733.07 638.424L1849.85 644.705M1756.28 616.961L1873.94 628.517M1873.94 628.517L2020.78 601.795M1873.94 628.517L1849.85 644.705M1873.94 628.517L1991.08 628.715M2020.78 601.795L2062.76 555.587M2020.78 601.795L2169.32 568.907M2020.78 601.795L1991.08 628.715M2020.78 601.795L2133.56 604.498M2008.7 483.746L2117.72 495.846M2008.7 483.746L2182.12 430.367M2117.72 495.846L2182.12 430.367M2117.72 495.846L2278.32 453.809M2117.72 495.846L2062.76 555.587M2117.72 495.846L2218.53 515.99M2182.12 430.367L2278.32 453.809M2182.12 430.367L2341.53 392.435M2278.32 453.809L2341.53 392.435M2278.32 453.809L2423.05 433.17M2278.32 453.809L2218.53 515.99M2278.32 453.809L2366.55 488.032M2341.53 392.435L2423.05 433.17M2423.05 433.17L2366.55 488.032M2062.76 555.587L2169.32 568.907M2062.76 555.587L2218.53 515.99M2062.76 555.587L2169.35 568.907L2218.53 515.99M2169.32 568.907L2218.53 515.99M2169.32 568.907L2315.36 540.454M2169.32 568.907L2133.56 604.498M2169.32 568.907L2275.91 580.117M2218.53 515.99L2315.36 540.454M2218.53 515.99L2366.55 488.032M2218.53 515.99L2315.36 540.471L2366.55 488.032M2315.36 540.454L2366.55 488.032M2315.36 540.454L2454.7 527.052M2315.36 540.454L2275.91 580.117M2315.36 540.454L2416.75 563.566M2366.55 488.032L2454.7 527.052M2454.7 527.052L2416.75 563.566M1571.93 650.459L1681.62 649.75M1571.93 650.459L1710.47 646.535M1681.62 649.75L1710.47 646.535M1681.62 649.75L1827 643.205M1681.62 649.75L1644.79 657.811M1681.62 649.75L1796.75 641.787M1710.47 646.535L1827 643.205M1710.47 646.535L1849.85 644.705M1827 643.205L1849.85 644.705M1827 643.205L1968.09 636.413M1827 643.205L1796.75 641.787M1827 643.205L1942.77 638.523M1849.85 644.705L1968.09 636.413M1849.85 644.705L1991.08 628.715M1968.09 636.413L1991.08 628.715M1968.09 636.413L2109.31 620.835M1968.09 636.413L2085.06 631.072M1968.09 636.413L1942.77 638.523M1991.08 628.715L2109.31 620.835M1991.08 628.715L2133.56 604.498M1644.79 657.811L1796.75 641.787M1644.79 657.811L1757.3 649.338L1796.75 641.787M1796.75 641.787L1942.77 638.523M1796.75 641.787L1912.79 638.111L1942.77 638.523M2109.31 620.835L2085.06 631.072M2109.31 620.835L2133.56 604.498M2109.31 620.835L2250.56 602.405M2109.31 620.835L2227.55 619.45M2085.06 631.072L1942.77 638.523M2085.06 631.072L2057.03 637.139L1942.77 638.523M2085.06 631.072L2227.55 619.45M2085.06 631.072L2201.84 632.325L2227.55 619.45M2133.56 604.498L2250.56 602.405M2133.56 604.498L2275.91 580.117M2250.56 602.405L2275.91 580.117M2250.56 602.405L2391.76 587.074M2250.56 602.405L2227.55 619.45M2250.56 602.405L2370.06 607.911M2275.91 580.117L2391.76 587.074M2275.91 580.117L2416.75 563.566M2391.76 587.074L2416.75 563.566M2391.76 587.074L2532.84 580.743M2391.76 587.074L2370.06 607.911M2391.76 587.074L2512.35 600.723M2416.75 563.566L2532.84 580.743M2532.84 580.743L2512.35 600.723M2227.55 619.45L2370.06 607.911M2227.55 619.45L2346.82 626.292L2370.06 607.911M2370.06 607.911L2512.35 600.723M2370.06 607.911L2491.63 621.593L2512.35 600.723M-1848.44 622.846L-1979.44 644.788M-1848.44 622.846L-1826.65 641.59M-1848.44 622.846L-1699.32 614.439M-1979.44 644.788L-1826.65 641.59M-1979.44 644.788L-1960.48 666.02M-1826.65 641.59L-1960.48 666.02M-1826.65 641.59L-1803.83 662.872M-1826.65 641.59L-1699.32 614.439M-1826.65 641.59L-1673.87 634.023M-1826.65 641.59L-1803.83 662.888L-1673.87 634.023M-1960.48 666.02L-1803.83 662.872M-1960.48 666.02L-2101.26 688.687M-1960.48 666.02L-1940.56 688.654M-1803.83 662.872L-1673.87 634.023M-1803.83 662.872L-1647.15 657.695M-1803.83 662.872L-1940.56 688.654M-1803.83 662.872L-1779.83 686.874M-1699.32 614.439L-1673.87 634.023M-1699.32 614.439L-1550.18 602.24M-1673.87 634.023L-1647.15 657.695M-1673.87 634.023L-1550.18 602.24M-1673.87 634.023L-1521.05 624.973M-1647.15 657.695L-1521.05 624.973M-1647.15 657.695L-1490.45 652.486M-1647.15 657.695L-1779.83 686.874M-1647.15 657.695L-1619.07 684.5M-1550.18 602.24L-1521.05 624.973M-1550.18 602.24L-1401.04 589.975M-1521.05 624.973L-1490.45 652.486M-1521.05 624.973L-1401.04 589.975M-1521.05 624.973L-1368.21 617.291M-1490.45 652.486L-1368.21 617.291M-1490.45 652.486L-1333.74 649.239M-1490.45 652.486L-1458.28 682.687M-1490.45 652.486L-1619.07 684.5M-1401.04 589.975L-1368.21 617.291M-1401.04 589.975L-1251.87 581.386M-1368.21 617.291L-1251.87 581.386M-1368.21 617.291L-1333.74 649.239M-1368.21 617.291L-1215.35 613.862M-1251.87 581.386L-1215.35 613.862M-1251.87 581.386L-1102.7 581.683M-2101.26 688.687L-1940.56 688.654M-2101.26 688.687L-2084.55 712.574M-1940.56 688.654L-2084.55 712.574M-1940.56 688.654L-1919.54 712.574M-1940.56 688.654L-1779.83 686.874M-2084.55 712.574H-1919.54M-2084.55 712.574L-2236.38 737.318M-2084.55 712.574L-2066.87 737.384M-1919.54 712.574L-1779.83 686.874M-1919.54 712.574L-1754.51 712.31M-1919.54 712.574L-2066.87 737.384M-1919.54 712.574L-1897.32 737.45M-1779.83 686.874L-1754.51 712.31M-1779.83 686.874L-1619.07 684.5M-1333.74 649.239L-1458.28 682.687M-1333.74 649.239L-1215.35 613.862M-1333.74 649.239L-1177.01 649.156M-1333.74 649.239L-1297.49 682.538M-1458.28 682.687L-1589.47 712.047M-1458.28 682.687L-1424.38 712.03M-1458.28 682.687L-1619.07 684.5M-1458.28 682.687L-1297.49 682.538M-1754.51 712.31L-1619.07 684.5M-1754.51 712.31L-1589.47 712.047M-1754.51 712.31L-1897.32 737.45M-1754.51 712.31L-1727.76 737.516M-1619.07 684.5L-1589.47 712.047M-1589.47 712.047L-1424.38 712.03M-1589.47 712.047L-1727.76 737.516M-1589.47 712.047L-1558.18 737.565M-1424.38 712.03L-1297.49 682.538M-1424.38 712.03L-1259.3 712.014M-1424.38 712.03L-1558.18 737.565M-1424.38 712.03L-1388.57 737.631M-1215.35 613.862L-1177.01 649.156M-1215.35 613.862L-1102.7 581.683M-1215.35 613.862L-1062.48 618.741M-1177.01 649.156L-1062.48 618.741M-1177.01 649.156L-1020.25 654.349M-1177.01 649.156L-1297.49 682.538M-1177.01 649.156L-1136.68 682.637M-1102.7 581.683L-1062.48 618.741M-1102.7 581.683L-953.505 595.778M-1062.48 618.741L-1020.25 654.349M-1062.48 618.741L-953.505 595.778M-1062.48 618.741L-909.581 631.814M-1020.25 654.349L-909.581 631.814M-1020.25 654.349L-863.494 663.482M-1020.25 654.349L-1136.68 682.637M-1020.25 654.349L-975.836 685.736M-953.505 595.778L-909.581 631.814M-953.505 595.778L-804.281 617.225M-909.581 631.814L-863.494 663.482M-909.581 631.814L-804.281 617.225M-909.581 631.814L-756.686 648.002M-863.494 663.482L-756.686 648.002M-863.494 663.482L-706.68 673.01M-863.494 663.482L-814.994 690.056M-863.494 663.482L-975.836 685.736M-804.281 617.225L-756.686 648.002M-804.281 617.225L-655.057 639.414M-756.686 648.002L-655.057 639.414M-756.686 648.002L-706.68 673.01M-756.686 648.002L-603.763 662.196M-655.057 639.414L-603.763 662.196M-655.057 639.414L-505.805 655.717M-1297.49 682.538L-1259.3 712.014M-1297.49 682.538L-1136.68 682.637M-1259.3 712.014L-1136.68 682.637M-1259.3 712.014L-1094.18 712.079M-1259.3 712.014L-1388.57 737.631M-1259.3 712.014L-1218.96 737.697M-1136.68 682.637L-1094.18 712.079M-1136.68 682.637L-975.836 685.736M-706.68 673.01L-814.994 690.056M-706.68 673.01L-603.763 662.196M-706.68 673.01L-549.893 679.39M-706.68 673.01L-654.098 693.6M-814.994 690.056L-975.836 685.736M-814.994 690.056L-929.036 712.673M-814.994 690.056L-763.892 713.316M-814.994 690.056L-654.098 693.6M-1094.18 712.079L-975.836 685.736M-1094.18 712.079L-929.036 712.673M-1094.18 712.079L-1218.96 737.697M-1094.18 712.079L-1049.32 737.747M-975.836 685.736L-929.036 712.673M-929.036 712.673L-1049.32 737.747M-929.036 712.673L-879.632 737.813M-929.036 712.673L-763.892 713.316M-2236.38 737.318L-2066.87 737.384M-2236.38 737.318L-2222.37 763.694M-2066.87 737.384L-2222.37 763.694M-2066.87 737.384L-2048.11 763.76M-2066.87 737.384L-1897.32 737.45M-2222.37 763.694L-2048.11 763.76M-2222.37 763.694L-2386.91 791.537M-2222.37 763.694L-2207.6 791.603M-2048.11 763.76L-1897.32 737.45M-2048.11 763.76L-2207.6 791.603M-1897.32 737.45L-2048.08 763.76M-1897.32 737.45L-1873.78 763.826M-1897.32 737.45L-1727.76 737.516M-2048.08 763.76L-1873.78 763.826M-2048.08 763.76L-2207.6 791.603M-2048.08 763.76L-2028.27 791.669M-1873.78 763.826L-1727.76 737.516M-1873.78 763.826L-1699.43 763.892M-1873.78 763.826L-2028.27 791.669M-1873.78 763.826L-1848.9 791.735M-1727.76 737.516L-1699.43 763.892M-1727.76 737.516L-1558.18 737.565M-1699.43 763.892L-1558.18 737.565M-1699.43 763.892L-1525.08 763.958M-1699.43 763.892L-1669.51 791.817M-1699.43 763.892L-1848.9 791.735M-1558.18 737.565L-1525.08 763.958M-1558.18 737.565L-1388.57 737.631M-2386.91 791.537L-2207.6 791.603M-2386.91 791.537L-2376.69 821.144M-2207.6 791.603L-2376.69 821.144M-2207.6 791.603L-2192.01 821.21M-2207.6 791.603L-2028.27 791.669M-2376.69 821.144L-2192.01 821.21M-2376.69 821.144L-2556.28 852.532M-2376.69 821.144L-2365.93 852.598M-2192.01 821.21L-2028.27 791.669M-2192.01 821.21L-2007.31 821.293M-2192.01 821.21L-2365.93 852.598M-2192.01 821.21L-2175.55 852.68M-2028.27 791.669L-2007.31 821.293M-2028.27 791.669L-1848.9 791.735M-1525.08 763.958L-1669.51 791.817M-1525.08 763.958L-1388.57 737.631M-1525.08 763.958L-1350.7 764.024M-1525.08 763.958L-1490.09 791.883M-1669.51 791.817L-1822.57 821.359M-1669.51 791.817L-1637.84 821.425M-1669.51 791.817L-1848.9 791.735M-1669.51 791.817L-1822.6 821.359M-1669.51 791.817L-1490.09 791.883M-2007.31 821.293L-1848.9 791.735M-2007.31 821.293L-1822.6 821.359M-2007.31 821.293L-2175.55 852.68M-2007.31 821.293L-1985.17 852.763M-1848.9 791.735L-1822.6 821.359M-1822.6 821.359L-1985.17 852.763M-1822.57 821.359L-1637.84 821.425M-1822.57 821.359L-1985.17 852.763M-1822.57 821.359L-1794.73 852.829M-1637.84 821.425L-1490.09 791.883M-1637.84 821.425L-1453.05 821.507M-1637.84 821.425L-1794.73 852.829M-1637.84 821.425L-1604.27 852.911M-1388.57 737.631L-1350.7 764.024M-1388.57 737.631L-1218.96 737.697M-1350.7 764.024L-1218.96 737.697M-1350.7 764.024L-1176.3 764.09M-1350.7 764.024L-1490.09 791.883M-1350.7 764.024L-1310.64 791.949M-1218.96 737.697L-1176.3 764.09M-1218.96 737.697L-1049.32 737.747M-1176.3 764.09L-1049.32 737.747M-1176.3 764.09L-1001.87 764.156M-1176.3 764.09L-1310.64 791.949M-1176.3 764.09L-1131.17 792.015M-1049.32 737.747L-1001.87 764.156M-1049.32 737.747L-879.632 737.813M-1001.87 764.156L-879.632 737.813M-1001.87 764.156L-827.407 764.205M-1001.87 764.156L-951.696 792.081M-1001.87 764.156L-1131.17 792.015M-879.632 737.813L-763.892 713.316M-879.632 737.813L-827.407 764.205M-879.632 737.813L-709.94 737.879M-763.892 713.316L-654.098 693.6M-763.892 713.316L-598.721 713.547M-763.892 713.316L-709.94 737.879M-1490.09 791.883L-1453.05 821.507M-1490.09 791.883L-1310.64 791.949M-1453.05 821.507L-1310.64 791.949M-1453.05 821.507L-1268.26 821.573M-1453.05 821.507L-1604.27 852.911M-1453.05 821.507L-1413.81 852.993M-1310.64 791.949L-1268.26 821.573M-1310.64 791.949L-1131.17 792.015M-827.407 764.205L-951.696 792.081M-827.407 764.205L-709.94 737.879M-827.407 764.205L-652.947 764.271M-827.407 764.205L-772.167 792.147M-951.696 792.081L-1083.41 821.655M-951.696 792.081L-898.566 821.721M-951.696 792.081L-1131.17 792.015M-951.696 792.081L-772.167 792.147M-1268.26 821.573L-1131.17 792.015M-1268.26 821.573L-1083.41 821.655M-1268.26 821.573L-1413.81 852.993M-1268.26 821.573L-1223.29 853.059M-1131.17 792.015L-1083.41 821.655M-1083.41 821.655L-898.566 821.721M-1083.41 821.655L-1223.29 853.059M-1083.41 821.655L-1032.75 853.142M-898.566 821.721L-772.167 792.147M-898.566 821.721L-713.667 821.787M-898.566 821.721L-1032.75 853.142M-898.566 821.721L-842.176 853.224M-603.763 662.196L-549.893 679.39M-603.763 662.196L-505.805 655.717M-603.763 662.196L-450.812 669.334M-549.893 679.39L-450.812 669.334M-549.893 679.39L-393.106 679.868M-549.893 679.39L-654.098 693.6M-549.893 679.39L-493.201 694.358M-505.805 655.717L-450.812 669.334M-505.805 655.717L-356.527 659.492M-450.812 669.334L-393.106 679.868M-450.812 669.334L-356.527 659.492M-450.812 669.334L-297.917 667.438M-393.106 679.868L-297.917 667.438M-393.106 679.868L-236.43 677.444M-393.106 679.868L-493.201 694.358M-393.106 679.868L-332.442 693.287M-356.527 659.492L-297.917 667.438M-356.527 659.492L-207.193 654.942M-297.917 667.438L-236.43 677.444M-297.917 667.438L-207.193 654.942M-297.917 667.438L-144.994 664.57M-297.917 667.438L-236.402 677.444M-236.43 677.444L-332.442 693.287M-207.193 654.942L-144.994 664.57M-207.193 654.942L-57.8599 654.877M-144.994 664.57L-236.402 677.444M-144.994 664.57L-57.8599 654.877M-144.994 664.57L-79.698 677.395M-144.994 664.57L7.92916 669.515M-236.402 677.444L-79.698 677.395M-236.402 677.444L-171.682 692.166M-236.402 677.444L-332.442 693.287M-57.8599 654.877L7.92916 669.515M-57.8599 654.877L91.4465 668.196M-654.098 693.6L-598.721 713.547M-654.098 693.6L-493.201 694.358M-598.721 713.547L-493.201 694.358M-598.721 713.547L-433.523 713.217M-598.721 713.547L-709.94 737.879M-598.721 713.547L-540.248 737.928M-493.201 694.358L-433.523 713.217M-493.201 694.358L-332.442 693.287M-79.698 677.395L-171.682 692.166M-79.698 677.395L7.92916 669.515M-79.698 677.395L77.1978 683.709M-79.698 677.395L-10.8951 694.094M-171.682 692.166L-268.379 712.953M-171.682 692.166L-103.18 712.986M-171.682 692.166L-332.442 693.287M-171.682 692.166L-10.8951 694.094M-171.682 692.166L-10.8951 694.111M-433.523 713.217L-332.442 693.287M-433.523 713.217L-268.379 712.953M-433.523 713.217L-540.248 737.928M-433.523 713.217L-370.419 737.994M-332.442 693.287L-268.379 712.953M-268.379 712.953L-103.18 712.986M-268.379 712.953L-370.419 737.994M-268.379 712.953L-200.535 738.06M-103.18 712.986L-10.8951 694.094M-103.18 712.986L62.0727 713.629M-103.18 712.986L-10.8951 694.111M-103.18 712.986L-200.535 738.06M-103.18 712.986L-30.651 738.126M7.92916 669.515L77.1978 683.709M7.92916 669.515L91.4465 668.196M7.92916 669.515L161.017 680.362M77.1978 683.709L161.017 680.362M77.1978 683.709L234.286 688.836M77.1978 683.709L-10.8951 694.094M77.1978 683.709L150.303 696.979M91.4465 668.196L161.017 680.362M91.4465 668.196L240.752 680.857M161.017 680.362L234.286 688.836M161.017 680.362L240.752 680.857M161.017 680.362L314.159 686.297M234.286 688.836L314.159 686.297M234.286 688.836L391.374 690.649M234.286 688.836L150.303 696.979M234.286 688.836L311.501 697.886M240.752 680.857L314.159 686.297M240.752 680.857L390.059 684.978L314.159 686.297M314.159 686.297L391.374 690.649M391.374 690.649L311.501 697.886M-10.8951 694.094L62.0727 713.629M-10.8951 694.094L150.303 696.979M62.0727 713.629L150.303 696.979M62.0727 713.629L-10.8951 694.111M62.0727 713.629L227.436 713.876M62.0727 713.629L-30.651 738.126M62.0727 713.629L139.014 738.175M-10.8951 694.111L150.303 696.979M150.303 696.979L227.436 713.876M150.303 696.979L311.501 697.886M227.436 713.876L311.501 697.886M227.436 713.876L392.799 714.635M227.436 713.876L139.014 738.175M227.436 713.876L308.706 738.241M311.501 697.886L392.799 714.635M392.799 714.635L308.706 738.241M-709.94 737.879L-652.947 764.271M-709.94 737.879L-540.248 737.928M-652.947 764.271L-540.248 737.928M-652.947 764.271L-478.405 764.337M-652.947 764.271L-772.167 792.147M-652.947 764.271L-592.638 792.213M-540.248 737.928L-478.405 764.337M-540.248 737.928L-370.419 737.994M-478.405 764.337L-370.419 737.994M-478.405 764.337L-303.781 764.403M-478.405 764.337L-592.638 792.213M-478.405 764.337L-413.082 792.296M-370.419 737.994L-303.781 764.403M-370.419 737.994L-200.535 738.06M-303.781 764.403L-200.535 738.06M-303.781 764.403L-129.102 764.469M-303.781 764.403L-233.471 792.361M-303.781 764.403L-413.082 792.296M-200.535 738.06L-129.102 764.469M-200.535 738.06L-30.651 738.126M-772.167 792.147L-713.667 821.787M-772.167 792.147L-592.638 792.213M-713.667 821.787L-592.638 792.213M-713.667 821.787L-528.795 821.87M-713.667 821.787L-842.176 853.224M-713.667 821.787L-651.577 853.29M-592.638 792.213L-528.795 821.87M-592.638 792.213L-413.082 792.296M-129.102 764.469L-233.471 792.361M-129.102 764.469L-30.651 738.126M-129.102 764.469L45.4406 764.535M-129.102 764.469L-53.8593 792.427M-233.471 792.361L-344.005 821.936M-233.471 792.361L-159.187 822.018M-233.471 792.361L-413.082 792.296M-233.471 792.361L-53.8593 792.427M-528.795 821.87L-413.082 792.296M-528.795 821.87L-344.005 821.936M-528.795 821.87L-651.577 853.29M-528.795 821.87L-461.17 853.373M-413.082 792.296L-344.005 821.936M-344.005 821.936L-159.187 822.018M-344.005 821.936L-461.17 853.373M-344.005 821.936L-270.79 853.455M-159.187 822.018L-53.8593 792.427M-159.187 822.018L25.7944 822.084M-159.187 822.018L-270.79 853.455M-159.187 822.018L-80.3559 853.537M-30.651 738.126L45.4406 764.535M-30.651 738.126L139.014 738.175M45.4406 764.535L139.014 738.175M45.4406 764.535L219.901 764.601M45.4406 764.535L-53.8593 792.427M45.4406 764.535L125.779 792.493M139.014 738.175L219.901 764.601M139.014 738.175L308.706 738.241M219.901 764.601L308.706 738.241M219.901 764.601L394.388 765.771M219.901 764.601L125.779 792.493M219.901 764.601L305.418 792.559M308.706 738.241L394.388 765.771M394.388 765.771L305.418 792.559M-53.8593 792.427L25.7944 822.084M-53.8593 792.427L125.779 792.493M25.7944 822.084L125.779 792.493M25.7944 822.084L210.996 822.15M25.7944 822.084L-80.3559 853.537M25.7944 822.084L110.654 853.603M125.779 792.493L210.996 822.15M125.779 792.493L305.418 792.559M210.996 822.15L305.418 792.559M210.996 822.15L396.196 822.43M210.996 822.15L110.654 853.603M210.996 822.15L301.719 853.686M305.418 792.559L396.196 822.43M396.196 822.43L301.719 853.686M-2556.28 852.532L-2365.93 852.598M-2556.28 852.532L-2550.93 886.013M-2365.93 852.598L-2550.93 886.013M-2365.93 852.598L-2354.53 886.095M-2365.93 852.598L-2175.55 852.68M-2550.93 886.013L-2354.53 886.095M-2550.93 886.013L-2748 921.571L-2545.18 921.67M-2550.93 886.013L-2545.18 921.67M-2354.53 886.095L-2175.55 852.68M-2354.53 886.095L-2158.09 886.161M-2354.53 886.095L-2545.18 921.67M-2354.53 886.095L-2342.33 921.752M-2175.55 852.68L-2158.09 886.161M-2175.55 852.68L-1985.17 852.763M-2175.55 852.68L-2158.09 886.178L-1985.17 852.763M-2158.09 886.161L-1985.17 852.763M-2158.09 886.161L-1961.63 886.244M-2158.09 886.161L-2342.33 921.752M-2158.09 886.161L-2139.43 921.835M-1985.17 852.763L-1961.63 886.244M-1985.17 852.763L-1794.73 852.829M-1985.17 852.763L-1961.63 886.26L-1794.73 852.829M-1961.63 886.244L-1794.73 852.829M-1961.63 886.244L-1765.14 886.326M-1961.63 886.244L-1936.53 921.934M-1961.63 886.244L-2139.43 921.835M-1794.73 852.829L-1765.14 886.326M-1794.73 852.829L-1604.27 852.911M-2545.18 921.67L-2342.33 921.752M-2342.33 921.752L-2139.43 921.835M-1765.14 886.326L-1936.53 921.934M-1765.14 886.326L-1604.27 852.911M-1765.14 886.326L-1568.62 886.408M-1765.14 886.326L-1936.5 921.934L-1733.57 922.016M-1765.14 886.326L-1733.57 922.016M-1936.53 921.934L-2139.43 921.835M-1604.27 852.911L-1568.62 886.408M-1604.27 852.911L-1413.81 852.993M-1568.62 886.408L-1413.81 852.993M-1568.62 886.408L-1372.08 886.491M-1568.62 886.408L-1733.57 922.016M-1568.62 886.408L-1530.59 922.099M-1413.81 852.993L-1372.08 886.491M-1413.81 852.993L-1223.29 853.059M-1372.08 886.491L-1223.29 853.059M-1372.08 886.491L-1175.5 886.573M-1372.08 886.491L-1530.59 922.099M-1372.08 886.491L-1327.58 922.197M-1223.29 853.059L-1175.5 886.573M-1223.29 853.059L-1032.75 853.142M-1175.5 886.573L-1032.75 853.142M-1175.5 886.573L-978.878 886.656M-1175.5 886.573L-1124.51 922.28M-1175.5 886.573L-1327.58 922.197M-1032.75 853.142L-978.878 886.656M-1032.75 853.142L-842.176 853.224M-1733.57 922.016L-1530.59 922.099M-1530.59 922.099L-1327.58 922.197M-978.878 886.656L-1124.51 922.28M-978.878 886.656L-842.176 853.224M-978.878 886.656L-782.251 886.738M-978.878 886.656L-921.446 922.362M-1124.51 922.28L-1327.58 922.197M-1124.51 922.28L-921.446 922.362M-842.176 853.224L-782.251 886.738M-842.176 853.224L-651.577 853.29M-842.176 853.224L-651.577 853.307M-782.251 886.738L-651.577 853.307M-782.251 886.738L-651.577 853.29M-782.251 886.738L-585.651 886.821M-782.251 886.738L-921.446 922.362M-782.251 886.738L-718.325 922.445M-651.577 853.29L-585.651 886.821M-651.577 853.29L-461.17 853.373M-651.577 853.307L-461.17 853.373M-651.577 853.307L-585.651 886.821M-585.651 886.821L-461.17 853.373M-585.651 886.821L-389.188 886.903M-585.651 886.821L-718.325 922.445M-585.651 886.821L-515.231 922.544M-461.17 853.373L-389.188 886.903M-461.17 853.373L-270.79 853.455M-389.188 886.903L-270.79 853.455M-389.188 886.903L-192.698 886.985M-389.188 886.903L-312.083 922.626M-389.188 886.903L-515.231 922.544M-270.79 853.455L-192.698 886.985M-270.79 853.455L-80.3559 853.537M-921.446 922.362L-718.325 922.445M-718.325 922.445L-515.231 922.544M-192.698 886.985L-312.083 922.626M-192.698 886.985L-80.3559 853.537M-192.698 886.985L4.06574 887.068M-192.698 886.985L-108.88 922.709M-312.083 922.626L-515.231 922.544M-312.083 922.626L-108.88 922.709M-80.3559 853.537L4.06574 887.068M-80.3559 853.537L110.654 853.603M4.06574 887.068L110.654 853.603M4.06574 887.068L201.158 887.15M4.06574 887.068L-108.88 922.709M4.06574 887.068L94.3784 922.807M110.654 853.603L201.158 887.15M110.654 853.603L301.719 853.686M201.158 887.15L301.719 853.686M201.158 887.15L398.224 886.854M201.158 887.15L94.3784 922.807M201.158 887.15L297.664 922.89M301.719 853.686L398.224 886.854M398.224 886.854L297.664 922.89M-108.88 922.709L94.3784 922.807M94.3784 922.807L297.664 922.89M390.744 685.044L314.816 686.363M390.744 685.044L467.959 691.325M390.744 685.044L540.187 693.204M314.816 686.363L467.959 691.325M314.816 686.363L392.086 690.797M467.959 691.325L392.086 690.797M467.959 691.325L549.092 705.469M467.959 691.325L540.187 693.204M467.959 691.325L621.101 708.321M392.086 690.797L549.092 705.469M392.086 690.797L312.186 698.133M392.086 690.797L473.357 705.387M549.092 705.469L621.101 708.321M549.092 705.469L706.152 731.07M549.092 705.469L473.357 705.387M549.092 705.469L634.472 729.966M540.187 693.204L621.101 708.321M540.187 693.204L689.657 708.964M621.101 708.321L706.152 731.07M621.101 708.321L689.657 708.964M621.101 708.321L774.27 731.004M706.152 731.07L774.27 731.004M706.152 731.07L863.213 759.227M706.152 731.07L634.472 729.966M706.152 731.07L795.615 762.326M689.657 708.964L774.27 731.004M689.657 708.964L839.128 726.471M774.27 731.004L863.213 759.227M774.27 731.004L839.128 726.471M774.27 731.004L927.467 752.286M863.213 759.227L927.467 752.286M863.213 759.227L1020.3 781.514M863.213 759.227L956.786 792.774M863.213 759.227L795.615 762.326M839.128 726.471L927.467 752.286M839.128 726.471L988.625 739.89M927.467 752.286L988.625 739.89M927.467 752.286L1020.3 781.514M927.467 752.286L1080.66 765.013M988.625 739.89L1080.66 765.013M988.625 739.89L1138.92 743.187M312.186 698.133L473.357 705.387M312.186 698.133L393.566 715.129M473.357 705.387L393.566 715.129M473.357 705.387L558.984 733.065M473.357 705.387L634.472 729.966M393.566 715.129L558.984 733.065M393.566 715.129L309.418 738.802M393.566 715.129L479.33 746.583M558.984 733.065L634.472 729.966M558.984 733.065L724.429 765.277M558.984 733.065L479.33 746.583M558.984 733.065L649.296 772.118M634.472 729.966L724.429 765.277M634.472 729.966L795.615 762.326M1020.3 781.514L956.786 792.774M1020.3 781.514L1080.66 765.013M1020.3 781.514L1178.18 788.867M1020.3 781.514L1117.96 811.633M956.786 792.774L889.874 800.818M956.786 792.774L1055.37 828.727M956.786 792.774L795.615 762.326M956.786 792.774L1117.96 811.633M724.429 765.277L795.615 762.326M724.429 765.277L889.874 800.818M724.429 765.277L649.296 772.118M724.429 765.277L819.29 805.731M795.615 762.326L889.874 800.818M889.874 800.818L1055.37 828.727M889.874 800.818L819.29 805.731M889.874 800.818L989.31 837.366M1055.37 828.727L1117.96 811.633M1055.37 828.727L1220.98 837.794M1055.37 828.727L989.31 837.366M1055.37 828.727L1159.33 856.999M1080.66 765.013L1178.18 788.867M1080.66 765.013L1138.92 743.187M1080.66 765.013L1237.31 759.705M1178.18 788.867L1237.31 759.705M1178.18 788.867L1339.63 770.057M1178.18 788.867L1117.98 811.633M1178.18 788.867L1281.24 805.896M1178.18 788.867L1117.96 811.633M1138.92 743.187L1237.31 759.705M1138.92 743.187L1292.88 729.817M1237.31 759.705L1339.63 770.057M1237.31 759.705L1292.88 729.817M1237.31 759.705L1395.03 735.208M1339.63 770.057L1395.03 735.208M1339.63 770.057L1500.28 734.763M1339.63 770.057L1281.24 805.896M1339.63 770.057L1444.43 773.981M1292.88 729.817L1395.03 735.208M1292.88 729.817L1446.6 704.958M1395.03 735.208L1500.28 734.763M1395.03 735.208L1446.6 704.958M1395.03 735.208L1553.22 701.068M1500.28 734.763L1553.22 701.068M1500.28 734.763L1661.56 693.765M1500.28 734.763L1607.03 729.62M1500.28 734.763L1444.43 773.981M1446.6 704.958L1553.22 701.068M1446.6 704.958L1602.34 675.005M1553.22 701.068L1602.34 675.005M1553.22 701.068L1661.56 693.765M1553.22 701.068L1712.58 666.663M1602.34 675.005L1712.58 666.663M1602.34 675.005L1758.78 649.288M1117.96 811.633L1220.98 837.794M1220.98 837.794L1281.24 805.896M1220.98 837.794L1117.98 811.633M1220.98 837.794L1386.13 815.836M1220.98 837.794L1159.33 856.999M1220.98 837.794L1328.42 850.966M1117.98 811.633L1281.24 805.896M1281.24 805.896L1386.13 815.836M1281.24 805.896L1444.43 773.981M1661.56 693.765L1607.03 729.62M1661.56 693.765L1712.58 666.663M1661.56 693.765L1823.47 659.509M1661.56 693.765L1770.01 686.165M1607.03 729.62L1444.43 773.981M1607.03 729.62L1549.95 772.382M1607.03 729.62L1713.43 722.696M1607.03 729.62L1770.01 686.165M1386.13 815.836L1444.43 773.981M1386.13 815.836L1549.95 772.382M1386.13 815.836L1328.42 850.966M1386.13 815.836L1495.73 817.633M1444.43 773.981L1549.95 772.382M1549.95 772.382L1495.73 817.633M1549.95 772.382L1662.46 771.343M1549.95 772.382L1713.43 722.696M309.418 738.802L479.33 746.583M309.418 738.802L395.21 766.381M479.33 746.583L395.21 766.381M479.33 746.583L569.944 781.877M479.33 746.583L649.296 772.118M395.21 766.381L569.944 781.877M395.21 766.381L306.185 793.186M395.21 766.381L485.988 798.296M569.944 781.877L649.296 772.118M569.944 781.877L744.705 808.319M569.944 781.877L485.988 798.296M569.944 781.877L665.819 815.243M649.296 772.118L744.705 808.319M649.296 772.118L819.29 805.731M744.705 808.319L819.29 805.731M744.705 808.319L919.494 837.3M744.705 808.319L665.819 815.243M744.705 808.319L845.676 837.613M819.29 805.731L919.494 837.3M819.29 805.731L989.31 837.366M919.494 837.3L989.31 837.366M919.494 837.3L1094.31 860.445M919.494 837.3L1025.53 858.648M919.494 837.3L845.676 837.613M989.31 837.366L1094.31 860.445M989.31 837.366L1159.33 856.999M306.185 793.186L485.988 798.296M306.185 793.186L397.045 823.09M485.988 798.296L397.045 823.09M485.988 798.296L582.219 830.442M485.988 798.296L665.819 815.243M397.045 823.09L582.219 830.442M397.045 823.09L302.513 854.395M397.045 823.09L493.496 855.07M582.219 830.442L665.819 815.243M582.219 830.442L767.448 844.405M582.219 830.442L493.496 855.07M582.219 830.442L684.396 861.038M665.819 815.243L767.448 844.405M665.819 815.243L845.676 837.613M1094.31 860.445L1025.53 858.648M1094.31 860.445L1159.33 856.999M1094.31 860.445L1268.96 868.638M1094.31 860.445L1205.45 871.671M1025.53 858.648L952.676 859.901M1025.53 858.648L1137.96 871.885M1025.53 858.648L845.676 837.613M1025.53 858.648L1205.45 871.671M767.448 844.405L845.676 837.613M767.448 844.405L952.676 859.901M767.448 844.405L684.396 861.038M767.448 844.405L875.351 869.726M845.676 837.613L952.676 859.901M952.676 859.901L1137.96 871.885M952.676 859.901L875.351 869.726M952.676 859.901L1066.33 877.77M1137.96 871.885L1205.45 871.671M1137.96 871.885L1323.21 875.495M1137.96 871.885L1066.33 877.77M1137.96 871.885L1257.32 881.76M1159.33 856.999L1268.96 868.638M1159.33 856.999L1328.42 850.966M1268.96 868.638L1328.42 850.966M1268.96 868.638L1441.67 849.845M1268.96 868.638L1205.45 871.671M1268.96 868.638L1384.56 867.896M1328.42 850.966L1441.67 849.845M1328.42 850.966L1495.73 817.633M1441.67 849.845L1495.73 817.633M1441.67 849.845L1613.44 814.55M1441.67 849.845L1384.56 867.896M1441.67 849.845L1562.45 846.037M1495.73 817.633L1613.44 814.55M1495.73 817.633L1662.46 771.343M1613.44 814.55L1662.46 771.343M1613.44 814.55L1785.11 774.096M1613.44 814.55L1739.7 815.589M1613.44 814.55L1562.45 846.037M1662.46 771.343L1713.43 722.696M1662.46 771.343L1785.11 774.096M1662.46 771.343L1829.44 726.339M1713.43 722.696L1770.01 686.165M1713.43 722.696L1877.48 682.258M1713.43 722.696L1829.44 726.339M1205.45 871.671L1323.21 875.495M1205.45 871.671L1384.56 867.896M1323.21 875.495L1384.56 867.896M1323.21 875.495L1507.79 866.742M1323.21 875.495L1257.32 881.76M1323.21 875.495L1448.49 881.001M1384.56 867.896L1507.79 866.742M1384.56 867.896L1562.45 846.037M1785.11 774.096L1739.7 815.589M1785.11 774.096L1829.44 726.339M1785.11 774.096L1957.24 740.714M1785.11 774.096L1916.96 786.015M1739.7 815.589L1691.7 848.13M1739.7 815.589L1874.82 826.931M1739.7 815.589L1562.45 846.037M1739.7 815.589L1916.96 786.015M1507.79 866.742L1562.45 846.037M1507.79 866.742L1691.67 848.13M1507.79 866.742L1448.49 881.001M1507.79 866.742L1639.36 873.237M1562.45 846.037L1691.67 848.13M1562.45 846.037L1691.7 848.13M1691.67 848.13L1639.36 873.237M1691.7 848.13L1874.82 826.931M1691.7 848.13L1639.36 873.237M1691.7 848.13L1829.33 861.615M1874.82 826.931L1916.96 786.015M1874.82 826.931L2058.21 810.001M1874.82 826.931L1829.33 861.615M1874.82 826.931L2018.97 850.719M1712.58 666.663L1823.47 659.509M1712.58 666.663L1758.78 649.288M1712.58 666.663L1872.43 643.469M1823.47 659.509L1872.43 643.469M1823.47 659.509L1985.38 645.051M1823.47 659.509L1770.01 686.165M1823.47 659.509L1933.84 657.761M1758.78 649.288L1872.43 643.469M1758.78 649.288L1914.3 638.128M1872.43 643.469L1985.38 645.051M1872.43 643.469L1914.3 638.128M1872.43 643.469L2025.33 640.897M1985.38 645.051L2025.33 640.897M1985.38 645.051L2137.81 648.497M1985.38 645.051L1933.84 657.761M1985.38 645.051L2094.79 655.618M1914.3 638.128L2025.33 640.897M1914.3 638.128L2058.62 637.188M2025.33 640.897L2137.81 648.497M2025.33 640.897L2058.62 637.188M2025.33 640.897L2173.51 641.623M2137.81 648.497L2173.51 641.623M2137.81 648.497L2291.2 653.146M2137.81 648.497L2253.93 662.592M2137.81 648.497L2094.79 655.618M2058.62 637.188L2173.51 641.623M2058.62 637.188L2203.49 632.473M2173.51 641.623L2203.49 632.473M2173.51 641.623L2291.2 653.146M2173.51 641.623L2322.19 641.507M2203.49 632.473L2322.19 641.507M2203.49 632.473L2348.52 626.555M1770.01 686.165L1877.48 682.258M1770.01 686.165L1933.84 657.761M1877.48 682.258L1933.84 657.761M1877.48 682.258L1770.04 686.165L1933.84 657.761M1877.48 682.258L2042.89 666.564M1877.48 682.258L1829.44 726.339M1877.48 682.258L1997.38 696.847M1933.84 657.761L2042.89 666.564M1933.84 657.761L2094.79 655.618M2291.2 653.146L2253.93 662.592M2291.2 653.146L2322.19 641.507M2291.2 653.146L2444.94 658.19M2291.2 653.146L2413.9 672.037M2253.93 662.592L2208.75 672.087M2253.93 662.592L2376.03 683.808M2253.93 662.592L2094.79 655.618M2253.93 662.592L2413.9 672.037M2042.89 666.564L2094.79 655.618M2042.89 666.564L2208.75 672.087M2042.89 666.564L1997.38 696.847M2042.89 666.564L2167.78 694.177M2094.79 655.618L2208.75 672.087M2208.75 672.087L2376.03 683.808M2208.75 672.087L2167.78 694.177M2208.75 672.087L2340.46 703.194M2376.03 683.808L2413.9 672.037M2376.03 683.808L2543.8 697.573M2376.03 683.808L2340.46 703.194M2376.03 683.808L2513.99 716.201M2322.19 641.507L2444.94 658.19M2322.19 641.507L2348.52 626.555M2322.19 641.507L2470.89 641.441M2444.94 658.19L2470.89 641.441M2444.94 658.19L2598.39 662.855M2444.94 658.19L2413.9 672.037M2444.94 658.19L2573.89 681.467M2348.52 626.555L2470.89 641.441M2348.52 626.555L2493.41 621.972M2470.89 641.441L2598.39 662.855M2470.89 641.441L2493.41 621.972M2470.89 641.441L2619.1 642.266M2598.39 662.855L2619.1 642.266M2598.39 662.855L2750.87 666.301M2598.39 662.855L2573.89 681.467M2598.39 662.855L2733.09 688.391M2493.41 621.972L2619.1 642.266M2493.41 621.972L2637.73 621.28L2619.1 642.266M2619.1 642.266L2750.87 666.301M2750.87 666.301L2733.09 688.391M2413.9 672.037L2543.8 697.573M2413.9 672.037L2573.89 681.467M2543.8 697.573L2573.89 681.467M2543.8 697.573L2711.17 709.228M2543.8 697.573L2513.99 716.201M2543.8 697.573L2687.55 729.158M2573.89 681.467L2711.17 709.228M2573.89 681.467L2733.09 688.391M2711.17 709.228L2733.09 688.391M2711.17 709.228L2877.13 714.602M2711.17 709.228L2687.55 729.158M2711.17 709.228L2860.25 738.06M2733.09 688.391L2877.13 714.602M2877.13 714.602L2860.25 738.06M1829.44 726.339L1957.24 740.714M1829.44 726.339L1997.38 696.847M1829.44 726.339L1957.27 740.714M1957.24 740.714L1916.96 786.015M1997.38 696.847L1957.27 740.714M1997.38 696.847L2130.66 726.29M1997.38 696.847L2167.78 694.177M1957.27 740.714L2130.66 726.29M1957.27 740.714L1916.96 786.015M1957.27 740.714L2094.87 766.793M2130.66 726.29L2167.78 694.177M2130.66 726.29L2307.53 730.971M2130.66 726.29L2094.87 766.793M2130.66 726.29L2275.03 765.062M2167.78 694.177L2307.53 730.971M2167.78 694.177L2340.46 703.194M2167.78 694.177L2307.56 730.971L2340.46 703.194M2307.53 730.971L2340.46 703.194M2307.53 730.971L2485.5 740.665M2307.53 730.971L2457.25 770.816M2307.53 730.971L2275.06 765.062M2307.53 730.971L2275.03 765.062M2340.46 703.194L2485.5 740.665M2340.46 703.194L2513.99 716.201M2340.46 703.194L2485.52 740.665L2513.99 716.201M1916.96 786.015L2058.21 810.001M1916.96 786.015L2094.87 766.793M1916.96 786.015L2058.24 810.001L2094.87 766.793M2058.21 810.001L2094.87 766.793M2058.21 810.001L2242.42 804.231M2058.21 810.001L2018.97 850.719M2058.21 810.001L2208.97 845.031M2094.87 766.793L2242.42 804.231M2094.87 766.793L2275.03 765.062M2094.87 766.793L2275.06 765.062M2485.5 740.665L2457.25 770.816M2485.5 740.665L2513.99 716.201M2485.5 740.665L2663.85 752.006M2485.5 740.665L2640.03 779.207M2457.25 770.816L2429 806.192M2457.25 770.816L2616.22 811.187M2457.25 770.816L2275.06 765.062M2457.25 770.816L2640.03 779.207M2457.25 770.816L2640.03 779.223M2242.42 804.231L2275.03 765.062M2242.42 804.231L2429 806.192M2242.42 804.231L2275.06 765.062M2242.42 804.231L2208.97 845.031M2242.42 804.231L2400 845.394M2275.03 765.062L2429 806.192M2429 806.192L2616.22 811.187M2429 806.192L2275.06 765.062M2429 806.192L2400 845.394M2429 806.192L2592 847.306M2616.22 811.187L2640.03 779.207M2616.22 811.187L2803.7 817.155M2616.22 811.187L2640.03 779.223M2616.22 811.187L2592 847.306M2616.22 811.187L2784.3 850.537M2513.99 716.201L2663.85 752.006M2513.99 716.201L2687.55 729.158M2513.99 716.201L2687.55 729.175M2663.85 752.006L2687.55 729.175M2663.85 752.006L2687.55 729.158M2663.85 752.006L2841.84 761.633M2663.85 752.006L2640.03 779.223M2663.85 752.006L2822.85 787.597M2663.85 752.006L2640.03 779.207M2687.55 729.158L2841.84 761.633M2687.55 729.158L2860.25 738.06M2687.55 729.175L2860.25 738.06M2687.55 729.175L2841.84 761.633M2841.84 761.633L2860.25 738.06M2841.84 761.633L3018.79 766.2M2841.84 761.633L2822.85 787.597M2841.84 761.633L3005.09 793.268M2860.25 738.06L3018.79 766.2M3018.79 766.2L3005.09 793.268M2640.03 779.207L2803.7 817.155M2803.7 817.155L2822.85 787.597M2803.7 817.155L2640.03 779.223M2803.7 817.155L2990.96 822.101M2803.7 817.155L2784.3 850.537M2803.7 817.155L2976.62 853.752M2640.03 779.223L2822.85 787.597M2822.85 787.597L2990.96 822.101M2822.85 787.597L3005.09 793.268M2990.96 822.101L3005.09 793.268M2990.96 822.101L3177.61 823.996M2990.96 822.101L2976.62 853.752M2990.96 822.101L3168.68 855.631M3005.09 793.268L3177.61 823.996M3177.61 823.996L3168.68 855.631M302.513 854.395L493.496 855.07M302.513 854.395L399.128 887.595M493.496 855.07L399.128 887.595M493.496 855.07L596.084 888.172M493.496 855.07L684.396 861.038M493.496 855.07L596.111 888.172M399.128 887.595L596.084 888.172M399.128 887.595L298.54 923.681L501.99 923.714M399.128 887.595L501.99 923.714M596.084 888.172L501.99 923.714M684.396 861.038L596.111 888.172M684.396 861.038L793.122 891.008M684.396 861.038L875.351 869.726M596.111 888.172L793.122 891.008M596.111 888.172L501.99 923.714M596.111 888.172L705.467 923.813M793.122 891.008L875.351 869.726M793.122 891.008L990.16 894.354M793.122 891.008L705.467 923.813M793.122 891.008L908.972 923.961M875.351 869.726L990.16 894.354M875.351 869.726L1066.33 877.77M990.16 894.354L1066.33 877.77M990.16 894.354L1187.23 896.514M990.16 894.354L1112.5 924.093M990.16 894.354L908.972 923.961M1066.33 877.77L1187.23 896.514M1066.33 877.77L1257.32 881.76M501.99 923.714L705.467 923.813M705.467 923.813L908.972 923.961M1187.23 896.514L1112.5 924.093M1187.23 896.514L1257.32 881.76M1187.23 896.514L1384.4 896.431M1187.23 896.514L1316.06 924.159M1112.5 924.093L908.972 923.961M1112.5 924.093L1316.06 924.159M1257.32 881.76L1384.4 896.431M1257.32 881.76L1448.49 881.001M1257.32 881.76L1384.4 896.448L1448.49 881.001M1384.4 896.431L1448.49 881.001M1384.4 896.431L1581.96 895.904M1384.4 896.431L1316.06 924.159M1384.4 896.431L1519.7 924.258M1448.49 881.001L1581.96 895.904M1448.49 881.001L1639.36 873.237M1581.96 895.904L1639.36 873.237M1581.96 895.904L1779.22 892.079M1581.96 895.904L1519.7 924.258M1581.96 895.904L1723.35 924.324M1639.36 873.237L1779.22 892.079M1639.36 873.237L1829.33 861.615M1779.22 892.079L1829.33 861.615M1779.22 892.079L1975.68 887.892M1779.22 892.079L1927.02 924.357M1779.22 892.079L1723.35 924.324M1829.33 861.615L1975.68 887.892M1829.33 861.615L2018.97 850.719M1316.06 924.159L1519.7 924.258M1519.7 924.258L1723.35 924.324M1975.68 887.892L1927.02 924.357M1975.68 887.892L2018.97 850.719M1975.68 887.892L2172.22 885.139M1975.68 887.892L2130.68 924.423M1927.02 924.357L1723.35 924.324M1927.02 924.357L2130.68 924.423M2018.97 850.719L2172.22 885.139M2018.97 850.719L2208.97 845.031M2172.22 885.139L2208.97 845.031M2172.22 885.139L2369.07 885.996M2172.22 885.139L2130.68 924.423M2172.22 885.139L2334.41 924.522M2208.97 845.031L2369.07 885.996M2208.97 845.031L2400 845.394M2208.97 845.031L2400 845.41M2369.07 885.996L2400 845.394M2369.07 885.996L2566.46 885.98M2369.07 885.996L2400 845.41M2369.07 885.996L2334.41 924.522M2369.07 885.996L2538.16 924.637M2400 845.394L2566.46 885.98M2400 845.394L2592 847.306M2566.46 885.98L2592 847.306M2566.46 885.98L2400 845.41M2566.46 885.98L2764.08 886.986M2566.46 885.98L2741.96 924.736M2566.46 885.98L2538.16 924.637M2400 845.41L2592 847.306M2592 847.306L2764.08 886.986M2592 847.306L2784.3 850.537M2130.68 924.423L2334.41 924.522M2334.41 924.522L2538.16 924.637M2764.08 886.986L2741.96 924.736M2764.08 886.986L2784.3 850.537M2764.08 886.986L2961.83 888.304M2764.08 886.986L2945.8 924.835M2741.96 924.736L2538.16 924.637M2741.96 924.736L2945.8 924.835M2784.3 850.537L2961.83 888.304M2784.3 850.537L2976.62 853.752M2784.3 850.537L2976.62 853.768M2961.83 888.304L2976.62 853.768M2961.83 888.304L2976.62 853.752M2961.83 888.304L3159.5 889.293M2961.83 888.304L2945.8 924.835M2961.83 888.304L3149.66 924.918M2976.62 853.752L3159.5 889.293M2976.62 853.752L3168.68 855.631M2976.62 853.768L3168.68 855.631M2976.62 853.768L3159.5 889.293M3159.5 889.293L3168.68 855.631M3159.5 889.293L3357 889.26M3159.5 889.293L3149.66 924.918M3159.5 889.293L3353.55 925M3168.68 855.631L3357 889.26M3357 889.26L3353.55 925M2945.8 924.835L3149.66 924.918M3149.66 924.918L3353.55 925" stroke="#4A5164" stroke-width="0.3" stroke-miterlimit="10" stroke-linejoin="round"/>
</g>
</svg>
