<svg width="262" height="330" viewBox="0 0 262 330" fill="none" xmlns="http://www.w3.org/2000/svg">
<g opacity="0.2" filter="url(#filter0_d_203_3)">
<path fill-rule="evenodd" clip-rule="evenodd" d="M65.2056 308.15L65.1936 308.145C46.3861 299.464 31.492 287.495 20.5797 272.218L20.5744 272.211C9.73783 256.893 4.22874 239.288 4.02116 219.464L4 217.443H90.4226L90.4776 219.387C90.7673 229.62 94.689 237.657 102.243 243.682C110.004 249.792 119.228 252.869 130.013 252.869C138.372 252.869 145.662 251.102 151.94 247.627C158.223 244.048 163.151 239.027 166.742 232.525C170.316 226.053 172.088 218.464 171.99 209.693L171.99 209.671L171.99 209.648C172.089 200.77 170.314 193.188 166.748 186.827L166.742 186.816C163.151 180.315 158.226 175.348 151.948 171.871L151.938 171.865L151.928 171.86C145.652 168.287 138.367 166.472 130.013 166.472C121.397 166.472 113.444 168.572 106.117 172.773L106.11 172.777C98.927 176.854 93.673 182.502 90.2908 189.749L89.6287 191.168L11.8414 175.866L24.3141 0H238.291V71.7983H97.6388L92.1525 133.794C97.4395 125.719 105.416 118.979 115.954 113.53C128.298 107.045 142.572 103.835 158.72 103.835C177.67 103.835 194.622 108.24 209.518 117.093C224.49 125.931 236.292 138.154 244.909 153.724C253.649 169.23 257.938 187.084 257.836 207.225C257.939 229.346 252.662 249.061 241.961 266.307C231.371 283.437 216.478 296.862 197.343 306.585L197.335 306.589C178.171 316.222 155.71 321.003 130.013 321.003C105.752 321.003 84.1357 316.736 65.2056 308.15ZM240.261 265.253C250.746 248.354 255.938 229.012 255.836 207.227C255.938 187.376 251.714 169.867 243.162 154.699C234.713 139.429 223.159 127.468 208.5 118.815C193.942 110.162 177.349 105.835 158.72 105.835C142.839 105.835 128.893 108.991 116.88 115.303C105.039 121.424 96.6604 129.128 91.7436 138.414C91.6725 138.549 91.6021 138.683 91.5324 138.818H89.7L95.808 69.7983H236.291V2H26.1773L13.9614 174.244L88.4784 188.903C92.0414 181.268 97.5895 175.313 105.123 171.038C112.758 166.66 121.054 164.472 130.013 164.472C138.665 164.472 146.3 166.355 152.917 170.121C159.534 173.786 164.726 179.029 168.493 185.849C172.259 192.568 174.092 200.509 173.99 209.67C174.092 218.731 172.259 226.671 168.493 233.491C164.726 240.312 159.534 245.606 152.917 249.372C146.3 253.037 138.665 254.869 130.013 254.869C118.815 254.869 109.144 251.663 101 245.249C92.9576 238.836 88.7838 230.234 88.4784 219.443H6.02105C6.02806 220.113 6.04122 220.779 6.06053 221.443C6.60226 240.069 11.9845 256.606 22.2071 271.055C32.896 286.02 47.5042 297.778 66.0317 306.329C84.661 314.778 105.988 319.003 130.013 319.003C155.462 319.003 177.604 314.269 196.437 304.802C215.269 295.233 229.878 282.05 240.261 265.253Z" fill="#007668"/>
</g>
<defs>
<filter id="filter0_d_203_3" x="0" y="0" width="261.838" height="329.003" filterUnits="userSpaceOnUse" color-interpolation-filters="sRGB">
<feFlood flood-opacity="0" result="BackgroundImageFix"/>
<feColorMatrix in="SourceAlpha" type="matrix" values="0 0 0 0 0 0 0 0 0 0 0 0 0 0 0 0 0 0 127 0" result="hardAlpha"/>
<feOffset dy="4"/>
<feGaussianBlur stdDeviation="2"/>
<feComposite in2="hardAlpha" operator="out"/>
<feColorMatrix type="matrix" values="0 0 0 0 0 0 0 0 0 0 0 0 0 0 0 0 0 0 0.25 0"/>
<feBlend mode="normal" in2="BackgroundImageFix" result="effect1_dropShadow_203_3"/>
<feBlend mode="normal" in="SourceGraphic" in2="effect1_dropShadow_203_3" result="shape"/>
</filter>
</defs>
</svg>
