<svg width="254" height="322" viewBox="0 0 254 322" fill="none" xmlns="http://www.w3.org/2000/svg">
<path opacity="0.2" fill-rule="evenodd" clip-rule="evenodd" d="M61.2056 308.15L61.1936 308.145C42.3861 299.464 27.492 287.495 16.5797 272.218L16.5744 272.211C5.73783 256.893 0.228743 239.288 0.0211601 219.464L0 217.443H86.4226L86.4776 219.387C86.7673 229.62 90.689 237.657 98.2426 243.682C106.004 249.792 115.228 252.869 126.013 252.869C134.372 252.869 141.662 251.102 147.94 247.627C154.223 244.048 159.151 239.027 162.742 232.525C166.316 226.053 168.088 218.464 167.99 209.693L167.99 209.671L167.99 209.648C168.089 200.77 166.314 193.188 162.748 186.827L162.742 186.816C159.151 180.315 154.226 175.348 147.948 171.871L147.938 171.865L147.928 171.86C141.652 168.287 134.367 166.472 126.013 166.472C117.397 166.472 109.444 168.572 102.117 172.773L102.11 172.777C94.927 176.854 89.673 182.502 86.2908 189.749L85.6287 191.168L7.84138 175.866L20.3141 0H234.291V71.7983H93.6388L88.1525 133.794C93.4395 125.719 101.416 118.979 111.954 113.53C124.298 107.045 138.572 103.835 154.72 103.835C173.67 103.835 190.622 108.24 205.518 117.093C220.49 125.931 232.292 138.154 240.909 153.724C249.649 169.23 253.938 187.084 253.836 207.225C253.939 229.346 248.662 249.061 237.961 266.307C227.371 283.437 212.478 296.862 193.343 306.585L193.335 306.589C174.171 316.222 151.71 321.003 126.013 321.003C101.752 321.003 80.1357 316.736 61.2056 308.15ZM236.261 265.253C246.746 248.354 251.938 229.012 251.836 207.227C251.938 187.376 247.714 169.867 239.162 154.699C230.713 139.429 219.159 127.468 204.5 118.815C189.942 110.162 173.349 105.835 154.72 105.835C138.839 105.835 124.893 108.991 112.88 115.303C101.039 121.424 92.6604 129.128 87.7436 138.414C87.6725 138.549 87.6021 138.683 87.5324 138.818H85.7L91.808 69.7983H232.291V2H22.1773L9.96139 174.244L84.4784 188.903C88.0414 181.268 93.5895 175.313 101.123 171.038C108.758 166.66 117.054 164.472 126.013 164.472C134.665 164.472 142.3 166.355 148.917 170.121C155.534 173.786 160.726 179.029 164.493 185.849C168.259 192.568 170.092 200.509 169.99 209.67C170.092 218.731 168.259 226.671 164.493 233.491C160.726 240.312 155.534 245.606 148.917 249.372C142.3 253.037 134.665 254.869 126.013 254.869C114.815 254.869 105.144 251.663 96.9998 245.249C88.9576 238.836 84.7838 230.234 84.4784 219.443H2.02105C2.02806 220.113 2.04122 220.779 2.06053 221.443C2.60226 240.069 7.98446 256.606 18.2071 271.055C28.896 286.02 43.5042 297.778 62.0317 306.329C80.661 314.778 101.988 319.003 126.013 319.003C151.462 319.003 173.604 314.269 192.437 304.802C211.269 295.233 225.878 282.05 236.261 265.253Z" fill="#007668" />
</svg>
