<svg width="96" height="96" viewBox="0 0 96 96" fill="none" xmlns="http://www.w3.org/2000/svg">
<circle cx="48" cy="48" r="48" fill="white"/>
<path fill-rule="evenodd" clip-rule="evenodd" d="M48 31.7812V64.2187C48 66.3125 45.4687 67.3437 44 65.875L32.375 54.25H26.125C24.4062 54.25 23 52.8437 23 51.125V44.875C23 43.1562 24.4062 41.75 26.125 41.75H32.375L44 30.125C45.4687 28.6562 48 29.6875 48 31.7812ZM71.5312 41.8437L68.2188 38.5312L62.0625 44.6875L55.9062 38.5312L52.5938 41.8437L58.75 48L52.5938 54.1562L55.9062 57.4687L62.0625 51.3125L68.2188 57.4687L71.5312 54.1562L65.375 48L71.5312 41.8437Z" fill="#022723"/>
</svg>
