<svg width="227" height="326" viewBox="0 0 227 326" fill="none" xmlns="http://www.w3.org/2000/svg">
<path fill-rule="evenodd" clip-rule="evenodd" d="M67.2058 223.276V213.946C67.2058 197.07 68.5327 183.488 71.2428 173.273C73.944 163.092 77.9771 154.805 83.4148 148.511C88.7445 142.242 95.2557 136.623 102.928 131.646C109.405 127.396 115.161 123.305 120.199 119.375L120.206 119.37L120.214 119.364C125.265 115.501 129.169 111.434 131.975 107.178L131.983 107.165L131.992 107.152C134.808 103.022 136.226 98.3293 136.226 93.0085C136.226 88.2527 135.089 84.1526 132.87 80.639C130.623 77.0813 127.587 74.3206 123.724 72.3419C119.856 70.3607 115.54 69.3551 110.74 69.3551C105.569 69.3551 100.811 70.5478 96.4334 72.9253C92.1557 75.3034 88.6901 78.576 86.0189 82.769C83.4923 86.8927 82.2001 91.7086 82.2001 97.2841V99.2841H0L0.0183468 97.2659C0.224535 74.5853 5.38172 55.9791 15.6596 41.6096C25.866 27.2386 39.4132 16.7197 56.2508 10.067C73.0026 3.3465 91.3771 0 111.351 0C133.328 0 153.014 3.23466 170.379 9.74539C187.785 16.1699 201.598 25.9452 211.729 39.1039C221.923 52.2419 226.959 68.6278 226.959 88.1222C226.959 100.67 224.781 111.803 220.366 121.474C216.083 130.978 210.076 139.385 202.359 146.684C194.803 153.826 185.973 160.329 175.881 166.199C168.646 170.42 162.61 174.766 157.75 179.229L157.741 179.237L157.733 179.244C152.944 183.545 149.353 188.456 146.929 193.982L146.923 193.994C144.522 199.373 143.28 206.001 143.28 213.946V223.276H67.2058ZM174.873 164.472C184.85 158.669 193.554 152.256 200.985 145.232C208.518 138.106 214.372 129.911 218.545 120.647C222.821 111.281 224.959 100.44 224.959 88.1222C224.959 68.9839 220.021 53.0523 210.147 40.3274C200.272 27.5007 186.784 17.9316 169.682 11.62C152.579 5.20668 133.136 2 111.351 2C91.6016 2 73.4813 5.30847 56.9899 11.9254C40.4984 18.4406 27.2645 28.7223 17.2882 42.7706C7.61048 56.2996 2.53099 73.8041 2.04969 95.2841C2.03483 95.947 2.02436 96.6136 2.01826 97.2841H80.2001C80.2001 91.3797 81.5744 86.188 84.323 81.7088C87.1733 77.2296 90.889 73.7176 95.47 71.1726C100.153 68.6276 105.243 67.3551 110.74 67.3551C115.83 67.3551 120.462 68.424 124.635 70.5618C128.809 72.6996 132.118 75.7027 134.561 79.571C137.004 83.4394 138.226 87.9186 138.226 93.0085C138.226 98.7093 136.699 103.799 133.645 108.278C130.693 112.758 126.621 116.982 121.429 120.952C116.339 124.923 110.536 129.045 104.021 133.321C96.488 138.207 90.1255 143.705 84.9337 149.813C79.742 155.819 75.8227 163.81 73.1759 173.786C70.5292 183.763 69.2058 197.149 69.2058 213.946V221.276H141.28V213.946C141.28 205.802 142.552 198.88 145.097 193.179C147.642 187.376 151.409 182.236 156.397 177.756C161.385 173.175 167.544 168.747 174.873 164.472ZM74.6716 312.943L74.663 312.935C65.9364 304.208 61.6063 293.568 61.7085 281.134C61.6063 268.988 65.9484 258.551 74.6717 249.934L74.6803 249.926C83.5034 241.316 94.1337 236.989 106.464 236.989C118.212 236.989 128.575 241.335 137.473 249.915C146.501 258.52 151.113 268.954 151.22 281.116L151.22 281.138L151.22 281.159C151.113 289.452 148.929 297.038 144.657 303.874C140.521 310.553 135.103 315.919 128.417 319.952L128.407 319.958L128.397 319.964C121.672 323.913 114.349 325.889 106.464 325.889C94.1337 325.889 83.5034 321.562 74.6804 312.952L74.6716 312.943ZM142.959 302.817C147.031 296.302 149.118 289.074 149.22 281.134C149.118 269.528 144.741 259.603 136.088 251.357C127.537 243.112 117.662 238.989 106.464 238.989C94.6556 238.989 84.5266 243.112 76.0772 251.357C67.7297 259.603 63.6068 269.528 63.7086 281.134C63.6068 293.044 67.7297 303.173 76.0772 311.521C84.5266 319.766 94.6556 323.889 106.464 323.889C113.997 323.889 120.971 322.006 127.384 318.239C133.797 314.371 138.989 309.23 142.959 302.817Z" fill="#B28D9C" opacity=".3" />
</svg>
