<svg width="181" height="150" viewBox="0 0 181 150" fill="none" xmlns="http://www.w3.org/2000/svg">
<g clip-path="url(#clip0_4_9783)">
<rect x="2" y="100" width="10" height="39" fill="#FAEDAD"/>
<rect x="36" y="95" width="96" height="11" fill="#79CCC2"/>
<path d="M112.337 16.379C112.154 15.706 112.553 15.0217 113.213 14.8392C113.885 14.6567 114.568 15.0559 114.75 15.7174C114.932 16.3904 114.534 17.0748 113.874 17.2572C113.76 17.2915 113.657 17.3029 113.543 17.3029C112.986 17.3029 112.485 16.9379 112.337 16.379ZM109.001 16.8124C108.375 16.5159 108.113 15.7631 108.409 15.1357C108.705 14.5084 109.456 14.2461 110.082 14.5426C110.709 14.8392 110.97 15.592 110.674 16.2193C110.458 16.6641 110.014 16.9265 109.547 16.9265C109.365 16.9379 109.183 16.8923 109.001 16.8124ZM116.105 14.7479C115.536 14.3601 115.376 13.5845 115.775 13.0028C116.162 12.4325 116.936 12.2728 117.517 12.672C118.086 13.0598 118.245 13.8355 117.858 14.4172C117.619 14.7707 117.221 14.9646 116.822 14.9646C116.56 14.9646 116.321 14.8962 116.105 14.7479ZM105.608 13.288C105.335 12.6492 105.619 11.9192 106.257 11.6341C106.895 11.3604 107.623 11.6455 107.908 12.2842C108.181 12.923 107.896 13.653 107.259 13.9381C107.099 14.0065 106.929 14.0408 106.758 14.0408C106.28 14.0408 105.813 13.7556 105.608 13.288ZM116.504 9.94601C116.424 9.26166 116.913 8.63433 117.597 8.55449C118.28 8.47464 118.906 8.9651 118.986 9.64946C119.065 10.3338 118.576 10.9611 117.893 11.041C117.847 11.041 117.79 11.0524 117.745 11.0524C117.118 11.0524 116.583 10.5847 116.504 9.94601ZM106.166 9.96883C105.506 9.76352 105.13 9.05635 105.335 8.3948C105.54 7.73326 106.234 7.35686 106.906 7.56217C107.566 7.76747 107.942 8.46324 107.737 9.13619C107.566 9.67227 107.077 10.0259 106.542 10.0259C106.416 10.0259 106.291 10.0145 106.166 9.96883ZM115.069 7.15155C114.557 6.68391 114.523 5.88549 114.989 5.38362C115.456 4.87036 116.253 4.83614 116.754 5.30378C117.266 5.77143 117.301 6.56985 116.834 7.07171C116.583 7.34545 116.253 7.48232 115.912 7.48232C115.616 7.48232 115.308 7.36826 115.069 7.15155ZM107.919 6.25048C107.555 5.66877 107.726 4.89317 108.318 4.51677C108.898 4.15178 109.673 4.32287 110.048 4.91598C110.413 5.49768 110.242 6.27329 109.65 6.64969C109.445 6.77515 109.217 6.84359 108.989 6.84359C108.568 6.84359 108.158 6.63828 107.919 6.25048ZM112.724 6.02236C112.041 5.91971 111.574 5.26956 111.676 4.58521C111.779 3.90085 112.416 3.4332 113.099 3.53586C113.783 3.63851 114.249 4.27724 114.147 4.97301C114.056 5.58893 113.521 6.03377 112.906 6.03377C112.849 6.03377 112.792 6.03376 112.724 6.02236Z" fill="#2E2B28"/>
<path d="M173.588 131.431C173.406 130.758 173.804 130.074 174.465 129.891C175.136 129.709 175.82 130.108 176.002 130.77C176.184 131.442 175.785 132.127 175.125 132.309C175.011 132.344 174.909 132.355 174.795 132.355C174.248 132.355 173.736 131.979 173.588 131.431ZM170.264 131.864C169.637 131.568 169.376 130.815 169.672 130.188C169.968 129.56 170.719 129.298 171.345 129.595C171.971 129.891 172.233 130.644 171.937 131.271C171.721 131.716 171.277 131.979 170.81 131.979C170.617 131.99 170.434 131.944 170.264 131.864ZM177.357 129.8C176.787 129.412 176.639 128.637 177.015 128.055C177.402 127.485 178.176 127.325 178.757 127.713C179.326 128.101 179.474 128.876 179.098 129.458C178.859 129.811 178.461 130.005 178.062 130.005C177.823 130.017 177.573 129.948 177.357 129.8ZM166.871 128.34C166.598 127.701 166.882 126.96 167.52 126.686C168.157 126.412 168.886 126.698 169.171 127.336C169.444 127.975 169.159 128.716 168.522 128.99C168.362 129.059 168.192 129.093 168.021 129.093C167.531 129.093 167.076 128.808 166.871 128.34ZM177.766 124.998C177.687 124.314 178.176 123.686 178.859 123.607C179.542 123.527 180.169 124.017 180.248 124.702C180.328 125.386 179.839 126.013 179.155 126.093C179.11 126.093 179.053 126.104 179.007 126.104C178.381 126.104 177.835 125.637 177.766 124.998ZM167.417 125.021C166.757 124.816 166.381 124.108 166.586 123.447C166.791 122.785 167.497 122.409 168.157 122.614C168.818 122.82 169.193 123.527 168.989 124.188C168.818 124.724 168.328 125.078 167.793 125.078C167.668 125.078 167.543 125.067 167.417 125.021ZM176.332 122.204C175.82 121.736 175.785 120.938 176.252 120.436C176.719 119.922 177.516 119.888 178.017 120.356C178.529 120.823 178.563 121.622 178.097 122.124C177.846 122.398 177.516 122.534 177.174 122.534C176.867 122.534 176.571 122.42 176.332 122.204ZM169.182 121.303C168.818 120.721 168.989 119.945 169.581 119.569C170.173 119.204 170.935 119.375 171.311 119.968C171.675 120.55 171.505 121.325 170.913 121.702C170.708 121.827 170.48 121.896 170.252 121.896C169.82 121.896 169.421 121.69 169.182 121.303ZM173.975 121.074C173.292 120.972 172.825 120.333 172.928 119.649C173.03 118.964 173.668 118.497 174.351 118.599C175.034 118.702 175.501 119.352 175.398 120.036C175.307 120.652 174.772 121.097 174.157 121.097C174.112 121.086 174.043 121.086 173.975 121.074Z" fill="#2E2B28"/>
<path d="M36.0339 135.378C35.8517 134.705 36.2502 134.02 36.9105 133.838C37.5823 133.655 38.2654 134.054 38.4475 134.716C38.6297 135.389 38.2312 136.073 37.5709 136.256C37.457 136.29 37.3546 136.301 37.2407 136.301C36.6828 136.301 36.1819 135.936 36.0339 135.378ZM32.6981 135.811C32.0719 135.514 31.81 134.762 32.106 134.134C32.4021 133.507 33.1535 133.245 33.7796 133.541C34.4058 133.838 34.6677 134.591 34.3717 135.218C34.1554 135.674 33.7113 135.925 33.2445 135.925C33.0624 135.936 32.8802 135.891 32.6981 135.811ZM39.8024 133.746C39.2331 133.359 39.0737 132.583 39.4722 132.001C39.8593 131.431 40.6335 131.271 41.2141 131.671C41.7834 132.058 41.9314 132.834 41.5557 133.416C41.3166 133.769 40.9181 133.963 40.5196 133.963C40.2578 133.963 40.0187 133.895 39.8024 133.746ZM29.3167 132.287C29.0435 131.648 29.3281 130.906 29.9656 130.633C30.6032 130.359 31.3432 130.644 31.6165 131.283C31.8897 131.922 31.6051 132.651 30.9675 132.937C30.8081 133.005 30.6374 133.039 30.4666 133.039C29.977 133.039 29.5216 132.766 29.3167 132.287ZM40.2008 128.945C40.1211 128.26 40.6107 127.633 41.2938 127.553C41.9769 127.473 42.6031 127.964 42.6828 128.648C42.7625 129.332 42.2729 129.96 41.5898 130.04C41.5443 130.04 41.4873 130.051 41.4418 130.051C40.827 130.051 40.2805 129.583 40.2008 128.945ZM29.8632 128.967C29.2028 128.762 28.8271 128.066 29.0321 127.393C29.237 126.732 29.9429 126.355 30.6032 126.561C31.2635 126.766 31.6393 127.473 31.4343 128.135C31.2635 128.671 30.774 129.024 30.2389 129.024C30.1137 129.024 29.9884 129.013 29.8632 128.967ZM38.7777 126.15C38.2654 125.682 38.2312 124.884 38.698 124.382C39.1648 123.869 39.9617 123.835 40.4627 124.302C40.975 124.77 41.0092 125.568 40.5424 126.07C40.2919 126.344 39.9617 126.481 39.6202 126.481C39.3128 126.481 39.0168 126.367 38.7777 126.15ZM31.6165 125.26C31.2522 124.679 31.4229 123.903 32.015 123.527C32.607 123.162 33.3698 123.333 33.7455 123.926C34.1098 124.508 33.939 125.283 33.347 125.66C33.1421 125.785 32.9144 125.854 32.6867 125.854C32.2654 125.842 31.8556 125.637 31.6165 125.26ZM36.421 125.021C35.7379 124.918 35.2711 124.268 35.3736 123.584C35.476 122.899 36.1136 122.432 36.7967 122.534C37.4798 122.637 37.9466 123.287 37.8441 123.972C37.753 124.587 37.2179 125.032 36.6031 125.032C36.5462 125.032 36.4893 125.032 36.421 125.021Z" fill="#2E2B28"/>
<path d="M129.221 106.874H38.6409C36.5688 106.874 34.8838 105.186 34.8838 103.11V70.603C34.8838 70.1353 35.2709 69.7475 35.7377 69.7475C36.2045 69.7475 36.5916 70.1353 36.5916 70.603V103.11C36.5916 104.239 37.5137 105.163 38.6409 105.163H129.221C130.348 105.163 131.27 104.239 131.27 103.11V47.3119C131.27 46.1828 130.348 45.2589 129.221 45.2589H40.3942C39.9274 45.2589 39.5403 44.8711 39.5403 44.4034C39.5403 43.9358 39.9274 43.548 40.3942 43.548H129.221C131.293 43.548 132.978 45.2361 132.978 47.3119V103.11C132.978 105.186 131.293 106.874 129.221 106.874Z" fill="#2E2B28"/>
<path d="M94.5756 128.203H73.2855C72.8187 128.203 72.4316 127.815 72.4316 127.348V106.019C72.4316 105.551 72.8187 105.163 73.2855 105.163C73.7523 105.163 74.1394 105.551 74.1394 106.019V126.492H93.7217V106.019C93.7217 105.551 94.1088 105.163 94.5756 105.163C95.0424 105.163 95.4295 105.551 95.4295 106.019V127.348C95.4295 127.815 95.0424 128.203 94.5756 128.203Z" fill="#2E2B28"/>
<path d="M103.035 128.249H64.7811C64.3143 128.249 63.9272 127.861 63.9272 127.393C63.9272 126.926 64.3143 126.538 64.7811 126.538H103.035C103.502 126.538 103.889 126.926 103.889 127.393C103.889 127.861 103.513 128.249 103.035 128.249Z" fill="#2E2B28"/>
<path d="M132.067 96.198H35.7489C35.2821 96.198 34.895 95.8102 34.895 95.3425C34.895 94.8749 35.2821 94.4871 35.7489 94.4871H132.067C132.533 94.4871 132.921 94.8749 132.921 95.3425C132.921 95.8102 132.545 96.198 132.067 96.198Z" fill="#2E2B28"/>
<path d="M86.2987 100.304H81.517C81.0502 100.304 80.6631 99.9164 80.6631 99.4487C80.6631 98.9811 81.0502 98.5933 81.517 98.5933H86.2987C86.7655 98.5933 87.1526 98.9811 87.1526 99.4487C87.1526 99.9164 86.7769 100.304 86.2987 100.304Z" fill="#2E2B28"/>
<path d="M84.7046 102.928H83.1107C82.6439 102.928 82.2568 102.54 82.2568 102.072C82.2568 101.604 82.6439 101.217 83.1107 101.217H84.7046C85.1714 101.217 85.5585 101.604 85.5585 102.072C85.5585 102.54 85.1828 102.928 84.7046 102.928Z" fill="#2E2B28"/>
<path fill-rule="evenodd" clip-rule="evenodd" d="M84.0788 34.9137C83.9422 34.5944 83.6234 34.3777 83.2819 34.3777C83.2363 34.3777 83.2022 34.3891 83.2022 34.4119C82.2117 34.5488 81.1642 34.5145 80.151 34.3206C79.7525 34.2408 79.3654 34.4461 79.206 34.8111L78.3407 36.7729L75.7563 35.6209L76.633 33.6363C76.8037 33.2827 76.6899 32.8493 76.3711 32.6097C75.5742 32.0166 74.8569 31.2638 74.2763 30.4312C74.0486 30.1118 73.6273 29.9864 73.263 30.1232L71.2137 30.9217L70.1662 28.207L72.2042 27.4314C72.5685 27.2946 72.7962 26.9182 72.7393 26.5189C72.5799 25.4126 72.5913 24.4202 72.7734 23.485C72.8531 23.0972 72.6482 22.6979 72.2839 22.5383L70.2573 21.6372L71.4528 18.934L73.5021 19.8465C73.8664 20.0061 74.2876 19.8921 74.5267 19.5727C75.1415 18.7629 75.8474 18.0785 76.7127 17.4968C77.0428 17.2801 77.1795 16.8581 77.0314 16.4817L76.2459 14.44L78.9441 13.4021L79.7069 15.4209C79.8549 15.7973 80.2307 16.0255 80.6291 15.9684C81.6766 15.8201 82.6443 15.843 83.612 16.0255C84.0105 16.1053 84.3976 15.9 84.557 15.535L85.445 13.5161L88.1661 14.7252L87.278 16.7326C87.1072 17.0976 87.2211 17.5196 87.5399 17.7592C88.3596 18.3865 89.0427 19.1051 89.612 19.9605C89.8283 20.2913 90.2495 20.4282 90.6252 20.2799L92.6404 19.5043L93.6764 22.2075L91.6385 22.9945C91.2742 23.1314 91.0465 23.5192 91.1034 23.907C91.2514 24.9335 91.2286 25.9486 91.0351 26.941C90.9554 27.3288 91.1603 27.728 91.5247 27.8877L93.517 28.7659L92.3444 31.4235L90.352 30.5339C89.9991 30.3742 89.5664 30.4882 89.3273 30.8076C88.7125 31.6174 88.0067 32.3018 87.1414 32.8835C86.8112 33.1002 86.6746 33.5222 86.8226 33.8986L87.6082 35.9403L84.8985 36.9896L84.0788 34.9137ZM77.5 22L81.039 19.8465L85.3198 21.3464L87.278 25L85.445 29L80 30L77 26.5L77.5 22Z" fill="#FAEDAD"/>
<path fill-rule="evenodd" clip-rule="evenodd" d="M109.848 72.9507C109.711 72.6313 109.393 72.4146 109.051 72.4146C109.005 72.4146 108.971 72.426 108.971 72.4488C107.981 72.5857 106.933 72.5515 105.92 72.3576C105.522 72.2777 105.134 72.483 104.975 72.848L104.11 74.8099L101.525 73.6579L102.402 71.6732C102.573 71.3196 102.459 70.8862 102.14 70.6467C101.343 70.0536 100.626 69.3008 100.045 68.4681C99.8177 68.1488 99.3964 68.0233 99.0321 68.1602L96.9828 68.9586L95.9353 66.244L97.9733 65.4684C98.3376 65.3315 98.5653 64.9551 98.5084 64.5559C98.349 63.4495 98.3604 62.4572 98.5425 61.5219C98.6222 61.1341 98.4173 60.7349 98.053 60.5752L96.0264 59.6741L97.2219 56.9709L99.2712 57.8834C99.6355 58.0431 100.057 57.929 100.296 57.6097C100.911 56.7998 101.616 56.1155 102.482 55.5338C102.812 55.317 102.949 54.895 102.801 54.5186L102.015 52.477L104.713 51.439L105.476 53.4579C105.624 53.8343 106 54.0624 106.398 54.0054C107.446 53.8571 108.413 53.8799 109.381 54.0624C109.78 54.1422 110.167 53.9369 110.326 53.5719L111.214 51.5531L113.935 52.7621L113.047 54.7696C112.876 55.1346 112.99 55.5566 113.309 55.7961C114.129 56.4234 114.812 57.142 115.381 57.9975C115.597 58.3282 116.019 58.4651 116.394 58.3168L118.409 57.5412L119.446 60.2444L117.408 61.0314C117.043 61.1683 116.816 61.5561 116.873 61.9439C117.021 62.9705 116.998 63.9856 116.804 64.9779C116.724 65.3657 116.929 65.7649 117.294 65.9246L119.286 66.8029L118.113 69.4605L116.121 68.5708C115.768 68.4111 115.336 68.5252 115.096 68.8445C114.482 69.6544 113.776 70.3387 112.91 70.9204C112.58 71.1371 112.444 71.5592 112.592 71.9356L113.377 73.9772L110.668 75.0266L109.848 72.9507ZM103.269 60.0369L106.808 57.8834L111.089 59.3833L113.047 63.0369L111.214 67.0369L105.769 68.0369L102.769 64.5369L103.269 60.0369Z" fill="#79CCC2"/>
<path d="M84.409 38.9515C84.0674 38.9515 83.7486 38.7462 83.612 38.4154L82.724 36.157C81.9726 36.214 81.2212 36.1912 80.4584 36.0886L79.5134 38.2329C79.3199 38.6663 78.8189 38.8602 78.3863 38.6663L74.2307 36.83C74.0258 36.7387 73.8664 36.5676 73.7753 36.3509C73.6956 36.1342 73.6956 35.9061 73.7867 35.7008L74.7544 33.5336C74.1966 33.0546 73.6842 32.5185 73.2288 31.9368L70.9974 32.8036C70.781 32.8835 70.5533 32.8835 70.3484 32.7922C70.1435 32.701 69.9841 32.5299 69.893 32.3132L68.2308 27.9903C68.1511 27.7736 68.1511 27.5455 68.2422 27.3402C68.3333 27.1349 68.504 26.9752 68.7203 26.8839L70.9404 26.0399C70.8721 25.2643 70.8835 24.5229 70.9632 23.8043L68.7545 22.8234C68.5496 22.7322 68.3902 22.5611 68.2991 22.3444C68.2194 22.1276 68.2194 21.8995 68.3105 21.6942L70.2004 17.4284C70.2915 17.2231 70.4623 17.0634 70.6786 16.9721C70.8949 16.8923 71.1226 16.8923 71.3275 16.9836L73.559 17.9759C74.0372 17.417 74.5723 16.9151 75.1643 16.4475L74.3104 14.2233C74.2307 14.0066 74.2307 13.7785 74.3218 13.5732C74.4129 13.3679 74.5837 13.2082 74.8 13.1169L79.1035 11.4631C79.3198 11.3832 79.5475 11.3832 79.7639 11.4859C79.9688 11.5771 80.1282 11.7482 80.2079 11.9649L81.039 14.1777C81.7904 14.1207 82.5077 14.1321 83.2249 14.2233L84.1927 12.022C84.3862 11.5885 84.8872 11.3946 85.3198 11.5885L89.6006 13.4933C90.0332 13.6872 90.2268 14.1891 90.0332 14.6225L89.0655 16.8125C89.6347 17.3029 90.1471 17.839 90.6025 18.4435L92.7998 17.5995C93.2438 17.4284 93.7334 17.6451 93.9041 18.0899L95.555 22.39C95.7257 22.8348 95.5094 23.3253 95.0654 23.4964L92.8453 24.3632C92.9023 25.116 92.8909 25.8574 92.7884 26.5988L94.9629 27.5569C95.1679 27.6481 95.3273 27.8192 95.4184 28.0359C95.498 28.2527 95.498 28.4808 95.407 28.6861L93.5398 32.9063C93.4487 33.1116 93.278 33.2713 93.0616 33.3625C92.8453 33.4424 92.6176 33.4424 92.4127 33.3511L90.2381 32.3816C89.76 32.9405 89.2249 33.4538 88.6328 33.91L89.4867 36.1342C89.5664 36.3509 89.5664 36.579 89.4753 36.7843C89.3843 36.9896 89.2135 37.1493 88.9972 37.2406L84.7164 38.8944C84.6139 38.9401 84.5114 38.9515 84.409 38.9515ZM83.2819 34.3777C83.6234 34.3777 83.9422 34.5944 84.0788 34.9137L84.8985 36.9896L87.6082 35.9403L86.8226 33.8986C86.6746 33.5222 86.8112 33.1002 87.1414 32.8835C88.0067 32.3018 88.7125 31.6174 89.3273 30.8076C89.5664 30.4882 89.9991 30.3742 90.352 30.5339L92.3444 31.4235L93.517 28.7659L91.5247 27.8877C91.1603 27.728 90.9554 27.3288 91.0351 26.941C91.2286 25.9487 91.2514 24.9335 91.1034 23.907C91.0465 23.5192 91.2742 23.1314 91.6385 22.9945L93.6764 22.2075L92.6404 19.5043L90.6252 20.2799C90.2495 20.4282 89.8283 20.2913 89.612 19.9605C89.0427 19.1051 88.3596 18.3865 87.5399 17.7592C87.2211 17.5196 87.1072 17.0976 87.278 16.7326L88.1661 14.7252L85.445 13.5161L84.557 15.535C84.3976 15.9 84.0105 16.1053 83.612 16.0255C82.6443 15.843 81.6766 15.8201 80.6291 15.9684C80.2307 16.0255 79.8549 15.7973 79.7069 15.4209L78.9441 13.4021L76.2459 14.44L77.0314 16.4817C77.1795 16.8581 77.0428 17.2801 76.7127 17.4968C75.8474 18.0785 75.1415 18.7629 74.5267 19.5727C74.2876 19.8921 73.8664 20.0061 73.5021 19.8465L71.4528 18.934L70.2573 21.6372L72.2839 22.5383C72.6482 22.6979 72.8531 23.0972 72.7734 23.485C72.5913 24.4202 72.5799 25.4126 72.7393 26.5189C72.7962 26.9182 72.5685 27.2946 72.2042 27.4314L70.1662 28.207L71.2137 30.9217L73.263 30.1232C73.6273 29.9864 74.0486 30.1118 74.2763 30.4312C74.8569 31.2638 75.5742 32.0166 76.3711 32.6097C76.6899 32.8493 76.8037 33.2827 76.633 33.6363L75.7563 35.6209L78.3407 36.7729L79.206 34.8111C79.3654 34.4461 79.7525 34.2408 80.151 34.3206C81.1642 34.5145 82.2117 34.5488 83.2022 34.4119C83.2022 34.3891 83.2363 34.3777 83.2819 34.3777Z" fill="#2E2B28"/>
<path d="M81.9043 31.1954C81.0846 31.1954 80.2648 31.0243 79.4907 30.6821C76.485 29.3476 75.1188 25.8003 76.4508 22.7892C77.7829 19.778 81.3236 18.4093 84.3293 19.7438C87.335 21.0783 88.7012 24.6255 87.3691 27.6367C86.7202 29.0967 85.5475 30.2144 84.0561 30.7962C83.3502 31.0585 82.6215 31.1954 81.9043 31.1954ZM81.9043 20.9414C80.2648 20.9414 78.7051 21.8881 77.9992 23.4849C77.0429 25.6407 78.022 28.1614 80.1624 29.1195C81.1984 29.5871 82.3597 29.6099 83.4185 29.1993C84.4773 28.7887 85.3198 27.9903 85.7866 26.9409C86.7429 24.7852 85.7638 22.2645 83.6234 21.3064C83.0656 21.0554 82.4849 20.9414 81.9043 20.9414Z" fill="#2E2B28"/>
<path d="M110.139 76.9562C109.798 76.9562 109.479 76.7509 109.342 76.4201L108.454 74.1618C107.703 74.2188 106.952 74.196 106.189 74.0933L105.244 76.2377C105.05 76.6711 104.549 76.865 104.117 76.6711L99.9612 74.8347C99.7563 74.7435 99.5969 74.5724 99.5058 74.3557C99.4261 74.139 99.4261 73.9108 99.5172 73.7055L100.485 71.5384C99.927 71.0593 99.4147 70.5233 98.9593 69.9416L96.7278 70.8084C96.5115 70.8882 96.2838 70.8882 96.0789 70.797C95.8739 70.7058 95.7146 70.5347 95.6235 70.3179L93.9612 65.9951C93.8816 65.7784 93.8816 65.5503 93.9726 65.3449C94.0637 65.1396 94.2345 64.98 94.4508 64.8887L96.6709 64.0447C96.6026 63.2691 96.614 62.5277 96.6937 61.8091L94.485 60.8282C94.28 60.7369 94.1206 60.5658 94.0296 60.3491C93.9499 60.1324 93.9499 59.9043 94.0409 59.699L95.9309 55.4331C96.0219 55.2278 96.1927 55.0682 96.409 54.9769C96.6254 54.8971 96.8531 54.8971 97.058 54.9883L99.2895 55.9806C99.7676 55.4217 100.303 54.9199 100.895 54.4522L100.041 52.2281C99.9612 52.0114 99.9612 51.7832 100.052 51.5779C100.143 51.3726 100.314 51.2129 100.53 51.1217L104.834 49.4678C105.05 49.388 105.278 49.388 105.494 49.4906C105.699 49.5819 105.859 49.753 105.938 49.9697L106.769 52.1824C107.521 52.1254 108.238 52.1368 108.955 52.2281L109.923 50.0267C110.117 49.5933 110.618 49.3994 111.05 49.5933L115.331 51.4981C115.764 51.692 115.957 52.1938 115.764 52.6273L114.796 54.8172C115.365 55.3077 115.878 55.8438 116.333 56.4483L118.53 55.6042C118.974 55.4331 119.464 55.6499 119.635 56.0947L121.285 60.3947C121.456 60.8396 121.24 61.33 120.796 61.5011L118.576 62.368C118.633 63.1208 118.621 63.8622 118.519 64.6036L120.693 65.5617C120.898 65.6529 121.058 65.824 121.149 66.0407C121.229 66.2574 121.229 66.4855 121.137 66.6908L119.27 70.9111C119.179 71.1164 119.008 71.2761 118.792 71.3673C118.576 71.4471 118.348 71.4471 118.143 71.3559L115.969 70.3864C115.49 70.9453 114.955 71.4585 114.363 71.9148L115.217 74.139C115.297 74.3557 115.297 74.5838 115.206 74.7891C115.115 74.9944 114.944 75.1541 114.728 75.2453L110.424 76.8992C110.344 76.9448 110.242 76.9562 110.139 76.9562ZM109.012 72.3938C109.354 72.3938 109.673 72.6106 109.809 72.9299L110.629 74.9944L113.339 73.945L112.553 71.9034C112.405 71.527 112.542 71.105 112.872 70.8882C113.737 70.3065 114.443 69.6222 115.058 68.8124C115.297 68.493 115.718 68.3789 116.082 68.5386L118.075 69.4283L119.248 66.7707L117.255 65.8924C116.891 65.7327 116.686 65.3335 116.766 64.9457C116.959 63.9534 116.982 62.9383 116.834 61.9117C116.777 61.5239 117.005 61.1361 117.369 60.9993L119.407 60.2123L118.371 57.509L116.356 58.2846C115.98 58.4329 115.559 58.296 115.342 57.9653C114.773 57.1098 114.09 56.3912 113.27 55.7639C112.952 55.5244 112.838 55.1024 113.008 54.7374L113.897 52.7299L111.175 51.5209L110.287 53.5398C110.128 53.9047 109.73 54.1101 109.342 54.0302C108.375 53.8477 107.407 53.8249 106.36 53.9732C105.961 54.0302 105.585 53.8021 105.437 53.4257L104.675 51.4068L101.976 52.4448L102.762 54.4865C102.91 54.8628 102.773 55.2849 102.443 55.5016C101.578 56.0833 100.872 56.7676 100.257 57.5775C100.018 57.8968 99.5969 58.0109 99.2325 57.8512L97.1832 56.9387L95.9878 59.642L98.0143 60.543C98.3787 60.7027 98.5836 61.1019 98.5039 61.4897C98.3217 62.425 98.3104 63.4173 98.4697 64.5237C98.5267 64.9229 98.299 65.2993 97.9346 65.4362L95.8967 66.2118L96.9441 68.9264L98.9935 68.128C99.3578 67.9911 99.779 68.1166 100.007 68.436C100.587 69.2686 101.305 70.0214 102.102 70.6145C102.42 70.854 102.534 71.2875 102.363 71.641L101.487 73.6257L104.071 74.7777L104.936 72.8159C105.096 72.4509 105.483 72.2456 105.881 72.3254C106.895 72.5193 107.942 72.5535 108.933 72.4167C108.933 72.3938 108.967 72.3938 109.012 72.3938Z" fill="#2E2B28"/>
<path d="M107.635 69.2001C106.815 69.2001 105.995 69.029 105.221 68.6869C102.215 67.3524 100.849 63.8051 102.181 60.7939C103.513 57.7827 107.054 56.414 110.06 57.7485C111.517 58.3987 112.633 59.5735 113.213 61.0677C113.783 62.5619 113.749 64.1815 113.1 65.6415C112.451 67.1014 111.278 68.2192 109.787 68.8009C109.081 69.0633 108.352 69.2001 107.635 69.2001ZM107.635 58.9462C105.995 58.9462 104.436 59.8928 103.73 61.4897C102.773 63.6454 103.752 66.1661 105.893 67.1242C106.929 67.5919 108.09 67.6147 109.149 67.2041C110.208 66.7935 111.05 65.995 111.517 64.9457C111.984 63.9078 112.007 62.7443 111.597 61.6836C111.187 60.6228 110.39 59.7788 109.343 59.3111C108.807 59.0602 108.215 58.9462 107.635 58.9462Z" fill="#2E2B28"/>
<path d="M36.8762 71.025H4.17826C2.07202 71.025 0.364258 69.3141 0.364258 67.204V4.52816C0.364258 2.41805 2.07202 0.707153 4.17826 0.707153H36.8762C38.9824 0.707153 40.6902 2.41805 40.6902 4.52816V67.204C40.6902 69.3141 38.9711 71.025 36.8762 71.025ZM4.17826 2.41805C3.01698 2.41805 2.07202 3.36475 2.07202 4.52816V67.204C2.07202 68.3674 3.01698 69.3141 4.17826 69.3141H36.8762C38.0375 69.3141 38.9824 68.3674 38.9824 67.204V4.52816C38.9824 3.36475 38.0375 2.41805 36.8762 2.41805H4.17826Z" fill="#2E2B28"/>
<path d="M39.7337 9.96883H1.47986C1.01307 9.96883 0.625977 9.58103 0.625977 9.11338C0.625977 8.64574 1.01307 8.25793 1.47986 8.25793H39.7337C40.2005 8.25793 40.5876 8.64574 40.5876 9.11338C40.5876 9.58103 40.2119 9.96883 39.7337 9.96883Z" fill="#2E2B28"/>
<path d="M39.7339 63.4628H1.25232C0.78553 63.4628 0.398438 63.075 0.398438 62.6074C0.398438 62.1398 0.78553 61.752 1.25232 61.752H39.7339C40.2007 61.752 40.5878 62.1398 40.5878 62.6074C40.5878 63.075 40.2121 63.4628 39.7339 63.4628Z" fill="#2E2B28"/>
<path d="M23.4532 6.31893H17.6468C17.1801 6.31893 16.793 5.93113 16.793 5.46348C16.793 4.99584 17.1801 4.60803 17.6468 4.60803H23.4532C23.92 4.60803 24.3071 4.99584 24.3071 5.46348C24.3071 5.93113 23.9314 6.31893 23.4532 6.31893Z" fill="#2E2B28"/>
<path d="M20.527 68.6868C19.2747 68.6868 18.25 67.6602 18.25 66.4056C18.25 65.1509 19.2747 64.1244 20.527 64.1244C21.7794 64.1244 22.804 65.1509 22.804 66.4056C22.804 67.6716 21.7908 68.6868 20.527 68.6868ZM20.527 65.8467C20.2196 65.8467 19.9578 66.0976 19.9578 66.417C19.9578 66.7249 20.2082 66.9873 20.527 66.9873C20.8344 66.9873 21.0963 66.7364 21.0963 66.417C21.0963 66.0976 20.8458 65.8467 20.527 65.8467Z" fill="#2E2B28"/>
<path d="M31.7759 62.5047C31.3091 62.5047 30.922 62.1169 30.922 61.6492V57.0412C30.922 51.2926 26.2541 46.6162 20.5161 46.6162C14.778 46.6162 10.1101 51.2926 10.1101 57.0412V61.6492C10.1101 62.1169 9.72301 62.5047 9.25622 62.5047C8.78944 62.5047 8.40234 62.1169 8.40234 61.6492V57.0412C8.40234 50.3459 13.833 44.9053 20.5161 44.9053C27.1991 44.9053 32.6298 50.3459 32.6298 57.0412V61.6492C32.6298 62.1283 32.2427 62.5047 31.7759 62.5047Z" fill="#2E2B28"/>
<path d="M23.8061 46.8101C23.4873 46.8101 23.1913 46.639 23.0433 46.331C22.8384 45.909 23.0092 45.3957 23.4418 45.1904C25.753 44.0612 27.1875 41.7686 27.1875 39.1909C27.1875 35.5182 24.2046 32.5184 20.5272 32.5184C16.8498 32.5184 13.8669 35.5068 13.8669 39.1909C13.8669 41.7344 15.2787 44.0156 17.5443 45.1562C17.9656 45.3729 18.1363 45.8862 17.92 46.3082C17.7037 46.7302 17.1914 46.9013 16.7701 46.6846C13.9239 45.2475 12.1592 42.3846 12.1592 39.1909C12.1592 34.5715 15.9163 30.8075 20.5272 30.8075C25.1382 30.8075 28.8952 34.5715 28.8952 39.1909C28.8952 42.4188 27.0964 45.3159 24.1932 46.7302C24.0566 46.7873 23.9314 46.8101 23.8061 46.8101Z" fill="#2E2B28"/>
<path d="M7.01344 150C6.69466 150 6.39864 149.818 6.25064 149.532L1.5486 140.202C1.49167 140.088 1.45752 139.951 1.45752 139.815V99.3575C1.45752 98.8899 1.84461 98.5021 2.3114 98.5021H11.7041C12.1709 98.5021 12.558 98.8899 12.558 99.3575V139.815C12.558 139.951 12.5238 140.077 12.4669 140.202L7.77624 149.532C7.62823 149.818 7.33222 150 7.01344 150ZM3.16528 139.609L7.01344 147.251L10.8616 139.609V100.213H3.16528V139.609Z" fill="#2E2B28"/>
<path d="M13.1725 100.213H0.853881C0.387093 100.213 0 99.8251 0 99.3575V87.5409C0 87.0732 0.387093 86.6854 0.853881 86.6854H13.1725C13.6393 86.6854 14.0264 87.0732 14.0264 87.5409V99.3461C14.0264 99.8251 13.6393 100.213 13.1725 100.213ZM1.70776 98.502H12.3187V88.3963H1.70776V98.502Z" fill="#2E2B28"/>
<path d="M11.6128 140.681H2.50476C2.03797 140.681 1.65088 140.294 1.65088 139.826C1.65088 139.358 2.03797 138.97 2.50476 138.97H11.6128C12.0796 138.97 12.4667 139.358 12.4667 139.826C12.4667 140.294 12.091 140.681 11.6128 140.681Z" fill="#2E2B28"/>
<path d="M8.19738 146.612H5.80652C5.33973 146.612 4.95264 146.225 4.95264 145.757C4.95264 145.289 5.33973 144.901 5.80652 144.901H8.19738C8.66417 144.901 9.05127 145.289 9.05127 145.757C9.05127 146.225 8.67556 146.612 8.19738 146.612Z" fill="#2E2B28"/>
<path d="M11.3054 88.3963H2.72107C2.25428 88.3963 1.86719 88.0085 1.86719 87.5409V82.5108C1.86719 82.0432 2.25428 81.6554 2.72107 81.6554H11.3054C11.7722 81.6554 12.1593 82.0432 12.1593 82.5108V87.5409C12.1593 88.0199 11.7722 88.3963 11.3054 88.3963ZM3.57495 86.6854H10.4515V83.3663H3.57495V86.6854Z" fill="#2E2B28"/>
<path d="M4.95251 116.558C4.48573 116.558 4.09863 116.17 4.09863 115.702V99.3917C4.09863 98.9241 4.48573 98.5363 4.95251 98.5363C5.4193 98.5363 5.80639 98.9241 5.80639 99.3917V115.702C5.80639 116.17 5.43069 116.558 4.95251 116.558Z" fill="#2E2B28"/>
<path d="M9.27869 126.253C8.8119 126.253 8.4248 125.865 8.4248 125.397V99.3917C8.4248 98.9241 8.8119 98.5363 9.27869 98.5363C9.74547 98.5363 10.1326 98.9241 10.1326 99.3917V125.397C10.1326 125.865 9.75686 126.253 9.27869 126.253Z" fill="#2E2B28"/>
<path d="M9.27869 140.396C8.8119 140.396 8.4248 140.008 8.4248 139.541V133.724C8.4248 133.256 8.8119 132.868 9.27869 132.868C9.74547 132.868 10.1326 133.256 10.1326 133.724V139.541C10.1326 140.008 9.75686 140.396 9.27869 140.396Z" fill="#2E2B28"/>
<path d="M4.95251 140.396C4.48573 140.396 4.09863 140.008 4.09863 139.541V126.994C4.09863 126.526 4.48573 126.139 4.95251 126.139C5.4193 126.139 5.80639 126.526 5.80639 126.994V139.541C5.80639 140.008 5.43069 140.396 4.95251 140.396Z" fill="#2E2B28"/>
<path d="M12.979 97.4527H11.3851C10.9183 97.4527 10.5312 97.0649 10.5312 96.5973C10.5312 96.1296 10.9183 95.7418 11.3851 95.7418H12.979C13.4458 95.7418 13.8329 96.1296 13.8329 96.5973C13.8329 97.0649 13.4572 97.4527 12.979 97.4527Z" fill="#2E2B28"/>
<path d="M7.74206 97.4527H0.91101C0.444222 97.4527 0.0571289 97.0649 0.0571289 96.5973C0.0571289 96.1296 0.444222 95.7418 0.91101 95.7418H7.74206C8.20885 95.7418 8.59594 96.1296 8.59594 96.5973C8.59594 97.0649 8.22023 97.4527 7.74206 97.4527Z" fill="#2E2B28"/>
<path d="M7.74206 91.0654H0.91101C0.444222 91.0654 0.0571289 90.6776 0.0571289 90.2099C0.0571289 89.7423 0.444222 89.3545 0.91101 89.3545H7.74206C8.20885 89.3545 8.59594 89.7423 8.59594 90.2099C8.59594 90.6776 8.22023 91.0654 7.74206 91.0654Z" fill="#2E2B28"/>
<path d="M12.6375 91.0654H11.3851C10.9183 91.0654 10.5312 90.6776 10.5312 90.2099C10.5312 89.7423 10.9183 89.3545 11.3851 89.3545H12.6375C13.1043 89.3545 13.4914 89.7423 13.4914 90.2099C13.4914 90.6776 13.1157 91.0654 12.6375 91.0654Z" fill="#2E2B28"/>
<path d="M164.116 73.6598H161.816H160.109H159.63C159.164 73.6598 158.776 73.272 158.776 72.8044C158.776 72.3367 159.164 71.9489 159.63 71.9489H163.262V69.9985H144.727V71.9489H150.124C150.591 71.9489 150.978 72.3367 150.978 72.8044C150.978 73.272 150.591 73.6598 150.124 73.6598H147.881H146.173H143.873C143.407 73.6598 143.02 73.272 143.02 72.8044V69.143C143.02 68.6754 143.407 68.2876 143.873 68.2876H164.116C164.583 68.2876 164.97 68.6754 164.97 69.143V72.8044C164.97 73.2834 164.583 73.6598 164.116 73.6598Z" fill="#2E2B28"/>
<path fill-rule="evenodd" clip-rule="evenodd" d="M161.816 73.6598V72.8044C161.816 72.3368 161.429 71.949 160.962 71.949C160.496 71.949 160.109 72.3368 160.109 72.8044V73.6598H161.816ZM147.881 73.6598V72.8044C147.881 72.3368 147.494 71.949 147.027 71.949C146.56 71.949 146.173 72.3368 146.173 72.8044V73.6598H147.881Z" fill="#2E2B28"/>
<path d="M147.881 102.049C147.881 105.426 150.625 108.174 153.995 108.174C157.365 108.174 160.109 105.426 160.109 102.049V73.6598H159.63C159.164 73.6598 158.776 73.272 158.776 72.8044C158.776 72.3367 159.164 71.9489 159.63 71.9489H163.262V69.9985H144.727V71.9489H150.124C150.591 71.9489 150.978 72.3367 150.978 72.8044C150.978 73.272 150.591 73.6598 150.124 73.6598H147.881V102.049Z" fill="#FAEDAD"/>
<path d="M153.995 54.11C146.777 54.11 140.002 51.2927 134.902 46.1828C129.801 41.0729 126.989 34.275 126.989 27.055C126.989 19.8236 129.801 13.037 134.902 7.92715C139.991 2.81728 146.777 0 153.995 0C161.213 0 167.987 2.81728 173.087 7.92715C178.188 13.037 181 19.835 181 27.055C181 34.2864 178.188 41.0729 173.087 46.1828C167.987 51.3041 161.201 54.11 153.995 54.11ZM153.995 1.7109C140.048 1.7109 128.697 13.0827 128.697 27.055C128.697 41.0273 140.048 52.3991 153.995 52.3991C167.941 52.3991 179.292 41.0273 179.292 27.055C179.292 13.0827 167.941 1.7109 153.995 1.7109Z" fill="#2E2B28"/>
<path d="M153.995 50.1863C141.266 50.1863 130.906 39.8069 130.906 27.055C130.906 14.3031 141.266 3.92371 153.995 3.92371C166.723 3.92371 177.084 14.3031 177.084 27.055C177.084 39.8069 166.723 50.1863 153.995 50.1863ZM153.995 5.6346C142.2 5.6346 132.614 15.2384 132.614 27.055C132.614 38.8716 142.2 48.4755 153.995 48.4755C165.79 48.4755 175.376 38.8716 175.376 27.055C175.376 15.2384 165.778 5.6346 153.995 5.6346Z" fill="#2E2B28"/>
<path d="M153.983 69.7932C153.516 69.7932 153.129 69.4054 153.129 68.9378V53.4256C153.129 52.958 153.516 52.5702 153.983 52.5702C154.45 52.5702 154.837 52.958 154.837 53.4256V68.9378C154.837 69.4054 154.461 69.7932 153.983 69.7932Z" fill="#2E2B28"/>
<path d="M153.995 109.885C149.68 109.885 146.173 106.372 146.173 102.049V72.8044C146.173 72.3368 146.56 71.949 147.027 71.949C147.494 71.949 147.881 72.3368 147.881 72.8044V102.049C147.881 105.426 150.625 108.174 153.995 108.174C157.365 108.174 160.109 105.426 160.109 102.049V72.8044C160.109 72.3368 160.496 71.949 160.963 71.949C161.429 71.949 161.816 72.3368 161.816 72.8044V102.049C161.816 106.372 158.31 109.885 153.995 109.885Z" fill="#2E2B28"/>
<path d="M164.116 73.6598H159.63C159.164 73.6598 158.776 73.272 158.776 72.8044C158.776 72.3367 159.164 71.9489 159.63 71.9489H163.262V69.9985H144.727V71.9489H150.124C150.591 71.9489 150.978 72.3367 150.978 72.8044C150.978 73.272 150.591 73.6598 150.124 73.6598H143.873C143.407 73.6598 143.02 73.272 143.02 72.8044V69.143C143.02 68.6754 143.407 68.2876 143.873 68.2876H164.116C164.583 68.2876 164.97 68.6754 164.97 69.143V72.8044C164.97 73.2834 164.583 73.6598 164.116 73.6598Z" fill="#2E2B28"/>
<path d="M153.983 143.305H20.493C20.0263 143.305 19.6392 142.917 19.6392 142.449C19.6392 141.982 20.0263 141.594 20.493 141.594H153.129V116.729C153.129 116.261 153.516 115.873 153.983 115.873C154.45 115.873 154.837 116.261 154.837 116.729V142.449C154.837 142.917 154.461 143.305 153.983 143.305Z" fill="#2E2B28"/>
</g>
<defs>
<clipPath id="clip0_4_9783">
<rect width="181" height="150" fill="white"/>
</clipPath>
</defs>
</svg>
