<svg width="182" height="155" viewBox="0 0 182 155" fill="none" xmlns="http://www.w3.org/2000/svg">
<g clip-path="url(#clip0_4_10135)">
<path d="M2 6H7V40V44H2V6Z" fill="#79CCC2"/>
<path d="M7 40V44L22.5 44.5V40.5L7 40Z" fill="#79CCC2"/>
<path d="M64.5 5.5L68 6V27L63.5 27.5L64.3398 5.5H64.5Z" fill="#79CCC2"/>
<rect x="120" y="82" width="5" height="9" fill="#79CCC2"/>
<rect x="134" y="73" width="5" height="18" fill="#79CCC2"/>
<rect x="148" y="58" width="5" height="34" fill="#79CCC2"/>
<path d="M32.5586 104.03H42.8064V80.9527C42.8064 71.1698 34.8776 63.219 25.1217 63.219C15.3658 63.219 7.43701 71.1698 7.43701 80.9527V104.03H16.9001C17.0921 104.03 17.2713 104.084 17.4233 104.179L17.8956 101L12.5001 94.9999L12.0001 82.4999L16.9001 80.9527L23.0001 76.9999L24.5001 73.9999L25.5001 75.9999L30.0001 80.4999L37.5001 81.9999L38.0001 94.9999L32.5586 101.5V104.03Z" fill="#FAEDAD"/>
<path d="M26.0584 106.027H24.1845C22.5331 106.027 20.9755 105.392 19.8043 104.23L12.9413 97.4768C11.7467 96.3024 11.0674 94.67 11.0674 93.0023V82.0684C11.0674 81.5165 11.5124 81.0702 12.0629 81.0702C12.6133 81.0702 13.0584 81.5165 13.0584 82.0684V93.014C13.0584 94.1532 13.5268 95.2689 14.335 96.0675L21.198 102.82C21.9944 103.607 23.0602 104.042 24.1845 104.042H26.0584C27.1827 104.042 28.2368 103.607 29.0449 102.82L35.9079 96.0675C36.716 95.2689 37.1845 94.1532 37.1845 93.014V82.0802C37.1845 81.5282 37.6295 81.0819 38.18 81.0819C38.7304 81.0819 39.1755 81.5282 39.1755 82.0802V93.014C39.1755 94.6817 38.4962 96.3142 37.3016 97.4886L30.4386 104.242C29.2674 105.392 27.7097 106.027 26.0584 106.027Z" fill="#2E2B28"/>
<path d="M17.5678 113.837C17.0173 113.837 16.5723 113.39 16.5723 112.838V100.742C16.5723 100.19 17.0173 99.7435 17.5678 99.7435C18.1182 99.7435 18.5633 100.19 18.5633 100.742V112.838C18.5633 113.39 18.1182 113.837 17.5678 113.837Z" fill="#2E2B28"/>
<path d="M32.559 113.837C32.0085 113.837 31.5635 113.39 31.5635 112.838V100.977C31.5635 100.425 32.0085 99.9784 32.559 99.9784C33.1094 99.9784 33.5545 100.425 33.5545 100.977V112.838C33.5545 113.39 33.1094 113.837 32.559 113.837Z" fill="#2E2B28"/>
<path d="M43.8017 106.027H32.5584C32.008 106.027 31.5629 105.58 31.5629 105.028C31.5629 104.476 32.008 104.03 32.5584 104.03H42.8062V80.9528C42.8062 71.1699 34.8773 63.219 25.1215 63.219C15.3656 63.219 7.43679 71.1699 7.43679 80.9528V104.03H16.8999C17.4503 104.03 17.8954 104.476 17.8954 105.028C17.8954 105.58 17.4503 106.027 16.8999 106.027H6.4413C5.89085 106.027 5.4458 105.58 5.4458 105.028V80.9528C5.4458 70.0777 14.2764 61.2225 25.1215 61.2225C35.9665 61.2225 44.7972 70.0777 44.7972 80.9528V105.028C44.7972 105.58 44.3521 106.027 43.8017 106.027Z" fill="#2E2B28"/>
<path d="M37.8286 83.0667C34.4674 83.0667 31.0124 82.0215 28.3539 80.2129C26.7025 79.0854 25.4494 77.7231 24.6413 76.2198C23.9034 77.7348 22.744 79.0854 21.2214 80.2011C18.7151 82.0215 15.3773 83.0785 12.0629 83.0785C11.5124 83.0785 11.0674 82.6322 11.0674 82.0802C11.0674 81.5282 11.5124 81.0819 12.0629 81.0819C14.9674 81.0819 17.8836 80.1776 20.0503 78.5922C21.6665 77.406 23.5989 75.3273 23.5989 72.0976C23.5989 71.5456 24.044 71.0994 24.5944 71.0994C25.1449 71.0994 25.5899 71.5456 25.5899 72.0976C25.5899 77.4765 31.9142 81.0819 37.8286 81.0819C38.3791 81.0819 38.8241 81.5282 38.8241 82.0802C38.8241 82.6204 38.3791 83.0667 37.8286 83.0667Z" fill="#2E2B28"/>
<path d="M0.995496 154.753C0.445045 154.753 0 154.307 0 153.755V126.297C0 117.418 7.2027 110.196 16.0568 110.196H16.9586C17.509 110.196 17.9541 110.642 17.9541 111.194C17.9541 111.746 17.509 112.192 16.9586 112.192H16.0568C8.30361 112.192 1.99099 118.522 1.99099 126.297V153.755C1.99099 154.307 1.54595 154.753 0.995496 154.753Z" fill="#2E2B28"/>
<path d="M49.248 154.753C48.6975 154.753 48.2525 154.307 48.2525 153.755V126.297C48.2525 118.522 41.9399 112.192 34.1867 112.192H33.0624C32.5119 112.192 32.0669 111.746 32.0669 111.194C32.0669 110.642 32.5119 110.196 33.0624 110.196H34.1867C43.0408 110.196 50.2435 117.418 50.2435 126.297V153.755C50.2435 154.307 49.7984 154.753 49.248 154.753Z" fill="#2E2B28"/>
<path d="M39.0004 154.706C38.4499 154.706 38.0049 154.26 38.0049 153.708V129.633C38.0049 129.081 38.4499 128.634 39.0004 128.634C39.5508 128.634 39.9959 129.081 39.9959 129.633V153.708C39.9959 154.26 39.5508 154.706 39.0004 154.706Z" fill="#2E2B28"/>
<path d="M11.1264 154.706C10.5759 154.706 10.1309 154.26 10.1309 153.708V129.633C10.1309 129.081 10.5759 128.634 11.1264 128.634C11.6768 128.634 12.1219 129.081 12.1219 129.633V153.708C12.1219 154.26 11.6768 154.706 11.1264 154.706Z" fill="#2E2B28"/>
<path d="M162.687 128.576H49.2359C48.6854 128.576 48.2404 128.129 48.2404 127.577C48.2404 127.025 48.6854 126.579 49.2359 126.579H161.692V28.3622H23.7044V62.2325C23.7044 62.7845 23.2593 63.2308 22.7089 63.2308C22.1584 63.2308 21.7134 62.7845 21.7134 62.2325V27.364C21.7134 26.812 22.1584 26.3657 22.7089 26.3657H162.687C163.238 26.3657 163.683 26.812 163.683 27.364V127.589C163.683 128.129 163.238 128.576 162.687 128.576Z" fill="#2E2B28"/>
<path d="M22.7089 41.093H6.4413C5.89085 41.093 5.4458 40.6467 5.4458 40.0947V0.998257C5.4458 0.44628 5.89085 0 6.4413 0H30.7899C31.5629 0 32.3008 0.234884 32.9332 0.66942L35.0179 2.1257L36.9386 0.728141C37.5827 0.258372 38.3557 0 39.1521 0H63.6296C64.18 0 64.6251 0.44628 64.6251 0.998257V26.8707C64.6251 27.4227 64.18 27.869 63.6296 27.869C63.0791 27.869 62.6341 27.4227 62.6341 26.8707V1.99651H39.1521C38.7773 1.99651 38.4143 2.11396 38.1098 2.3371L35.6152 4.15745C35.2755 4.40408 34.8071 4.41582 34.4674 4.16919L31.7972 2.31361C31.5044 2.10221 31.153 1.99651 30.7899 1.99651H7.43679V39.0965H22.7089C23.2593 39.0965 23.7044 39.5427 23.7044 40.0947C23.7044 40.6467 23.2593 41.093 22.7089 41.093Z" fill="#2E2B28"/>
<path d="M21.8192 45.1564H2.21376C1.66331 45.1564 1.21826 44.7101 1.21826 44.1582V5.69589C1.21826 5.14391 1.66331 4.69763 2.21376 4.69763H6.44168C6.99214 4.69763 7.43718 5.14391 7.43718 5.69589C7.43718 6.24787 6.99214 6.69415 6.44168 6.69415H3.20925V43.1599H21.8192C22.3696 43.1599 22.8147 43.6062 22.8147 44.1582C22.8147 44.7101 22.3696 45.1564 21.8192 45.1564Z" fill="#2E2B28"/>
<path d="M67.8576 27.8689C67.3071 27.8689 66.8621 27.4227 66.8621 26.8707V6.69415H64.2152C63.6648 6.69415 63.2197 6.24787 63.2197 5.69589C63.2197 5.14391 63.6648 4.69763 64.2152 4.69763H67.8576C68.408 4.69763 68.8531 5.14391 68.8531 5.69589V26.8707C68.8531 27.4227 68.408 27.8689 67.8576 27.8689Z" fill="#2E2B28"/>
<path d="M35.018 27.869C34.4675 27.869 34.0225 27.4227 34.0225 26.8707V3.38229C34.0225 2.83031 34.4675 2.38403 35.018 2.38403C35.5684 2.38403 36.0135 2.83031 36.0135 3.38229V26.8707C36.0135 27.4227 35.5684 27.869 35.018 27.869Z" fill="#2E2B28"/>
<path d="M97.3828 56.3487H35.018C34.4675 56.3487 34.0225 55.9024 34.0225 55.3504V36.2661C34.0225 35.7141 34.4675 35.2678 35.018 35.2678C35.5684 35.2678 36.0135 35.7141 36.0135 36.2661V54.3522H97.3828C97.9333 54.3522 98.3783 54.7984 98.3783 55.3504C98.3783 55.9024 97.9333 56.3487 97.3828 56.3487Z" fill="#2E2B28"/>
<path d="M153.365 92.5208H120.103C119.553 92.5208 119.108 92.0745 119.108 91.5225C119.108 90.9706 119.553 90.5243 120.103 90.5243H153.365C153.915 90.5243 154.36 90.9706 154.36 91.5225C154.36 92.0745 153.915 92.5208 153.365 92.5208Z" fill="#2E2B28"/>
<path d="M42.7479 56.29C42.1975 56.29 41.7524 55.8437 41.7524 55.2917V49.8894C41.7524 49.3374 42.1975 48.8911 42.7479 48.8911C43.2984 48.8911 43.7434 49.3374 43.7434 49.8894V55.2917C43.7434 55.8437 43.2984 56.29 42.7479 56.29Z" fill="#2E2B28"/>
<path d="M50.5946 56.29C50.0442 56.29 49.5991 55.8437 49.5991 55.2917V43.0777C49.5991 42.5257 50.0442 42.0795 50.5946 42.0795C51.1451 42.0795 51.5901 42.5257 51.5901 43.0777V55.2917C51.5901 55.8437 51.1451 56.29 50.5946 56.29Z" fill="#2E2B28"/>
<path d="M58.3241 56.29C57.7737 56.29 57.3286 55.8437 57.3286 55.2918V49.1848C57.3286 48.6328 57.7737 48.1865 58.3241 48.1865C58.8746 48.1865 59.3196 48.6328 59.3196 49.1848V55.2918C59.3196 55.8437 58.8746 56.29 58.3241 56.29Z" fill="#2E2B28"/>
<path d="M66.1713 56.4074C65.6208 56.4074 65.1758 55.9612 65.1758 55.4092V45.3092C65.1758 44.7572 65.6208 44.3109 66.1713 44.3109C66.7217 44.3109 67.1668 44.7572 67.1668 45.3092V55.4092C67.1668 55.9612 66.7217 56.4074 66.1713 56.4074Z" fill="#2E2B28"/>
<path d="M73.9008 56.29C73.3503 56.29 72.9053 55.8437 72.9053 55.2917V52.2382C72.9053 51.6863 73.3503 51.24 73.9008 51.24C74.4512 51.24 74.8963 51.6863 74.8963 52.2382V55.2917C74.8963 55.8437 74.4512 56.29 73.9008 56.29Z" fill="#2E2B28"/>
<path d="M81.7479 56.29C81.1975 56.29 80.7524 55.8437 80.7524 55.2917V43.0777C80.7524 42.5257 81.1975 42.0795 81.7479 42.0795C82.2984 42.0795 82.7434 42.5257 82.7434 43.0777V55.2917C82.7434 55.8437 82.2984 56.29 81.7479 56.29Z" fill="#2E2B28"/>
<path d="M89.4774 56.4074C88.927 56.4074 88.4819 55.9611 88.4819 55.4091V37.6754C88.4819 37.1234 88.927 36.6771 89.4774 36.6771C90.0279 36.6771 90.4729 37.1234 90.4729 37.6754V55.4091C90.4729 55.9611 90.0279 56.4074 89.4774 56.4074Z" fill="#2E2B28"/>
<path d="M97.3831 74.5522H49.2479C48.6975 74.5522 48.2524 74.1059 48.2524 73.5539C48.2524 73.0019 48.6975 72.5557 49.2479 72.5557H97.3831C97.9335 72.5557 98.3786 73.0019 98.3786 73.5539C98.3786 74.1059 97.9335 74.5522 97.3831 74.5522Z" fill="#2E2B28"/>
<path d="M97.3831 92.5208H49.2479C48.6975 92.5208 48.2524 92.0745 48.2524 91.5225C48.2524 90.9706 48.6975 90.5243 49.2479 90.5243H97.3831C97.9335 90.5243 98.3786 90.9706 98.3786 91.5225C98.3786 92.0745 97.9335 92.5208 97.3831 92.5208Z" fill="#2E2B28"/>
<path d="M143.761 110.607H52.5272C51.9768 110.607 51.5317 110.161 51.5317 109.609C51.5317 109.057 51.9768 108.61 52.5272 108.61H143.761C144.312 108.61 144.757 109.057 144.757 109.609C144.757 110.161 144.312 110.607 143.761 110.607Z" fill="#2E2B28"/>
<path d="M124.765 92.5208H120.103C119.553 92.5208 119.108 92.0745 119.108 91.5225V82.0684C119.108 81.5165 119.553 81.0702 120.103 81.0702H124.765C125.315 81.0702 125.76 81.5165 125.76 82.0684V91.5225C125.76 92.0745 125.315 92.5208 124.765 92.5208ZM121.099 90.5243H123.769V83.0667H121.099V90.5243Z" fill="#2E2B28"/>
<path d="M139.065 92.5208H134.404C133.853 92.5208 133.408 92.0745 133.408 91.5226V72.0859C133.408 71.5339 133.853 71.0876 134.404 71.0876H139.065C139.615 71.0876 140.06 71.5339 140.06 72.0859V91.5226C140.06 92.0745 139.615 92.5208 139.065 92.5208ZM135.399 90.5243H138.069V73.0842H135.399V90.5243Z" fill="#2E2B28"/>
<path d="M153.365 92.5208H148.704C148.153 92.5208 147.708 92.0746 147.708 91.5226V57.4879C147.708 56.9359 148.153 56.4896 148.704 56.4896H153.365C153.915 56.4896 154.36 56.9359 154.36 57.4879V91.5226C154.36 92.0746 153.915 92.5208 153.365 92.5208ZM149.699 90.5243H152.369V58.4861H149.699V90.5243Z" fill="#2E2B28"/>
<path d="M26.0585 11.7208H12.2387C11.6882 11.7208 11.2432 11.2745 11.2432 10.7225C11.2432 10.1705 11.6882 9.72424 12.2387 9.72424H26.0585C26.6089 9.72424 27.054 10.1705 27.054 10.7225C27.054 11.2745 26.6089 11.7208 26.0585 11.7208Z" fill="#2E2B28"/>
<path d="M26.0585 21.5859H12.2387C11.6882 21.5859 11.2432 21.1396 11.2432 20.5876C11.2432 20.0356 11.6882 19.5894 12.2387 19.5894H26.0585C26.6089 19.5894 27.054 20.0356 27.054 20.5876C27.054 21.1396 26.6089 21.5859 26.0585 21.5859Z" fill="#2E2B28"/>
<path d="M22.6619 31.3335H12.0043C11.4538 31.3335 11.0088 30.8873 11.0088 30.3353C11.0088 29.7833 11.4538 29.337 12.0043 29.337H22.6619C23.2124 29.337 23.6574 29.7833 23.6574 30.3353C23.6574 30.8873 23.2124 31.3335 22.6619 31.3335Z" fill="#2E2B28"/>
<path d="M57.7972 11.7208H43.9774C43.427 11.7208 42.9819 11.2745 42.9819 10.7225C42.9819 10.1705 43.427 9.72424 43.9774 9.72424H57.7972C58.3477 9.72424 58.7927 10.1705 58.7927 10.7225C58.7927 11.2745 58.3477 11.7208 57.7972 11.7208Z" fill="#2E2B28"/>
<path d="M57.7972 21.5859H43.9774C43.427 21.5859 42.9819 21.1396 42.9819 20.5876C42.9819 20.0356 43.427 19.5894 43.9774 19.5894H57.7972C58.3477 19.5894 58.7927 20.0356 58.7927 20.5876C58.7927 21.1396 58.3477 21.5859 57.7972 21.5859Z" fill="#2E2B28"/>
<path d="M171.401 155H116.707C116.157 155 115.712 154.554 115.712 154.002C115.712 153.45 116.157 153.004 116.707 153.004H171.401C171.952 153.004 172.397 153.45 172.397 154.002C172.397 154.554 171.952 155 171.401 155Z" fill="#2E2B28"/>
<path d="M181.005 140.555H152.194C151.643 140.555 151.198 140.108 151.198 139.556C151.198 139.004 151.643 138.558 152.194 138.558H181.005C181.555 138.558 182 139.004 182 139.556C182 140.108 181.555 140.555 181.005 140.555Z" fill="#2E2B28"/>
<path d="M93.6001 154.06C91.7965 154.06 90.3208 152.581 90.3208 150.772C90.3208 148.963 91.7965 147.484 93.6001 147.484C95.4037 147.484 96.8794 148.963 96.8794 150.772C96.8794 152.581 95.4037 154.06 93.6001 154.06ZM93.6001 149.48C92.8857 149.48 92.3118 150.056 92.3118 150.772C92.3118 151.488 92.8857 152.064 93.6001 152.064C94.3145 152.064 94.8884 151.488 94.8884 150.772C94.8884 150.056 94.3028 149.48 93.6001 149.48Z" fill="#2E2B28"/>
<path d="M176.437 28.2213C174.633 28.2213 173.158 26.7415 173.158 24.9329C173.158 23.1243 174.633 21.6445 176.437 21.6445C178.241 21.6445 179.716 23.1243 179.716 24.9329C179.716 26.7415 178.241 28.2213 176.437 28.2213ZM176.437 23.6293C175.723 23.6293 175.149 24.2048 175.149 24.9212C175.149 25.6376 175.723 26.213 176.437 26.213C177.151 26.213 177.725 25.6376 177.725 24.9212C177.725 24.2165 177.151 23.6293 176.437 23.6293Z" fill="#2E2B28"/>
<path d="M62.306 141.67C61.7556 141.67 61.3105 141.224 61.3105 140.672V137.384C61.3105 136.832 61.7556 136.385 62.306 136.385C62.8565 136.385 63.3015 136.832 63.3015 137.384V140.672C63.3015 141.224 62.8565 141.67 62.306 141.67Z" fill="#2E2B28"/>
<path d="M64.0043 140.085H60.725C60.1745 140.085 59.7295 139.639 59.7295 139.087C59.7295 138.535 60.1745 138.088 60.725 138.088H64.0043C64.5547 138.088 64.9998 138.535 64.9998 139.087C64.9998 139.639 64.5547 140.085 64.0043 140.085Z" fill="#2E2B28"/>
<path d="M91.2343 21.9969C90.6838 21.9969 90.2388 21.5506 90.2388 20.9987V17.7103C90.2388 17.1583 90.6838 16.712 91.2343 16.712C91.7847 16.712 92.2298 17.1583 92.2298 17.7103V20.9987C92.2298 21.5506 91.7847 21.9969 91.2343 21.9969Z" fill="#2E2B28"/>
<path d="M92.9325 20.4114H89.6532C89.1028 20.4114 88.6577 19.9652 88.6577 19.4132C88.6577 18.8612 89.1028 18.4149 89.6532 18.4149H92.9325C93.4829 18.4149 93.928 18.8612 93.928 19.4132C93.928 19.9652 93.4829 20.4114 92.9325 20.4114Z" fill="#2E2B28"/>
<path d="M178.018 86.2376C177.468 86.2376 177.022 85.7914 177.022 85.2394V81.951C177.022 81.399 177.468 80.9528 178.018 80.9528C178.568 80.9528 179.013 81.399 179.013 81.951V85.2394C179.013 85.7914 178.568 86.2376 178.018 86.2376Z" fill="#2E2B28"/>
<path d="M179.716 84.6522H176.437C175.886 84.6522 175.441 84.2059 175.441 83.6539C175.441 83.1019 175.886 82.6556 176.437 82.6556H179.716C180.267 82.6556 180.712 83.1019 180.712 83.6539C180.712 84.2059 180.267 84.6522 179.716 84.6522Z" fill="#2E2B28"/>
</g>
<defs>
<clipPath id="clip0_4_10135">
<rect width="182" height="155" fill="white"/>
</clipPath>
</defs>
</svg>
