<svg width="181" height="150" viewBox="0 0 181 150" fill="none" xmlns="http://www.w3.org/2000/svg">
<g clip-path="url(#clip0_4_9921)">
<path d="M175 108.791C175 128.246 159.259 144 139.863 144C120.468 144 104.727 128.246 104.727 108.791C104.727 89.336 120.468 73.5824 139.863 73.5824C159.259 73.5824 175 89.336 175 108.791Z" stroke="#FAEDAD" stroke-width="12"/>
<path d="M151.964 108.791C151.964 115.501 146.536 120.923 139.864 120.923C133.191 120.923 127.764 115.501 127.764 108.791C127.764 102.081 133.191 96.6593 139.864 96.6593C146.536 96.6593 151.964 102.081 151.964 108.791Z" stroke="#FAEDAD" stroke-width="12"/>
<path fill-rule="evenodd" clip-rule="evenodd" d="M25.0921 93.7709C25.0682 93.2688 24.7533 92.8143 24.302 92.6423C24.2419 92.6194 24.1912 92.6177 24.18 92.6486C22.8043 92.3357 22.4374 91.762 21.1938 90.9888C20.7065 90.6798 20.0945 90.7635 19.705 91.1785L17.6002 93.4046L14.7507 89.5405L16.8817 87.2892C17.2806 86.8954 17.3427 86.2501 17.039 85.7646C16.2769 84.5587 15.6983 84.1763 15.3394 82.7543C15.1951 82.2063 14.7001 81.824 14.1517 81.8263L11.053 81.8779L11 76.6675L14.0725 76.6412C14.6209 76.6389 15.1062 76.2428 15.2267 75.6726C15.5585 74.0912 16.06 74.7506 16.7591 73.5734C17.0545 73.0874 16.9794 72.4426 16.5764 72.0425L14.3409 69.7998L17.2453 65.734L19.5053 68.0037C19.9083 68.4037 20.5207 68.4611 20.9931 68.1481C22.2023 67.3589 23.4703 66.7858 24.8985 66.4321C25.441 66.3043 25.8283 65.8005 25.8173 65.2153L25.7803 63.0498L30.8538 63L30.8718 65.1231C30.8829 65.7083 31.2674 66.2069 31.8218 66.3302C33.2782 66.6563 33.5455 67.1744 34.7345 67.9092C35.2218 68.2182 35.8338 68.1345 36.2233 67.7195L38.3861 65.4275L41.3881 69.4377L39.2309 71.7142C38.8264 72.1235 38.7699 72.7534 39.0736 73.2388C39.8491 74.5026 40.3992 74.8215 40.7319 76.2687C40.8556 76.8263 41.345 77.2241 41.914 77.2121L44.9564 77.1743L45 82.3634L41.9219 82.4053C41.3735 82.4075 40.8826 82.8191 40.7677 83.3739C40.46 84.8411 39.9323 85.2069 39.1902 86.4558C38.8948 86.9419 38.9699 87.5867 39.3729 87.9867L41.5745 90.1813L38.7225 93.1967L36.5265 90.9866C36.1385 90.5922 35.5111 90.5292 35.0387 90.8421C33.8295 91.6313 32.5615 92.2045 31.1333 92.5581C30.5909 92.6859 30.2035 93.1897 30.2145 93.7749L30.2515 96.9404L25.1574 97L25.0921 93.7709ZM23.7312 73.9382L29.4622 72.798L34.3822 75.9881L35.1782 81.931L30.7959 86.4352L23.1123 85.0507L20.8648 78.7918L23.7312 73.9382Z" fill="#79CCC2"/>
<path d="M99.2302 103.918H5.78555C2.59312 103.918 0 101.32 0 98.1218V5.35755C0 2.40166 2.3972 0 5.3476 0H130.889C133.897 0 136.341 2.44785 136.341 5.46147V67.8932C136.341 68.3666 135.949 68.7591 135.476 68.7591C135.004 68.7591 134.612 68.3666 134.612 67.8932V5.46147C134.612 3.4062 132.941 1.73197 130.889 1.73197H5.3476C3.35377 1.73197 1.72875 3.36002 1.72875 5.35755V98.1333C1.72875 100.373 3.5497 102.198 5.78555 102.198H99.2302C99.7027 102.198 100.095 102.59 100.095 103.064C100.095 103.537 99.7027 103.918 99.2302 103.918Z" fill="#1E243A"/>
<path d="M122.165 14.664H1.15246C0.679936 14.664 0.288086 14.2714 0.288086 13.798C0.288086 13.3246 0.679936 12.932 1.15246 12.932H122.165C122.637 12.932 123.029 13.3246 123.029 13.798C123.029 14.2714 122.637 14.664 122.165 14.664Z" fill="#1E243A"/>
<path d="M24.6061 13.4516C24.1335 13.4516 23.7417 13.059 23.7417 12.5856V1.61647C23.7417 1.14307 24.1335 0.750488 24.6061 0.750488C25.0786 0.750488 25.4704 1.14307 25.4704 1.61647V12.5856C25.4704 13.059 25.0786 13.4516 24.6061 13.4516Z" fill="#1E243A"/>
<path d="M8.21742 10.184C6.47714 10.184 5.05957 8.76381 5.05957 7.0203C5.05957 5.27678 6.47714 3.85657 8.21742 3.85657C9.95769 3.85657 11.3753 5.27678 11.3753 7.0203C11.3753 8.76381 9.95769 10.184 8.21742 10.184ZM8.21742 5.57699C7.42219 5.57699 6.78832 6.22359 6.78832 7.00875C6.78832 7.80546 7.43372 8.44051 8.21742 8.44051C9.00112 8.44051 9.64652 7.79391 9.64652 7.00875C9.64652 6.22359 9.00112 5.57699 8.21742 5.57699Z" fill="#1E243A"/>
<path d="M17.4489 10.184C15.7086 10.184 14.291 8.76381 14.291 7.0203C14.291 5.27678 15.7086 3.85657 17.4489 3.85657C19.1891 3.85657 20.6067 5.27678 20.6067 7.0203C20.6182 8.76381 19.2007 10.184 17.4489 10.184ZM17.4489 5.57699C16.6536 5.57699 16.0198 6.22359 16.0198 7.00875C16.0198 7.80546 16.6652 8.44051 17.4489 8.44051C18.2441 8.44051 18.878 7.79391 18.878 7.00875C18.8895 6.22359 18.2441 5.57699 17.4489 5.57699Z" fill="#1E243A"/>
<path d="M101.42 5.88871H29.8497C29.3772 5.88871 28.9854 5.49613 28.9854 5.02272C28.9854 4.54932 29.3772 4.15674 29.8497 4.15674H101.42C101.892 4.15674 102.284 4.54932 102.284 5.02272C102.284 5.49613 101.892 5.88871 101.42 5.88871Z" fill="#1E243A"/>
<path d="M68.3432 10.3919H29.8497C29.3772 10.3919 28.9854 9.9993 28.9854 9.5259C28.9854 9.05249 29.3772 8.65991 29.8497 8.65991H68.3432C68.8157 8.65991 69.2076 9.05249 69.2076 9.5259C69.2076 9.9993 68.8157 10.3919 68.3432 10.3919Z" fill="#1E243A"/>
<path d="M135.534 14.664H131.154C130.682 14.664 130.29 14.2714 130.29 13.798C130.29 13.3246 130.682 12.932 131.154 12.932H135.534C136.006 12.932 136.398 13.3246 136.398 13.798C136.398 14.2714 136.006 14.664 135.534 14.664Z" fill="#1E243A"/>
<path d="M27.9827 87.2911C26.035 87.2911 24.0873 86.5522 22.6121 85.0627C19.6501 82.0952 19.6501 77.2688 22.6121 74.3014C25.574 71.3339 30.3914 71.3339 33.3534 74.3014C34.7825 75.7331 35.5777 77.6499 35.5777 79.682C35.5777 81.7142 34.7825 83.6309 33.3534 85.0627C31.8666 86.5522 29.9304 87.2911 27.9827 87.2911ZM23.8337 75.5253C21.5518 77.8115 21.5518 81.541 23.8337 83.8388C26.1157 86.125 29.8382 86.125 32.1317 83.8388C34.4137 81.5526 34.4137 77.8231 32.1317 75.5253C29.8382 73.2391 26.1157 73.2391 23.8337 75.5253Z" fill="#1E243A"/>
<path d="M29.8265 97.4751H26.127C25.0321 97.4751 24.1331 96.586 24.1331 95.4776V92.9374C24.1331 92.8219 24.0525 92.718 23.9372 92.6833C23.1074 92.464 22.3007 92.1638 21.5285 91.7943C21.4248 91.7481 21.298 91.7596 21.2288 91.8405L19.4886 93.584C19.1082 93.965 18.6127 94.1728 18.0825 94.1728C17.5524 94.1728 17.0453 93.965 16.6765 93.584L14.0833 90.986C13.703 90.605 13.4956 90.1085 13.4956 89.5773C13.4956 89.0462 13.703 88.5382 14.0833 88.1687L15.5816 86.6676C15.6623 86.5868 15.6853 86.4483 15.6162 86.3443C15.1206 85.5014 14.7172 84.6239 14.4176 83.7117C14.383 83.6078 14.2793 83.527 14.164 83.527H12.2048C11.6746 83.527 11.179 83.3192 10.7987 82.9497C10.4184 82.5687 10.2109 82.0722 10.2109 81.541V77.8577C10.2109 77.3266 10.4184 76.8185 10.7987 76.449C11.179 76.068 11.6746 75.8717 12.2048 75.8717H13.9105C14.0257 75.8717 14.1294 75.7909 14.164 75.6639C14.4291 74.6824 14.8209 73.7125 15.305 72.7888C15.3626 72.6849 15.3396 72.5579 15.2589 72.477L14.0718 71.2878C13.2996 70.5142 13.2996 69.244 14.0718 68.4704L16.7341 65.8032C17.5063 65.0296 18.774 65.0296 19.5462 65.8032L20.7333 66.9925C20.8139 67.0733 20.9407 67.0964 21.0444 67.0387C21.9664 66.5422 22.9461 66.1496 23.9487 65.884C24.064 65.8494 24.1447 65.7455 24.1447 65.63V63.9211C24.1447 63.39 24.3521 62.8819 24.7209 62.5125C25.1012 62.1314 25.5968 61.9236 26.127 61.9236H29.8149C30.3451 61.9236 30.8522 62.1314 31.221 62.5125C31.6013 62.8935 31.8088 63.39 31.8088 63.9211V65.884C31.8088 65.9995 31.8779 66.0919 31.9932 66.138C32.8921 66.4498 33.7795 66.8539 34.6093 67.3389C34.7131 67.3966 34.8514 67.3851 34.932 67.3042L36.4072 65.8263C37.1794 65.0527 38.4472 65.0527 39.2193 65.8263L41.8125 68.4242C42.1928 68.8053 42.4002 69.3018 42.4002 69.8329C42.4002 70.364 42.1928 70.8721 41.8125 71.2416L40.0837 72.9735C40.003 73.0544 39.9915 73.1698 40.0376 73.2737C40.4064 74.0358 40.7061 74.8441 40.925 75.687C40.9596 75.8024 41.0633 75.8833 41.1786 75.8833H43.7256C44.2558 75.8833 44.7513 76.0911 45.1317 76.4721C45.512 76.8532 45.7194 77.3497 45.7194 77.8808V81.5757C45.7194 82.1068 45.512 82.6148 45.1317 82.9843C44.7513 83.3654 44.2558 83.5732 43.7256 83.5732H40.9366C40.8213 83.5732 40.7291 83.6425 40.683 83.7579C40.441 84.4854 40.1413 85.2012 39.7841 85.8709C39.7264 85.9749 39.7495 86.1019 39.8302 86.1827L41.8009 88.1571C42.5731 88.9307 42.5731 90.2009 41.8009 90.9745L39.1387 93.6417C38.7583 94.0227 38.2628 94.2306 37.7326 94.2306C37.2025 94.2306 36.6954 94.0227 36.3266 93.6417L34.3558 91.6673C34.2751 91.5864 34.1483 91.5633 34.0446 91.6211C33.3877 91.9675 32.6847 92.2677 31.9586 92.5101C31.8549 92.5448 31.7742 92.6487 31.7742 92.7642V95.5238C31.7742 96.0549 31.5667 96.563 31.1864 96.9324C30.8522 97.2673 30.3566 97.4751 29.8265 97.4751ZM21.4248 90.0392C21.7244 90.0392 22.0241 90.1085 22.3007 90.2355C22.9691 90.5588 23.6721 90.8244 24.3982 91.0207C25.2626 91.2516 25.8734 92.0483 25.8734 92.9489V95.4891C25.8734 95.6392 25.9887 95.7547 26.1385 95.7547H29.8265C29.9187 95.7547 29.9763 95.7085 30.0109 95.6739C30.0454 95.6392 30.0915 95.5815 30.0915 95.4891V92.7295C30.0915 91.8635 30.6447 91.1015 31.463 90.8359C32.0969 90.6281 32.7077 90.3625 33.284 90.0623C34.0677 89.6466 35.0012 89.7852 35.6351 90.4087L37.6058 92.3831C37.675 92.4524 37.7441 92.464 37.7902 92.464C37.8363 92.464 37.917 92.4524 37.9746 92.3831L40.6369 89.7159C40.6945 89.6582 40.7176 89.5774 40.7176 89.5312C40.7176 89.485 40.7061 89.4042 40.6369 89.3464L38.6661 87.372C38.0438 86.7485 37.9055 85.8017 38.3204 85.028C38.6316 84.4507 38.8966 83.8272 39.1041 83.1806C39.3692 82.3608 40.1298 81.8066 40.9942 81.8066H43.7832C43.8754 81.8066 43.9331 81.7604 43.9676 81.7258C44.0022 81.6911 44.0483 81.6334 44.0483 81.541V77.8461C44.0483 77.7538 44.0022 77.696 43.9676 77.6614C43.9331 77.6268 43.8754 77.5806 43.7832 77.5806H41.2362C40.3373 77.5806 39.542 76.9686 39.3115 76.0911C39.1156 75.3637 38.8621 74.6593 38.5394 73.9896C38.1706 73.2276 38.3204 72.3038 38.9197 71.7034L40.6484 69.9715C40.7061 69.9137 40.7291 69.8329 40.7291 69.7867C40.7291 69.7405 40.7176 69.6597 40.6484 69.602L38.0553 67.004C37.9516 66.9001 37.7902 66.9001 37.6865 67.004L36.2113 68.482C35.5659 69.1286 34.5748 69.244 33.7911 68.7822C33.0535 68.355 32.2813 67.997 31.4976 67.7199C30.6908 67.4428 30.1376 66.6807 30.1492 65.8263V63.8634C30.1492 63.771 30.1031 63.7133 30.0685 63.6786C30.0339 63.644 29.9763 63.5978 29.8841 63.5978H26.1961C26.1039 63.5978 26.0463 63.644 26.0117 63.6786C25.9771 63.7133 25.931 63.771 25.931 63.8634V65.5723C25.931 66.4729 25.3317 67.258 24.4558 67.5005C23.5684 67.743 22.7156 68.0778 21.9088 68.5166C21.1251 68.9323 20.1916 68.7937 19.5577 68.1702L18.3706 66.9809C18.2669 66.877 18.1056 66.877 18.0018 66.9809L15.3396 69.6482C15.2358 69.7521 15.2358 69.9137 15.3396 70.0177L16.5266 71.2069C17.149 71.8304 17.2873 72.7657 16.8839 73.5509C16.4575 74.3591 16.1117 75.2366 15.8812 76.0911C15.6392 76.9571 14.844 77.569 13.9566 77.569H12.2509C12.1587 77.569 12.101 77.6152 12.0665 77.6499C12.0319 77.6845 11.9858 77.7422 11.9858 77.8346V81.5179C11.9858 81.6103 12.0319 81.668 12.0665 81.7027C12.101 81.7373 12.1587 81.7835 12.2509 81.7835H14.2101C15.063 81.7835 15.8236 82.3262 16.1002 83.146C16.3653 83.9427 16.7226 84.7163 17.149 85.4553C17.61 86.2404 17.4832 87.245 16.8493 87.88L15.3511 89.3811C15.2935 89.4388 15.2704 89.5196 15.2704 89.5658C15.2704 89.612 15.2819 89.6928 15.3511 89.7505L17.9442 92.3485C18.0134 92.4178 18.0825 92.4293 18.1286 92.4293C18.1747 92.4293 18.2554 92.4178 18.313 92.3485L20.0533 90.605C20.3875 90.2355 20.9061 90.0392 21.4248 90.0392Z" fill="#1E243A"/>
<path d="M52.0928 26.2105H13.0231C12.5505 26.2105 12.1587 25.8179 12.1587 25.3445C12.1587 24.8711 12.5505 24.4785 13.0231 24.4785H52.0928C52.5653 24.4785 52.9572 24.8711 52.9572 25.3445C52.9572 25.8179 52.5653 26.2105 52.0928 26.2105Z" fill="#1E243A"/>
<path d="M44.7172 35.4477H28.006C27.5335 35.4477 27.1416 35.0551 27.1416 34.5817C27.1416 34.1083 27.5335 33.7157 28.006 33.7157H44.7172C45.1897 33.7157 45.5816 34.1083 45.5816 34.5817C45.5816 35.0551 45.1897 35.4477 44.7172 35.4477Z" fill="#1E243A"/>
<path d="M73.7598 93.8727H59.6993C59.2268 93.8727 58.835 93.4801 58.835 93.0067C58.835 92.5333 59.2268 92.1407 59.6993 92.1407H73.7598C74.2323 92.1407 74.6242 92.5333 74.6242 93.0067C74.6242 93.4801 74.2323 93.8727 73.7598 93.8727Z" fill="#1E243A"/>
<path d="M84.5936 81.6335H68.8043C68.3318 81.6335 67.9399 81.2409 67.9399 80.7675C67.9399 80.2941 68.3318 79.9015 68.8043 79.9015H84.5936C85.0661 79.9015 85.4579 80.2941 85.4579 80.7675C85.4579 81.2409 85.0661 81.6335 84.5936 81.6335Z" fill="#1E243A"/>
<path d="M59.8149 65.122H50.0187C49.5461 65.122 49.1543 64.7294 49.1543 64.256C49.1543 63.7826 49.5461 63.39 50.0187 63.39H59.8149C60.2874 63.39 60.6793 63.7826 60.6793 64.256C60.6793 64.7294 60.2874 65.122 59.8149 65.122Z" fill="#1E243A"/>
<path d="M139.821 150C134.255 150 128.861 148.915 123.79 146.755C118.88 144.677 114.478 141.71 110.698 137.922C106.918 134.135 103.944 129.724 101.881 124.806C99.7374 119.714 98.6426 114.31 98.6426 108.744C98.6426 103.168 99.7259 97.7638 101.881 92.6834C103.956 87.7646 106.918 83.3538 110.698 79.5666C114.478 75.7794 118.88 72.8004 123.79 70.7336C128.873 68.5859 134.266 67.489 139.821 67.489C145.388 67.489 150.782 68.5744 155.853 70.7336C160.762 72.8119 165.165 75.7794 168.945 79.5666C172.725 83.3538 175.699 87.7646 177.762 92.6834C179.905 97.7754 181 103.179 181 108.744C181 114.321 179.917 119.725 177.762 124.806C175.687 129.724 172.725 134.135 168.945 137.922C165.165 141.71 160.762 144.689 155.853 146.755C150.782 148.903 145.376 150 139.821 150ZM139.821 69.094C118.005 69.094 100.256 86.8755 100.256 108.733C100.256 130.59 118.005 148.372 139.821 148.372C161.638 148.372 179.387 130.59 179.387 108.733C179.387 86.8755 161.638 69.094 139.821 69.094Z" fill="#1E243A"/>
<path d="M139.821 138.684C131.834 138.684 124.32 135.567 118.684 129.921C113.037 124.263 109.937 116.746 109.937 108.745C109.937 100.743 113.049 93.2145 118.684 87.5683C124.332 81.9106 131.834 78.8046 139.821 78.8046C147.808 78.8046 155.322 81.9221 160.958 87.5683C166.605 93.2261 169.706 100.743 169.706 108.745C169.706 116.746 166.594 124.275 160.958 129.921C155.311 135.567 147.808 138.684 139.821 138.684ZM139.821 80.4095C124.228 80.4095 111.551 93.1222 111.551 108.733C111.551 124.355 124.24 137.056 139.821 137.056C155.415 137.056 168.092 124.344 168.092 108.733C168.092 93.1222 155.403 80.4095 139.821 80.4095Z" fill="#1E243A"/>
<path d="M139.821 127.034C134.946 127.034 130.359 125.129 126.914 121.677C123.468 118.224 121.566 113.629 121.566 108.745C121.566 103.86 123.468 99.2649 126.914 95.8125C130.359 92.3601 134.946 90.455 139.821 90.455C144.697 90.455 149.284 92.3601 152.729 95.8125C156.175 99.2649 158.077 103.86 158.077 108.745C158.077 113.629 156.175 118.224 152.729 121.677C149.284 125.129 144.697 127.034 139.821 127.034ZM139.821 92.0599C130.648 92.0599 123.179 99.542 123.179 108.733C123.179 117.924 130.648 125.406 139.821 125.406C148.995 125.406 156.464 117.924 156.464 108.733C156.464 99.542 148.995 92.0599 139.821 92.0599Z" fill="#1E243A"/>
<path d="M139.821 115.372C136.168 115.372 133.194 112.393 133.194 108.733C133.194 105.073 136.168 102.094 139.821 102.094C143.475 102.094 146.448 105.073 146.448 108.733C146.437 112.393 143.475 115.372 139.821 115.372ZM139.821 103.722C137.055 103.722 134.808 105.973 134.808 108.745C134.808 111.516 137.055 113.767 139.821 113.767C142.587 113.767 144.835 111.516 144.835 108.745C144.823 105.973 142.576 103.722 139.821 103.722Z" fill="#1E243A"/>
<path d="M140.075 109.726C139.867 109.726 139.66 109.645 139.51 109.495L95.8994 65.7918C95.5882 65.48 95.5882 64.972 95.8994 64.6602C96.2106 64.3485 96.7177 64.3485 97.0289 64.6602L140.639 108.352C140.951 108.664 140.951 109.172 140.639 109.484C140.49 109.645 140.282 109.726 140.075 109.726Z" fill="#1E243A"/>
<path d="M104.336 73.9204C104.301 73.9204 104.267 73.9204 104.232 73.9089L86.4951 71.7382C86.1494 71.692 85.6653 71.565 85.285 71.1955L78.2778 64.1637C77.9666 63.8519 77.9666 63.3323 78.2778 63.0206C78.589 62.7088 79.1076 62.7088 79.4188 63.0206L86.426 70.0524C86.4375 70.0639 86.5182 70.1217 86.6911 70.1332L102.111 72.0268L74.5207 44.3962C74.1519 44.0267 73.6563 43.7842 73.1146 43.7149L59.5382 42.0638C59.2616 42.0291 59.1463 42.237 59.1118 42.2947C59.0657 42.3871 59.0196 42.5718 59.1809 42.7335L72.2272 55.7694H76.6413C77.0907 55.7694 77.448 56.1274 77.448 56.5777C77.448 57.028 77.0907 57.3859 76.6413 57.3859H71.893C71.674 57.3859 71.4781 57.3051 71.3282 57.155L58.0399 43.8766C57.4291 43.2646 57.2793 42.364 57.6596 41.5904C58.0514 40.7937 58.8582 40.3549 59.7341 40.4588L73.3105 42.11C74.198 42.2254 75.0393 42.6296 75.6616 43.2531L104.901 72.5464C105.143 72.7889 105.212 73.1584 105.05 73.4701C104.924 73.7472 104.647 73.9204 104.336 73.9204Z" fill="#1E243A"/>
<path d="M104.244 74.0128C104.036 74.0128 103.829 73.932 103.679 73.7819L74.4401 44.477C73.8177 43.8535 73.4028 43.0221 73.2991 42.133L71.6165 28.5544C71.5127 27.6884 71.9392 26.8917 72.7229 26.5107C73.5066 26.1297 74.4055 26.2798 75.0163 26.8917L81.2744 33.1615C81.5856 33.4732 81.5856 33.9813 81.2744 34.293C80.9632 34.6048 80.4561 34.6048 80.145 34.293L73.8869 28.0233C73.7025 27.8385 73.5066 27.9078 73.4259 27.9425C73.3452 27.9771 73.1723 28.0926 73.2069 28.3466L74.8896 41.9252C74.9587 42.4564 75.2007 42.9528 75.5695 43.3339L103.16 70.9761L101.247 55.5616C101.236 55.4692 101.201 55.3884 101.132 55.3307L86.8871 41.0592V45.7125C86.8871 46.1512 86.5298 46.5207 86.0803 46.5207C85.6424 46.5207 85.2736 46.1628 85.2736 45.7125V39.1194C85.2736 38.7961 85.4695 38.5075 85.7691 38.3805C86.0688 38.2534 86.4145 38.3227 86.645 38.5536L102.273 54.2106C102.584 54.5224 102.792 54.9381 102.849 55.3768L105.05 73.1122C105.097 73.447 104.912 73.7819 104.613 73.932C104.486 73.9782 104.37 74.0128 104.244 74.0128Z" fill="#1E243A"/>
<path d="M27.1412 112.636C26.6687 112.636 26.2769 112.243 26.2769 111.77V110.269C26.2769 109.795 26.6687 109.403 27.1412 109.403C27.6138 109.403 28.0056 109.795 28.0056 110.269V111.77C28.0056 112.243 27.6138 112.636 27.1412 112.636Z" fill="#1E243A"/>
<path d="M27.1412 128.223C26.6687 128.223 26.2769 127.831 26.2769 127.357V124.586C26.2769 124.113 26.6687 123.72 27.1412 123.72C27.6138 123.72 28.0056 124.113 28.0056 124.586V127.357C28.0056 127.831 27.6138 128.223 27.1412 128.223ZM27.1412 120.372C26.6687 120.372 26.2769 119.979 26.2769 119.506V116.735C26.2769 116.261 26.6687 115.869 27.1412 115.869C27.6138 115.869 28.0056 116.261 28.0056 116.735V119.506C28.0056 119.979 27.6138 120.372 27.1412 120.372Z" fill="#1E243A"/>
<path d="M28.5819 134.747H27.1412C26.6687 134.747 26.2769 134.355 26.2769 133.881V132.438C26.2769 131.964 26.6687 131.572 27.1412 131.572C27.6138 131.572 28.0056 131.964 28.0056 132.438V133.015H28.5819C29.0544 133.015 29.4462 133.408 29.4462 133.881C29.4462 134.355 29.0544 134.747 28.5819 134.747Z" fill="#1E243A"/>
<path d="M90.3559 134.747H87.5899C87.1174 134.747 86.7256 134.355 86.7256 133.881C86.7256 133.408 87.1174 133.015 87.5899 133.015H90.3559C90.8284 133.015 91.2203 133.408 91.2203 133.881C91.2203 134.355 90.8284 134.747 90.3559 134.747ZM82.6342 134.747H79.8682C79.3957 134.747 79.0038 134.355 79.0038 133.881C79.0038 133.408 79.3957 133.015 79.8682 133.015H82.6342C83.1067 133.015 83.4986 133.408 83.4986 133.881C83.4986 134.355 83.1067 134.747 82.6342 134.747ZM74.9124 134.747H72.1464C71.6739 134.747 71.2821 134.355 71.2821 133.881C71.2821 133.408 71.6739 133.015 72.1464 133.015H74.9124C75.385 133.015 75.7768 133.408 75.7768 133.881C75.7768 134.355 75.385 134.747 74.9124 134.747ZM67.1907 134.747H64.4247C63.9522 134.747 63.5603 134.355 63.5603 133.881C63.5603 133.408 63.9522 133.015 64.4247 133.015H67.1907C67.6632 133.015 68.0551 133.408 68.0551 133.881C68.0551 134.355 67.6632 134.747 67.1907 134.747ZM59.4689 134.747H56.7029C56.2304 134.747 55.8386 134.355 55.8386 133.881C55.8386 133.408 56.2304 133.015 56.7029 133.015H59.4689C59.9415 133.015 60.3333 133.408 60.3333 133.881C60.3333 134.355 59.9415 134.747 59.4689 134.747ZM51.7472 134.747H48.9812C48.5087 134.747 48.1168 134.355 48.1168 133.881C48.1168 133.408 48.5087 133.015 48.9812 133.015H51.7472C52.2197 133.015 52.6116 133.408 52.6116 133.881C52.6116 134.355 52.2197 134.747 51.7472 134.747ZM44.0255 134.747H41.2595C40.7869 134.747 40.3951 134.355 40.3951 133.881C40.3951 133.408 40.7869 133.015 41.2595 133.015H44.0255C44.498 133.015 44.8898 133.408 44.8898 133.881C44.8898 134.355 44.498 134.747 44.0255 134.747ZM36.3037 134.747H33.5377C33.0652 134.747 32.6733 134.355 32.6733 133.881C32.6733 133.408 33.0652 133.015 33.5377 133.015H36.3037C36.7762 133.015 37.1681 133.408 37.1681 133.881C37.1681 134.355 36.7762 134.747 36.3037 134.747Z" fill="#1E243A"/>
<path d="M96.6947 134.747H95.1964C94.7239 134.747 94.332 134.355 94.332 133.881C94.332 133.408 94.7239 133.015 95.1964 133.015H96.6947C97.1672 133.015 97.559 133.408 97.559 133.881C97.559 134.355 97.1672 134.747 96.6947 134.747Z" fill="#1E243A"/>
<path d="M159.068 34.9858C158.492 34.7202 158.238 34.0274 158.515 33.4501C158.78 32.8728 159.471 32.6187 160.047 32.8959C160.624 33.1614 160.877 33.8542 160.601 34.4315C160.405 34.8472 159.99 35.1012 159.552 35.1012C159.39 35.1012 159.218 35.0666 159.068 34.9858ZM162.422 34.4084C162.133 33.8427 162.364 33.1499 162.929 32.8612C163.493 32.5726 164.185 32.8035 164.473 33.3693C164.761 33.935 164.531 34.6394 163.966 34.9165C163.805 34.9973 163.62 35.0435 163.447 35.0435C163.032 35.0435 162.617 34.801 162.422 34.4084ZM155.968 31.1754C155.818 30.5519 156.21 29.9284 156.82 29.7899C157.443 29.6398 158.065 30.0323 158.203 30.6443C158.353 31.2678 157.961 31.8913 157.351 32.0299C157.258 32.053 157.166 32.0645 157.085 32.0645C156.567 32.0645 156.094 31.7066 155.968 31.1754ZM165.591 31.9144C164.969 31.7874 164.565 31.1754 164.692 30.5519C164.819 29.9284 165.43 29.5243 166.052 29.6513C166.674 29.7783 167.078 30.3903 166.951 31.0138C166.836 31.5565 166.363 31.9375 165.821 31.9375C165.741 31.9375 165.672 31.9375 165.591 31.9144ZM157.224 28.0117C156.728 27.6191 156.636 26.8917 157.039 26.3952C157.431 25.8987 158.157 25.8063 158.664 26.2105C159.16 26.603 159.252 27.3305 158.849 27.827C158.618 28.1156 158.284 28.2657 157.95 28.2657C157.685 28.2542 157.431 28.1734 157.224 28.0117ZM163.989 27.7461C163.574 27.2612 163.643 26.5338 164.127 26.1181C164.611 25.7024 165.337 25.7717 165.752 26.2566C166.156 26.7416 166.098 27.469 165.614 27.8847C165.395 28.0694 165.141 28.1503 164.876 28.1503C164.542 28.1503 164.208 28.0117 163.989 27.7461ZM160.289 25.4022C160.289 24.7671 160.808 24.2476 161.442 24.2476C162.076 24.2476 162.594 24.7671 162.594 25.4022C162.594 26.0373 162.076 26.5568 161.442 26.5568C160.808 26.5568 160.289 26.0373 160.289 25.4022Z" fill="#1E243A"/>
<path d="M5.72792 145.278C5.15167 145.012 4.89812 144.319 5.17472 143.742C5.43979 143.165 6.13129 142.91 6.70754 143.188C7.28379 143.453 7.53734 144.146 7.26074 144.723C7.06482 145.139 6.64992 145.393 6.21197 145.393C6.05062 145.393 5.87774 145.358 5.72792 145.278ZM9.08169 144.7C8.79357 144.134 9.02407 143.442 9.58879 143.153C10.1535 142.864 10.8565 143.095 11.1331 143.661C11.4213 144.227 11.1908 144.92 10.626 145.208C10.4647 145.289 10.2803 145.335 10.1074 145.335C9.69251 145.335 9.27762 145.104 9.08169 144.7ZM2.62769 141.467C2.47787 140.844 2.86972 140.22 3.48054 140.082C4.10289 139.932 4.72524 140.324 4.86354 140.936C5.01337 141.56 4.62152 142.183 4.01069 142.322C3.91849 142.345 3.82629 142.356 3.74562 142.356C3.22699 142.356 2.75447 141.998 2.62769 141.467ZM12.2511 142.206C11.6287 142.079 11.2253 141.467 11.3521 140.844C11.4789 140.22 12.0897 139.816 12.7121 139.943C13.3344 140.07 13.7378 140.682 13.611 141.306C13.4958 141.848 13.0232 142.229 12.4816 142.229C12.4009 142.229 12.3317 142.229 12.2511 142.206ZM3.88392 138.303C3.38834 137.911 3.29614 137.183 3.69952 136.687C4.09137 136.19 4.81744 136.098 5.32454 136.502C5.82012 136.895 5.91232 137.622 5.50894 138.119C5.27844 138.407 4.94422 138.557 4.60999 138.557C4.34492 138.546 4.09137 138.465 3.88392 138.303ZM10.6491 138.038C10.2342 137.553 10.3033 136.826 10.7874 136.41C11.2714 135.994 11.9975 136.063 12.4124 136.548C12.8158 137.033 12.7582 137.761 12.2741 138.176C12.0551 138.361 11.8016 138.442 11.5365 138.442C11.2023 138.454 10.8681 138.303 10.6491 138.038ZM6.94957 135.694C6.94957 135.059 7.46819 134.539 8.10207 134.539C8.73594 134.539 9.25457 135.059 9.25457 135.694C9.25457 136.329 8.73594 136.849 8.10207 136.849C7.46819 136.849 6.94957 136.329 6.94957 135.694Z" fill="#1E243A"/>
<path d="M170.973 66.5654C170.501 66.5654 170.109 66.1728 170.109 65.6994V59.8107C170.109 59.3373 170.501 58.9447 170.973 58.9447C171.446 58.9447 171.838 59.3373 171.838 59.8107V65.6994C171.838 66.1728 171.446 66.5654 170.973 66.5654Z" fill="#1E243A"/>
<path d="M173.912 63.621H168.034C167.562 63.621 167.17 63.2284 167.17 62.755C167.17 62.2816 167.562 61.889 168.034 61.889H173.912C174.385 61.889 174.776 62.2816 174.776 62.755C174.776 63.2284 174.385 63.621 173.912 63.621Z" fill="#1E243A"/>
<path d="M56.5304 123.836C56.0579 123.836 55.666 123.443 55.666 122.97V117.081C55.666 116.608 56.0579 116.215 56.5304 116.215C57.0029 116.215 57.3948 116.608 57.3948 117.081V122.97C57.3948 123.443 57.0029 123.836 56.5304 123.836Z" fill="#1E243A"/>
<path d="M59.4692 120.891H53.5914C53.1189 120.891 52.7271 120.499 52.7271 120.025C52.7271 119.552 53.1189 119.159 53.5914 119.159H59.4692C59.9417 119.159 60.3335 119.552 60.3335 120.025C60.3335 120.499 59.9417 120.891 59.4692 120.891Z" fill="#1E243A"/>
</g>
<defs>
<clipPath id="clip0_4_9921">
<rect width="181" height="150" fill="white"/>
</clipPath>
</defs>
</svg>
