<svg width="183" height="152" viewBox="0 0 183 152" fill="none" xmlns="http://www.w3.org/2000/svg">
<g clip-path="url(#clip0_4_9685)">
<path d="M78.2874 145.645C78.0989 144.953 78.5112 144.25 79.1945 144.062C79.8896 143.875 80.5965 144.285 80.785 144.965C80.9735 145.657 80.5612 146.36 79.8779 146.548C79.76 146.583 79.654 146.595 79.5362 146.595C78.9589 146.595 78.4405 146.22 78.2874 145.645ZM74.8354 146.091C74.1875 145.786 73.9165 145.012 74.2228 144.367C74.5291 143.722 75.3067 143.453 75.9547 143.757C76.6026 144.062 76.8736 144.836 76.5673 145.481C76.3434 145.95 75.884 146.208 75.4009 146.208C75.2124 146.22 75.0239 146.173 74.8354 146.091ZM82.187 143.969C81.5979 143.57 81.433 142.773 81.8336 142.175C82.2341 141.588 83.0353 141.424 83.6361 141.823C84.2252 142.222 84.3901 143.019 83.9896 143.617C83.7421 143.98 83.3298 144.18 82.9174 144.18C82.6583 144.191 82.4108 144.121 82.187 143.969ZM71.3246 142.468C71.0418 141.811 71.3364 141.049 71.9961 140.768C72.6559 140.486 73.4099 140.779 73.7044 141.436C73.9872 142.093 73.6926 142.843 73.0329 143.136C72.8679 143.206 72.6912 143.242 72.5145 143.242C72.0197 143.242 71.5484 142.96 71.3246 142.468ZM82.5993 139.032C82.5169 138.329 83.0235 137.684 83.7304 137.602C84.4372 137.52 85.0852 138.024 85.1677 138.728C85.2502 139.431 84.7436 140.076 84.0367 140.158C83.9896 140.17 83.9306 140.17 83.8835 140.17C83.2473 140.181 82.6818 139.689 82.5993 139.032ZM71.9019 139.068C71.2185 138.856 70.8298 138.13 71.0418 137.45C71.2539 136.769 71.9726 136.383 72.6677 136.594C73.351 136.805 73.7398 137.532 73.5277 138.212C73.351 138.763 72.8444 139.126 72.2907 139.126C72.1611 139.114 72.0315 139.103 71.9019 139.068ZM81.1149 136.16C80.5847 135.679 80.5494 134.858 81.0324 134.342C81.5155 133.815 82.3402 133.78 82.8585 134.26C83.3887 134.741 83.424 135.562 82.941 136.078C82.6818 136.359 82.3402 136.5 81.9867 136.5C81.6804 136.5 81.3741 136.383 81.1149 136.16ZM73.7162 135.245C73.3392 134.647 73.5159 133.85 74.1285 133.463C74.7294 133.088 75.5305 133.264 75.9193 133.873C76.2963 134.471 76.1196 135.269 75.507 135.656C75.2949 135.785 75.0593 135.855 74.8236 135.855C74.3877 135.843 73.9636 135.632 73.7162 135.245ZM78.6879 134.999C77.9811 134.894 77.498 134.237 77.6041 133.533C77.7101 132.83 78.3698 132.349 79.0767 132.455C79.7836 132.56 80.2666 133.217 80.1606 133.92C80.0664 134.554 79.5126 135.011 78.8764 135.011C78.8175 135.011 78.7586 135.011 78.6879 134.999Z" fill="#2E2B28"/>
<path d="M8.37666 72.2833C8.18816 71.5915 8.60051 70.888 9.28383 70.7004C9.97893 70.5128 10.6858 70.9232 10.8743 71.6032C11.0628 72.295 10.6505 72.9985 9.96715 73.1861C9.84933 73.2213 9.7433 73.233 9.62549 73.233C9.05998 73.233 8.52982 72.8578 8.37666 72.2833ZM4.9365 72.7288C4.28853 72.424 4.01756 71.6501 4.32387 71.0053C4.63019 70.3604 5.40776 70.0907 6.05573 70.3956C6.70371 70.7004 6.97468 71.4743 6.66837 72.1191C6.44452 72.5764 5.98505 72.8461 5.50201 72.8461C5.30173 72.8578 5.11322 72.8109 4.9365 72.7288ZM12.2763 70.6066C11.6872 70.208 11.5223 69.4107 11.9229 68.8127C12.3234 68.2265 13.1246 68.0624 13.7254 68.4727C14.3145 68.8714 14.4676 69.6686 14.0671 70.2666C13.8197 70.6301 13.4073 70.8294 12.995 70.8294C12.7593 70.8294 12.5001 70.7591 12.2763 70.6066ZM1.42566 69.1059C1.1429 68.4493 1.43744 67.6989 2.09719 67.4058C2.75695 67.1244 3.51096 67.4175 3.80549 68.0741C4.08825 68.7307 3.79371 69.481 3.13396 69.7742C2.96902 69.8445 2.7923 69.8797 2.61558 69.8797C2.10898 69.8797 1.63772 69.5866 1.42566 69.1059ZM12.7004 65.6705C12.618 64.967 13.1246 64.3222 13.8314 64.2401C14.5383 64.158 15.1863 64.6622 15.2688 65.3657C15.3512 66.0691 14.8446 66.714 14.1378 66.7961C14.0906 66.7961 14.0317 66.8078 13.9846 66.8078C13.3366 66.8078 12.7711 66.3271 12.7004 65.6705ZM2.00294 65.6939C1.31962 65.4829 0.930839 64.756 1.1429 64.0759C1.35497 63.3959 2.07363 63.009 2.76873 63.22C3.45205 63.4311 3.84084 64.158 3.62877 64.838C3.45205 65.3891 2.94545 65.7526 2.39173 65.7526C2.25035 65.7526 2.12076 65.7408 2.00294 65.6939ZM11.216 62.7979C10.6858 62.3172 10.6505 61.4965 11.1335 60.9806C11.6165 60.453 12.4412 60.4178 12.9596 60.8985C13.4898 61.3792 13.5251 62.2 13.0421 62.7159C12.7829 62.9973 12.4412 63.1379 12.0878 63.1379C11.7815 63.1379 11.4634 63.0207 11.216 62.7979ZM3.81727 61.8717C3.44027 61.2737 3.61699 60.4764 4.22962 60.0895C4.83047 59.7143 5.63161 59.8902 6.02039 60.4999C6.39739 61.0978 6.22067 61.8951 5.60804 62.282C5.39598 62.411 5.16035 62.4814 4.92472 62.4814C4.48881 62.4814 4.06468 62.2703 3.81727 61.8717ZM8.77723 61.6372C8.07035 61.5317 7.58731 60.8633 7.69335 60.1598C7.79938 59.4564 8.45913 58.9756 9.16602 59.0812C9.8729 59.1867 10.3559 59.8433 10.2499 60.5585C10.1557 61.1916 9.60193 61.6489 8.96573 61.6489C8.91861 61.6489 8.84792 61.6489 8.77723 61.6372Z" fill="#2E2B28"/>
<path d="M102.392 18.4899C102.203 17.7982 102.616 17.0947 103.299 16.9071C103.994 16.7195 104.701 17.1299 104.889 17.8099C105.078 18.5017 104.666 19.2051 103.982 19.3927C103.864 19.4279 103.758 19.4396 103.641 19.4396C103.075 19.4396 102.545 19.0645 102.392 18.4899ZM98.9516 18.9355C98.3037 18.6306 98.0327 17.8568 98.339 17.2119C98.6453 16.5671 99.4229 16.2974 100.071 16.6022C100.719 16.9071 100.99 17.6809 100.683 18.3258C100.46 18.7948 100 19.0527 99.5171 19.0527C99.3169 19.0645 99.1284 19.0293 98.9516 18.9355ZM106.291 16.8133C105.702 16.4147 105.537 15.6174 105.938 15.0194C106.339 14.4332 107.14 14.269 107.741 14.6794C108.33 15.078 108.483 15.8753 108.082 16.4733C107.835 16.8367 107.422 17.0361 107.01 17.0361C106.774 17.0361 106.515 16.9657 106.291 16.8133ZM95.4408 15.3242C95.158 14.6677 95.4526 13.9173 96.1123 13.6242C96.7721 13.3428 97.5261 13.6359 97.8206 14.2925C98.1034 14.9491 97.8088 15.6994 97.1491 15.9926C96.9841 16.0629 96.8074 16.0981 96.6307 16.0981C96.1241 16.0981 95.6529 15.805 95.4408 15.3242ZM106.716 11.8889C106.633 11.1854 107.14 10.5405 107.847 10.4585C108.553 10.3764 109.201 10.8806 109.284 11.584C109.366 12.2875 108.86 12.9324 108.153 13.0145C108.106 13.0145 108.047 13.0262 108 13.0262C107.352 13.0262 106.786 12.5455 106.716 11.8889ZM96.0181 11.9123C95.3348 11.7013 94.946 10.9744 95.158 10.2943C95.3701 9.61428 96.0888 9.22736 96.7839 9.43841C97.4672 9.64945 97.856 10.3764 97.6439 11.0564C97.4672 11.6075 96.9606 11.971 96.4069 11.971C96.2655 11.971 96.1359 11.9475 96.0181 11.9123ZM105.231 9.00459C104.701 8.52388 104.666 7.70314 105.149 7.18725C105.632 6.65964 106.456 6.62446 106.975 7.10518C107.505 7.58589 107.54 8.40663 107.057 8.92252C106.798 9.20391 106.456 9.34461 106.103 9.34461C105.797 9.34461 105.479 9.23909 105.231 9.00459ZM97.8324 8.09006C97.4554 7.4921 97.6321 6.69481 98.2448 6.30789C98.8574 5.9327 99.6467 6.10857 100.036 6.71826C100.413 7.31622 100.236 8.11351 99.6232 8.50043C99.4111 8.6294 99.1755 8.69975 98.9399 8.69975C98.5039 8.69975 98.0798 8.47698 97.8324 8.09006ZM102.792 7.84384C102.085 7.73832 101.602 7.07 101.708 6.36652C101.815 5.66303 102.474 5.18231 103.181 5.28784C103.888 5.39336 104.371 6.04995 104.265 6.76516C104.171 7.3983 103.617 7.85556 102.981 7.85556C102.934 7.86729 102.863 7.85556 102.792 7.84384Z" fill="#2E2B28"/>
<path d="M62.9715 82.2493H49.1873C48.7043 82.2493 48.3037 81.8507 48.3037 81.37C48.3037 80.8892 48.7043 80.4906 49.1873 80.4906H62.9715C63.4546 80.4906 63.8551 80.8892 63.8551 81.37C63.8551 81.8507 63.4546 82.2493 62.9715 82.2493Z" fill="#2E2B28"/>
<path d="M129.595 116.075H52.2858C50.0356 116.075 48.2095 114.258 48.2095 112.019V63.5249C48.2095 61.2855 50.0356 59.4681 52.2858 59.4681H129.595C131.845 59.4681 133.672 61.2855 133.672 63.5249V112.03C133.66 114.258 131.834 116.075 129.595 116.075ZM52.2858 61.2269C51.0134 61.2269 49.9767 62.2586 49.9767 63.5249V112.03C49.9767 113.297 51.0134 114.328 52.2858 114.328H129.595C130.868 114.328 131.904 113.297 131.904 112.03V63.5249C131.904 62.2586 130.868 61.2269 129.595 61.2269H52.2858Z" fill="#2E2B28"/>
<path d="M52.2858 61.2269C51.0134 61.2269 49.9767 62.2586 49.9767 63.5249V112.03C49.9767 113.297 51.0134 114.328 52.2858 114.328H129.595C130.868 114.328 131.904 113.297 131.904 112.03V63.5249C131.904 62.2586 130.868 61.2269 129.595 61.2269H52.2858Z" fill="#79CCC2"/>
<path d="M132.835 82.2493H118.933C118.45 82.2493 118.049 81.8507 118.049 81.37C118.049 80.8892 118.45 80.4906 118.933 80.4906H132.835C133.318 80.4906 133.719 80.8892 133.719 81.37C133.719 81.8507 133.318 82.2493 132.835 82.2493Z" fill="#2E2B28"/>
<path d="M112.571 82.2493H69.5691C69.0861 82.2493 68.6855 81.8507 68.6855 81.37C68.6855 80.8892 69.0861 80.4906 69.5691 80.4906H112.571C113.054 80.4906 113.455 80.8892 113.455 81.37C113.455 81.8507 113.054 82.2493 112.571 82.2493Z" fill="#2E2B28"/>
<path d="M68.9328 85.544H63.3602C62.8771 85.544 62.4766 85.1454 62.4766 84.6647V77.4657C62.4766 76.9849 62.8771 76.5863 63.3602 76.5863H68.9328C69.4158 76.5863 69.8164 76.9849 69.8164 77.4657V84.6647C69.8164 85.1454 69.4276 85.544 68.9328 85.544ZM64.2438 83.7853H68.0491V78.345H64.2438V83.7853Z" fill="#2E2B28"/>
<path d="M118.485 85.544H112.912C112.429 85.544 112.029 85.1454 112.029 84.6647V77.4657C112.029 76.9849 112.429 76.5863 112.912 76.5863H118.485C118.968 76.5863 119.369 76.9849 119.369 77.4657V84.6647C119.369 85.1454 118.98 85.544 118.485 85.544ZM113.796 83.7853H117.601V78.345H113.796V83.7853Z" fill="#2E2B28"/>
<path d="M109.26 61.2268C108.777 61.2268 108.377 60.8282 108.377 60.3474V49.42C108.377 48.1302 107.317 47.075 106.021 47.075H75.8603C74.5643 47.075 73.504 48.1302 73.504 49.42V60.3474C73.504 60.8282 73.1035 61.2268 72.6204 61.2268C72.1374 61.2268 71.7368 60.8282 71.7368 60.3474V49.42C71.7368 47.1571 73.5865 45.3163 75.8603 45.3163H106.021C108.294 45.3163 110.144 47.1571 110.144 49.42V60.3474C110.144 60.8282 109.755 61.2268 109.26 61.2268Z" fill="#2E2B28"/>
<path d="M102.086 60.9337C101.603 60.9337 101.202 60.535 101.202 60.0543V53.6526C101.202 53.4533 101.037 53.3008 100.849 53.3008H81.0323C80.832 53.3008 80.6788 53.465 80.6788 53.6526V60.0543C80.6788 60.535 80.2783 60.9337 79.7952 60.9337C79.3122 60.9337 78.9116 60.535 78.9116 60.0543V53.6526C78.9116 52.4918 79.8659 51.5421 81.0323 51.5421H100.849C102.015 51.5421 102.969 52.4918 102.969 53.6526V60.0543C102.969 60.5467 102.569 60.9337 102.086 60.9337Z" fill="#2E2B28"/>
<path d="M159.909 53.0781H115.516C115.033 53.0781 114.633 52.6794 114.633 52.1987V24.88C114.633 24.3993 115.033 24.0006 115.516 24.0006H159.92C160.403 24.0006 160.804 24.3993 160.804 24.88V52.1987C160.792 52.6794 160.403 53.0781 159.909 53.0781ZM116.4 51.3193H159.037V25.7593H116.4V51.3193Z" fill="#2E2B28"/>
<path d="M116.4 51.3193H159.037V25.7593H116.4V51.3193Z" fill="#FAEDAD"/>
<path d="M167.237 45.0817H160.274C159.791 45.0817 159.39 44.6831 159.39 44.2024C159.39 43.7216 159.791 43.323 160.274 43.323H166.353V17.763H123.716V24.5399C123.716 25.0206 123.316 25.4193 122.833 25.4193C122.35 25.4193 121.949 25.0206 121.949 24.5399V16.8836C121.949 16.4029 122.35 16.0043 122.833 16.0043H167.237C167.72 16.0043 168.12 16.4029 168.12 16.8836V44.2024C168.12 44.6831 167.732 45.0817 167.237 45.0817Z" fill="#2E2B28"/>
<path d="M174.659 36.9916H167.696C167.213 36.9916 166.812 36.593 166.812 36.1123C166.812 35.6316 167.213 35.2329 167.696 35.2329H173.775V9.6729H131.138V16.4498C131.138 16.9305 130.738 17.3292 130.255 17.3292C129.772 17.3292 129.371 16.9305 129.371 16.4498V8.79354C129.371 8.31283 129.772 7.91418 130.255 7.91418H174.659C175.142 7.91418 175.542 8.31283 175.542 8.79354V36.1123C175.542 36.593 175.153 36.9916 174.659 36.9916Z" fill="#2E2B28"/>
<path d="M182.117 29.0774H175.154C174.671 29.0774 174.27 28.6788 174.27 28.1981C174.27 27.7174 174.671 27.3187 175.154 27.3187H181.233V1.75872H138.596V8.53564C138.596 9.01635 138.196 9.415 137.713 9.415C137.23 9.415 136.829 9.01635 136.829 8.53564V0.879358C136.829 0.398642 137.23 0 137.713 0H182.117C182.6 0 183 0.398642 183 0.879358V28.1981C183 28.6788 182.612 29.0774 182.117 29.0774Z" fill="#2E2B28"/>
<path d="M43.5557 152H0.883603C0.400567 152 0 151.601 0 151.121V108.654C0 108.173 0.400567 107.774 0.883603 107.774H43.5557C44.0388 107.774 44.4393 108.173 44.4393 108.654V151.121C44.4393 151.613 44.0388 152 43.5557 152ZM1.76721 150.241H42.6721V109.533H1.76721V150.241Z" fill="#2E2B28"/>
<path d="M43.2967 144.156H1.11944C0.636406 144.156 0.23584 143.758 0.23584 143.277C0.23584 142.796 0.636406 142.397 1.11944 142.397H43.2967C43.7798 142.397 44.1803 142.796 44.1803 143.277C44.1803 143.758 43.7798 144.156 43.2967 144.156Z" fill="#2E2B28"/>
<path d="M25.5203 133.818C25.2965 133.818 25.0726 133.736 24.8959 133.56L14.6206 123.345L5.09443 132.814C4.75277 133.154 4.18726 133.154 3.8456 132.814C3.50394 132.474 3.50394 131.911 3.8456 131.571L13.9962 121.48C14.3379 121.14 14.9034 121.14 15.245 121.48L26.1565 132.317C26.4982 132.657 26.4982 133.22 26.1565 133.56C25.9798 133.736 25.7559 133.818 25.5203 133.818Z" fill="#2E2B28"/>
<path d="M40.087 134.221C39.8632 134.221 39.6393 134.139 39.4626 133.963L32.87 127.413L26.4138 133.838C26.0721 134.178 25.5066 134.178 25.1649 133.838C24.8233 133.498 24.8233 132.936 25.1649 132.596L32.2455 125.549C32.4105 125.385 32.6343 125.291 32.87 125.291C33.1056 125.291 33.3294 125.385 33.4944 125.549L40.7114 132.72C41.0531 133.06 41.0531 133.623 40.7114 133.963C40.5465 134.139 40.3108 134.221 40.087 134.221Z" fill="#2E2B28"/>
<path d="M52.7216 11.5489H18.4378C17.9548 11.5489 17.5542 11.1502 17.5542 10.6695C17.5542 10.1888 17.9548 9.79016 18.4378 9.79016H52.7216C53.2046 9.79016 53.6052 10.1888 53.6052 10.6695C53.6052 11.1502 53.2046 11.5489 52.7216 11.5489Z" fill="#2E2B28"/>
<path d="M62.2645 25.7359H32.222C31.7389 25.7359 31.3384 25.3372 31.3384 24.8565C31.3384 24.3758 31.7389 23.9772 32.222 23.9772H62.2645C62.7475 23.9772 63.1481 24.3758 63.1481 24.8565C63.1481 25.3372 62.7475 25.7359 62.2645 25.7359Z" fill="#2E2B28"/>
<path d="M72.6322 25.5014H68.3909C67.9079 25.5014 67.5073 25.1027 67.5073 24.622C67.5073 24.1413 67.9079 23.7427 68.3909 23.7427H72.6322C73.1153 23.7427 73.5158 24.1413 73.5158 24.622C73.5158 25.1027 73.1153 25.5014 72.6322 25.5014Z" fill="#2E2B28"/>
<path d="M45.653 39.4539H11.9583C11.4753 39.4539 11.0747 39.0553 11.0747 38.5745C11.0747 38.0938 11.4753 37.6952 11.9583 37.6952H45.653C46.1361 37.6952 46.5366 38.0938 46.5366 38.5745C46.5366 39.067 46.1361 39.4539 45.653 39.4539Z" fill="#2E2B28"/>
<path d="M8.07047 11.5489H2.76886C2.28582 11.5489 1.88525 11.1502 1.88525 10.6695C1.88525 10.1888 2.28582 9.79016 2.76886 9.79016H8.07047C8.55351 9.79016 8.95407 10.1888 8.95407 10.6695C8.95407 11.1502 8.55351 11.5489 8.07047 11.5489Z" fill="#2E2B28"/>
<path d="M159.225 150.839H132.717C132.234 150.839 131.833 150.441 131.833 149.96C131.833 149.479 132.234 149.081 132.717 149.081H159.225C159.708 149.081 160.109 149.479 160.109 149.96C160.109 150.441 159.708 150.839 159.225 150.839Z" fill="#2E2B28"/>
<path d="M165.823 126.569H132.835C132.352 126.569 131.951 126.17 131.951 125.69C131.951 125.209 132.352 124.81 132.835 124.81H165.823C166.306 124.81 166.706 125.209 166.706 125.69C166.706 126.17 166.306 126.569 165.823 126.569Z" fill="#2E2B28"/>
<path d="M178.9 138.763H155.573C155.09 138.763 154.689 138.364 154.689 137.883C154.689 137.403 155.09 137.004 155.573 137.004H178.9C179.383 137.004 179.783 137.403 179.783 137.883C179.783 138.364 179.383 138.763 178.9 138.763Z" fill="#2E2B28"/>
<path d="M149.329 138.763H142.495C142.012 138.763 141.612 138.364 141.612 137.883C141.612 137.403 142.012 137.004 142.495 137.004H149.329C149.812 137.004 150.212 137.403 150.212 137.883C150.212 138.364 149.812 138.763 149.329 138.763Z" fill="#2E2B28"/>
<path d="M122.821 150.839H118.933C118.45 150.839 118.049 150.441 118.049 149.96C118.049 149.479 118.45 149.081 118.933 149.081H122.821C123.304 149.081 123.704 149.479 123.704 149.96C123.704 150.441 123.304 150.839 122.821 150.839Z" fill="#2E2B28"/>
</g>
<defs>
<clipPath id="clip0_4_9685">
<rect width="183" height="152" fill="white"/>
</clipPath>
</defs>
</svg>
