<svg width="168" height="139" viewBox="0 0 168 139" fill="none" xmlns="http://www.w3.org/2000/svg">
<g clip-path="url(#clip0_4_10003)">
<path d="M1 99C1 94.5817 4.58172 91 9 91H56V97.7056C56 99.205 55.5786 100.674 54.784 101.946L52.216 106.054C51.4214 107.326 51 108.795 51 110.294V138H9C4.58172 138 1 134.418 1 130V99Z" fill="#79CCC2"/>
<path d="M111.051 100.563V54.0731C111.051 39.1899 98.9482 27.0889 84.0625 27.0889C69.1768 27.0889 57.0737 39.1899 57.0737 54.0731V99.8311C59.3824 98.8874 64.5998 97 66.9998 97C69.9998 97 74.4998 96.5 74.9998 96C75.3998 95.6 76.1664 90.1667 76.4998 87.5L63.7163 73V52.5L104.409 53V71.5L102.5 76L91.4998 87.5V94L94.4998 96.5L108.5 98.5L111.051 100.563Z" fill="#FAEDAD"/>
<path d="M85.6527 91.2548H82.4726C80.5583 91.2548 78.7695 90.5122 77.4201 89.163L65.9028 77.6058C63.5491 75.2421 62.252 72.1044 62.252 68.768V44.2939C62.252 43.8023 62.6495 43.4049 63.1411 43.4049C63.6328 43.4049 64.0303 43.8023 64.0303 44.2939V68.7784C64.0303 71.6442 65.1391 74.3321 67.1685 76.3612L78.6858 87.9079C79.7005 88.9224 81.05 89.4872 82.4831 89.4872H85.6632C87.0963 89.4872 88.4457 88.9329 89.4604 87.9079L100.967 76.3507C102.986 74.3217 104.106 71.6337 104.106 68.768V44.2939C104.106 43.8023 104.503 43.4049 104.995 43.4049C105.486 43.4049 105.884 43.8023 105.884 44.2939V68.7784C105.884 72.1148 104.587 75.2525 102.233 77.6163L90.7052 89.163C89.3558 90.5122 87.567 91.2548 85.6527 91.2548Z" fill="#2E2B28"/>
<path d="M111.94 101.452C111.449 101.452 111.051 101.055 111.051 100.563V54.073C111.051 39.1899 98.9482 27.0888 84.0625 27.0888C69.1769 27.0888 57.0737 39.1899 57.0737 54.073V99.8311C57.0737 100.323 56.6762 100.72 56.1846 100.72C55.6929 100.72 55.2954 100.323 55.2954 99.8311V54.073C55.2954 46.3857 58.2872 39.169 63.7163 33.7303C69.1455 28.3021 76.3739 25.3108 84.0625 25.3108C91.7512 25.3108 98.9691 28.3021 104.409 33.7303C109.838 39.1585 112.83 46.3857 112.83 54.073V100.563C112.83 101.055 112.432 101.452 111.94 101.452Z" fill="#2E2B28"/>
<path d="M104.555 53.707H63.6538C63.1622 53.707 62.7646 53.3095 62.7646 52.818C62.7646 52.3264 63.1622 51.929 63.6538 51.929H104.555C105.047 51.929 105.445 52.3264 105.445 52.818C105.445 53.3095 105.047 53.707 104.555 53.707Z" fill="#2E2B28"/>
<path d="M78.4557 67.4814H67.9949C67.1476 67.4814 66.3526 67.1467 65.7563 66.5401C65.1601 65.9335 64.8463 65.1282 64.8776 64.281L65.0241 59.1665C65.0764 57.4722 66.4468 56.1334 68.1414 56.1334H78.3093C80.0039 56.1334 81.3743 57.4617 81.4266 59.1665L81.573 64.281C81.5939 65.1282 81.2801 65.9335 80.6943 66.5401C80.0981 67.1467 79.3135 67.4814 78.4557 67.4814ZM68.1414 57.9115C67.4091 57.9115 66.8233 58.4867 66.8024 59.2084L66.656 64.3228C66.6455 64.6889 66.7815 65.034 67.0326 65.2955C67.2836 65.557 67.6288 65.7034 67.9949 65.7034H78.4557C78.8218 65.7034 79.1671 65.557 79.4181 65.2955C79.6692 65.034 79.8052 64.6889 79.7947 64.3228L79.6482 59.2084C79.6273 58.4762 79.0415 57.9115 78.3093 57.9115H68.1414Z" fill="#2E2B28"/>
<path d="M100.131 67.4814H89.6697C88.8224 67.4814 88.0274 67.1467 87.4311 66.5401C86.8349 65.9335 86.5211 65.1282 86.5524 64.281L86.6989 59.1665C86.7512 57.4722 88.1215 56.1334 89.8162 56.1334H99.9841C101.679 56.1334 103.049 57.4617 103.101 59.1665L103.248 64.281C103.269 65.1282 102.955 65.9335 102.369 66.5401C101.773 67.1467 100.978 67.4814 100.131 67.4814ZM89.8162 57.9115C89.0839 57.9115 88.4981 58.4867 88.4772 59.2084L88.3308 64.3228C88.3203 64.6889 88.4563 65.034 88.7074 65.2955C88.9584 65.557 89.3036 65.7034 89.6697 65.7034H100.131C100.497 65.7034 100.842 65.557 101.093 65.2955C101.344 65.034 101.48 64.6889 101.469 64.3228L101.323 59.2084C101.302 58.4762 100.716 57.9115 99.9841 57.9115H89.8162Z" fill="#2E2B28"/>
<path d="M86.6673 62.7016H81.5415C81.0499 62.7016 80.6523 62.3042 80.6523 61.8126C80.6523 61.321 81.0499 60.9236 81.5415 60.9236H86.6673C87.1589 60.9236 87.5565 61.321 87.5565 61.8126C87.5565 62.3042 87.1589 62.7016 86.6673 62.7016Z" fill="#2E2B28"/>
<path d="M84.0628 82.1973C82.1171 82.1973 80.1714 81.4547 78.6964 79.98C78.3512 79.6349 78.3512 79.0701 78.6964 78.7249C79.0416 78.3798 79.6065 78.3798 79.9517 78.7249C82.2217 80.9945 85.9039 80.9945 88.1739 78.7249C88.5191 78.3798 89.084 78.3798 89.4292 78.7249C89.7744 79.0701 89.7744 79.6349 89.4292 79.98C87.9542 81.4652 86.0085 82.1973 84.0628 82.1973Z" fill="#2E2B28"/>
<path d="M118.112 138.633C117.621 138.633 117.223 138.235 117.223 137.744V119.013C117.223 110.897 115.675 105.573 112.349 102.247C109.022 98.9212 103.698 97.3732 95.5695 97.3732H95.3185C92.7347 97.3732 90.6216 95.271 90.6216 92.6772V87.0711C90.6216 86.5796 91.0191 86.1821 91.5107 86.1821C92.0024 86.1821 92.3999 86.5796 92.3999 87.0711V92.6772C92.3999 94.2878 93.7075 95.5952 95.3185 95.5952H95.5695C112.422 95.5952 118.991 102.163 118.991 119.013V137.744C119.002 138.235 118.604 138.633 118.112 138.633Z" fill="#2E2B28"/>
<path d="M103.469 139C102.978 139 102.58 138.05 102.58 136.875V120.125C102.58 118.95 102.978 118 103.469 118C103.961 118 104.358 118.95 104.358 120.125V136.875C104.358 138.05 103.961 139 103.469 139Z" fill="#2E2B28"/>
<path d="M49.9082 138.633C49.4166 138.633 49.019 138.235 49.019 137.744V119.013C49.019 109.558 50.7032 103.774 54.4691 100.26C57.9839 96.9862 63.3608 95.5952 72.4407 95.5952C74.0517 95.5952 75.3593 94.2878 75.3593 92.6771V86.9979C75.3593 86.5063 75.7568 86.1089 76.2484 86.1089C76.7401 86.1089 77.1376 86.5063 77.1376 86.9979V92.6771C77.1376 95.2605 75.035 97.3732 72.4407 97.3732C63.8524 97.3732 58.8312 98.6283 55.6826 101.567C52.3037 104.715 50.7974 110.102 50.7974 119.023V137.754C50.7974 138.235 50.3999 138.633 49.9082 138.633Z" fill="#2E2B28"/>
<path d="M64.6348 139C64.1431 139 63.7456 138.05 63.7456 136.875V120.125C63.7456 118.95 64.1431 118 64.6348 118C65.1264 118 65.5239 118.95 65.5239 120.125V136.875C65.5239 138.05 65.1264 139 64.6348 139Z" fill="#2E2B28"/>
<path d="M167.111 88.3785H112.568C112.077 88.3785 111.679 87.981 111.679 87.4895C111.679 86.9979 112.077 86.6004 112.568 86.6004H166.221V1.77803H84.8994V26.1998C84.8994 26.6913 84.5019 27.0888 84.0103 27.0888C83.5186 27.0888 83.1211 26.6913 83.1211 26.1998V0.889014C83.1211 0.397442 83.5186 0 84.0103 0H167.111C167.602 0 168 0.397442 168 0.889014V87.4895C168 87.981 167.602 88.3785 167.111 88.3785Z" fill="#2E2B28"/>
<path d="M161.001 82.0089H113.122C112.631 82.0089 112.233 81.6115 112.233 81.1199C112.233 80.6283 112.631 80.2309 113.122 80.2309H160.112V8.14754H91.0083V26.5449C91.0083 27.0365 90.6108 27.4339 90.1191 27.4339C89.6275 27.4339 89.23 27.0365 89.23 26.5449V7.25852C89.23 6.76695 89.6275 6.36951 90.1191 6.36951H160.991C161.483 6.36951 161.88 6.76695 161.88 7.25852V81.1199C161.891 81.6115 161.493 82.0089 161.001 82.0089Z" fill="#2E2B28"/>
<path d="M130.425 49.3665C130.121 49.3665 129.818 49.2096 129.661 48.9272C129.41 48.4984 129.556 47.9545 129.985 47.7139C138.03 43.0179 137.684 37.8407 137.318 32.3497C137.151 29.8918 136.983 27.3503 137.548 24.8087C138.197 21.9011 139.745 19.4119 142.266 17.1841C142.632 16.8599 143.197 16.8913 143.521 17.2678C143.846 17.6339 143.814 18.1987 143.438 18.5229C138.469 22.8948 138.762 27.434 139.086 32.2346C139.274 35.0899 139.473 38.0394 138.49 40.9261C137.381 44.1788 134.891 46.8981 130.874 49.2514C130.728 49.3246 130.571 49.3665 130.425 49.3665Z" fill="#2E2B28"/>
<path d="M122.359 41.1352C122.213 41.1352 122.066 41.0934 121.92 41.0202C121.491 40.7796 121.345 40.2358 121.585 39.8069C123.876 35.7593 126.554 33.2282 129.797 32.0673C132.674 31.0423 135.624 31.1992 138.479 31.3456C143.281 31.5966 147.831 31.8267 152.131 26.796C152.445 26.4194 153.009 26.3776 153.386 26.7018C153.763 27.0156 153.804 27.5804 153.48 27.9569C151.294 30.5089 148.825 32.0882 145.927 32.789C143.396 33.3956 140.844 33.2596 138.385 33.1341C132.893 32.8517 127.705 32.5798 123.133 40.696C122.966 40.9784 122.663 41.1352 122.359 41.1352Z" fill="#2E2B28"/>
<path d="M137.245 41.2293C137.015 41.2293 136.785 41.1457 136.618 40.9679L129.442 33.793C129.096 33.4478 129.096 32.8831 129.442 32.5379C129.787 32.1928 130.352 32.1928 130.697 32.5379L137.873 39.7128C138.218 40.0579 138.218 40.6227 137.873 40.9679C137.695 41.1352 137.465 41.2293 137.245 41.2293Z" fill="#2E2B28"/>
<path d="M134.431 45.8104C134.201 45.8104 133.971 45.7267 133.803 45.5489L124.922 36.6692C124.577 36.3241 124.577 35.7593 124.922 35.4141C125.267 35.069 125.832 35.069 126.177 35.4141L135.058 44.2938C135.404 44.639 135.404 45.2037 135.058 45.5489C134.881 45.7267 134.661 45.8104 134.431 45.8104Z" fill="#2E2B28"/>
<path d="M146.189 32.4229C145.959 32.4229 145.729 32.3393 145.561 32.1615L138.385 24.9866C138.04 24.6414 138.04 24.0767 138.385 23.7315C138.731 23.3864 139.295 23.3864 139.641 23.7315L146.817 30.9064C147.162 31.2515 147.162 31.8163 146.817 32.1615C146.649 32.3393 146.419 32.4229 146.189 32.4229Z" fill="#2E2B28"/>
<path d="M150.708 29.5362C150.478 29.5362 150.248 29.4525 150.081 29.2747L141.199 20.395C140.854 20.0499 140.854 19.4851 141.199 19.14C141.545 18.7948 142.109 18.7948 142.455 19.14L151.336 28.0196C151.681 28.3648 151.681 28.9296 151.336 29.2747C151.158 29.4525 150.928 29.5362 150.708 29.5362Z" fill="#2E2B28"/>
<path d="M131.544 16.3684H95.6636C95.1719 16.3684 94.7744 15.9709 94.7744 15.4793C94.7744 14.9878 95.1719 14.5903 95.6636 14.5903H131.544C132.036 14.5903 132.433 14.9878 132.433 15.4793C132.433 15.9709 132.036 16.3684 131.544 16.3684Z" fill="#2E2B28"/>
<path d="M128.615 27.1411H113.551C113.06 27.1411 112.662 26.7436 112.662 26.2521C112.662 25.7605 113.06 25.363 113.551 25.363H128.615C129.106 25.363 129.504 25.7605 129.504 26.2521C129.504 26.7436 129.106 27.1411 128.615 27.1411Z" fill="#2E2B28"/>
<path d="M152.779 73.5791H121.083C120.591 73.5791 120.194 73.1816 120.194 72.69C120.194 72.1985 120.591 71.801 121.083 71.801H152.779C153.271 71.801 153.668 72.1985 153.668 72.69C153.668 73.1816 153.271 73.5791 152.779 73.5791Z" fill="#2E2B28"/>
<path d="M138.971 61.2374H121.083C120.591 61.2374 120.194 60.8399 120.194 60.3484C120.194 59.8568 120.591 59.4594 121.083 59.4594H138.971C139.463 59.4594 139.86 59.8568 139.86 60.3484C139.86 60.8399 139.463 61.2374 138.971 61.2374Z" fill="#2E2B28"/>
<path d="M49.9502 139H8.26401C3.70311 139 0 135.298 0 130.737V98.8166C0 94.2564 3.70311 90.554 8.26401 90.554H56.1848C56.6765 90.554 57.074 90.9514 57.074 91.443C57.074 91.9345 56.6765 92.332 56.1848 92.332H8.26401C4.68643 92.332 1.77833 95.2396 1.77833 98.8166V130.737C1.77833 134.314 4.68643 137.222 8.26401 137.222H49.9502C50.4418 137.222 50.8394 137.619 50.8394 138.111C50.8394 138.603 50.4418 139 49.9502 139Z" fill="#2E2B28"/>
<path d="M49.9504 111.441H39.5942C39.1026 111.441 38.7051 111.043 38.7051 110.552C38.7051 110.06 39.1026 109.663 39.5942 109.663H49.9504C50.4421 109.663 50.8396 110.06 50.8396 110.552C50.8396 111.043 50.4421 111.441 49.9504 111.441Z" fill="#2E2B28"/>
<path d="M31.33 111.441H0.889166C0.397509 111.441 0 111.043 0 110.552C0 110.06 0.397509 109.663 0.889166 109.663H31.33C31.8217 109.663 32.2192 110.06 32.2192 110.552C32.2192 111.043 31.8217 111.441 31.33 111.441Z" fill="#2E2B28"/>
<path d="M35.5666 117.758C33.2129 117.758 31.3091 115.844 31.3091 113.501V107.435C31.3091 106.943 31.7066 106.546 32.1982 106.546H38.9454C39.4371 106.546 39.8346 106.943 39.8346 107.435V113.501C39.8242 115.844 37.9203 117.758 35.5666 117.758ZM33.0874 108.313V113.491C33.0874 114.861 34.2067 115.969 35.5666 115.969C36.9265 115.969 38.0458 114.85 38.0458 113.491V108.313H33.0874Z" fill="#2E2B28"/>
<path d="M45.3683 92.332C44.8767 92.332 44.4792 91.9346 44.4792 91.443V88.5354C44.4792 85.837 42.2824 83.6406 39.5835 83.6406H31.5392C28.8403 83.6406 26.6436 85.837 26.6436 88.5354V91.443C26.6436 91.9346 26.2461 92.332 25.7544 92.332C25.2627 92.332 24.8652 91.9346 24.8652 91.443V88.5354C24.8652 84.8538 27.857 81.8625 31.5392 81.8625H39.5835C43.2657 81.8625 46.2575 84.8538 46.2575 88.5354V91.443C46.2575 91.9241 45.86 92.332 45.3683 92.332Z" fill="#2E2B28"/>
<path d="M44.9289 87.1757H26.2041C25.7125 87.1757 25.3149 86.7783 25.3149 86.2867C25.3149 85.7951 25.7125 85.3977 26.2041 85.3977H44.9289C45.4205 85.3977 45.8181 85.7951 45.8181 86.2867C45.8181 86.7783 45.4205 87.1757 44.9289 87.1757Z" fill="#2E2B28"/>
<path d="M68.4659 10.1975H22.8569C22.3653 10.1975 21.9678 9.80002 21.9678 9.30845C21.9678 8.81688 22.3653 8.41943 22.8569 8.41943H68.4659C68.9576 8.41943 69.3551 8.81688 69.3551 9.30845C69.3551 9.80002 68.9576 10.1975 68.4659 10.1975Z" fill="#2E2B28"/>
<path d="M45.6611 27.1411H10.3037C9.81206 27.1411 9.41455 26.7436 9.41455 26.2521C9.41455 25.7605 9.81206 25.363 10.3037 25.363H45.6611C46.1528 25.363 46.5503 25.7605 46.5503 26.2521C46.5503 26.7436 46.1528 27.1411 45.6611 27.1411Z" fill="#2E2B28"/>
<path d="M145.154 102.99C143.386 102.99 141.953 101.557 141.953 99.7892C141.953 98.0216 143.386 96.5887 145.154 96.5887C146.922 96.5887 148.355 98.0216 148.355 99.7892C148.355 101.557 146.922 102.99 145.154 102.99ZM145.154 98.3668C144.369 98.3668 143.731 99.0048 143.731 99.7892C143.731 100.574 144.369 101.212 145.154 101.212C145.938 101.212 146.576 100.574 146.576 99.7892C146.576 99.0048 145.938 98.3668 145.154 98.3668Z" fill="#2E2B28"/>
<path d="M41.9061 43.6872C40.1382 43.6872 38.7051 42.2543 38.7051 40.4867C38.7051 38.7191 40.1382 37.2863 41.9061 37.2863C43.6739 37.2863 45.1071 38.7191 45.1071 40.4867C45.1071 42.2543 43.6739 43.6872 41.9061 43.6872ZM41.9061 39.0643C41.1215 39.0643 40.4834 39.7023 40.4834 40.4867C40.4834 41.2711 41.1215 41.9091 41.9061 41.9091C42.6906 41.9091 43.3287 41.2711 43.3287 40.4867C43.3287 39.7023 42.6906 39.0643 41.9061 39.0643Z" fill="#2E2B28"/>
<path d="M139.013 132.944C137.245 132.944 135.812 131.511 135.812 129.744C135.812 127.976 137.245 126.543 139.013 126.543C140.781 126.543 142.214 127.976 142.214 129.744C142.214 131.511 140.781 132.944 139.013 132.944ZM139.013 128.321C138.228 128.321 137.59 128.959 137.59 129.744C137.59 130.528 138.228 131.166 139.013 131.166C139.798 131.166 140.436 130.528 140.436 129.744C140.436 128.959 139.798 128.321 139.013 128.321Z" fill="#2E2B28"/>
<path d="M16.1097 72.8468C14.3418 72.8468 12.9087 71.4139 12.9087 69.6464C12.9087 67.8788 14.3418 66.4459 16.1097 66.4459C17.8776 66.4459 19.3107 67.8788 19.3107 69.6464C19.3107 71.4035 17.8776 72.8468 16.1097 72.8468ZM16.1097 68.2135C15.3251 68.2135 14.687 68.8515 14.687 69.6359C14.687 70.4203 15.3251 71.0583 16.1097 71.0583C16.8942 71.0583 17.5324 70.4203 17.5324 69.6359C17.5324 68.862 16.8942 68.2135 16.1097 68.2135Z" fill="#2E2B28"/>
<path d="M38.9141 61.9172C38.4224 61.9172 38.0249 61.5198 38.0249 61.0282V57.0538C38.0249 56.5622 38.4224 56.1648 38.9141 56.1648C39.4057 56.1648 39.8032 56.5622 39.8032 57.0538V61.0282C39.8032 61.5198 39.4057 61.9172 38.9141 61.9172Z" fill="#2E2B28"/>
<path d="M40.8491 59.9824H36.874C36.3824 59.9824 35.9849 59.5849 35.9849 59.0934C35.9849 58.6018 36.3824 58.2043 36.874 58.2043H40.8491C41.3408 58.2043 41.7383 58.6018 41.7383 59.0934C41.7383 59.5849 41.3408 59.9824 40.8491 59.9824Z" fill="#2E2B28"/>
<path d="M159.108 121.743C158.617 121.743 158.219 121.345 158.219 120.854V116.879C158.219 116.388 158.617 115.99 159.108 115.99C159.6 115.99 159.998 116.388 159.998 116.879V120.854C159.998 121.345 159.6 121.743 159.108 121.743Z" fill="#2E2B28"/>
<path d="M161.043 119.808H157.068C156.577 119.808 156.179 119.41 156.179 118.919C156.179 118.427 156.577 118.03 157.068 118.03H161.043C161.535 118.03 161.933 118.427 161.933 118.919C161.933 119.41 161.535 119.808 161.043 119.808Z" fill="#2E2B28"/>
</g>
<defs>
<clipPath id="clip0_4_10003">
<rect width="168" height="139" fill="white"/>
</clipPath>
</defs>
</svg>
