<svg width="1040" height="612" viewBox="0 0 1040 612" fill="none" xmlns="http://www.w3.org/2000/svg">
<mask id="mask0_4_9210" style="mask-type:alpha" maskUnits="userSpaceOnUse" x="0" y="0" width="1040" height="612">
<path d="M0 40C0 17.9086 17.9086 0 40 0H1000C1022.09 0 1040 17.9086 1040 40V572C1040 594.091 1022.09 612 1000 612H40C17.9086 612 0 594.091 0 572V40Z" fill="#007668"/>
</mask>
<g mask="url(#mask0_4_9210)">
<path opacity="0.8" d="M-36.3333 552.884L-64.631 557.013M-36.3333 552.884L-30.782 551.473M-36.3333 552.884L-6.83472 541.757M-64.631 557.013L-30.782 551.473M-64.631 557.013L-57.1309 553.398M-30.782 551.473L-57.1309 553.398M-30.782 551.473L-24.4433 548.129M-30.782 551.473L-6.83472 541.757M-30.782 551.473L-2.41533 539.45M-57.1309 553.398L-24.4433 548.129M-57.1309 553.398L-86.7573 547.55M-57.1309 553.398L-49.5422 549.511M-24.4433 548.129L-2.41533 539.45M-24.4433 548.129L5.3407 539.319M-24.4433 548.129L-49.5422 549.511M-24.4433 548.129L-15.6538 548.007M-6.83472 541.757L-2.41533 539.45M-6.83472 541.757L18.2838 525.306M-2.41533 539.45L5.3407 539.319M-2.41533 539.45L18.2838 525.306M-2.41533 539.45L24.1599 525.044M5.3407 539.319L24.1599 525.044M5.3407 539.319L35.2329 529.837M5.3407 539.319L-15.6538 548.007M5.3407 539.319L17.2208 544.682M18.2838 525.306L24.1599 525.044M18.2838 525.306L43.4516 508.854M24.1599 525.044L35.2329 529.837M24.1599 525.044L43.4516 508.854M24.1599 525.044L52.6643 512.339M35.2329 529.837L52.6643 512.339M35.2329 529.837L68.2158 522.531M35.2329 529.837L51.3749 541.16M35.2329 529.837L17.2208 544.682M43.4516 508.854L52.6643 512.339M43.4516 508.854L73.0387 497.7M52.6643 512.339L73.0387 497.7M52.6643 512.339L68.2158 522.531M52.6643 512.339L86.7692 505.407M73.0387 497.7L86.7692 505.407M73.0387 497.7L133.217 494.309M-86.7573 547.55L-49.5422 549.511M-86.7573 547.55L-78.3813 544.233M-49.5422 549.511L-78.3813 544.233M-49.5422 549.511L-40.3786 549.904M-49.5422 549.511L-15.6538 548.007M-78.3813 544.233L-40.3786 549.904M-78.3813 544.233L-110.557 535.377M-78.3813 544.233L-69.326 546.251M-40.3786 549.904L-15.6538 548.007M-40.3786 549.904L-3.82285 553.818M-40.3786 549.904L-69.326 546.251M-40.3786 549.904L-29.2564 556.658M-15.6538 548.007L-3.82285 553.818M-15.6538 548.007L17.2208 544.682M68.2158 522.531L51.3749 541.16M68.2158 522.531L86.7692 505.407M68.2158 522.531L122.892 519.103M68.2158 522.531L51.3848 541.16M68.2158 522.531L89.1315 539.058M51.3749 541.16L32.9101 556.387M51.3749 541.16L71.4245 558.022M51.3749 541.16L17.2208 544.682M51.3749 541.16L32.9101 556.397L17.2208 544.682M-3.82285 553.818L17.2208 544.682M-3.82285 553.818L32.9101 556.387M-3.82285 553.818L-29.2564 556.658M-3.82285 553.818L10.5573 565.804M17.2208 544.682L32.9101 556.387M32.9101 556.387L71.4245 558.022M32.9101 556.387L10.5573 565.804M32.9101 556.387L51.0403 572.857M71.4245 558.022L89.1315 539.058M71.4245 558.022L121.662 558.471M71.4245 558.022L51.3848 541.16M71.4245 558.022L51.0403 572.857M71.4245 558.022L93.0882 576.977M86.7692 505.407L122.892 519.103M86.7692 505.407L133.217 494.309M86.7692 505.407L158.257 499.905M122.892 519.103L158.257 499.905M122.892 519.103L176.987 511.825M122.892 519.103L89.1315 539.058M122.892 519.103L150.264 536.199M133.217 494.309L158.257 499.905M133.217 494.309L192.736 484.686M158.257 499.905L176.987 511.825M158.257 499.905L192.736 484.686M158.257 499.905L201.505 488.33M176.987 511.825L201.505 488.33M176.987 511.825L210.846 501.269M176.987 511.825L150.264 536.199M176.987 511.825L192.145 529.79M192.736 484.686L201.505 488.33M192.736 484.686L224.291 470.028M201.505 488.33L210.846 501.269M201.505 488.33L224.291 470.028M201.505 488.33L227.047 474.559M210.846 501.269L227.047 474.559M210.846 501.269L235.315 490.516M210.846 501.269L222.116 522.12M210.846 501.269L192.145 529.79M224.291 470.028L227.047 474.559M224.291 470.028L242.618 455.072M227.047 474.559L242.618 455.072M227.047 474.559L235.315 490.516M227.047 474.559L247.687 462.48M242.618 455.072L247.687 462.48M242.618 455.072L262.461 444.524M51.3848 541.16L89.1315 539.058M89.1315 539.058L121.662 558.471M89.1315 539.058L150.264 536.199M121.662 558.471L150.264 536.199M121.662 558.471L169.91 556.088M121.662 558.471L93.0882 576.977M121.662 558.471L143.926 577.445M150.264 536.199L169.91 556.088M150.264 536.199L192.145 529.79M150.264 536.199L192.145 529.8L169.91 556.088M235.315 490.516L222.116 522.12M235.315 490.516L247.687 462.48M235.315 490.516L261.251 482.65M235.315 490.516L249.095 515.45M222.116 522.12L192.145 529.79M222.116 522.12L205.669 552.165M222.116 522.12L235.906 548.166M222.116 522.12L249.095 515.45M169.91 556.088L192.145 529.79M169.91 556.088L205.669 552.165M169.91 556.088L143.926 577.445M169.91 556.088L184.359 576.875M192.145 529.79L205.669 552.165M205.669 552.165L184.359 576.875M205.669 552.165L218.71 575.959M205.669 552.165L235.906 548.166M-110.557 535.377L-69.326 546.251M-110.557 535.377L-101.876 540.758M-69.326 546.251L-101.876 540.758M-69.326 546.251L-59.375 555.07M-69.326 546.251L-29.2564 556.658M-101.876 540.758L-59.375 555.07M-101.876 540.758L-136.325 539.627M-101.876 540.758L-93.1157 553.613M-59.375 555.07L-29.2564 556.658M-59.375 555.07L-16.8545 569.42M-59.375 555.07L-93.1157 553.613M-59.375 555.07L-49.1878 569.55M-29.2564 556.658L-16.8545 569.42M-29.2564 556.658L10.5573 565.804M-16.8545 569.42L10.5573 565.804M-16.8545 569.42L25.9217 581.761M-16.8545 569.42L-49.1878 569.55M-16.8545 569.42L-4.83666 584.675M10.5573 565.804L25.9217 581.761M10.5573 565.804L51.0403 572.857M25.9217 581.761L51.0403 572.857M25.9217 581.761L69.1508 590.028M25.9217 581.761L39.6228 596.222M25.9217 581.761L-4.83666 584.675M51.0403 572.857L69.1508 590.028M51.0403 572.857L93.0882 576.977M-136.325 539.627L-93.1157 553.613M-136.325 539.627L-127.939 558.62M-93.1157 553.613L-127.939 558.62M-93.1157 553.613L-83.3714 571.895M-93.1157 553.613L-49.1878 569.55M-127.939 558.62L-83.3714 571.895M-127.939 558.62L-164.141 570.952M-127.939 558.62L-118.874 580.537M-83.3714 571.895L-49.1878 569.55M-83.3714 571.895L-38.3313 585.133M-83.3714 571.895L-118.874 580.537M-83.3714 571.895L-73.0957 589.944M-49.1878 569.55L-38.3313 585.133M-49.1878 569.55L-4.83666 584.675M69.1508 590.028L39.6228 596.222M69.1508 590.028L93.0882 576.977M69.1508 590.028L114.752 592.551M69.1508 590.028L83.8853 601.426M39.6228 596.222L6.93521 596.484M39.6228 596.222L52.1722 604.144M39.6228 596.222L-4.83666 584.675M39.6228 596.222L83.8853 601.426M-38.3313 585.133L-4.83666 584.675M-38.3313 585.133L6.93521 596.484M-38.3313 585.133L-73.0957 589.944M-38.3313 585.133L-27.0319 598.249M-4.83666 584.675L6.93521 596.484M6.93521 596.484L52.1722 604.144M6.93521 596.484L-27.0319 598.249M6.93521 596.484L19.1106 604.555M52.1722 604.144L83.8853 601.426M52.1722 604.144L96.7006 606.069M52.1722 604.144L19.1106 604.555M52.1722 604.144L65.1252 607.975M93.0882 576.977L114.752 592.551M93.0882 576.977L143.926 577.445M114.752 592.551L143.926 577.445M114.752 592.551L157.4 593.821M114.752 592.551L83.8853 601.426M114.752 592.551L126.268 602.127M143.926 577.445L157.4 593.821M143.926 577.445L184.359 576.875M157.4 593.821L184.359 576.875M157.4 593.821L195.324 595.307M157.4 593.821L126.268 602.127M157.4 593.821L166.16 604.341M184.359 576.875L195.324 595.307M184.359 576.875L218.71 575.959M195.324 595.307L218.71 575.959M195.324 595.307L231.624 596.829M195.324 595.307L205.137 607.143M195.324 595.307L166.16 604.341M218.71 575.959L235.906 548.166M218.71 575.959L231.624 596.829M218.71 575.959L251.998 575.343M235.906 548.166L249.095 515.45M235.906 548.166L267.589 545.541M235.906 548.166L251.998 575.343M83.8853 601.426L96.7006 606.069M83.8853 601.426L126.268 602.127M96.7006 606.069L126.268 602.127M96.7006 606.069L138.778 608.367M96.7006 606.069L65.1252 607.975M96.7006 606.069L109.663 609.759M126.268 602.127L138.778 608.367M126.268 602.127L166.16 604.341M231.624 596.829L205.137 607.143M231.624 596.829L251.998 575.343M231.624 596.829L269.381 598.212M231.624 596.829L244.734 609.563M205.137 607.143L179.409 612.58M205.137 607.143L219.921 616.981M205.137 607.143L166.16 604.341M205.137 607.143L244.734 609.563M138.778 608.367L166.16 604.341M138.778 608.367L179.409 612.58M138.778 608.367L109.663 609.759M138.778 608.367L152.469 615.411M166.16 604.341L179.409 612.58M179.409 612.58L219.921 616.981M179.409 612.58L152.469 615.411M179.409 612.58L194.635 622.576M219.921 616.981L244.734 609.563M219.921 616.981L261.615 619.83M219.921 616.981L194.635 622.576M219.921 616.981L237.244 628.761M247.687 462.48L261.251 482.65M247.687 462.48L262.461 444.524M247.687 462.48L276.182 456.015M247.687 462.48L261.251 482.659L276.182 456.015M261.251 482.65L276.182 456.015M261.251 482.65L298.495 483.986M261.251 482.65L249.095 515.45M261.251 482.65L281.96 512.031M262.461 444.524L276.182 456.015M262.461 444.524L297.147 445.683M276.182 456.015L298.495 483.986M276.182 456.015L297.147 445.683M276.182 456.015L317.649 473.121M276.182 456.015L298.495 483.995L317.649 473.121M298.495 483.986L317.649 473.121M298.495 483.986L342.01 514.226M298.495 483.986L281.96 512.031M298.495 483.986L324.008 524.437M297.147 445.683L317.649 473.121M297.147 445.683L340.258 480.875M317.649 473.121L342.01 514.226M317.649 473.121L340.258 480.875M317.649 473.121L361.843 517.673M342.01 514.226L361.843 517.673M342.01 514.226L385.77 558.629M342.01 514.226L367.847 558.424M342.01 514.226L324.008 524.437M340.258 480.875L361.843 517.673M340.258 480.875L383.713 532.845M340.258 480.875L361.853 517.673M361.843 517.673L385.77 558.629M361.853 517.673L383.713 532.845M361.853 517.673L404.068 565.823M361.853 517.673L385.78 558.629M383.713 532.845L404.068 565.823M383.713 532.845L429.177 578.267M249.095 515.45L267.589 545.541M249.095 515.45L281.96 512.031M267.589 545.541L281.96 512.031M267.589 545.541L306.93 546.802M267.589 545.541L251.998 575.343M267.589 545.541L289.243 575.641M281.96 512.031L306.93 546.802M281.96 512.031L324.008 524.437M385.77 558.629L367.847 558.424M367.847 558.424L350.14 566.888M367.847 558.424L393.487 598.502M367.847 558.424L324.008 524.437M367.847 558.424L385.78 558.629M367.847 558.424L410.416 596.362M306.93 546.802L324.008 524.437M306.93 546.802L350.14 566.879M306.93 546.802L289.243 575.641M306.93 546.802L331.783 582.302M324.008 524.437L350.14 566.879M324.008 524.437L350.14 566.888M350.14 566.879L331.783 582.302M350.14 566.888L393.487 598.502M350.14 566.888L331.783 582.302M350.14 566.888L375.16 604.331M393.487 598.502L410.416 596.362M393.487 598.502L438.773 627.64M393.487 598.502L375.16 604.331M393.487 598.502L417.956 630.667M404.068 565.823L385.78 558.629M404.068 565.823L431.913 598.278M404.068 565.823L429.177 578.267M404.068 565.823L461.913 604.808M404.068 565.823L431.923 598.278M385.78 558.629L431.913 598.278M385.78 558.629L410.416 596.362M431.913 598.278L410.416 596.362M429.177 578.267L461.913 604.808M429.177 578.267L495.753 613.104M461.913 604.808L431.923 598.278M461.913 604.808L495.831 627.416M461.913 604.808L495.753 613.104M461.913 604.808L524.631 627.687M431.923 598.278L495.831 627.416M431.923 598.278L410.416 596.362M431.923 598.278L465.457 626.444M495.831 627.416L524.631 627.687M495.831 627.416L550.576 635.534M495.831 627.416L465.457 626.444M495.831 627.416L524.533 642.643M495.753 613.104L524.631 627.687M495.753 613.104L552.604 622.604M524.631 627.687L550.576 635.534M524.631 627.687L552.604 622.604M550.576 635.534L524.533 642.643M550.576 635.534L578.608 627.107M550.576 635.534L598.294 630.854M550.576 635.534L524.641 627.687M550.576 635.534L524.542 642.643M550.576 635.534L573.716 641.373M552.604 622.604L524.641 627.687M552.604 622.604L578.608 627.107M552.604 622.604L605.538 620.25M410.416 596.362L438.773 627.64M410.416 596.362L465.457 626.444M438.773 627.64L465.457 626.444M438.773 627.64L497.662 646.829M438.773 627.64L417.956 630.667M438.773 627.64L469.699 650.734M465.457 626.444L497.662 646.829M465.457 626.444L524.533 642.643M497.662 646.829L524.533 642.643M497.662 646.829L548.618 651.051M497.662 646.829L469.699 650.734M497.662 646.829L524.572 659.123M524.533 642.643L548.618 651.051M548.618 651.051L524.572 659.123M548.618 651.051L573.716 641.373M548.618 651.051L591.217 646.287M548.618 651.051L524.542 642.643M548.618 651.051L568.953 657.329M251.998 575.343L269.381 598.212M251.998 575.343L289.243 575.641M269.381 598.212L289.243 575.641M269.381 598.212L311.222 599.52M269.381 598.212L244.734 609.563M269.381 598.212L286.517 610.59M289.243 575.641L311.222 599.52M289.243 575.641L331.783 582.302M289.243 575.641L311.222 599.529L331.783 582.302M311.222 599.52L331.783 582.302M311.222 599.52L354.618 611.926M311.222 599.52L286.517 610.59M311.222 599.52L330.533 616.168M331.783 582.302L354.618 611.926M331.783 582.302L375.16 604.331M354.618 611.926L375.16 604.331M354.618 611.926L398.064 633.189M354.618 611.926L374.619 632.404M354.618 611.926L330.533 616.168M375.16 604.331L398.064 633.189M375.16 604.331L417.956 630.667M244.734 609.563L261.615 619.83M244.734 609.563L286.517 610.59M261.615 619.83L286.517 610.59M261.615 619.83L305.73 621.241M261.615 619.83L237.244 628.761M261.615 619.83L281.359 631.461M286.517 610.59L305.73 621.241M286.517 610.59L330.533 616.168M398.064 633.189L374.619 632.404M398.064 633.189L417.956 630.667M398.064 633.189L443.409 654.05M398.064 633.189L418.704 653.387M374.619 632.404L350.721 631.433M374.619 632.404L395.712 648.819M374.619 632.404L330.533 616.168M374.619 632.404L418.704 653.387M305.73 621.241L330.533 616.168M305.73 621.241L350.721 631.433M305.73 621.241L281.359 631.461M305.73 621.241L327.197 635.179M330.533 616.168L350.721 631.433M350.721 631.433L395.712 648.819M350.721 631.433L327.197 635.179M350.721 631.433L373.103 646.156M395.712 648.819L418.704 653.387M395.712 648.819L442.868 667.802M395.712 648.819L373.103 646.156M395.712 648.819L419.019 663.28M417.956 630.667L443.409 654.05M417.956 630.667L469.699 650.734M443.409 654.05L469.699 650.734M443.409 654.05L498.577 665.298M443.409 654.05L418.704 653.387M443.409 654.05L470.191 668.643M469.699 650.734L498.577 665.298M469.699 650.734L524.572 659.123M498.577 665.298L524.572 659.123M498.577 665.298L546.738 666.774M498.577 665.298L470.191 668.643M498.577 665.298L523.922 674.257M524.572 659.123L546.738 666.774M524.572 659.123L568.953 657.329M546.738 666.774L523.922 674.257M546.738 666.774L568.953 657.329M546.738 666.774L584.307 660.842M546.738 666.774L565.232 671.333M418.704 653.387L442.868 667.802M418.704 653.387L470.191 668.643M442.868 667.802L470.191 668.643M442.868 667.802L497.505 677.994M442.868 667.802L419.019 663.28M442.868 667.802L470.417 677.807M470.191 668.643L497.505 677.994M470.191 668.643L523.922 674.257M497.505 677.994L523.922 674.257M497.505 677.994L546.354 679.666M497.505 677.994L470.417 677.807M497.505 677.994L523.401 683.87M523.922 674.257L546.354 679.666M523.922 674.257L565.232 671.333M546.354 679.666L523.401 683.87M546.354 679.666L565.232 671.333M546.354 679.666L584.77 673.659M546.354 679.666L523.411 683.87M546.354 679.666L567.516 682.058M-164.141 570.952L-118.874 580.537M-164.141 570.952L-155.814 595.475M-118.874 580.537L-155.814 595.475M-118.874 580.537L-109.238 600.566M-118.874 580.537L-73.0957 589.944M-155.814 595.475L-109.238 600.566M-155.814 595.475L-194.367 614.738M-155.814 595.475L-146.877 616.457M-109.238 600.566L-73.0957 589.944M-109.238 600.566L-62.3475 604.397M-109.238 600.566L-146.877 616.457M-109.238 600.566L-99.1001 615.841M-73.0957 589.944L-62.3475 604.397M-73.0957 589.944L-27.0319 598.249M-62.3475 604.397L-27.0319 598.249M-62.3475 604.397L-15.3191 607.012M-62.3475 604.397L-99.1001 615.841M-62.3475 604.397L-51.1662 613.86M-27.0319 598.249L-15.3191 607.012M-27.0319 598.249L19.1106 604.555M-15.3191 607.012L19.1106 604.555M-15.3191 607.012L31.6994 608.432M-15.3191 607.012L-3.17323 611.469M-15.3191 607.012L-51.1662 613.86M19.1106 604.555L31.6994 608.432M19.1106 604.555L65.1252 607.975M-194.367 614.738L-146.877 616.457M-194.367 614.738L-186.178 635.114M-146.877 616.457L-186.178 635.114M-146.877 616.457L-137.418 631.536M-146.877 616.457L-99.1001 615.841M-146.877 616.457L-99.1001 615.85M-186.178 635.114L-137.418 631.536M-186.178 635.114L-227.331 652.07M-186.178 635.114L-177.438 648.454M-137.418 631.536L-99.1001 615.85M-137.418 631.536L-99.1001 615.841M-137.418 631.536L-88.5192 625.51M-137.418 631.536L-177.438 648.454M-137.418 631.536L-127.486 640.364M-99.1001 615.841L-88.5192 625.51M-99.1001 615.841L-51.1662 613.86M-99.1001 615.85L-51.1662 613.86M-99.1001 615.85L-88.5192 625.51M31.6994 608.432L-3.17323 611.469M31.6994 608.432L65.1252 607.975M31.6994 608.432L78.3439 609.441M31.6994 608.432L44.7409 609.628M-3.17323 611.469L-39.5518 618.905M-3.17323 611.469L9.40578 613.636M-3.17323 611.469L-51.1662 613.86M-3.17323 611.469L44.7409 609.628M-88.5192 625.51L-51.1662 613.86M-88.5192 625.51L-39.5518 618.905M-88.5192 625.51L-127.486 640.364M-88.5192 625.51L-77.4954 630.629M-51.1662 613.86L-39.5518 618.905M-39.5518 618.905L9.40578 613.636M-39.5518 618.905L-77.4954 630.629M-39.5518 618.905L-27.4847 622.063M9.40578 613.636L44.7409 609.628M9.40578 613.636L58.3731 613.543M9.40578 613.636L-27.4847 622.063M9.40578 613.636L22.5064 617.504M65.1252 607.975L78.3439 609.441M65.1252 607.975L109.663 609.759M78.3439 609.441L109.663 609.759M78.3439 609.441L123.532 615.542M78.3439 609.441L44.7409 609.628M78.3439 609.441L92.1729 614.122M109.663 609.759L123.532 615.542M109.663 609.759L152.469 615.411M123.532 615.542L152.469 615.411M123.532 615.542L167.784 625.239M123.532 615.542L92.1729 614.122M123.532 615.542L138.65 625.155M152.469 615.411L167.784 625.239M152.469 615.411L194.635 622.576M152.469 615.411L167.784 625.248M167.784 625.239L138.65 625.155M194.635 622.576L167.784 625.248M194.635 622.576L211.968 635.3M194.635 622.576L237.244 628.761M167.784 625.248L211.968 635.3M167.784 625.248L184.783 638.626M167.784 625.248L138.65 625.155M44.7409 609.628L58.3731 613.543M44.7409 609.628L92.1729 614.122M58.3731 613.543L92.1729 614.122M58.3731 613.543L106.898 623.688M58.3731 613.543L22.5064 617.504M58.3731 613.543L72.5662 623.473M92.1729 614.122L106.898 623.688M92.1729 614.122L138.65 625.155M211.968 635.3L184.783 638.626M211.968 635.3L237.244 628.761M211.968 635.3L256.92 642.457M211.968 635.3L231.152 650.528M184.783 638.626L138.65 625.155M184.783 638.626L155.028 639.121L138.65 625.155M184.783 638.626L155.028 639.112M184.783 638.626L203.12 655.068M184.783 638.626L231.152 650.528M106.898 623.688L138.65 625.155M106.898 623.688L155.028 639.112M106.898 623.688L72.5662 623.473M106.898 623.688L122.439 638.411M138.65 625.155L155.028 639.112M155.028 639.112L122.439 638.411M155.028 639.112L172.243 656.731M155.028 639.112L203.12 655.068M-227.331 652.07L-177.438 648.454M-227.331 652.07L-219.388 662.028M-177.438 648.454L-219.388 662.028M-177.438 648.454L-168.284 655.321M-177.438 648.454L-127.486 640.364M-219.388 662.028L-168.284 655.321M-219.388 662.028L-263.365 673.697M-219.388 662.028L-211.07 670.007M-168.284 655.321L-127.486 640.364M-168.284 655.321L-117.171 645.446M-168.284 655.321L-211.07 670.007M-168.284 655.321L-158.757 662.355M-127.486 640.364L-117.171 645.446M-127.486 640.364L-77.4954 630.629M-117.171 645.446L-77.4954 630.629M-117.171 645.446L-66.0583 635.534M-117.171 645.446L-158.757 662.355M-117.171 645.446L-106.443 653.35M-77.4954 630.629L-66.0583 635.534M-77.4954 630.629L-27.4847 622.063M-77.4954 630.629L-27.4847 622.072M-66.0583 635.534L-27.4847 622.072M-66.0583 635.534L-27.4847 622.063M-66.0583 635.534L-14.9353 628.649M-66.0583 635.534L-54.119 645.596M-66.0583 635.534L-106.443 653.35M-27.4847 622.063L-14.9353 628.649M-27.4847 622.063L22.5064 617.504M-27.4847 622.072L22.5064 617.504M-27.4847 622.072L-14.9353 628.649M-263.365 673.697L-211.07 670.007M-263.365 673.697L-255.904 683.777L-211.07 670.007M-211.07 670.007L-158.757 662.355M-211.07 670.007L-202.34 679.022L-158.757 662.355M-158.757 662.355L-106.443 653.35M-158.757 662.355L-148.776 672.109L-106.443 653.35M-14.9353 628.649L-54.119 645.596M-14.9353 628.649L22.5064 617.504M-14.9353 628.649L36.1975 628.845M-14.9353 628.649L-1.79523 641.709M-54.119 645.596L-106.443 653.35M-54.119 645.596L-95.1926 665.158L-106.443 653.35M-54.119 645.596L-1.79523 641.709M-54.119 645.596L-41.6089 660.291L-1.79523 641.709M22.5064 617.504L36.1975 628.845M22.5064 617.504L72.5662 623.473M36.1975 628.845L72.5662 623.473M36.1975 628.845L87.3303 640.065M36.1975 628.845L-1.79523 641.709M36.1975 628.845L50.5383 647.352M72.5662 623.473L87.3303 640.065M72.5662 623.473L122.439 638.411M87.3303 640.065L122.439 638.411M87.3303 640.065L138.473 657.385M87.3303 640.065L50.5383 647.352M87.3303 640.065L102.882 660.571M122.439 638.411L138.473 657.385M122.439 638.411L172.243 656.731M138.473 657.385L172.243 656.731M138.473 657.385L189.615 675.322M138.473 657.385L155.225 676.611M138.473 657.385L102.882 660.571M172.243 656.731L203.12 655.068M172.243 656.731L189.615 675.322M172.243 656.731L222.106 672.893M203.12 655.068L231.152 650.528M203.12 655.068L251.556 666.793M203.12 655.068L222.106 672.893M-1.79523 641.709L50.5383 647.352M-1.79523 641.709L11.9747 660.459L50.5383 647.352M50.5383 647.352L102.882 660.571M50.5383 647.352L65.5681 668.428L102.882 660.571M189.615 675.322L155.225 676.611M189.615 675.322L222.106 672.893M189.615 675.322L240.768 688.364M189.615 675.322L207.568 690.858M155.225 676.611L102.882 660.571M155.225 676.611L119.171 680.591L102.882 660.571M155.225 676.611L207.568 690.858M155.225 676.611L172.785 693.156L207.568 690.858M237.244 628.761L256.92 642.457M237.244 628.761L281.359 631.461M256.92 642.457L281.359 631.461M256.92 642.457L303.328 644.334M256.92 642.457L231.152 650.528M256.92 642.457L278.377 656.862M281.359 631.461L303.328 644.334M281.359 631.461L327.197 635.179M303.328 644.334L327.197 635.179M303.328 644.334L350.179 648.576M303.328 644.334L278.377 656.862M303.328 644.334L326.232 656.815M327.197 635.179L350.179 648.576M327.197 635.179L373.103 646.156M350.179 648.576L373.103 646.156M350.179 648.576L397.04 658.889M350.179 648.576L374.067 659.945M350.179 648.576L326.232 656.815M373.103 646.156L397.04 658.889M373.103 646.156L419.019 663.28M231.152 650.528L251.556 666.793M231.152 650.528L278.377 656.862M251.556 666.793L278.377 656.862M251.556 666.793L300.493 669.222M251.556 666.793L222.106 672.893M251.556 666.793L272.146 681.395M278.377 656.862L300.493 669.222M278.377 656.862L326.232 656.815M397.04 658.889L374.067 659.945M397.04 658.889L419.019 663.28M397.04 658.889L445.082 674.79M397.04 658.889L421.903 670.567M374.067 659.945L349.362 667.223M374.067 659.945L398.241 670.165M374.067 659.945L326.232 656.815M374.067 659.945L421.903 670.567M300.493 669.222L326.232 656.815M300.493 669.222L349.362 667.223M300.493 669.222L272.146 681.395M300.493 669.222L322.157 679.106M326.232 656.815L349.362 667.223M349.362 667.223L398.241 670.165M349.362 667.223L322.157 679.106M349.362 667.223L372.148 676.397M398.241 670.165L421.903 670.567M398.241 670.165L447.287 682.796M398.241 670.165L372.148 676.397M398.241 670.165L422.149 682.506M419.019 663.28L445.082 674.79M419.019 663.28L470.417 677.807M445.082 674.79L470.417 677.807M445.082 674.79L497.731 685.057M445.082 674.79L421.903 670.567M445.082 674.79L472.081 684.253M470.417 677.807L497.731 685.057M470.417 677.807L523.401 683.87M497.731 685.057L523.401 683.87M497.731 685.057L546.816 687.262M497.731 685.057L472.081 684.253M497.731 685.057L523.165 690.699M523.401 683.87L546.816 687.262M546.816 687.262L523.165 690.699M546.816 687.262L567.516 682.058M546.816 687.262L589.524 684.608M546.816 687.262L567.516 682.067M546.816 687.262L523.411 683.87M546.816 687.262L569.878 690.718M421.903 670.567L447.287 682.796M421.903 670.567L472.081 684.253M447.287 682.796L472.081 684.253M447.287 682.796L497.957 693.119M447.287 682.796L422.149 682.506M447.287 682.796L472.297 695.436M472.081 684.253L497.957 693.119M472.081 684.253L523.165 690.699M497.957 693.119L523.165 690.699M497.957 693.119L547.299 695.884M497.957 693.119L472.297 695.436M497.957 693.119L522.633 702.33M523.165 690.699L547.299 695.884M523.165 690.699L569.878 690.718M523.165 690.699L547.308 695.884M547.299 695.884L522.633 702.33M222.106 672.893L240.768 688.364M222.106 672.893L272.146 681.395M240.768 688.364L272.146 681.395M240.768 688.364L291.93 691.167M240.768 688.364L207.568 690.858M240.768 688.364L259.932 698.687M272.146 681.395L291.93 691.167M272.146 681.395L322.157 679.106M291.93 691.167L322.157 679.106M291.93 691.167L343.112 687.383M291.93 691.167L259.932 698.687M291.93 691.167L312.315 697.174M322.157 679.106L343.112 687.383M322.157 679.106L372.148 676.397M343.112 687.383L372.148 676.397M343.112 687.383L394.304 687.355M343.112 687.383L364.717 694.567M343.112 687.383L312.315 697.174M372.148 676.397L394.304 687.355M372.148 676.397L422.149 682.506M207.568 690.858L259.932 698.687M207.568 690.858L226.398 702.396L259.932 698.687M259.932 698.687L312.315 697.174M259.932 698.687L280.021 704.535L312.315 697.174M394.304 687.355L364.717 694.567M394.304 687.355L422.149 682.506M394.304 687.355L445.476 698.295M394.304 687.355L417.129 699.098M364.717 694.567L312.315 697.174M364.717 694.567L333.653 701.957L312.315 697.174M364.717 694.567L417.129 699.098M364.717 694.567L387.306 701.919L417.129 699.098M422.149 682.506L445.476 698.295M422.149 682.506L472.297 695.436M445.476 698.295L472.297 695.436M445.476 698.295L496.619 708.515M445.476 698.295L417.129 699.098M445.476 698.295L469.463 709.907M472.297 695.436L496.619 708.515M472.297 695.436L522.633 702.33M496.619 708.515L522.633 702.33M496.619 708.515L547.781 711.561M496.619 708.515L469.463 709.907M496.619 708.515L521.806 716.269M522.633 702.33L547.781 711.561M522.633 702.33L547.308 695.884M522.633 702.33L572.348 703.592M522.633 702.33L547.791 711.561M547.781 711.561L521.806 716.269M417.129 699.098L469.463 709.907M417.129 699.098L440.939 709.468L469.463 709.907M469.463 709.907L521.806 716.269M469.463 709.907L494.571 716.643L521.806 716.269M524.641 627.687L578.608 627.107M578.608 627.107L598.294 630.854M578.608 627.107L605.538 620.25M578.608 627.107L622.211 620.979M598.294 630.854L622.211 620.979M598.294 630.854L635.528 621.894M598.294 630.854L573.716 641.373M598.294 630.854L613.491 634.226M605.538 620.25L622.211 620.979M605.538 620.25L645.096 613.449M622.211 620.979L635.528 621.894M622.211 620.979L645.096 613.449M622.211 620.979L656.858 610.254M635.528 621.894L656.858 610.254M635.528 621.894L668.649 609.46M635.528 621.894L613.491 634.226M635.528 621.894L647.625 623.912M645.096 613.449L656.858 610.254M645.096 613.449L676.779 600.436M656.858 610.254L668.649 609.46M656.858 610.254L676.779 600.436M656.858 610.254L688.492 594.438M668.649 609.46L688.492 594.438M668.649 609.46L704.043 594.363M668.649 609.46L682.921 612.534M668.649 609.46L647.625 623.912M676.779 600.436L688.492 594.438M676.779 600.436L706.12 579.444M688.492 594.438L706.12 579.444M688.492 594.438L704.043 594.363M688.492 594.438L723.069 573.091M706.12 579.444L723.069 573.091M706.12 579.444L737.961 551.754M524.542 642.643L573.716 641.373M573.716 641.373L591.217 646.287M573.716 641.373L613.491 634.226M591.217 646.287L613.491 634.226M591.217 646.287L626.207 637.402M591.217 646.287L568.953 657.329M591.217 646.287L604.987 649.715M613.491 634.226L626.207 637.402M613.491 634.226L647.625 623.912M704.043 594.363L682.921 612.534M704.043 594.363L723.069 573.091M704.043 594.363L745.855 578.668M704.043 594.363L726.229 602.173M682.921 612.534L660.834 627.752M682.921 612.534L702.36 620.717M682.921 612.534L647.625 623.912M682.921 612.534L660.834 627.761M682.921 612.534L726.229 602.173M626.207 637.402L647.625 623.912M626.207 637.402L660.834 627.761M626.207 637.402L604.987 649.715M626.207 637.402L638.678 640.373M647.625 623.912L660.834 627.761M660.834 627.761L638.678 640.373M660.834 627.752L702.36 620.717M660.834 627.752L638.678 640.373M660.834 627.752L677.734 633.937M702.36 620.717L726.229 602.173M702.36 620.717L753.67 618.186M702.36 620.717L677.734 633.937M702.36 620.717L729.831 635.048M723.069 573.091L745.855 578.668M723.069 573.091L737.961 551.754M723.069 573.091L741.967 562.572L753.749 575.221M745.855 578.668L752.046 573.026L753.749 575.221M745.855 578.668L771.397 603.64M745.855 578.668L726.229 602.173M745.855 578.668L764.733 602.846M737.961 551.754L753.749 575.221M737.961 551.754L754.497 596.727M753.749 575.221L771.397 603.64M753.749 575.221L754.497 596.727M753.749 575.221L771.328 607.75L779.576 609.703M753.749 575.221L779.576 609.703M771.397 603.64L779.576 609.703M771.397 603.64L783.277 609.348L814.213 586.945M771.397 603.64L768.356 601.407L764.733 602.846M771.397 603.64L795.738 609.04M771.397 603.64L780.186 608.993L814.213 586.945M754.497 596.727L779.576 609.703M754.497 596.727L763.198 611.216L776.082 611.338L795.187 594.756M779.576 609.703L814.213 586.945M779.576 609.703L795.187 594.756M779.576 609.703L835.404 554.248M814.213 586.945L835.404 554.248M814.213 586.945L872.324 520.644M814.213 586.945L847.205 558.05M814.213 586.945L795.738 609.04M795.187 594.756L835.404 554.248M795.187 594.756L860.08 513.815M835.404 554.248L860.08 513.815M835.404 554.248L872.324 520.644M835.404 554.248L902.128 471.813M860.08 513.815L902.128 471.813M860.08 513.815L931.665 422.056M726.229 602.173L753.67 618.186M726.229 602.173L764.733 602.846M726.229 602.173L764.733 602.855M753.67 618.186L764.733 602.855M753.67 618.186L764.733 602.846M753.67 618.186L784.891 619.204M753.67 618.186L729.831 635.048M753.67 618.186L775.186 634.544M764.733 602.846L784.891 619.204M764.733 602.846L795.738 609.04M764.733 602.855L795.738 609.04M764.733 602.855L784.891 619.204M872.324 520.644L847.205 558.05M872.324 520.644L902.128 471.813M872.324 520.644L931.665 460.789M872.324 520.644L900.405 511.05M847.205 558.05L795.738 609.04M847.205 558.05L826.644 586.133M847.205 558.05L875.021 546.176M847.205 558.05L900.405 511.05M847.205 558.05L900.405 511.059M784.891 619.204L795.738 609.04M784.891 619.204L826.644 586.133M784.891 619.204L775.186 634.544M784.891 619.204L809.872 612.076M795.738 609.04L826.644 586.133M826.644 586.133L809.872 612.076M826.644 586.133L856.438 566.785M826.644 586.133L875.021 546.176M568.953 657.329L584.307 660.842M568.953 657.329L604.987 649.715M584.307 660.842L604.987 649.715M584.307 660.842L617.152 650.911M584.307 660.842L565.232 671.333M584.307 660.842L598.786 661.561M604.987 649.715L617.152 650.911M604.987 649.715L638.678 640.373M617.152 650.911L638.678 640.373M617.152 650.911L653.373 642.905M617.152 650.911L598.786 661.561M617.152 650.911L632.861 651.332M638.678 640.373L653.373 642.905M638.678 640.373L677.734 633.937M653.373 642.905L677.734 633.937M653.373 642.905L701.11 642.756M653.373 642.905L675.539 647.174M653.373 642.905L632.861 651.332M677.734 633.937L701.11 642.756M677.734 633.937L729.831 635.048M565.232 671.333L584.77 673.659M565.232 671.333L598.786 661.561M584.77 673.659L598.786 661.561M584.77 673.659L620.194 664.803M584.77 673.659L567.516 682.058M584.77 673.659L606.128 676.107M598.786 661.561L620.194 664.803M598.786 661.561L632.861 651.332M701.11 642.756L675.539 647.174M701.11 642.756L729.831 635.048M701.11 642.756L762.086 653.144M701.11 642.756L734.89 655.564M675.539 647.174L659.486 658.376M675.539 647.174L709.447 659.665M675.539 647.174L632.861 651.332M675.539 647.174L734.89 655.564M620.194 664.803L632.861 651.332M620.194 664.803L659.476 658.376M620.194 664.803L606.128 676.107M620.194 664.803L645.096 670.203M632.861 651.332L659.476 658.376M632.861 651.332L659.486 658.376M659.476 658.376L645.096 670.203M659.486 658.376L709.447 659.665M659.486 658.376L645.096 670.203M659.486 658.376L690.008 668.381M709.447 659.665L734.89 655.564M709.447 659.665L771.348 670.483M709.447 659.665L690.008 668.381M709.447 659.665L746.436 674.687M729.831 635.048L762.086 653.144M729.831 635.048L775.186 634.544M762.086 653.144L775.186 634.544M762.086 653.144L799.153 633.974M762.086 653.144L734.89 655.564M762.086 653.144L787.057 655.872M775.186 634.544L799.153 633.974M775.186 634.544L809.872 612.076M799.153 633.974L809.872 612.076M799.153 633.974L840.493 586.095M799.153 633.974L787.057 655.872M799.153 633.974L826.811 613.907M809.872 612.076L840.493 586.095M809.872 612.076L856.438 566.785M840.493 586.095L856.438 566.785M840.493 586.095L882.039 565.216M840.493 586.095L872.462 568.738M840.493 586.095L826.811 613.907M856.438 566.785L875.021 546.176M856.438 566.785L882.039 565.216M856.438 566.785L896.025 557.546M875.021 546.176L900.405 511.05M875.021 546.176L919.067 530.136M875.021 546.176L900.405 511.059M875.021 546.176L896.025 557.546M734.89 655.564L771.348 670.483M734.89 655.564L787.057 655.872M771.348 670.483L787.057 655.872M771.348 670.483L813.209 645.091M771.348 670.483L746.436 674.687M771.348 670.483L798.071 672.445M787.057 655.872L813.209 645.091M787.057 655.872L826.811 613.907M882.039 565.216L876.517 564.646L872.462 568.738M882.039 565.216L896.025 557.546M882.039 565.216L913.594 585.871M882.039 565.216L905.12 579.724M872.462 568.738L856.586 597.838M872.462 568.738L898.003 584.498M872.462 568.738L826.811 613.907M872.462 568.738L905.12 579.724M813.209 645.091L826.811 613.907M813.209 645.091L856.586 597.838M813.209 645.091L798.071 672.445M813.209 645.091L841.054 638.748M826.811 613.907L856.586 597.838M856.586 597.838L898.003 584.498M856.586 597.838L841.054 638.748M856.586 597.838L887.295 606.882M898.003 584.498L902.895 579.378L905.12 579.724M898.003 584.498L929.707 610.161M898.003 584.498L887.295 606.882M898.003 584.498L924.303 616.065M902.128 471.813L931.665 460.789M902.128 471.813L931.665 422.056M902.128 471.813L962.837 407.38M931.665 460.789L962.837 407.38M931.665 460.789L979.737 432.529M931.665 460.789L900.405 511.05M931.665 460.789L949.205 483.864M931.665 422.056L962.837 407.38M931.665 422.056L983.625 375M962.837 407.38L979.737 432.529M962.837 407.38L983.625 375M962.837 407.38L1006.01 394.413M979.737 432.529L1006.01 394.413M979.737 432.529L1023.56 435.023M979.737 432.529L949.205 483.864M979.737 432.529L993.389 479.978M983.625 375L1006.01 394.413M983.625 375L1024.73 376.121M1006.01 394.413L1023.56 435.023M1006.01 394.413L1024.73 376.121M1006.01 394.413L1047.6 405.979M1023.56 435.023L1047.6 405.979M1023.56 435.023L1068.82 444.991M1023.56 435.023L1042.08 479.894M1023.56 435.023L993.389 479.978M1024.73 376.121L1047.6 405.979M1024.73 376.121L1063.75 397.636M1047.6 405.979L1063.75 397.636M1047.6 405.979L1068.82 444.991M1047.6 405.979L1088.74 427.484M1063.75 397.636L1088.74 427.484M1063.75 397.636L1101.57 427.746M900.405 511.05L919.067 530.136M900.405 511.05L949.205 483.864M919.067 530.136L949.205 483.864M919.067 530.136L900.405 511.059M919.067 530.136L960.682 531.051M919.067 530.136L896.025 557.546M919.067 530.136L932.758 570.083M900.405 511.059L949.205 483.864M949.205 483.864L960.682 531.051M949.205 483.864L993.389 479.978M1068.82 444.991L1042.08 479.894M1068.82 444.991L1088.74 427.484M1068.82 444.991L1114.08 458.229M1068.82 444.991L1042.09 479.894M1068.82 444.991L1092.68 480.613M1042.08 479.894L1010.62 526.801M1042.08 479.894L1065.55 517.075M1042.08 479.894L993.389 479.978M960.682 531.051L993.389 479.978M960.682 531.051L1010.62 526.801M960.682 531.051L932.758 570.083M960.682 531.051L978.379 575.305M993.389 479.978L1010.62 526.801M1010.62 526.801L1065.55 517.075M1010.62 526.801L978.379 575.305M1010.62 526.801L1035.09 561.628M1065.55 517.075L1092.68 480.613M1065.55 517.075L1121.65 505.286M1065.55 517.075L1042.09 479.894M1065.55 517.075L1035.09 561.628M1065.55 517.075L1096.07 539.59M1088.74 427.484L1114.08 458.229M1088.74 427.484L1101.57 427.746M1088.74 427.484L1129.13 450.924M1114.08 458.229L1129.13 450.924M1114.08 458.229L1157.86 470.57M1114.08 458.229L1092.68 480.613M1114.08 458.229L1142.55 481.743M1101.57 427.746L1129.13 450.924M1101.57 427.746L1139.07 454.67M1129.13 450.924L1157.86 470.57M1129.13 450.924L1139.07 454.67M1129.13 450.924L1168.46 468.337M1157.86 470.57L1168.46 468.337M1157.86 470.57L1198.7 477.857M1157.86 470.57L1142.55 481.743M1157.86 470.57L1189.07 482.921M1139.07 454.67L1168.46 468.337M1139.07 454.67L1177.09 466.637L1168.46 468.337M1168.46 468.337L1198.7 477.857M1198.7 477.857L1189.07 482.921M1042.09 479.894L1092.68 480.613M1092.68 480.613L1121.65 505.286M1092.68 480.613L1142.55 481.743M1121.65 505.286L1142.55 481.743M1121.65 505.286L1175.14 494.841M1121.65 505.286L1096.07 539.59M1121.65 505.286L1156.35 516.412M1142.55 481.743L1175.14 494.841M1142.55 481.743L1189.07 482.921M1175.14 494.841L1189.07 482.921M1175.14 494.841L1222.21 489.227M1175.14 494.841L1156.35 516.412M1175.14 494.841L1210.96 499.344M1189.07 482.921L1222.21 489.227M1222.21 489.227L1210.96 499.344M896.025 557.546L913.594 585.871M896.025 557.546L932.758 570.083M896.025 557.546L913.594 585.88L932.758 570.083M913.594 585.871L932.758 570.083M913.594 585.871L951.134 610.002M913.594 585.871L909.588 585.255L905.12 579.724M913.594 585.871L936.223 613.44M913.594 585.871L909.578 585.255L905.12 579.724M932.758 570.083L951.134 610.002M932.758 570.083L978.379 575.305M951.134 610.002L978.379 575.305M951.134 610.002L1005.6 603.248M951.134 610.002L941.941 615.383L936.223 613.44M951.134 610.002L983.418 625.398M978.379 575.305L1005.6 603.248M978.379 575.305L1035.09 561.628M1005.6 603.248L1035.09 561.628M1005.6 603.248L1068.6 578.061M1005.6 603.248L1044.09 607.732M1005.6 603.248L983.418 625.398M1035.09 561.628L1068.6 578.061M1035.09 561.628L1096.07 539.59M905.12 579.724L929.707 610.161M905.12 579.724L936.223 613.44M929.707 610.161L936.223 613.44M929.707 610.161L968.585 635.74M929.707 610.161L924.303 616.065M929.707 610.161L960.16 641.831M936.223 613.44L968.585 635.74M936.223 613.44L983.418 625.398M1068.6 578.061L1044.09 607.732M1068.6 578.061L1096.07 539.59M1068.6 578.061L1133.97 545.438M1068.6 578.061L1110.77 574.408M1044.09 607.732L1024.13 629.564M1044.09 607.732L1087.57 603.631M1044.09 607.732L983.418 625.398M1044.09 607.732L1110.77 574.408M968.585 635.74L983.418 625.398M968.585 635.74L1024.13 629.564M968.585 635.74L960.16 641.831M968.585 635.74L1008.36 650.192M983.418 625.398L1024.13 629.564M1024.13 629.564L1087.57 603.631M1024.13 629.564L1008.36 650.192M1024.13 629.564L1066.93 633.572M1087.57 603.631L1110.77 574.408M1087.57 603.631L1153.3 569.784M1087.57 603.631L1066.93 633.572M1087.57 603.631L1129.67 604.938M1096.07 539.59L1133.97 545.438M1096.07 539.59L1156.35 516.412M1133.97 545.438L1156.35 516.412M1133.97 545.438L1195.6 516.403M1133.97 545.438L1110.77 574.408M1133.97 545.438L1176.81 538.731M1156.35 516.412L1195.6 516.403M1156.35 516.412L1210.96 499.344M1195.6 516.403L1210.96 499.344M1195.6 516.403L1247.34 502.035M1195.6 516.403L1176.81 538.731M1195.6 516.403L1235.56 513.983M1210.96 499.344L1247.34 502.035M1247.34 502.035L1235.56 513.983M1110.77 574.408L1153.3 569.784M1110.77 574.408L1176.81 538.731M1153.3 569.784L1176.81 538.731M1153.3 569.784L1215.67 539.861M1153.3 569.784L1129.67 604.938M1153.3 569.784L1191.97 574.689M1176.81 538.731L1215.67 539.861M1176.81 538.731L1235.56 513.983M1215.67 539.861L1235.56 513.983M1215.67 539.861L1269.06 525.689M1215.67 539.861L1191.97 574.689M1215.67 539.861L1249.23 553.192M1235.56 513.983L1269.06 525.689M1269.06 525.689L1249.23 553.192M523.411 683.87L567.516 682.058M523.411 683.87L567.516 682.067M567.516 682.058L589.524 684.608M567.516 682.058L606.128 676.107M589.524 684.608L606.128 676.107M589.524 684.608L567.516 682.067M589.524 684.608L630.322 680.843M589.524 684.608L569.878 690.718M589.524 684.608L613.717 689.56M567.516 682.067L606.128 676.107M606.128 676.107L630.322 680.843M606.128 676.107L645.096 670.203M630.322 680.843L645.096 670.203M630.322 680.843L673.561 678.77M630.322 680.843L613.717 689.56M630.322 680.843L657.744 688.952M645.096 670.203L673.561 678.77M645.096 670.203L690.008 668.381M673.561 678.77L690.008 668.381M673.561 678.77L723.581 681.217M673.561 678.77L705.057 690.485M673.561 678.77L657.744 688.952M690.008 668.381L723.581 681.217M690.008 668.381L746.436 674.687M690.008 668.381L723.591 681.217M569.878 690.718L547.308 695.884M569.878 690.718L594.455 696.688M569.878 690.718L613.717 689.56M547.308 695.884L594.455 696.688M547.308 695.884L572.348 703.592M594.455 696.688L613.717 689.56M594.455 696.688L640.794 698.108M594.455 696.688L572.348 703.592M594.455 696.688L621.581 706.46M613.717 689.56L640.794 698.108M613.717 689.56L657.744 688.952M723.581 681.217L705.057 690.485M705.057 690.485L688.167 700.509M705.057 690.485L738.463 704.246M705.057 690.485L657.744 688.952M705.057 690.485L723.591 681.217M705.057 690.485L758.769 695.716M640.794 698.108L657.744 688.952M640.794 698.108L688.167 700.509M640.794 698.108L621.581 706.46M640.794 698.108L670.844 710.393M657.744 688.952L688.167 700.509M688.167 700.509L738.463 704.246M688.167 700.509L670.844 710.393M688.167 700.509L720.786 714.513M738.463 704.246L758.769 695.716M738.463 704.246L792.057 709.477M738.463 704.246L720.786 714.513M738.463 704.246L772.007 717.932M746.436 674.687L723.591 681.217M746.436 674.687L781.269 689.083M746.436 674.687L798.071 672.445M723.591 681.217L781.269 689.083M723.591 681.217L758.769 695.716M781.269 689.083L798.071 672.445M781.269 689.083L826.191 673.743M781.269 689.083L758.779 695.716M781.269 689.083L809.882 697.276M781.269 689.083L758.769 695.716M798.071 672.445L826.191 673.743M798.071 672.445L841.054 638.748M826.191 673.743L841.054 638.748M826.191 673.743L871.989 643.447M826.191 673.743L809.882 697.276M826.191 673.743L856.142 680.965M841.054 638.748L871.989 643.447M841.054 638.748L887.295 606.882M871.989 643.447L887.295 606.882M871.989 643.447L916.37 634.049M871.989 643.447L904.342 662.103M871.989 643.447L856.142 680.965M887.295 606.882L916.37 634.049M887.295 606.882L924.303 616.065M758.769 695.716L792.057 709.477M792.057 709.477L809.882 697.276M792.057 709.477L758.779 695.716M792.057 709.477L840.148 705.796M792.057 709.477L772.007 717.932M792.057 709.477L822.707 719.1M758.779 695.716L809.882 697.276M809.882 697.276L840.148 705.796M809.882 697.276L856.142 680.965M916.37 634.049L904.342 662.103M916.37 634.049L924.303 616.065M916.37 634.049L954.658 649.743M916.37 634.049L947.689 664.214M904.342 662.103L856.142 680.965M904.342 662.103L888.653 693.353M904.342 662.103L937.118 684.674M904.342 662.103L947.689 664.214M840.148 705.796L856.142 680.965M840.148 705.796L888.653 693.353M840.148 705.796L822.707 719.1M840.148 705.796L872.442 714.298M856.142 680.965L888.653 693.353M888.653 693.353L872.442 714.298M888.653 693.353L922.827 705.638M888.653 693.353L937.118 684.674M572.348 703.592L547.791 711.561M572.348 703.592L598.983 713.905M572.348 703.592L621.581 706.46M547.791 711.561L598.983 713.905M547.791 711.561L521.816 716.269M547.791 711.561L574.189 717.652M598.983 713.905L621.581 706.46M598.983 713.905L650.174 718.651M598.983 713.905L574.189 717.652M598.983 713.905L626.591 722.715M621.581 706.46L650.174 718.651M621.581 706.46L670.844 710.393M650.174 718.651L670.844 710.393M650.174 718.651L701.376 723.958M650.174 718.651L626.591 722.715M650.174 718.651L678.994 729.843M670.844 710.393L701.376 723.958M670.844 710.393L720.786 714.513M701.376 723.958L720.786 714.513M701.376 723.958L752.578 727.965M701.376 723.958L731.396 736.476M701.376 723.958L678.994 729.843M720.786 714.513L752.578 727.965M720.786 714.513L772.007 717.932M521.816 716.269L574.189 717.652M521.816 716.269L548.214 718.978L574.189 717.652M574.189 717.652L626.591 722.715M574.189 717.652L601.867 723.537L626.591 722.715M626.591 722.715L678.994 729.843M626.591 722.715L655.529 732.393L678.994 729.843M752.578 727.965L731.396 736.476M752.578 727.965L772.007 717.932M752.578 727.965L803.868 728.862M752.578 727.965L783.818 740.007M731.396 736.476L678.994 729.843M731.396 736.476L709.201 742.268L678.994 729.843M731.396 736.476L783.818 740.007M731.396 736.476L762.873 749.845L783.818 740.007M772.007 717.932L803.868 728.862M772.007 717.932L822.707 719.1M803.868 728.862L822.707 719.1M803.868 728.862L855.503 725.032M803.868 728.862L783.818 740.007M803.868 728.862L837.008 737.849M822.707 719.1L855.503 725.032M822.707 719.1L872.442 714.298M855.503 725.032L872.442 714.298M855.503 725.032L907.167 717.568M855.503 725.032L837.008 737.849M855.503 725.032L890.494 729.198M872.442 714.298L907.167 717.568M872.442 714.298L922.827 705.638M907.167 717.568L922.827 705.638M907.167 717.568L959.53 707.824M907.167 717.568L944.402 716.783M907.167 717.568L890.494 729.198M922.827 705.638L937.118 684.674M922.827 705.638L959.53 707.824M922.827 705.638L972.778 699.416M937.118 684.674L947.689 664.214M937.118 684.674L983.133 687.084M937.118 684.674L972.778 699.416M783.818 740.007L837.008 737.849M783.818 740.007L816.821 751.722L837.008 737.849M837.008 737.849L890.494 729.198M837.008 737.849L872.097 744.23L890.494 729.198M959.53 707.824L944.402 716.783M959.53 707.824L972.778 699.416M959.53 707.824L1012.18 699.014M959.53 707.824L998.95 703.582M944.402 716.783L890.494 729.198M944.402 716.783L927.286 730.226L890.494 729.198M944.402 716.783L998.95 703.582M944.402 716.783L983.192 713.326L998.95 703.582M924.303 616.065L954.658 649.743M924.303 616.065L960.16 641.831M954.658 649.743L960.16 641.831M954.658 649.743L997.316 666.821M954.658 649.743L947.689 664.214M954.658 649.743L990.367 676.668M960.16 641.831L997.316 666.821M960.16 641.831L1008.36 650.192M960.16 641.831L997.326 666.83L1008.36 650.192M997.316 666.821L1008.36 650.192M997.316 666.821L1050.65 660.151M997.316 666.821L990.367 676.668M997.316 666.821L1039 680.432M1008.36 650.192L1050.65 660.151M1008.36 650.192L1066.93 633.572M1050.65 660.151L1066.93 633.572M1050.65 660.151L1109.02 638.832M1050.65 660.151L1092.89 667.213M1050.65 660.151L1039 680.432M1066.93 633.572L1109.02 638.832M1066.93 633.572L1129.67 604.938M947.689 664.214L983.133 687.084M947.689 664.214L990.367 676.668M983.133 687.084L990.367 676.668M983.133 687.084L1030.66 692.596M983.133 687.084L972.778 699.416M983.133 687.084L1022.54 697.192M990.367 676.668L1030.66 692.596M990.367 676.668L1039 680.432M1109.02 638.832L1092.89 667.213M1109.02 638.832L1129.67 604.938M1109.02 638.832L1168.83 611.796M1109.02 638.832L1066.94 633.572L1129.67 604.938M1109.02 638.832L1149.09 645.652M1092.89 667.213L1081.26 686.981M1092.89 667.213L1134.01 671.838M1092.89 667.213L1039 680.432M1092.89 667.213L1149.09 645.652M1030.66 692.596L1039 680.432M1030.66 692.596L1081.26 686.981M1030.66 692.596L1022.54 697.192M1030.66 692.596L1072.61 696.155M1039 680.432L1081.26 686.981M1081.26 686.981L1134.01 671.838M1081.26 686.981L1072.61 696.155M1081.26 686.981L1123.34 687.093M1134.01 671.838L1149.09 645.652M1134.01 671.838L1187.37 653.2M1134.01 671.838L1123.34 687.093M1134.01 671.838L1174.52 673.37M1129.67 604.938L1168.83 611.796M1129.67 604.938L1191.97 574.689M1168.83 611.796L1191.97 574.689M1168.83 611.796L1226.52 587.973M1168.83 611.796L1149.09 645.652M1168.83 611.796L1205.05 623.212M1191.97 574.689L1226.52 587.973M1191.97 574.689L1249.23 553.192M1226.52 587.973L1249.23 553.192M1226.52 587.973L1278.51 576.277M1226.52 587.973L1205.05 623.212M1226.52 587.973L1258.22 607.367M1249.23 553.192L1278.51 576.277M1278.51 576.277L1258.22 607.367M1149.09 645.652L1187.37 653.2M1149.09 645.652L1205.05 623.212M1149.09 645.652L1187.38 653.2L1205.05 623.212M1187.37 653.2L1205.05 623.212M1187.37 653.2L1239.83 637.075M1187.37 653.2L1174.52 673.37M1187.37 653.2L1225.66 659.553M1205.05 623.212L1239.83 637.075M1205.05 623.212L1258.22 607.367M1205.05 623.212L1239.83 637.085L1258.22 607.367M1239.83 637.075L1258.22 607.367M1239.83 637.075L1289.88 629.48M1239.83 637.075L1225.66 659.553M1239.83 637.075L1276.25 650.173M1258.22 607.367L1289.88 629.48M1289.88 629.48L1276.25 650.173M972.778 699.416L1012.18 699.014M972.778 699.416L1022.54 697.192M1012.18 699.014L1022.54 697.192M1012.18 699.014L1064.4 695.305M1012.18 699.014L998.95 703.582M1012.18 699.014L1053.54 694.502M1022.54 697.192L1064.4 695.305M1022.54 697.192L1072.61 696.155M1064.4 695.305L1072.61 696.155M1064.4 695.305L1115.08 691.456M1064.4 695.305L1053.54 694.502M1064.4 695.305L1105.99 692.652M1072.61 696.155L1115.08 691.456M1072.61 696.155L1123.34 687.093M1115.08 691.456L1123.34 687.093M1115.08 691.456L1165.81 682.628M1115.08 691.456L1157.1 688.429M1115.08 691.456L1105.99 692.652M1123.34 687.093L1165.81 682.628M1123.34 687.093L1174.52 673.37M998.95 703.582L1053.54 694.502M998.95 703.582L1039.36 698.78L1053.54 694.502M1053.54 694.502L1105.99 692.652M1053.54 694.502L1095.22 692.418L1105.99 692.652M1165.81 682.628L1157.1 688.429M1165.81 682.628L1174.52 673.37M1165.81 682.628L1216.55 672.183M1165.81 682.628L1208.28 681.843M1157.1 688.429L1105.99 692.652M1157.1 688.429L1147.03 691.867L1105.99 692.652M1157.1 688.429L1208.28 681.843M1157.1 688.429L1199.05 689.139L1208.28 681.843M1174.52 673.37L1216.55 672.183M1174.52 673.37L1225.66 659.553M1216.55 672.183L1225.66 659.553M1216.55 672.183L1267.27 663.495M1216.55 672.183L1208.28 681.843M1216.55 672.183L1259.48 675.304M1225.66 659.553L1267.27 663.495M1225.66 659.553L1276.25 650.173M1267.27 663.495L1276.25 650.173M1267.27 663.495L1317.95 659.908M1267.27 663.495L1259.48 675.304M1267.27 663.495L1310.59 671.23M1276.25 650.173L1317.95 659.908M1317.95 659.908L1310.59 671.23M1208.28 681.843L1259.48 675.304M1208.28 681.843L1251.13 685.72L1259.48 675.304M1259.48 675.304L1310.59 671.23M1259.48 675.304L1303.15 683.058L1310.59 671.23M-255.865 683.768L-302.922 696.202M-255.865 683.768L-248.04 694.39M-255.865 683.768L-202.301 679.003M-302.922 696.202L-248.04 694.39M-302.922 696.202L-296.111 708.235M-248.04 694.39L-296.111 708.235M-248.04 694.39L-239.841 706.45M-248.04 694.39L-202.301 679.003M-248.04 694.39L-193.157 690.102M-248.04 694.39L-239.841 706.46L-193.157 690.102M-296.111 708.235L-239.841 706.45M-296.111 708.235L-346.683 721.08M-296.111 708.235L-288.956 721.061M-239.841 706.45L-193.157 690.102M-239.841 706.45L-183.56 703.517M-239.841 706.45L-288.956 721.061M-239.841 706.45L-231.219 720.053M-202.301 679.003L-193.157 690.102M-202.301 679.003L-148.727 672.09M-193.157 690.102L-183.56 703.517M-193.157 690.102L-148.727 672.09M-193.157 690.102L-138.264 684.973M-183.56 703.517L-138.264 684.973M-183.56 703.517L-127.27 700.565M-183.56 703.517L-231.219 720.053M-183.56 703.517L-173.471 718.707M-148.727 672.09L-138.264 684.973M-148.727 672.09L-95.1532 665.139M-138.264 684.973L-127.27 700.565M-138.264 684.973L-95.1532 665.139M-138.264 684.973L-83.3616 680.619M-127.27 700.565L-83.3616 680.619M-127.27 700.565L-70.9795 698.724M-127.27 700.565L-115.714 717.68M-127.27 700.565L-173.471 718.707M-95.1532 665.139L-83.3616 680.619M-95.1532 665.139L-41.5695 660.272M-83.3616 680.619L-41.5695 660.272M-83.3616 680.619L-70.9795 698.724M-83.3616 680.619L-28.4493 678.676M-41.5695 660.272L-28.4493 678.676M-41.5695 660.272L12.014 660.44M-346.683 721.08L-288.956 721.061M-346.683 721.08L-340.679 734.617M-288.956 721.061L-340.679 734.617M-288.956 721.061L-281.406 734.617M-288.956 721.061L-231.219 720.053M-340.679 734.617H-281.406M-340.679 734.617L-395.217 748.639M-340.679 734.617L-334.33 748.677M-281.406 734.617L-231.219 720.053M-281.406 734.617L-222.124 734.467M-281.406 734.617L-334.33 748.677M-281.406 734.617L-273.424 748.714M-231.219 720.053L-222.124 734.467M-231.219 720.053L-173.471 718.707M-70.9795 698.724L-115.714 717.68M-70.9795 698.724L-28.4493 678.676M-70.9795 698.724L-14.6794 698.678M-70.9795 698.724L-57.9576 717.596M-115.714 717.68L-162.841 734.318M-115.714 717.68L-103.539 734.309M-115.714 717.68L-173.471 718.707M-115.714 717.68L-57.9576 717.596M-222.124 734.467L-173.471 718.707M-222.124 734.467L-162.841 734.318M-222.124 734.467L-273.424 748.714M-222.124 734.467L-212.517 748.752M-173.471 718.707L-162.841 734.318M-162.841 734.318L-103.539 734.309M-162.841 734.318L-212.517 748.752M-162.841 734.318L-151.601 748.78M-103.539 734.309L-57.9576 717.596M-103.539 734.309L-44.2369 734.299M-103.539 734.309L-151.601 748.78M-103.539 734.309L-90.6748 748.817M-28.4493 678.676L-14.6794 698.678M-28.4493 678.676L12.014 660.44M-28.4493 678.676L26.4631 681.441M-14.6794 698.678L26.4631 681.441M-14.6794 698.678L41.6306 701.62M-14.6794 698.678L-57.9576 717.596M-14.6794 698.678L-0.190932 717.652M12.014 660.44L26.4631 681.441M12.014 660.44L65.6074 668.428M26.4631 681.441L41.6306 701.62M26.4631 681.441L65.6074 668.428M26.4631 681.441L81.3853 688.85M41.6306 701.62L81.3853 688.85M41.6306 701.62L97.9406 706.796M41.6306 701.62L-0.190932 717.652M41.6306 701.62L57.5856 719.408M65.6074 668.428L81.3853 688.85M65.6074 668.428L119.211 680.582M81.3853 688.85L97.9406 706.796M81.3853 688.85L119.211 680.582M81.3853 688.85L136.307 698.024M97.9406 706.796L136.307 698.024M97.9406 706.796L154.27 712.196M97.9406 706.796L115.362 721.856M97.9406 706.796L57.5856 719.408M119.211 680.582L136.307 698.024M119.211 680.582L172.814 693.156M136.307 698.024L172.814 693.156M136.307 698.024L154.27 712.196M136.307 698.024L191.24 706.067M172.814 693.156L191.24 706.067M172.814 693.156L226.427 702.396M-57.9576 717.596L-44.2369 734.299M-57.9576 717.596L-0.190932 717.652M-44.2369 734.299L-0.190932 717.652M-44.2369 734.299L15.075 734.337M-44.2369 734.299L-90.6748 748.817M-44.2369 734.299L-29.7485 748.854M-0.190932 717.652L15.075 734.337M-0.190932 717.652L57.5856 719.408M154.27 712.196L115.362 721.856M154.27 712.196L191.24 706.067M154.27 712.196L210.59 715.811M154.27 712.196L173.158 723.864M115.362 721.856L57.5856 719.408M115.362 721.856L74.3969 734.673M115.362 721.856L133.719 735.037M115.362 721.856L173.158 723.864M15.075 734.337L57.5856 719.408M15.075 734.337L74.3969 734.673M15.075 734.337L-29.7485 748.854M15.075 734.337L31.1876 748.882M57.5856 719.408L74.3969 734.673M74.3969 734.673L31.1876 748.882M74.3969 734.673L92.1433 748.92M74.3969 734.673L133.719 735.037M-395.217 748.639L-334.33 748.677M-395.217 748.639L-390.188 763.587M-334.33 748.677L-390.188 763.587M-334.33 748.677L-327.588 763.624M-334.33 748.677L-273.424 748.714M-390.188 763.587L-327.588 763.624M-390.188 763.587L-449.293 779.366M-390.188 763.587L-384.883 779.403M-327.588 763.624L-273.424 748.714M-327.588 763.624L-384.883 779.403M-273.424 748.714L-327.578 763.624M-273.424 748.714L-264.969 763.662M-273.424 748.714L-212.517 748.752M-327.578 763.624L-264.969 763.662M-327.578 763.624L-384.883 779.403M-327.578 763.624L-320.462 779.441M-264.969 763.662L-212.517 748.752M-264.969 763.662L-202.34 763.699M-264.969 763.662L-320.462 779.441M-264.969 763.662L-256.032 779.478M-212.517 748.752L-202.34 763.699M-212.517 748.752L-151.601 748.78M-202.34 763.699L-151.601 748.78M-202.34 763.699L-139.711 763.736M-202.34 763.699L-191.592 779.525M-202.34 763.699L-256.032 779.478M-151.601 748.78L-139.711 763.736M-151.601 748.78L-90.6748 748.817M-449.293 779.366L-384.883 779.403M-449.293 779.366L-445.622 796.144M-384.883 779.403L-445.622 796.144M-384.883 779.403L-379.282 796.182M-384.883 779.403L-320.462 779.441M-445.622 796.144L-379.282 796.182M-445.622 796.144L-510.131 813.932M-445.622 796.144L-441.754 813.969M-379.282 796.182L-320.462 779.441M-379.282 796.182L-312.932 796.228M-379.282 796.182L-441.754 813.969M-379.282 796.182L-373.367 814.016M-320.462 779.441L-312.932 796.228M-320.462 779.441L-256.032 779.478M-139.711 763.736L-191.592 779.525M-139.711 763.736L-90.6748 748.817M-139.711 763.736L-77.0721 763.774M-139.711 763.736L-127.142 779.562M-191.592 779.525L-246.573 796.266M-191.592 779.525L-180.214 796.303M-191.592 779.525L-256.032 779.478M-191.592 779.525L-246.583 796.266M-191.592 779.525L-127.142 779.562M-312.932 796.228L-256.032 779.478M-312.932 796.228L-246.583 796.266M-312.932 796.228L-373.367 814.016M-312.932 796.228L-304.98 814.063M-256.032 779.478L-246.583 796.266M-246.583 796.266L-304.98 814.063M-246.573 796.266L-180.214 796.303M-246.573 796.266L-304.98 814.063M-246.573 796.266L-236.573 814.1M-180.214 796.303L-127.142 779.562M-180.214 796.303L-113.835 796.35M-180.214 796.303L-236.573 814.1M-180.214 796.303L-168.156 814.147M-90.6748 748.817L-77.0721 763.774M-90.6748 748.817L-29.7485 748.854M-77.0721 763.774L-29.7485 748.854M-77.0721 763.774L-14.4234 763.811M-77.0721 763.774L-127.142 779.562M-77.0721 763.774L-62.6821 779.599M-29.7485 748.854L-14.4234 763.811M-29.7485 748.854L31.1876 748.882M-14.4234 763.811L31.1876 748.882M-14.4234 763.811L48.235 763.849M-14.4234 763.811L-62.6821 779.599M-14.4234 763.811L1.7874 779.637M31.1876 748.882L48.235 763.849M31.1876 748.882L92.1433 748.92M48.235 763.849L92.1433 748.92M48.235 763.849L110.903 763.877M48.235 763.849L66.257 779.674M48.235 763.849L1.7874 779.637M92.1433 748.92L133.719 735.037M92.1433 748.92L110.903 763.877M92.1433 748.92L153.099 748.957M133.719 735.037L173.158 723.864M133.719 735.037L193.051 735.168M133.719 735.037L153.099 748.957M-127.142 779.562L-113.835 796.35M-127.142 779.562L-62.6821 779.599M-113.835 796.35L-62.6821 779.599M-113.835 796.35L-47.4555 796.387M-113.835 796.35L-168.156 814.147M-113.835 796.35L-99.7398 814.193M-62.6821 779.599L-47.4555 796.387M-62.6821 779.599L1.7874 779.637M110.903 763.877L66.257 779.674M110.903 763.877L153.099 748.957M110.903 763.877L173.572 763.914M110.903 763.877L130.746 779.711M66.257 779.674L18.9433 796.434M66.257 779.674L85.3419 796.471M66.257 779.674L1.7874 779.637M66.257 779.674L130.746 779.711M-47.4555 796.387L1.7874 779.637M-47.4555 796.387L18.9433 796.434M-47.4555 796.387L-99.7398 814.193M-47.4555 796.387L-31.3037 814.231M1.7874 779.637L18.9433 796.434M18.9433 796.434L85.3419 796.471M18.9433 796.434L-31.3037 814.231M18.9433 796.434L37.1425 814.277M85.3419 796.471L130.746 779.711M85.3419 796.471L151.76 796.509M85.3419 796.471L37.1425 814.277M85.3419 796.471L105.598 814.324M191.24 706.067L210.59 715.811M191.24 706.067L226.427 702.396M191.24 706.067L246.181 710.112M210.59 715.811L246.181 710.112M210.59 715.811L266.91 716.082M210.59 715.811L173.158 723.864M210.59 715.811L230.955 724.294M226.427 702.396L246.181 710.112M226.427 702.396L280.05 704.535M246.181 710.112L266.91 716.082M246.181 710.112L280.05 704.535M246.181 710.112L301.104 709.038M266.91 716.082L301.104 709.038M266.91 716.082L323.191 714.709M266.91 716.082L230.955 724.294M266.91 716.082L288.702 723.687M280.05 704.535L301.104 709.038M280.05 704.535L333.693 701.957M301.104 709.038L323.191 714.709M301.104 709.038L333.693 701.957M301.104 709.038L356.036 707.413M301.104 709.038L323.2 714.709M323.191 714.709L288.702 723.687M333.693 701.957L356.036 707.413M333.693 701.957L387.335 701.919M356.036 707.413L323.2 714.709M356.036 707.413L387.335 701.919M356.036 707.413L379.491 714.681M356.036 707.413L410.968 710.215M323.2 714.709L379.491 714.681M323.2 714.709L346.449 723.051M323.2 714.709L288.702 723.687M387.335 701.919L410.968 710.215M387.335 701.919L440.968 709.468M173.158 723.864L193.051 735.168M173.158 723.864L230.955 724.294M193.051 735.168L230.955 724.294M193.051 735.168L252.392 734.981M193.051 735.168L153.099 748.957M193.051 735.168L214.055 748.985M230.955 724.294L252.392 734.981M230.955 724.294L288.702 723.687M379.491 714.681L346.449 723.051M379.491 714.681L410.968 710.215M379.491 714.681L435.85 718.259M379.491 714.681L404.206 724.144M346.449 723.051L311.714 734.832M346.449 723.051L371.056 734.85M346.449 723.051L288.702 723.687M346.449 723.051L404.206 724.144M346.449 723.051L404.206 724.154M252.392 734.981L288.702 723.687M252.392 734.981L311.714 734.832M252.392 734.981L214.055 748.985M252.392 734.981L275.06 749.023M288.702 723.687L311.714 734.832M311.714 734.832L371.056 734.85M311.714 734.832L275.06 749.023M311.714 734.832L336.085 749.06M371.056 734.85L404.206 724.144M371.056 734.85L430.417 735.215M371.056 734.85L404.206 724.154M371.056 734.85L336.085 749.06M371.056 734.85L397.109 749.097M410.968 710.215L435.85 718.259M410.968 710.215L440.968 709.468M410.968 710.215L465.959 716.362M435.85 718.259L465.959 716.362M435.85 718.259L492.278 721.164M435.85 718.259L404.206 724.144M435.85 718.259L462.11 725.779M440.968 709.468L465.959 716.362M440.968 709.468L494.601 716.643M465.959 716.362L492.278 721.164M465.959 716.362L494.601 716.643M465.959 716.362L520.969 719.726M492.278 721.164L520.969 719.726M492.278 721.164L548.706 722.192M492.278 721.164L462.11 725.779M492.278 721.164L520.015 726.293M494.601 716.643L520.969 719.726M494.601 716.643L548.234 718.978L520.969 719.726M520.969 719.726L548.706 722.192M548.706 722.192L520.015 726.293M404.206 724.144L430.417 735.215M404.206 724.144L462.11 725.779M430.417 735.215L462.11 725.779M430.417 735.215L404.206 724.154M430.417 735.215L489.818 735.355M430.417 735.215L397.109 749.097M430.417 735.215L458.055 749.125M404.206 724.154L462.11 725.779M462.11 725.779L489.818 735.355M462.11 725.779L520.015 726.293M489.818 735.355L520.015 726.293M489.818 735.355L549.218 735.785M489.818 735.355L458.055 749.125M489.818 735.355L519.011 749.163M520.015 726.293L549.218 735.785M549.218 735.785L519.011 749.163M153.099 748.957L173.572 763.914M153.099 748.957L214.055 748.985M173.572 763.914L214.055 748.985M173.572 763.914L236.27 763.951M173.572 763.914L130.746 779.711M173.572 763.914L195.236 779.749M214.055 748.985L236.27 763.951M214.055 748.985L275.06 749.023M236.27 763.951L275.06 749.023M236.27 763.951L298.997 763.989M236.27 763.951L195.236 779.749M236.27 763.951L259.735 779.796M275.06 749.023L298.997 763.989M275.06 749.023L336.085 749.06M298.997 763.989L336.085 749.06M298.997 763.989L361.744 764.026M298.997 763.989L324.254 779.833M298.997 763.989L259.735 779.796M336.085 749.06L361.744 764.026M336.085 749.06L397.109 749.097M130.746 779.711L151.76 796.509M130.746 779.711L195.236 779.749M151.76 796.509L195.236 779.749M151.76 796.509L218.169 796.555M151.76 796.509L105.598 814.324M151.76 796.509L174.064 814.362M195.236 779.749L218.169 796.555M195.236 779.749L259.735 779.796M361.744 764.026L324.254 779.833M361.744 764.026L397.109 749.097M361.744 764.026L424.442 764.063M361.744 764.026L388.772 779.87M324.254 779.833L284.548 796.593M324.254 779.833L350.937 796.639M324.254 779.833L259.735 779.796M324.254 779.833L388.772 779.87M218.169 796.555L259.735 779.796M218.169 796.555L284.548 796.593M218.169 796.555L174.064 814.362M218.169 796.555L242.461 814.408M259.735 779.796L284.548 796.593M284.548 796.593L350.937 796.639M284.548 796.593L242.461 814.408M284.548 796.593L310.848 814.455M350.937 796.639L388.772 779.87M350.937 796.639L417.385 796.677M350.937 796.639L310.848 814.455M350.937 796.639L379.254 814.502M397.109 749.097L424.442 764.063M397.109 749.097L458.055 749.125M424.442 764.063L458.055 749.125M424.442 764.063L487.111 764.101M424.442 764.063L388.772 779.87M424.442 764.063L453.301 779.908M458.055 749.125L487.111 764.101M458.055 749.125L519.011 749.163M487.111 764.101L519.011 749.163M487.111 764.101L549.789 764.764M487.111 764.101L453.301 779.908M487.111 764.101L517.83 779.945M519.011 749.163L549.789 764.764M549.789 764.764L517.83 779.945M388.772 779.87L417.385 796.677M388.772 779.87L453.301 779.908M417.385 796.677L453.301 779.908M417.385 796.677L483.912 796.714M417.385 796.677L379.254 814.502M417.385 796.677L447.868 814.539M453.301 779.908L483.912 796.714M453.301 779.908L517.83 779.945M483.912 796.714L517.83 779.945M483.912 796.714L550.439 796.873M483.912 796.714L447.868 814.539M483.912 796.714L516.501 814.586M517.83 779.945L550.439 796.873M550.439 796.873L516.501 814.586M-510.131 813.932L-441.754 813.969M-510.131 813.932L-508.211 832.906M-441.754 813.969L-508.211 832.906M-441.754 813.969L-437.659 832.952M-441.754 813.969L-373.367 814.016M-508.211 832.906L-437.659 832.952M-508.211 832.906L-579 853.057L-506.144 853.113M-508.211 832.906L-506.144 853.113M-437.659 832.952L-373.367 814.016M-437.659 832.952L-367.097 832.99M-437.659 832.952L-506.144 853.113M-437.659 832.952L-433.279 853.16M-373.367 814.016L-367.097 832.99M-373.367 814.016L-304.98 814.063M-373.367 814.016L-367.097 832.999L-304.98 814.063M-367.097 832.99L-304.98 814.063M-367.097 832.99L-296.525 833.037M-367.097 832.99L-433.279 853.16M-367.097 832.99L-360.394 853.206M-304.98 814.063L-296.525 833.037M-304.98 814.063L-236.573 814.1M-304.98 814.063L-296.525 833.046L-236.573 814.1M-296.525 833.037L-236.573 814.1M-296.525 833.037L-225.943 833.083M-296.525 833.037L-287.509 853.262M-296.525 833.037L-360.394 853.206M-236.573 814.1L-225.943 833.083M-236.573 814.1L-168.156 814.147M-506.144 853.113L-433.279 853.16M-433.279 853.16L-360.394 853.206M-225.943 833.083L-287.509 853.262M-225.943 833.083L-168.156 814.147M-225.943 833.083L-155.351 833.13M-225.943 833.083L-287.499 853.262L-214.604 853.309M-225.943 833.083L-214.604 853.309M-287.509 853.262L-360.394 853.206M-168.156 814.147L-155.351 833.13M-168.156 814.147L-99.7398 814.193M-155.351 833.13L-99.7398 814.193M-155.351 833.13L-84.7494 833.177M-155.351 833.13L-214.604 853.309M-155.351 833.13L-141.689 853.356M-99.7398 814.193L-84.7494 833.177M-99.7398 814.193L-31.3037 814.231M-84.7494 833.177L-31.3037 814.231M-84.7494 833.177L-14.138 833.223M-84.7494 833.177L-141.689 853.356M-84.7494 833.177L-68.765 853.412M-31.3037 814.231L-14.138 833.223M-31.3037 814.231L37.1425 814.277M-14.138 833.223L37.1425 814.277M-14.138 833.223L56.4931 833.27M-14.138 833.223L4.17921 853.459M-14.138 833.223L-68.765 853.412M37.1425 814.277L56.4931 833.27M37.1425 814.277L105.598 814.324M-214.604 853.309L-141.689 853.356M-141.689 853.356L-68.765 853.412M56.4931 833.27L4.17921 853.459M56.4931 833.27L105.598 814.324M56.4931 833.27L127.124 833.317M56.4931 833.27L77.1234 853.505M4.17921 853.459L-68.765 853.412M4.17921 853.459L77.1234 853.505M105.598 814.324L127.124 833.317M105.598 814.324L174.064 814.362M105.598 814.324L174.064 814.371M127.124 833.317L174.064 814.371M127.124 833.317L174.064 814.362M127.124 833.317L197.745 833.364M127.124 833.317L77.1234 853.505M127.124 833.317L150.087 853.552M174.064 814.362L197.745 833.364M174.064 814.362L242.461 814.408M174.064 814.371L242.461 814.408M174.064 814.371L197.745 833.364M197.745 833.364L242.461 814.408M197.745 833.364L268.318 833.41M197.745 833.364L150.087 853.552M197.745 833.364L223.041 853.608M242.461 814.408L268.318 833.41M242.461 814.408L310.848 814.455M268.318 833.41L310.848 814.455M268.318 833.41L338.899 833.457M268.318 833.41L296.015 853.655M268.318 833.41L223.041 853.608M310.848 814.455L338.899 833.457M310.848 814.455L379.254 814.502M77.1234 853.505L150.087 853.552M150.087 853.552L223.041 853.608M338.899 833.457L296.015 853.655M338.899 833.457L379.254 814.502M338.899 833.457L409.58 833.504M338.899 833.457L369.008 853.701M296.015 853.655L223.041 853.608M296.015 853.655L369.008 853.701M379.254 814.502L409.58 833.504M379.254 814.502L447.868 814.539M409.58 833.504L447.868 814.539M409.58 833.504L480.378 833.55M409.58 833.504L369.008 853.701M409.58 833.504L442.021 853.757M447.868 814.539L480.378 833.55M447.868 814.539L516.501 814.586M480.378 833.55L516.501 814.586M480.378 833.55L551.167 833.382M480.378 833.55L442.021 853.757M480.378 833.55L515.044 853.804M516.501 814.586L551.167 833.382M551.167 833.382L515.044 853.804M369.008 853.701L442.021 853.757M442.021 853.757L515.044 853.804M548.48 719.016L521.206 719.763M548.48 719.016L576.217 722.575M548.48 719.016L602.162 723.64M521.206 719.763L576.217 722.575M521.206 719.763L548.962 722.276M576.217 722.575L548.962 722.276M576.217 722.575L605.361 730.59M576.217 722.575L602.162 723.64M576.217 722.575L631.227 732.207M548.962 722.276L605.361 730.59M548.962 722.276L520.261 726.433M548.962 722.276L578.156 730.544M605.361 730.59L631.227 732.207M605.361 730.59L661.779 745.099M605.361 730.59L578.156 730.544M605.361 730.59L636.031 744.473M602.162 723.64L631.227 732.207M602.162 723.64L655.854 732.571M631.227 732.207L661.779 745.099M631.227 732.207L655.854 732.571M631.227 732.207L686.248 745.061M661.779 745.099L686.248 745.061M661.779 745.099L718.197 761.055M661.779 745.099L636.031 744.473M661.779 745.099L693.915 762.812M655.854 732.571L686.248 745.061M655.854 732.571L709.546 742.492M686.248 745.061L718.197 761.055M686.248 745.061L709.546 742.492M686.248 745.061L741.278 757.122M718.197 761.055L741.278 757.122M718.197 761.055L774.625 773.686M718.197 761.055L751.81 780.067M718.197 761.055L693.915 762.812M709.546 742.492L741.278 757.122M709.546 742.492L763.247 750.097M741.278 757.122L763.247 750.097M741.278 757.122L774.625 773.686M741.278 757.122L796.309 764.334M763.247 750.097L796.309 764.334M763.247 750.097L817.234 751.965M520.261 726.433L578.156 730.544M520.261 726.433L549.494 736.065M578.156 730.544L549.494 736.065M578.156 730.544L608.914 746.229M578.156 730.544L636.031 744.473M549.494 736.065L608.914 746.229M549.494 736.065L519.267 749.48M549.494 736.065L580.301 753.89M608.914 746.229L636.031 744.473M608.914 746.229L668.344 764.484M608.914 746.229L580.301 753.89M608.914 746.229L641.355 768.361M636.031 744.473L668.344 764.484M636.031 744.473L693.915 762.812M774.625 773.686L751.81 780.067M774.625 773.686L796.309 764.334M774.625 773.686L831.339 777.852M774.625 773.686L809.705 790.754M751.81 780.067L727.774 784.625M751.81 780.067L787.224 800.442M751.81 780.067L693.915 762.812M751.81 780.067L809.705 790.754M668.344 764.484L693.915 762.812M668.344 764.484L727.774 784.625M668.344 764.484L641.355 768.361M668.344 764.484L702.419 787.409M693.915 762.812L727.774 784.625M727.774 784.625L787.224 800.442M727.774 784.625L702.419 787.409M727.774 784.625L763.493 805.337M787.224 800.442L809.705 790.754M787.224 800.442L846.713 805.58M787.224 800.442L763.493 805.337M787.224 800.442L824.567 816.464M796.309 764.334L831.339 777.852M796.309 764.334L817.234 751.965M796.309 764.334L852.58 761.326M831.339 777.852L852.58 761.326M831.339 777.852L889.332 767.193M831.339 777.852L809.715 790.754M831.339 777.852L868.357 787.503M831.339 777.852L809.705 790.754M817.234 751.965L852.58 761.326M817.234 751.965L872.54 744.389M852.58 761.326L889.332 767.193M852.58 761.326L872.54 744.389M852.58 761.326L909.234 747.444M889.332 767.193L909.234 747.444M889.332 767.193L947.04 747.191M889.332 767.193L868.357 787.503M889.332 767.193L926.98 769.416M872.54 744.389L909.234 747.444M872.54 744.389L927.758 730.301M909.234 747.444L947.04 747.191M909.234 747.444L927.758 730.301M909.234 747.444L966.056 728.096M947.04 747.191L966.056 728.096M947.04 747.191L1004.97 723.958M947.04 747.191L985.387 744.277M947.04 747.191L926.98 769.416M927.758 730.301L966.056 728.096M927.758 730.301L983.704 713.326M966.056 728.096L983.704 713.326M966.056 728.096L1004.97 723.958M966.056 728.096L1023.3 708.599M983.704 713.326L1023.3 708.599M983.704 713.326L1039.9 698.752M809.705 790.754L846.713 805.58M846.713 805.58L868.357 787.503M846.713 805.58L809.715 790.754M846.713 805.58L906.035 793.136M846.713 805.58L824.567 816.464M846.713 805.58L885.306 813.044M809.715 790.754L868.357 787.503M868.357 787.503L906.035 793.136M868.357 787.503L926.98 769.416M1004.97 723.958L985.387 744.277M1004.97 723.958L1023.3 708.599M1004.97 723.958L1063.13 704.545M1004.97 723.958L1043.93 719.651M985.387 744.277L926.98 769.416M985.387 744.277L964.885 768.51M985.387 744.277L1023.61 740.353M985.387 744.277L1043.93 719.651M906.035 793.136L926.98 769.416M906.035 793.136L964.885 768.51M906.035 793.136L885.306 813.044M906.035 793.136L945.406 794.155M926.98 769.416L964.885 768.51M964.885 768.51L945.406 794.155M964.885 768.51L1005.3 767.922M964.885 768.51L1023.61 740.353M519.267 749.48L580.301 753.89M519.267 749.48L550.084 765.11M580.301 753.89L550.084 765.11M580.301 753.89L612.851 773.891M580.301 753.89L641.355 768.361M550.084 765.11L612.851 773.891M550.084 765.11L518.105 780.3M550.084 765.11L582.693 783.196M612.851 773.891L641.355 768.361M612.851 773.891L675.628 788.876M612.851 773.891L582.693 783.196M612.851 773.891L647.291 792.8M641.355 768.361L675.628 788.876M641.355 768.361L702.419 787.409M675.628 788.876L702.419 787.409M675.628 788.876L738.414 805.3M675.628 788.876L647.291 792.8M675.628 788.876L711.898 805.477M702.419 787.409L738.414 805.3M702.419 787.409L763.493 805.337M738.414 805.3L763.493 805.337M738.414 805.3L801.211 818.416M738.414 805.3L776.505 817.398M738.414 805.3L711.898 805.477M763.493 805.337L801.211 818.416M763.493 805.337L824.567 816.464M518.105 780.3L582.693 783.196M518.105 780.3L550.744 797.247M582.693 783.196L550.744 797.247M582.693 783.196L617.261 801.413M582.693 783.196L647.291 792.8M550.744 797.247L617.261 801.413M550.744 797.247L516.786 814.988M550.744 797.247L585.39 815.371M617.261 801.413L647.291 792.8M617.261 801.413L683.797 809.326M617.261 801.413L585.39 815.371M617.261 801.413L653.964 818.752M647.291 792.8L683.797 809.326M647.291 792.8L711.898 805.477M801.211 818.416L776.505 817.398M801.211 818.416L824.567 816.464M801.211 818.416L863.948 823.059M801.211 818.416L841.132 824.778M776.505 817.398L750.334 818.108M776.505 817.398L816.89 824.9M776.505 817.398L711.898 805.477M776.505 817.398L841.132 824.778M683.797 809.326L711.898 805.477M683.797 809.326L750.334 818.108M683.797 809.326L653.964 818.752M683.797 809.326L722.558 823.676M711.898 805.477L750.334 818.108M750.334 818.108L816.89 824.9M750.334 818.108L722.558 823.676M750.334 818.108L791.161 828.235M816.89 824.9L841.132 824.778M816.89 824.9L883.436 826.945M816.89 824.9L791.161 828.235M816.89 824.9L859.765 830.495M824.567 816.464L863.948 823.059M824.567 816.464L885.306 813.044M863.948 823.059L885.306 813.044M863.948 823.059L925.986 812.409M863.948 823.059L841.132 824.778M863.948 823.059L905.474 822.639M885.306 813.044L925.986 812.409M885.306 813.044L945.406 794.155M925.986 812.409L945.406 794.155M925.986 812.409L987.69 792.408M925.986 812.409L905.474 822.639M925.986 812.409L969.373 810.251M945.406 794.155L987.69 792.408M945.406 794.155L1005.3 767.922M987.69 792.408L1005.3 767.922M987.69 792.408L1049.35 769.482M987.69 792.408L1033.05 792.996M987.69 792.408L969.373 810.251M1005.3 767.922L1023.61 740.353M1005.3 767.922L1049.35 769.482M1005.3 767.922L1065.28 742.418M1023.61 740.353L1043.93 719.651M1023.61 740.353L1082.53 717.437M1023.61 740.353L1065.28 742.418M841.132 824.778L883.436 826.945M841.132 824.778L905.474 822.639M883.436 826.945L905.474 822.639M883.436 826.945L949.737 821.985M883.436 826.945L859.765 830.495M883.436 826.945L928.437 830.066M905.474 822.639L949.737 821.985M905.474 822.639L969.373 810.251M1049.35 769.482L1033.05 792.996M1049.35 769.482L1065.28 742.418M1049.35 769.482L1111.19 750.564M1049.35 769.482L1096.72 776.236M1033.05 792.996L1015.8 811.437M1033.05 792.996L1081.58 799.423M1033.05 792.996L969.373 810.251M1033.05 792.996L1096.72 776.236M949.737 821.985L969.373 810.251M949.737 821.985L1015.79 811.437M949.737 821.985L928.437 830.066M949.737 821.985L997.001 825.666M969.373 810.251L1015.79 811.437M969.373 810.251L1015.8 811.437M1015.79 811.437L997.001 825.666M1015.8 811.437L1081.58 799.423M1015.8 811.437L997.001 825.666M1015.8 811.437L1065.24 819.079M1081.58 799.423L1096.72 776.236M1081.58 799.423L1147.46 789.829M1081.58 799.423L1065.24 819.079M1081.58 799.423L1133.36 812.904M1023.3 708.599L1063.13 704.545M1023.3 708.599L1039.9 698.752M1023.3 708.599L1080.72 695.455M1063.13 704.545L1080.72 695.455M1063.13 704.545L1121.29 696.351M1063.13 704.545L1043.93 719.651M1063.13 704.545L1102.78 703.554M1039.9 698.752L1080.72 695.455M1039.9 698.752L1095.76 692.428M1080.72 695.455L1121.29 696.351M1080.72 695.455L1095.76 692.428M1080.72 695.455L1135.65 693.997M1121.29 696.351L1135.65 693.997M1121.29 696.351L1176.05 698.304M1121.29 696.351L1102.78 703.554M1121.29 696.351L1160.6 702.34M1095.76 692.428L1135.65 693.997M1095.76 692.428L1147.6 691.895M1135.65 693.997L1176.05 698.304M1135.65 693.997L1147.6 691.895M1135.65 693.997L1188.87 694.408M1176.05 698.304L1188.87 694.408M1176.05 698.304L1231.15 700.938M1176.05 698.304L1217.76 706.292M1176.05 698.304L1160.6 702.34M1147.6 691.895L1188.87 694.408M1147.6 691.895L1199.64 689.223M1188.87 694.408L1199.64 689.223M1188.87 694.408L1231.15 700.938M1188.87 694.408L1242.28 694.343M1199.64 689.223L1242.28 694.343M1199.64 689.223L1251.74 685.87M1043.93 719.651L1082.53 717.437M1043.93 719.651L1102.78 703.554M1082.53 717.437L1102.78 703.554M1082.53 717.437L1043.94 719.651L1102.78 703.554M1082.53 717.437L1141.95 708.543M1082.53 717.437L1065.28 742.418M1082.53 717.437L1125.61 725.705M1102.78 703.554L1141.95 708.543M1102.78 703.554L1160.6 702.34M1231.15 700.938L1217.76 706.292M1231.15 700.938L1242.28 694.343M1231.15 700.938L1286.38 703.797M1231.15 700.938L1275.22 711.645M1217.76 706.292L1201.53 711.673M1217.76 706.292L1261.62 718.315M1217.76 706.292L1160.6 702.34M1217.76 706.292L1275.22 711.645M1141.95 708.543L1160.6 702.34M1141.95 708.543L1201.53 711.673M1141.95 708.543L1125.61 725.705M1141.95 708.543L1186.82 724.191M1160.6 702.34L1201.53 711.673M1201.53 711.673L1261.62 718.315M1201.53 711.673L1186.82 724.191M1201.53 711.673L1248.85 729.301M1261.62 718.315L1275.22 711.645M1261.62 718.315L1321.89 726.116M1261.62 718.315L1248.85 729.301M1261.62 718.315L1311.18 736.672M1242.28 694.343L1286.38 703.797M1242.28 694.343L1251.74 685.87M1242.28 694.343L1295.7 694.306M1286.38 703.797L1295.7 694.306M1286.38 703.797L1341.5 706.441M1286.38 703.797L1275.22 711.645M1286.38 703.797L1332.7 716.988M1251.74 685.87L1295.7 694.306M1251.74 685.87L1303.79 683.272M1295.7 694.306L1341.5 706.441M1295.7 694.306L1303.79 683.272M1295.7 694.306L1348.94 694.773M1341.5 706.441L1348.94 694.773M1341.5 706.441L1396.27 708.394M1341.5 706.441L1332.7 716.988M1341.5 706.441L1389.88 720.912M1303.79 683.272L1348.94 694.773M1303.79 683.272L1355.63 682.88L1348.94 694.773M1348.94 694.773L1396.27 708.394M1396.27 708.394L1389.88 720.912M1275.22 711.645L1321.89 726.116M1275.22 711.645L1332.7 716.988M1321.89 726.116L1332.7 716.988M1321.89 726.116L1382.01 732.721M1321.89 726.116L1311.18 736.672M1321.89 726.116L1373.52 744.015M1332.7 716.988L1382.01 732.721M1332.7 716.988L1389.88 720.912M1382.01 732.721L1389.88 720.912M1382.01 732.721L1441.62 735.766M1382.01 732.721L1373.52 744.015M1382.01 732.721L1435.56 749.06M1389.88 720.912L1441.62 735.766M1441.62 735.766L1435.56 749.06M1065.28 742.418L1111.19 750.564M1065.28 742.418L1125.61 725.705M1065.28 742.418L1111.2 750.564M1111.19 750.564L1096.72 776.236M1125.61 725.705L1111.2 750.564M1125.61 725.705L1173.48 742.39M1125.61 725.705L1186.82 724.191M1111.2 750.564L1173.48 742.39M1111.2 750.564L1096.72 776.236M1111.2 750.564L1160.63 765.343M1173.48 742.39L1186.82 724.191M1173.48 742.39L1237.01 745.043M1173.48 742.39L1160.63 765.343M1173.48 742.39L1225.34 764.362M1186.82 724.191L1237.01 745.043M1186.82 724.191L1248.85 729.301M1186.82 724.191L1237.02 745.043L1248.85 729.301M1237.01 745.043L1248.85 729.301M1237.01 745.043L1300.94 750.536M1237.01 745.043L1290.8 767.623M1237.01 745.043L1225.35 764.362M1237.01 745.043L1225.34 764.362M1248.85 729.301L1300.94 750.536M1248.85 729.301L1311.18 736.672M1248.85 729.301L1300.95 750.536L1311.18 736.672M1096.72 776.236L1147.46 789.829M1096.72 776.236L1160.63 765.343M1096.72 776.236L1147.47 789.829L1160.63 765.343M1147.46 789.829L1160.63 765.343M1147.46 789.829L1213.63 786.559M1147.46 789.829L1133.36 812.904M1147.46 789.829L1201.61 809.681M1160.63 765.343L1213.63 786.559M1160.63 765.343L1225.34 764.362M1160.63 765.343L1225.35 764.362M1300.94 750.536L1290.8 767.623M1300.94 750.536L1311.18 736.672M1300.94 750.536L1365.01 756.963M1300.94 750.536L1356.46 772.378M1290.8 767.623L1280.65 787.671M1290.8 767.623L1347.9 790.502M1290.8 767.623L1225.35 764.362M1290.8 767.623L1356.46 772.378M1290.8 767.623L1356.46 772.387M1213.63 786.559L1225.34 764.362M1213.63 786.559L1280.65 787.671M1213.63 786.559L1225.35 764.362M1213.63 786.559L1201.61 809.681M1213.63 786.559L1270.23 809.887M1225.34 764.362L1280.65 787.671M1280.65 787.671L1347.9 790.502M1280.65 787.671L1225.35 764.362M1280.65 787.671L1270.23 809.887M1280.65 787.671L1339.2 810.97M1347.9 790.502L1356.46 772.378M1347.9 790.502L1415.25 793.884M1347.9 790.502L1356.46 772.387M1347.9 790.502L1339.2 810.97M1347.9 790.502L1408.28 812.801M1311.18 736.672L1365.01 756.963M1311.18 736.672L1373.52 744.015M1311.18 736.672L1373.52 744.025M1365.01 756.963L1373.52 744.025M1365.01 756.963L1373.52 744.015M1365.01 756.963L1428.95 762.419M1365.01 756.963L1356.46 772.387M1365.01 756.963L1422.13 777.133M1365.01 756.963L1356.46 772.378M1373.52 744.015L1428.95 762.419M1373.52 744.015L1435.56 749.06M1373.52 744.025L1435.56 749.06M1373.52 744.025L1428.95 762.419M1428.95 762.419L1435.56 749.06M1428.95 762.419L1492.51 765.007M1428.95 762.419L1422.13 777.133M1428.95 762.419L1487.59 780.347M1435.56 749.06L1492.51 765.007M1492.51 765.007L1487.59 780.347M1356.46 772.378L1415.25 793.884M1415.25 793.884L1422.13 777.133M1415.25 793.884L1356.46 772.387M1415.25 793.884L1482.51 796.686M1415.25 793.884L1408.28 812.801M1415.25 793.884L1477.36 814.623M1356.46 772.387L1422.13 777.133M1422.13 777.133L1482.51 796.686M1422.13 777.133L1487.59 780.347M1482.51 796.686L1487.59 780.347M1482.51 796.686L1549.56 797.761M1482.51 796.686L1477.36 814.623M1482.51 796.686L1546.35 815.688M1487.59 780.347L1549.56 797.761M1549.56 797.761L1546.35 815.688M516.786 814.988L585.39 815.371M516.786 814.988L551.492 833.803M585.39 815.371L551.492 833.803M585.39 815.371L622.241 834.13M585.39 815.371L653.964 818.752M585.39 815.371L622.251 834.13M551.492 833.803L622.241 834.13M551.492 833.803L515.359 854.253L588.441 854.271M551.492 833.803L588.441 854.271M622.241 834.13L588.441 854.271M653.964 818.752L622.251 834.13M653.964 818.752L693.02 835.736M653.964 818.752L722.558 823.676M622.251 834.13L693.02 835.736M622.251 834.13L588.441 854.271M622.251 834.13L661.533 854.327M693.02 835.736L722.558 823.676M693.02 835.736L763.799 837.633M693.02 835.736L661.533 854.327M693.02 835.736L734.635 854.411M722.558 823.676L763.799 837.633M722.558 823.676L791.161 828.235M763.799 837.633L791.161 828.235M763.799 837.633L834.587 838.857M763.799 837.633L807.746 854.486M763.799 837.633L734.635 854.411M791.161 828.235L834.587 838.857M791.161 828.235L859.765 830.495M588.441 854.271L661.533 854.327M661.533 854.327L734.635 854.411M834.587 838.857L807.746 854.486M834.587 838.857L859.765 830.495M834.587 838.857L905.415 838.81M834.587 838.857L880.867 854.524M807.746 854.486L734.635 854.411M807.746 854.486L880.867 854.524M859.765 830.495L905.415 838.81M859.765 830.495L928.437 830.066M859.765 830.495L905.415 838.819L928.437 830.066M905.415 838.81L928.437 830.066M905.415 838.81L976.381 838.511M905.415 838.81L880.867 854.524M905.415 838.81L954.018 854.58M928.437 830.066L976.381 838.511M928.437 830.066L997.001 825.666M976.381 838.511L997.001 825.666M976.381 838.511L1047.24 836.344M976.381 838.511L954.018 854.58M976.381 838.511L1027.17 854.617M997.001 825.666L1047.24 836.344M997.001 825.666L1065.24 819.079M1047.24 836.344L1065.24 819.079M1047.24 836.344L1117.81 833.971M1047.24 836.344L1100.33 854.636M1047.24 836.344L1027.17 854.617M1065.24 819.079L1117.81 833.971M1065.24 819.079L1133.36 812.904M880.867 854.524L954.018 854.58M954.018 854.58L1027.17 854.617M1117.81 833.971L1100.33 854.636M1117.81 833.971L1133.36 812.904M1117.81 833.971L1188.41 832.411M1117.81 833.971L1173.49 854.673M1100.33 854.636L1027.17 854.617M1100.33 854.636L1173.49 854.673M1133.36 812.904L1188.41 832.411M1133.36 812.904L1201.61 809.681M1188.41 832.411L1201.61 809.681M1188.41 832.411L1259.12 832.896M1188.41 832.411L1173.49 854.673M1188.41 832.411L1246.67 854.729M1201.61 809.681L1259.12 832.896M1201.61 809.681L1270.23 809.887M1201.61 809.681L1270.23 809.896M1259.12 832.896L1270.23 809.887M1259.12 832.896L1330.03 832.887M1259.12 832.896L1270.23 809.896M1259.12 832.896L1246.67 854.729M1259.12 832.896L1319.86 854.794M1270.23 809.887L1330.03 832.887M1270.23 809.887L1339.2 810.97M1330.03 832.887L1339.2 810.97M1330.03 832.887L1270.23 809.896M1330.03 832.887L1401.01 833.457M1330.03 832.887L1393.07 854.85M1330.03 832.887L1319.86 854.794M1270.23 809.896L1339.2 810.97M1339.2 810.97L1401.01 833.457M1339.2 810.97L1408.28 812.801M1173.49 854.673L1246.67 854.729M1246.67 854.729L1319.86 854.794M1401.01 833.457L1393.07 854.85M1401.01 833.457L1408.28 812.801M1401.01 833.457L1472.05 834.204M1401.01 833.457L1466.29 854.907M1393.07 854.85L1319.86 854.794M1393.07 854.85L1466.29 854.907M1408.28 812.801L1472.05 834.204M1408.28 812.801L1477.36 814.623M1408.28 812.801L1477.36 814.633M1472.05 834.204L1477.36 814.633M1472.05 834.204L1477.36 814.623M1472.05 834.204L1543.05 834.765M1472.05 834.204L1466.29 854.907M1472.05 834.204L1539.52 854.953M1477.36 814.623L1543.05 834.765M1477.36 814.623L1546.35 815.688M1477.36 814.633L1546.35 815.688M1477.36 814.633L1543.05 834.765M1543.05 834.765L1546.35 815.688M1543.05 834.765L1614 834.746M1543.05 834.765L1539.52 854.953M1543.05 834.765L1612.76 855M1546.35 815.688L1614 834.746M1614 834.746L1612.76 855M1466.29 854.907L1539.52 854.953M1539.52 854.953L1612.76 855" stroke="white" stroke-width="0.3" stroke-miterlimit="10" stroke-linejoin="round"/>
</g>
</svg>
