<svg width="594" height="753" viewBox="0 0 594 753" fill="none" xmlns="http://www.w3.org/2000/svg">
<path d="M1177.15 354.544L1204.52 362.751M1177.15 354.544L1171.78 351.741M1177.15 354.544L1148.62 332.431M1204.52 362.751L1171.78 351.741M1204.52 362.751L1197.26 355.566M1171.78 351.741L1197.26 355.566M1171.78 351.741L1165.65 345.094M1171.78 351.741L1148.62 332.431M1171.78 351.741L1144.35 327.844M1197.26 355.566L1165.65 345.094M1197.26 355.566L1225.92 343.942M1197.26 355.566L1189.93 347.842M1165.65 345.094L1144.35 327.844M1165.65 345.094L1136.84 327.584M1165.65 345.094L1189.93 347.842M1165.65 345.094L1157.15 344.852M1148.62 332.431L1144.35 327.844M1148.62 332.431L1124.33 299.733M1144.35 327.844L1136.84 327.584M1144.35 327.844L1124.33 299.733M1144.35 327.844L1118.64 299.213M1136.84 327.584L1118.64 299.213M1136.84 327.584L1107.93 308.738M1136.84 327.584L1157.15 344.852M1136.84 327.584L1125.35 338.242M1124.33 299.733L1118.64 299.213M1124.33 299.733L1099.98 267.036M1118.64 299.213L1107.93 308.738M1118.64 299.213L1099.98 267.036M1118.64 299.213L1091.07 273.961M1107.93 308.738L1091.07 273.961M1107.93 308.738L1076.03 294.219M1107.93 308.738L1092.32 331.242M1107.93 308.738L1125.35 338.242M1099.98 267.036L1091.07 273.961M1099.98 267.036L1071.37 244.866M1091.07 273.961L1071.37 244.866M1091.07 273.961L1076.03 294.219M1091.07 273.961L1058.09 260.184M1071.37 244.866L1058.09 260.184M1071.37 244.866L1013.17 238.126M1225.92 343.942L1189.93 347.842M1225.92 343.942L1217.82 337.351M1189.93 347.842L1217.82 337.351M1189.93 347.842L1181.06 348.621M1189.93 347.842L1157.15 344.852M1217.82 337.351L1181.06 348.621M1217.82 337.351L1248.94 319.749M1217.82 337.351L1209.06 341.361M1181.06 348.621L1157.15 344.852M1181.06 348.621L1145.71 356.401M1181.06 348.621L1209.06 341.361M1181.06 348.621L1170.31 362.046M1157.15 344.852L1145.71 356.401M1157.15 344.852L1125.35 338.242M1076.03 294.219L1092.32 331.242M1076.03 294.219L1058.09 260.184M1076.03 294.219L1023.15 287.404M1076.03 294.219L1092.31 331.242M1076.03 294.219L1055.8 327.064M1092.32 331.242L1110.18 361.507M1092.32 331.242L1072.93 364.757M1092.32 331.242L1125.35 338.242M1092.32 331.242L1110.18 361.526L1125.35 338.242M1145.71 356.401L1125.35 338.242M1145.71 356.401L1110.18 361.507M1145.71 356.401L1170.31 362.046M1145.71 356.401L1131.8 380.223M1125.35 338.242L1110.18 361.507M1110.18 361.507L1072.93 364.757M1110.18 361.507L1131.8 380.223M1110.18 361.507L1092.65 394.242M1072.93 364.757L1055.8 327.064M1072.93 364.757L1024.34 365.648M1072.93 364.757L1092.31 331.242M1072.93 364.757L1092.65 394.242M1072.93 364.757L1051.98 402.43M1058.09 260.184L1023.15 287.404M1058.09 260.184L1013.17 238.126M1058.09 260.184L988.949 249.248M1023.15 287.404L988.949 249.248M1023.15 287.404L970.833 272.94M1023.15 287.404L1055.8 327.064M1023.15 287.404L996.679 321.383M1013.17 238.126L988.949 249.248M1013.17 238.126L955.602 219.001M988.949 249.248L970.833 272.94M988.949 249.248L955.602 219.001M988.949 249.248L947.12 226.243M970.833 272.94L947.12 226.243M970.833 272.94L938.086 251.959M970.833 272.94L996.679 321.383M970.833 272.94L956.173 308.645M955.602 219.001L947.12 226.243M955.602 219.001L925.082 189.869M947.12 226.243L938.086 251.959M947.12 226.243L925.082 189.869M947.12 226.243L922.417 198.874M938.086 251.959L922.417 198.874M938.086 251.959L914.42 230.588M938.086 251.959L927.186 293.402M938.086 251.959L956.173 308.645M925.082 189.869L922.417 198.874M925.082 189.869L907.357 160.142M922.417 198.874L907.357 160.142M922.417 198.874L914.42 230.588M922.417 198.874L902.454 174.866M907.357 160.142L902.454 174.866M907.357 160.142L888.165 139.18M1092.31 331.242L1055.8 327.064M1055.8 327.064L1024.34 365.648M1055.8 327.064L996.679 321.383M1024.34 365.648L996.679 321.383M1024.34 365.648L977.678 360.913M1024.34 365.648L1051.98 402.43M1024.34 365.648L1002.81 403.358M996.679 321.383L977.678 360.913M996.679 321.383L956.173 308.645M996.679 321.383L956.173 308.664L977.678 360.913M914.42 230.588L927.186 293.402M914.42 230.588L902.454 174.866M914.42 230.588L889.336 214.954M914.42 230.588L901.093 280.144M927.186 293.402L956.173 308.645M927.186 293.402L943.093 353.115M927.186 293.402L913.849 345.168M927.186 293.402L901.093 280.144M977.678 360.913L956.173 308.645M977.678 360.913L943.093 353.115M977.678 360.913L1002.81 403.358M977.678 360.913L963.703 402.226M956.173 308.645L943.093 353.115M943.093 353.115L963.703 402.226M943.093 353.115L930.48 400.406M943.093 353.115L913.849 345.168M1248.94 319.749L1209.06 341.361M1248.94 319.749L1240.54 330.444M1209.06 341.361L1240.54 330.444M1209.06 341.361L1199.44 358.889M1209.06 341.361L1170.31 362.046M1240.54 330.444L1199.44 358.889M1240.54 330.444L1273.86 328.197M1240.54 330.444L1232.07 355.993M1199.44 358.889L1170.31 362.046M1199.44 358.889L1158.31 387.409M1199.44 358.889L1232.07 355.993M1199.44 358.889L1189.58 387.669M1170.31 362.046L1158.31 387.409M1170.31 362.046L1131.8 380.223M1158.31 387.409L1131.8 380.223M1158.31 387.409L1116.94 411.937M1158.31 387.409L1189.58 387.669M1158.31 387.409L1146.69 417.73M1131.8 380.223L1116.94 411.937M1131.8 380.223L1092.65 394.242M1116.94 411.937L1092.65 394.242M1116.94 411.937L1075.13 428.369M1116.94 411.937L1103.69 440.679M1116.94 411.937L1146.69 417.73M1092.65 394.242L1075.13 428.369M1092.65 394.242L1051.98 402.43M1273.86 328.197L1232.07 355.993M1273.86 328.197L1265.75 365.945M1232.07 355.993L1265.75 365.945M1232.07 355.993L1222.64 392.329M1232.07 355.993L1189.58 387.669M1265.75 365.945L1222.64 392.329M1265.75 365.945L1300.76 390.454M1265.75 365.945L1256.98 409.504M1222.64 392.329L1189.58 387.669M1222.64 392.329L1179.08 418.64M1222.64 392.329L1256.98 409.504M1222.64 392.329L1212.71 428.202M1189.58 387.669L1179.08 418.64M1189.58 387.669L1146.69 417.73M1075.13 428.369L1103.69 440.679M1075.13 428.369L1051.98 402.43M1075.13 428.369L1031.03 433.382M1075.13 428.369L1060.88 451.021M1103.69 440.679L1135.3 441.199M1103.69 440.679L1091.55 456.425M1103.69 440.679L1146.69 417.73M1103.69 440.679L1060.88 451.021M1179.08 418.64L1146.69 417.73M1179.08 418.64L1135.3 441.199M1179.08 418.64L1212.71 428.202M1179.08 418.64L1168.15 444.708M1146.69 417.73L1135.3 441.199M1135.3 441.199L1091.55 456.425M1135.3 441.199L1168.15 444.708M1135.3 441.199L1123.53 457.241M1091.55 456.425L1060.88 451.021M1091.55 456.425L1048.48 460.249M1091.55 456.425L1123.53 457.241M1091.55 456.425L1079.02 464.037M1051.98 402.43L1031.03 433.382M1051.98 402.43L1002.81 403.358M1031.03 433.382L1002.81 403.358M1031.03 433.382L989.777 435.907M1031.03 433.382L1060.88 451.021M1031.03 433.382L1019.89 452.414M1002.81 403.358L989.777 435.907M1002.81 403.358L963.703 402.226M989.777 435.907L963.703 402.226M989.777 435.907L953.098 438.86M989.777 435.907L1019.89 452.414M989.777 435.907L981.305 456.814M963.703 402.226L953.098 438.86M963.703 402.226L930.48 400.406M953.098 438.86L930.48 400.406M953.098 438.86L917.99 441.886M953.098 438.86L943.607 462.385M953.098 438.86L981.305 456.814M930.48 400.406L913.849 345.168M930.48 400.406L917.99 441.886M930.48 400.406L898.285 399.181M913.849 345.168L901.093 280.144M913.849 345.168L883.206 339.95M913.849 345.168L898.285 399.181M1060.88 451.021L1048.48 460.249M1060.88 451.021L1019.89 452.414M1048.48 460.249L1019.89 452.414M1048.48 460.249L1007.79 464.817M1048.48 460.249L1079.02 464.037M1048.48 460.249L1035.95 467.584M1019.89 452.414L1007.79 464.817M1019.89 452.414L981.305 456.814M917.99 441.886L943.607 462.385M917.99 441.886L898.285 399.181M917.99 441.886L881.473 444.634M917.99 441.886L905.31 467.194M943.607 462.385L968.491 473.191M943.607 462.385L929.309 481.936M943.607 462.385L981.305 456.814M943.607 462.385L905.31 467.194M1007.79 464.817L981.305 456.814M1007.79 464.817L968.491 473.191M1007.79 464.817L1035.95 467.584M1007.79 464.817L994.546 478.817M981.305 456.814L968.491 473.191M968.491 473.191L929.309 481.936M968.491 473.191L994.546 478.817M968.491 473.191L953.765 493.058M929.309 481.936L905.31 467.194M929.309 481.936L888.984 487.599M929.309 481.936L953.765 493.058M929.309 481.936L912.554 505.35M902.454 174.866L889.336 214.954M902.454 174.866L888.165 139.18M902.454 174.866L874.895 162.018M902.454 174.866L889.336 214.972L874.895 162.018M889.336 214.954L874.895 162.018M889.336 214.954L853.315 217.609M889.336 214.954L901.093 280.144M889.336 214.954L869.307 273.349M888.165 139.18L874.895 162.018M888.165 139.18L854.619 141.482M874.895 162.018L853.315 217.609M874.895 162.018L854.619 141.482M874.895 162.018L834.789 196.015M874.895 162.018L853.314 217.627L834.789 196.015M853.315 217.609L834.789 196.015M853.315 217.609L811.229 277.712M853.315 217.609L869.307 273.349M853.315 217.609L828.64 298.006M854.619 141.482L834.789 196.015M854.619 141.482L812.923 211.426M834.789 196.015L811.229 277.712M834.789 196.015L812.923 211.426M834.789 196.015L792.047 284.563M811.229 277.712L792.047 284.563M811.229 277.712L768.905 365.963M811.229 277.712L786.24 365.555M811.229 277.712L828.64 298.006M812.923 211.426L792.047 284.563M812.923 211.426L770.894 314.717M812.923 211.426L792.037 284.563M792.047 284.563L768.905 365.963M792.037 284.563L770.894 314.717M792.037 284.563L751.208 380.26M792.037 284.563L768.895 365.963M770.894 314.717L751.208 380.26M770.894 314.717L726.924 404.992M901.093 280.144L883.206 339.95M901.093 280.144L869.307 273.349M883.206 339.95L869.307 273.349M883.206 339.95L845.156 342.457M883.206 339.95L898.285 399.181M883.206 339.95L862.263 399.775M869.307 273.349L845.156 342.457M869.307 273.349L828.64 298.006M768.905 365.963L786.24 365.555M786.24 365.555L803.365 382.377M786.24 365.555L761.441 445.21M786.24 365.555L828.64 298.006M786.24 365.555L768.895 365.963M786.24 365.555L745.068 440.958M845.156 342.457L828.64 298.006M845.156 342.457L803.365 382.359M845.156 342.457L862.263 399.775M845.156 342.457L821.119 413.014M828.64 298.006L803.365 382.359M828.64 298.006L803.365 382.377M803.365 382.359L821.119 413.014M803.365 382.377L761.441 445.21M803.365 382.377L821.119 413.014M803.365 382.377L779.167 456.796M761.441 445.21L745.068 440.958M761.441 445.21L717.642 503.122M761.441 445.21L779.167 456.796M761.441 445.21L737.776 509.138M751.208 380.26L768.895 365.963M751.208 380.26L724.277 444.764M751.208 380.26L726.924 404.992M751.208 380.26L695.262 457.743M751.208 380.26L724.268 444.764M768.895 365.963L724.277 444.764M768.895 365.963L745.068 440.958M724.277 444.764L745.068 440.958M726.924 404.992L695.262 457.743M726.924 404.992L662.533 474.231M695.262 457.743L724.268 444.764M695.262 457.743L662.457 502.676M695.262 457.743L662.533 474.231M695.262 457.743L634.603 503.215M724.268 444.764L662.457 502.676M724.268 444.764L745.068 440.958M724.268 444.764L691.834 500.745M662.457 502.676L634.603 503.215M662.457 502.676L609.51 518.811M662.457 502.676L691.834 500.745M662.457 502.676L634.698 532.941M662.533 474.231L634.603 503.215M662.533 474.231L607.549 493.114M634.603 503.215L609.51 518.811M634.603 503.215L607.549 493.114M609.51 518.811L634.698 532.941M609.51 518.811L582.398 502.063M609.51 518.811L563.359 509.509M609.51 518.811L634.594 503.215M609.51 518.811L634.689 532.941M609.51 518.811L587.129 530.416M607.549 493.114L634.594 503.215M607.549 493.114L582.398 502.063M607.549 493.114L556.353 488.435M745.068 440.958L717.642 503.122M745.068 440.958L691.834 500.745M717.642 503.122L691.834 500.745M717.642 503.122L660.687 541.259M717.642 503.122L737.776 509.138M717.642 503.122L687.732 549.021M691.834 500.745L660.687 541.259M691.834 500.745L634.698 532.941M660.687 541.259L634.698 532.941M660.687 541.259L611.404 549.652M660.687 541.259L687.732 549.021M660.687 541.259L634.66 565.694M634.698 532.941L611.404 549.652M611.404 549.652L634.66 565.694M611.404 549.652L587.129 530.416M611.404 549.652L570.204 540.183M611.404 549.652L634.689 532.941M611.404 549.652L591.737 562.129M898.285 399.181L881.473 444.634M898.285 399.181L862.263 399.775M881.473 444.634L862.263 399.775M881.473 444.634L841.006 447.234M881.473 444.634L905.31 467.194M881.473 444.634L864.9 469.236M862.263 399.775L841.006 447.234M862.263 399.775L821.119 413.014M862.263 399.775L841.006 447.252L821.119 413.014M841.006 447.234L821.119 413.014M841.006 447.234L799.034 471.891M841.006 447.234L864.9 469.236M841.006 447.234L822.328 480.321M821.119 413.014L799.034 471.891M821.119 413.014L779.167 456.796M799.034 471.891L779.167 456.796M799.034 471.891L757.015 514.151M799.034 471.891L779.69 512.591M799.034 471.891L822.328 480.321M779.167 456.796L757.015 514.151M779.167 456.796L737.776 509.138M905.31 467.194L888.984 487.599M905.31 467.194L864.9 469.236M888.984 487.599L864.9 469.236M888.984 487.599L846.318 490.403M888.984 487.599L912.554 505.35M888.984 487.599L869.888 510.716M864.9 469.236L846.318 490.403M864.9 469.236L822.328 480.321M757.015 514.151L779.69 512.591M757.015 514.151L737.776 509.138M757.015 514.151L713.158 555.612M757.015 514.151L737.052 554.294M779.69 512.591L802.804 510.66M779.69 512.591L759.29 545.214M779.69 512.591L822.328 480.321M779.69 512.591L737.052 554.294M846.318 490.403L822.328 480.321M846.318 490.403L802.804 510.66M846.318 490.403L869.888 510.716M846.318 490.403L825.555 518.106M822.328 480.321L802.804 510.66M802.804 510.66L759.29 545.214M802.804 510.66L825.555 518.106M802.804 510.66L781.156 539.923M759.29 545.214L737.052 554.294M759.29 545.214L713.682 582.944M759.29 545.214L781.156 539.923M759.29 545.214L736.748 573.957M737.776 509.138L713.158 555.612M737.776 509.138L687.732 549.021M713.158 555.612L687.732 549.021M713.158 555.612L659.801 577.968M713.158 555.612L737.052 554.294M713.158 555.612L687.256 584.615M687.732 549.021L659.801 577.968M687.732 549.021L634.66 565.694M659.801 577.968L634.66 565.694M659.801 577.968L613.222 580.901M659.801 577.968L687.256 584.615M659.801 577.968L635.289 595.774M634.66 565.694L613.222 580.901M634.66 565.694L591.737 562.129M613.222 580.901L635.289 595.774M613.222 580.901L591.737 562.129M613.222 580.901L576.886 569.111M613.222 580.901L595.335 589.962M737.052 554.294L713.682 582.944M737.052 554.294L687.256 584.615M713.682 582.944L687.256 584.615M713.682 582.944L660.839 603.201M713.682 582.944L736.748 573.957M713.682 582.944L687.037 602.829M687.256 584.615L660.839 603.201M687.256 584.615L635.289 595.774M660.839 603.201L635.289 595.774M660.839 603.201L613.594 606.524M660.839 603.201L687.037 602.829M660.839 603.201L635.793 614.88M635.289 595.774L613.594 606.524M635.289 595.774L595.335 589.962M613.594 606.524L635.793 614.88M613.594 606.524L595.335 589.962M613.594 606.524L576.439 594.586M613.594 606.524L635.784 614.88M613.594 606.524L593.127 611.278M1300.76 390.454L1256.98 409.504M1300.76 390.454L1292.71 439.194M1256.98 409.504L1292.71 439.194M1256.98 409.504L1247.66 449.313M1256.98 409.504L1212.71 428.202M1292.71 439.194L1247.66 449.313M1292.71 439.194L1330 477.48M1292.71 439.194L1284.06 480.896M1247.66 449.313L1212.71 428.202M1247.66 449.313L1202.31 456.926M1247.66 449.313L1284.06 480.896M1247.66 449.313L1237.86 479.671M1212.71 428.202L1202.31 456.926M1212.71 428.202L1168.15 444.708M1202.31 456.926L1168.15 444.708M1202.31 456.926L1156.83 462.125M1202.31 456.926L1237.86 479.671M1202.31 456.926L1191.5 475.735M1168.15 444.708L1156.83 462.125M1168.15 444.708L1123.53 457.241M1156.83 462.125L1123.53 457.241M1156.83 462.125L1111.35 464.947M1156.83 462.125L1145.08 470.981M1156.83 462.125L1191.5 475.735M1123.53 457.241L1111.35 464.947M1123.53 457.241L1079.02 464.037M1330 477.48L1284.06 480.896M1330 477.48L1322.08 517.976M1284.06 480.896L1322.08 517.976M1284.06 480.896L1274.92 510.864M1284.06 480.896L1237.86 479.671M1284.06 480.896L1237.86 479.69M1322.08 517.976L1274.92 510.864M1322.08 517.976L1361.88 551.676M1322.08 517.976L1313.62 544.49M1274.92 510.864L1237.86 479.69M1274.92 510.864L1237.86 479.671M1274.92 510.864L1227.62 498.888M1274.92 510.864L1313.62 544.49M1274.92 510.864L1265.31 528.411M1237.86 479.671L1227.62 498.888M1237.86 479.671L1191.5 475.735M1237.86 479.69L1191.5 475.735M1237.86 479.69L1227.62 498.888M1111.35 464.947L1145.08 470.981M1111.35 464.947L1079.02 464.037M1111.35 464.947L1066.24 466.952M1111.35 464.947L1098.74 467.324M1145.08 470.981L1180.26 485.761M1145.08 470.981L1132.91 475.289M1145.08 470.981L1191.5 475.735M1145.08 470.981L1098.74 467.324M1227.62 498.888L1191.5 475.735M1227.62 498.888L1180.26 485.761M1227.62 498.888L1265.31 528.411M1227.62 498.888L1216.96 509.063M1191.5 475.735L1180.26 485.761M1180.26 485.761L1132.91 475.289M1180.26 485.761L1216.96 509.063M1180.26 485.761L1168.59 492.037M1132.91 475.289L1098.74 467.324M1132.91 475.289L1085.55 475.103M1132.91 475.289L1168.59 492.037M1132.91 475.289L1120.24 482.976M1079.02 464.037L1066.24 466.952M1079.02 464.037L1035.95 467.584M1066.24 466.952L1035.95 467.584M1066.24 466.952L1022.53 479.077M1066.24 466.952L1098.74 467.324M1066.24 466.952L1052.86 476.255M1035.95 467.584L1022.53 479.077M1035.95 467.584L994.546 478.817M1022.53 479.077L994.546 478.817M1022.53 479.077L979.734 498.35M1022.53 479.077L1052.86 476.255M1022.53 479.077L1007.91 498.183M994.546 478.817L979.734 498.35M994.546 478.817L953.765 493.058M994.546 478.817L979.734 498.369M979.734 498.35L1007.91 498.183M953.765 493.058L979.734 498.369M953.765 493.058L937.001 518.347M953.765 493.058L912.554 505.35M979.734 498.369L937.001 518.347M979.734 498.369L963.294 524.957M979.734 498.369L1007.91 498.183M1098.74 467.324L1085.55 475.103M1098.74 467.324L1052.86 476.255M1085.55 475.103L1052.86 476.255M1085.55 475.103L1038.62 495.268M1085.55 475.103L1120.24 482.976M1085.55 475.103L1071.83 494.841M1052.86 476.255L1038.62 495.268M1052.86 476.255L1007.91 498.183M937.001 518.347L963.294 524.957M937.001 518.347L912.554 505.35M937.001 518.347L893.525 532.57M937.001 518.347L918.447 548.612M963.294 524.957L1007.91 498.183M963.294 524.957L992.071 525.941L1007.91 498.183M963.294 524.957L992.071 525.923M963.294 524.957L945.559 557.636M963.294 524.957L918.447 548.612M1038.62 495.268L1007.91 498.183M1038.62 495.268L992.071 525.923M1038.62 495.268L1071.83 494.841M1038.62 495.268L1023.59 524.53M1007.91 498.183L992.071 525.923M992.071 525.923L1023.59 524.53M992.071 525.923L975.421 560.941M992.071 525.923L945.559 557.636M1361.88 551.676L1313.62 544.49M1361.88 551.676L1354.19 571.469M1313.62 544.49L1354.19 571.469M1313.62 544.49L1304.77 558.137M1313.62 544.49L1265.31 528.411M1354.19 571.469L1304.77 558.137M1354.19 571.469L1396.73 594.66M1354.19 571.469L1346.15 587.326M1304.77 558.137L1265.31 528.411M1304.77 558.137L1255.33 538.512M1304.77 558.137L1346.15 587.326M1304.77 558.137L1295.55 572.119M1265.31 528.411L1255.33 538.512M1265.31 528.411L1216.96 509.063M1255.33 538.512L1216.96 509.063M1255.33 538.512L1205.9 518.811M1255.33 538.512L1295.55 572.119M1255.33 538.512L1244.96 554.22M1216.96 509.063L1205.9 518.811M1216.96 509.063L1168.59 492.037M1216.96 509.063L1168.59 492.056M1205.9 518.811L1168.59 492.056M1205.9 518.811L1168.59 492.037M1205.9 518.811L1156.45 505.127M1205.9 518.811L1194.35 538.809M1205.9 518.811L1244.96 554.22M1168.59 492.037L1156.45 505.127M1168.59 492.037L1120.24 482.976M1168.59 492.056L1120.24 482.976M1168.59 492.056L1156.45 505.127M1396.73 594.66L1346.15 587.326M1396.73 594.66L1389.51 614.694L1346.15 587.326M1346.15 587.326L1295.55 572.119M1346.15 587.326L1337.71 605.243L1295.55 572.119M1295.55 572.119L1244.96 554.22M1295.55 572.119L1285.9 591.503L1244.96 554.22M1156.45 505.127L1194.35 538.809M1156.45 505.127L1120.24 482.976M1156.45 505.127L1107 505.517M1156.45 505.127L1143.75 531.085M1194.35 538.809L1244.96 554.22M1194.35 538.809L1234.08 577.689L1244.96 554.22M1194.35 538.809L1143.75 531.085M1194.35 538.809L1182.25 568.015L1143.75 531.085M1120.24 482.976L1107 505.517M1120.24 482.976L1071.83 494.841M1107 505.517L1071.83 494.841M1107 505.517L1057.55 527.817M1107 505.517L1143.75 531.085M1107 505.517L1093.13 542.299M1071.83 494.841L1057.55 527.817M1071.83 494.841L1023.59 524.53M1057.55 527.817L1023.59 524.53M1057.55 527.817L1008.08 562.241M1057.55 527.817L1093.13 542.299M1057.55 527.817L1042.51 568.572M1023.59 524.53L1008.08 562.241M1023.59 524.53L975.421 560.941M1008.08 562.241L975.421 560.941M1008.08 562.241L958.619 597.89M1008.08 562.241L991.881 600.453M1008.08 562.241L1042.51 568.572M975.421 560.941L945.559 557.636M975.421 560.941L958.619 597.89M975.421 560.941L927.196 593.063M945.559 557.636L918.447 548.612M945.559 557.636L898.713 580.938M945.559 557.636L927.196 593.063M1143.75 531.085L1093.13 542.299M1143.75 531.085L1130.43 568.35L1093.13 542.299M1093.13 542.299L1042.51 568.572M1093.13 542.299L1078.59 584.188L1042.51 568.572M958.619 597.89L991.881 600.453M958.619 597.89L927.196 593.063M958.619 597.89L909.146 623.811M958.619 597.89L941.256 628.768M991.881 600.453L1042.51 568.572M991.881 600.453L1026.75 608.363L1042.51 568.572M991.881 600.453L941.256 628.768M991.881 600.453L974.898 633.336L941.256 628.768M912.554 505.35L893.525 532.57M912.554 505.35L869.888 510.716M893.525 532.57L869.888 510.716M893.525 532.57L848.64 536.302M893.525 532.57L918.447 548.612M893.525 532.57L872.772 561.201M869.888 510.716L848.64 536.302M869.888 510.716L825.555 518.106M848.64 536.302L825.555 518.106M848.64 536.302L803.327 544.732M848.64 536.302L872.772 561.201M848.64 536.302L826.488 561.108M825.555 518.106L803.327 544.732M825.555 518.106L781.156 539.923M803.327 544.732L781.156 539.923M803.327 544.732L758.005 565.23M803.327 544.732L780.224 567.328M803.327 544.732L826.488 561.108M781.156 539.923L758.005 565.23M781.156 539.923L736.748 573.957M918.447 548.612L898.713 580.938M918.447 548.612L872.772 561.201M898.713 580.938L872.772 561.201M898.713 580.938L851.382 585.766M898.713 580.938L927.196 593.063M898.713 580.938L878.798 609.959M872.772 561.201L851.382 585.766M872.772 561.201L826.488 561.108M758.005 565.23L780.224 567.328M758.005 565.23L736.748 573.957M758.005 565.23L711.54 596.832M758.005 565.23L733.959 588.44M780.224 567.328L804.118 581.793M780.224 567.328L756.843 587.641M780.224 567.328L826.488 561.108M780.224 567.328L733.959 588.44M851.382 585.766L826.488 561.108M851.382 585.766L804.118 581.793M851.382 585.766L878.798 609.959M851.382 585.766L830.429 605.41M826.488 561.108L804.118 581.793M804.118 581.793L756.843 587.641M804.118 581.793L830.429 605.41M804.118 581.793L782.08 600.026M756.843 587.641L733.959 588.44M756.843 587.641L709.408 612.745M756.843 587.641L782.08 600.026M756.843 587.641L733.72 612.169M736.748 573.957L711.54 596.832M736.748 573.957L687.037 602.829M711.54 596.832L687.037 602.829M711.54 596.832L660.62 617.238M711.54 596.832L733.959 588.44M711.54 596.832L685.428 615.641M687.037 602.829L660.62 617.238M687.037 602.829L635.793 614.88M660.62 617.238L635.793 614.88M660.62 617.238L613.146 621.62M660.62 617.238L685.428 615.641M660.62 617.238L636.021 628.453M635.793 614.88L613.146 621.62M613.146 621.62L636.021 628.453M613.146 621.62L593.127 611.278M613.146 621.62L571.841 616.347M613.146 621.62L593.127 611.296M613.146 621.62L635.784 614.88M613.146 621.62L590.842 628.49M733.959 588.44L709.408 612.745M733.959 588.44L685.428 615.641M709.408 612.745L685.428 615.641M709.408 612.745L660.401 633.262M709.408 612.745L733.72 612.169M709.408 612.745L685.219 637.866M685.428 615.641L660.401 633.262M685.428 615.641L636.021 628.453M660.401 633.262L636.021 628.453M660.401 633.262L612.68 638.758M660.401 633.262L685.219 637.866M660.401 633.262L636.535 651.569M636.021 628.453L612.68 638.758M636.021 628.453L590.842 628.49M636.021 628.453L612.67 638.758M612.68 638.758L636.535 651.569M927.196 593.063L909.146 623.811M927.196 593.063L878.798 609.959M909.146 623.811L878.798 609.959M909.146 623.811L859.664 629.381M909.146 623.811L941.256 628.768M909.146 623.811L890.612 644.328M878.798 609.959L859.664 629.381M878.798 609.959L830.429 605.41M859.664 629.381L830.429 605.41M859.664 629.381L810.162 621.861M859.664 629.381L890.612 644.328M859.664 629.381L839.949 641.32M830.429 605.41L810.162 621.861M830.429 605.41L782.08 600.026M810.162 621.861L782.08 600.026M810.162 621.861L760.651 621.806M810.162 621.861L789.267 636.14M810.162 621.861L839.949 641.32M782.08 600.026L760.651 621.806M782.08 600.026L733.72 612.169M941.256 628.768L890.612 644.328M941.256 628.768L923.045 651.699L890.612 644.328M890.612 644.328L839.949 641.32M890.612 644.328L871.183 655.951L839.949 641.32M760.651 621.806L789.267 636.14M760.651 621.806L733.72 612.169M760.651 621.806L711.159 643.548M760.651 621.806L738.575 645.145M789.267 636.14L839.949 641.32M789.267 636.14L819.311 650.827L839.949 641.32M789.267 636.14L738.575 645.145M789.267 636.14L767.42 650.752L738.575 645.145M733.72 612.169L711.159 643.548M733.72 612.169L685.219 637.866M711.159 643.548L685.219 637.866M711.159 643.548L661.696 663.861M711.159 643.548L738.575 645.145M711.159 643.548L687.96 666.628M685.219 637.866L661.696 663.861M685.219 637.866L636.535 651.569M661.696 663.861L636.535 651.569M661.696 663.861L612.213 669.914M661.696 663.861L687.96 666.628M661.696 663.861L637.335 679.272M636.535 651.569L612.213 669.914M636.535 651.569L612.67 638.758M636.535 651.569L588.452 654.076M636.535 651.569L612.204 669.914M612.213 669.914L637.335 679.272M738.575 645.145L687.96 666.628M738.575 645.145L715.548 665.755L687.96 666.628M687.96 666.628L637.335 679.272M687.96 666.628L663.676 680.015L637.335 679.272M634.594 503.215L582.398 502.063M582.398 502.063L563.359 509.509M582.398 502.063L556.353 488.435M582.398 502.063L540.227 489.883M563.359 509.509L540.227 489.883M563.359 509.509L527.347 491.703M563.359 509.509L587.129 530.416M563.359 509.509L548.661 516.212M556.353 488.435L540.227 489.883M556.353 488.435L518.094 474.918M540.227 489.883L527.347 491.703M540.227 489.883L518.094 474.918M540.227 489.883L506.718 468.568M527.347 491.703L506.718 468.568M527.347 491.703L495.313 466.989M527.347 491.703L548.661 516.212M527.347 491.703L515.647 495.713M518.094 474.918L506.718 468.568M518.094 474.918L487.45 449.053M506.718 468.568L495.313 466.989M506.718 468.568L487.45 449.053M506.718 468.568L476.122 437.133M495.313 466.989L476.122 437.133M495.313 466.989L461.081 436.984M495.313 466.989L481.51 473.098M495.313 466.989L515.647 495.713M487.45 449.053L476.122 437.133M487.45 449.053L459.072 407.332M476.122 437.133L459.072 407.332M476.122 437.133L461.081 436.984M476.122 437.133L442.68 394.706M459.072 407.332L442.68 394.706M459.072 407.332L428.277 352.298M634.689 532.941L587.129 530.416M587.129 530.416L570.204 540.183M587.129 530.416L548.661 516.212M570.204 540.183L548.661 516.212M570.204 540.183L536.362 522.525M570.204 540.183L591.737 562.129M570.204 540.183L556.886 546.997M548.661 516.212L536.362 522.525M548.661 516.212L515.647 495.713M461.081 436.984L481.51 473.098M461.081 436.984L442.68 394.706M461.081 436.984L420.642 405.791M461.081 436.984L439.624 452.507M481.51 473.098L502.872 503.345M481.51 473.098L462.709 489.363M481.51 473.098L515.647 495.713M481.51 473.098L502.872 503.363M481.51 473.098L439.624 452.507M536.362 522.525L515.647 495.713M536.362 522.525L502.872 503.363M536.362 522.525L556.886 546.997M536.362 522.525L524.3 528.429M515.647 495.713L502.872 503.363M502.872 503.363L524.3 528.429M502.872 503.345L462.709 489.363M502.872 503.345L524.3 528.429M502.872 503.345L486.527 515.636M462.709 489.363L439.624 452.507M462.709 489.363L413.084 484.331M462.709 489.363L486.527 515.636M462.709 489.363L436.14 517.846M442.68 394.706L420.642 405.791M442.68 394.706L428.277 352.298M442.68 394.706L424.402 373.799L413.008 398.939M420.642 405.791L414.654 394.576L413.008 398.939M420.642 405.791L395.939 455.422M420.642 405.791L439.624 452.507M420.642 405.791L402.384 453.844M428.277 352.298L413.008 398.939M428.277 352.298L412.284 441.682M413.008 398.939L395.939 455.422M413.008 398.939L412.284 441.682M413.008 398.939L396.005 463.592L388.028 467.472M413.008 398.939L388.028 467.472M395.939 455.422L388.028 467.472M395.939 455.422L384.449 466.767L354.529 422.242M395.939 455.422L398.88 450.984L402.384 453.844M395.939 455.422L372.397 466.154M395.939 455.422L387.438 466.061L354.529 422.242M412.284 441.682L388.028 467.472M412.284 441.682L403.869 470.48L391.408 470.722L372.93 437.764M388.028 467.472L354.529 422.242M388.028 467.472L372.93 437.764M388.028 467.472L334.033 357.255M354.529 422.242L334.033 357.255M354.529 422.242L298.326 290.468M354.529 422.242L322.619 364.812M354.529 422.242L372.397 466.154M372.93 437.764L334.033 357.255M372.93 437.764L310.168 276.895M334.033 357.255L310.168 276.895M334.033 357.255L298.326 290.468M334.033 357.255L269.501 193.415M310.168 276.895L269.501 193.415M310.168 276.895L240.932 94.5247M439.624 452.507L413.084 484.331M439.624 452.507L402.384 453.844M439.624 452.507L402.384 453.862M413.084 484.331L402.384 453.862M413.084 484.331L402.384 453.844M413.084 484.331L382.888 486.355M413.084 484.331L436.14 517.846M413.084 484.331L392.274 516.843M402.384 453.844L382.888 486.355M402.384 453.844L372.397 466.154M402.384 453.862L372.397 466.154M402.384 453.862L382.888 486.355M298.326 290.468L322.619 364.812M298.326 290.468L269.501 193.415M298.326 290.468L240.932 171.506M298.326 290.468L271.166 271.399M322.619 364.812L372.397 466.154M322.619 364.812L342.506 420.626M322.619 364.812L295.717 341.213M322.619 364.812L271.166 271.399M322.619 364.812L271.166 271.418M382.888 486.355L372.397 466.154M382.888 486.355L342.506 420.626M382.888 486.355L392.274 516.843M382.888 486.355L358.727 472.188M372.397 466.154L342.506 420.626M342.506 420.626L358.727 472.188M342.506 420.626L313.69 382.173M342.506 420.626L295.717 341.213M591.737 562.129L576.886 569.111M591.737 562.129L556.886 546.997M576.886 569.111L556.886 546.997M576.886 569.111L545.12 549.374M576.886 569.111L595.335 589.962M576.886 569.111L562.883 570.541M556.886 546.997L545.12 549.374M556.886 546.997L524.3 528.429M545.12 549.374L524.3 528.429M545.12 549.374L510.088 533.461M545.12 549.374L562.883 570.541M545.12 549.374L529.926 550.209M524.3 528.429L510.088 533.461M524.3 528.429L486.527 515.636M510.088 533.461L486.527 515.636M510.088 533.461L463.918 533.164M510.088 533.461L488.65 541.947M510.088 533.461L529.926 550.209M486.527 515.636L463.918 533.164M486.527 515.636L436.14 517.846M595.335 589.962L576.439 594.586M595.335 589.962L562.883 570.541M576.439 594.586L562.883 570.541M576.439 594.586L542.178 576.983M576.439 594.586L593.127 611.278M576.439 594.586L555.781 599.45M562.883 570.541L542.178 576.983M562.883 570.541L529.926 550.209M463.918 533.164L488.65 541.947M463.918 533.164L436.14 517.846M463.918 533.164L404.944 553.811M463.918 533.164L431.247 558.62M488.65 541.947L504.176 564.209M488.65 541.947L455.855 566.771M488.65 541.947L529.926 550.209M488.65 541.947L431.247 558.62M542.178 576.983L529.926 550.209M542.178 576.983L504.186 564.209M542.178 576.983L555.781 599.45M542.178 576.983L518.094 587.716M529.926 550.209L504.186 564.209M529.926 550.209L504.176 564.209M504.186 564.209L518.094 587.716M504.176 564.209L455.855 566.771M504.176 564.209L518.094 587.716M504.176 564.209L474.656 584.095M455.855 566.771L431.247 558.62M455.855 566.771L395.987 588.273M455.855 566.771L474.656 584.095M455.855 566.771L420.08 596.628M436.14 517.846L404.944 553.811M436.14 517.846L392.274 516.843M404.944 553.811L392.274 516.843M404.944 553.811L369.094 515.711M404.944 553.811L431.247 558.62M404.944 553.811L380.793 559.233M392.274 516.843L369.094 515.711M392.274 516.843L358.727 472.188M369.094 515.711L358.727 472.188M369.094 515.711L329.112 420.552M369.094 515.711L380.793 559.233M369.094 515.711L342.344 475.828M358.727 472.188L329.112 420.552M358.727 472.188L313.69 382.173M329.112 420.552L313.69 382.173M329.112 420.552L288.93 379.054M329.112 420.552L298.192 386.054M329.112 420.552L342.344 475.828M313.69 382.173L295.717 341.213M313.69 382.173L288.93 379.054M313.69 382.173L275.403 363.81M295.717 341.213L271.166 271.399M295.717 341.213L253.117 309.333M295.717 341.213L271.166 271.418M295.717 341.213L275.403 363.81M431.247 558.62L395.987 588.273M431.247 558.62L380.793 559.233M395.987 588.273L380.793 559.233M395.987 588.273L355.5 537.806M395.987 588.273L420.08 596.628M395.987 588.273L370.141 592.172M380.793 559.233L355.5 537.806M380.793 559.233L342.344 475.828M288.93 379.054L294.27 377.921L298.192 386.054M288.93 379.054L275.403 363.81M288.93 379.054L258.41 420.106M288.93 379.054L266.607 407.889M298.192 386.054L313.547 443.891M298.192 386.054L273.489 417.377M298.192 386.054L342.344 475.828M298.192 386.054L266.607 407.889M355.5 537.806L342.344 475.828M355.5 537.806L313.547 443.891M355.5 537.806L370.141 592.172M355.5 537.806L328.569 525.199M342.344 475.828L313.547 443.891M313.547 443.891L273.489 417.377M313.547 443.891L328.569 525.199M313.547 443.891L283.846 461.865M273.489 417.377L268.758 407.202L266.607 407.889M273.489 417.377L242.827 468.382M273.489 417.377L283.846 461.865M273.489 417.377L248.053 480.117M269.501 193.415L240.932 171.506M269.501 193.415L240.932 94.5247M269.501 193.415L210.784 65.3551M240.932 171.506L210.784 65.3551M240.932 171.506L194.439 115.339M240.932 171.506L271.166 271.399M240.932 171.506L223.969 217.367M240.932 94.5247L210.784 65.3551M240.932 94.5247L190.679 1M210.784 65.3551L194.439 115.339M210.784 65.3551L190.679 1M210.784 65.3551L169.031 39.5833M194.439 115.339L169.031 39.5833M194.439 115.339L152.058 120.296M194.439 115.339L223.969 217.367M194.439 115.339L181.235 209.643M190.679 1L169.031 39.5833M190.679 1L150.925 3.22811M169.031 39.5833L152.058 120.296M169.031 39.5833L150.925 3.22811M169.031 39.5833L128.802 62.5699M152.058 120.296L128.802 62.5699M152.058 120.296L108.278 140.108M152.058 120.296L134.142 209.476M152.058 120.296L181.235 209.643M150.925 3.22811L128.802 62.5699M150.925 3.22811L113.18 45.9891M128.802 62.5699L113.18 45.9891M128.802 62.5699L108.278 140.108M128.802 62.5699L89.01 105.312M113.18 45.9891L89.01 105.312M113.18 45.9891L76.6061 105.832M271.166 271.399L253.117 309.333M271.166 271.399L223.969 217.367M253.117 309.333L223.969 217.367M253.117 309.333L271.166 271.418M253.117 309.333L212.869 311.152M253.117 309.333L275.403 363.81M253.117 309.333L239.876 388.727M271.166 271.418L223.969 217.367M223.969 217.367L212.869 311.152M223.969 217.367L181.235 209.643M108.278 140.108L134.142 209.476M108.278 140.108L89.01 105.312M108.278 140.108L64.5068 166.418M108.278 140.108L134.133 209.476M108.278 140.108L85.2022 210.906M134.142 209.476L164.567 302.704M134.142 209.476L111.448 283.375M134.142 209.476L181.235 209.643M212.869 311.152L181.235 209.643M212.869 311.152L164.567 302.704M212.869 311.152L239.876 388.727M212.869 311.152L195.753 399.106M181.235 209.643L164.567 302.704M164.567 302.704L111.448 283.375M164.567 302.704L195.753 399.106M164.567 302.704L140.901 371.924M111.448 283.375L85.2022 210.906M111.448 283.375L57.1862 259.943M111.448 283.375L134.133 209.476M111.448 283.375L140.901 371.924M111.448 283.375L81.9276 328.123M89.01 105.312L64.5068 166.418M89.01 105.312L76.6061 105.832M89.01 105.312L49.9515 151.898M64.5068 166.418L49.9515 151.898M64.5068 166.418L22.1639 190.946M64.5068 166.418L85.2022 210.906M64.5068 166.418L36.9668 213.153M76.6061 105.832L49.9515 151.898M76.6061 105.832L40.3367 159.344M49.9515 151.898L22.1639 190.946M49.9515 151.898L40.3367 159.344M49.9515 151.898L11.9113 186.508M22.1639 190.946L11.9113 186.508M22.1639 190.946L-17.3326 205.429M22.1639 190.946L36.9668 213.153M22.1639 190.946L-8.02258 215.492M40.3367 159.344L11.9113 186.508M40.3367 159.344L3.56272 183.129L11.9113 186.508M11.9113 186.508L-17.3326 205.429M-17.3326 205.429L-8.02258 215.492M134.133 209.476L85.2022 210.906M85.2022 210.906L57.1862 259.943M85.2022 210.906L36.9668 213.153M57.1862 259.943L36.9668 213.153M57.1862 259.943L5.44764 239.184M57.1862 259.943L81.9276 328.123M57.1862 259.943L23.6204 282.057M36.9668 213.153L5.44764 239.184M36.9668 213.153L-8.02258 215.492M5.44764 239.184L-8.02258 215.492M5.44764 239.184L-40.0747 228.025M5.44764 239.184L23.6204 282.057M5.44764 239.184L-29.194 248.134M-8.02258 215.492L-40.0747 228.025M-40.0747 228.025L-29.194 248.134M275.403 363.81L258.41 420.106M275.403 363.81L239.876 388.727M275.403 363.81L258.41 420.125L239.876 388.727M258.41 420.106L239.876 388.727M258.41 420.106L222.103 468.066M258.41 420.106L262.285 418.881L266.607 407.889M258.41 420.106L236.525 474.899M258.41 420.106L262.294 418.881L266.607 407.889M239.876 388.727L222.103 468.066M239.876 388.727L195.753 399.106M222.103 468.066L195.753 399.106M222.103 468.066L169.422 454.642M222.103 468.066L230.994 478.761L236.525 474.899M222.103 468.066L190.879 498.666M195.753 399.106L169.422 454.642M195.753 399.106L140.901 371.924M169.422 454.642L140.901 371.924M169.422 454.642L108.497 404.584M169.422 454.642L132.2 463.554M169.422 454.642L190.879 498.666M140.901 371.924L108.497 404.584M140.901 371.924L81.9276 328.123M266.607 407.889L242.827 468.382M266.607 407.889L236.525 474.899M242.827 468.382L236.525 474.899M242.827 468.382L205.225 519.22M242.827 468.382L248.053 480.117M242.827 468.382L213.373 531.326M236.525 474.899L205.225 519.22M236.525 474.899L190.879 498.666M108.497 404.584L132.2 463.554M108.497 404.584L81.9276 328.123M108.497 404.584L45.2679 339.746M108.497 404.584L67.7054 397.324M132.2 463.554L151.506 506.947M132.2 463.554L90.1428 455.403M132.2 463.554L190.879 498.666M132.2 463.554L67.7054 397.324M205.225 519.22L190.879 498.666M205.225 519.22L151.506 506.947M205.225 519.22L213.373 531.326M205.225 519.22L166.756 547.944M190.879 498.666L151.506 506.947M151.506 506.947L90.1428 455.403M151.506 506.947L166.756 547.944M151.506 506.947L110.105 514.912M90.1428 455.403L67.7054 397.324M90.1428 455.403L26.5715 388.133M90.1428 455.403L110.105 514.912M90.1428 455.403L49.4279 458.003M81.9276 328.123L45.2679 339.746M81.9276 328.123L23.6204 282.057M45.2679 339.746L23.6204 282.057M45.2679 339.746L-14.334 282.038M45.2679 339.746L67.7054 397.324M45.2679 339.746L3.83884 326.415M23.6204 282.057L-14.334 282.038M23.6204 282.057L-29.194 248.134M-14.334 282.038L-29.194 248.134M-14.334 282.038L-64.3781 253.481M-14.334 282.038L3.83884 326.415M-14.334 282.038L-52.9832 277.229M-29.194 248.134L-64.3781 253.481M-64.3781 253.481L-52.9832 277.229M67.7054 397.324L26.5715 388.133M67.7054 397.324L3.83884 326.415M26.5715 388.133L3.83884 326.415M26.5715 388.133L-33.7443 328.661M26.5715 388.133L49.4279 458.003M26.5715 388.133L-10.8213 397.881M3.83884 326.415L-33.7443 328.661M3.83884 326.415L-52.9832 277.229M-33.7443 328.661L-52.9832 277.229M-33.7443 328.661L-85.3877 300.494M-33.7443 328.661L-10.8213 397.881M-33.7443 328.661L-66.2059 355.157M-52.9832 277.229L-85.3877 300.494M-85.3877 300.494L-66.2059 355.157M635.784 614.88L593.127 611.278M635.784 614.88L593.127 611.296M593.127 611.278L571.841 616.347M593.127 611.278L555.781 599.45M571.841 616.347L555.781 599.45M571.841 616.347L593.127 611.296M571.841 616.347L532.382 608.864M571.841 616.347L590.842 628.49M571.841 616.347L548.442 626.187M593.127 611.296L555.781 599.45M555.781 599.45L532.382 608.864M555.781 599.45L518.094 587.716M532.382 608.864L518.094 587.716M532.382 608.864L490.563 604.742M532.382 608.864L548.442 626.187M532.382 608.864L505.861 624.981M518.094 587.716L490.563 604.742M518.094 587.716L474.656 584.095M490.563 604.742L474.656 584.095M490.563 604.742L442.185 609.607M490.563 604.742L460.101 628.026M490.563 604.742L505.861 624.981M474.656 584.095L442.185 609.607M474.656 584.095L420.08 596.628M474.656 584.095L442.175 609.607M590.842 628.49L612.67 638.758M590.842 628.49L567.072 640.354M590.842 628.49L548.442 626.187M612.67 638.758L567.072 640.354M612.67 638.758L588.452 654.076M567.072 640.354L548.442 626.187M567.072 640.354L522.254 643.177M567.072 640.354L588.452 654.076M567.072 640.354L540.836 659.776M548.442 626.187L522.254 643.177M548.442 626.187L505.861 624.981M442.185 609.607L460.101 628.026M460.101 628.026L476.436 647.949M460.101 628.026L427.791 655.376M460.101 628.026L505.861 624.981M460.101 628.026L442.175 609.607M460.101 628.026L408.152 638.423M522.254 643.177L505.861 624.981M522.254 643.177L476.436 647.949M522.254 643.177L540.836 659.776M522.254 643.177L493.191 667.593M505.861 624.981L476.436 647.949M476.436 647.949L427.791 655.376M476.436 647.949L493.191 667.593M476.436 647.949L444.888 675.781M427.791 655.376L408.152 638.423M427.791 655.376L375.957 665.773M427.791 655.376L444.888 675.781M427.791 655.376L395.349 682.577M420.08 596.628L442.175 609.607M420.08 596.628L386.391 625.241M420.08 596.628L370.141 592.172M442.175 609.607L386.391 625.241M442.175 609.607L408.152 638.423M386.391 625.241L370.141 592.172M386.391 625.241L342.944 594.753M386.391 625.241L408.143 638.424M386.391 625.241L358.718 641.524M386.391 625.241L408.152 638.423M370.141 592.172L342.944 594.753M370.141 592.172L328.569 525.199M342.944 594.753L328.569 525.199M342.944 594.753L298.649 534.538M342.944 594.753L358.718 641.524M342.944 594.753L313.976 609.105M328.569 525.199L298.649 534.538M328.569 525.199L283.846 461.865M298.649 534.538L283.846 461.865M298.649 534.538L255.726 515.859M298.649 534.538L267.359 571.617M298.649 534.538L313.976 609.105M283.846 461.865L255.726 515.859M283.846 461.865L248.053 480.117M408.152 638.423L375.957 665.773M375.957 665.773L358.718 641.524M375.957 665.773L408.143 638.424M375.957 665.773L329.445 658.458M375.957 665.773L395.349 682.577M375.957 665.773L346.314 684.898M408.143 638.424L358.718 641.524M358.718 641.524L329.445 658.458M358.718 641.524L313.976 609.105M255.726 515.859L267.359 571.617M255.726 515.859L248.053 480.117M255.726 515.859L218.695 547.053M255.726 515.859L225.435 575.814M267.359 571.617L313.976 609.105M267.359 571.617L282.533 633.726M267.359 571.617L235.658 616.477M267.359 571.617L225.435 575.814M329.445 658.458L313.976 609.105M329.445 658.458L282.533 633.726M329.445 658.458L346.314 684.898M329.445 658.458L298.211 675.354M313.976 609.105L282.533 633.726M282.533 633.726L298.211 675.354M282.533 633.726L249.481 658.142M282.533 633.726L235.658 616.477M588.452 654.076L612.204 669.914M588.452 654.076L562.693 674.575M588.452 654.076L540.836 659.776M612.204 669.914L562.693 674.575M612.204 669.914L637.326 679.272M612.204 669.914L586.672 682.02M562.693 674.575L540.836 659.776M562.693 674.575L513.182 684.007M562.693 674.575L586.672 682.02M562.693 674.575L535.99 692.084M540.836 659.776L513.182 684.007M540.836 659.776L493.191 667.593M513.182 684.007L493.191 667.593M513.182 684.007L463.661 694.553M513.182 684.007L535.99 692.084M513.182 684.007L485.308 706.251M493.191 667.593L463.661 694.553M493.191 667.593L444.888 675.781M463.661 694.553L444.888 675.781M463.661 694.553L414.14 702.519M463.661 694.553L434.626 719.434M463.661 694.553L485.308 706.251M444.888 675.781L414.14 702.519M444.888 675.781L395.349 682.577M637.326 679.272L586.672 682.02M637.326 679.272L611.794 684.657L586.672 682.02M586.672 682.02L535.99 692.084M586.672 682.02L559.903 693.718L535.99 692.084M535.99 692.084L485.308 706.251M535.99 692.084L508.003 711.32L485.308 706.251M414.14 702.519L434.626 719.434M414.14 702.519L395.349 682.577M414.14 702.519L364.534 704.301M414.14 702.519L383.925 726.452M434.626 719.434L485.308 706.251M434.626 719.434L456.093 730.945L485.308 706.251M434.626 719.434L383.925 726.452M434.626 719.434L404.183 746.004L383.925 726.452M395.349 682.577L364.534 704.301M395.349 682.577L346.314 684.898M364.534 704.301L346.314 684.898M364.534 704.301L314.595 696.688M364.534 704.301L383.925 726.452M364.534 704.301L332.482 722.163M346.314 684.898L314.595 696.688M346.314 684.898L298.211 675.354M314.595 696.688L298.211 675.354M314.595 696.688L264.627 681.853M314.595 696.688L332.482 722.163M314.595 696.688L280.753 704.97M298.211 675.354L264.627 681.853M298.211 675.354L249.481 658.142M264.627 681.853L249.481 658.142M264.627 681.853L213.983 662.487M264.627 681.853L228.614 680.293M264.627 681.853L280.753 704.97M249.481 658.142L235.658 616.477M249.481 658.142L213.983 662.487M249.481 658.142L201.169 645.776M235.658 616.477L225.435 575.814M235.658 616.477L191.155 621.267M235.658 616.477L201.169 645.776M383.925 726.452L332.482 722.163M383.925 726.452L352.006 749.736L332.482 722.163M332.482 722.163L280.753 704.97M332.482 722.163L298.545 734.845L280.753 704.97M213.983 662.487L228.614 680.293M213.983 662.487L201.169 645.776M213.983 662.487L163.063 644.978M213.983 662.487L175.857 654.057M228.614 680.293L280.753 704.97M228.614 680.293L245.168 707.012L280.753 704.97M228.614 680.293L175.857 654.057M228.614 680.293L191.097 673.423L175.857 654.057M248.053 480.117L218.695 547.053M248.053 480.117L213.373 531.326M218.695 547.053L213.373 531.326M218.695 547.053L177.437 580.994M218.695 547.053L225.435 575.814M218.695 547.053L184.158 600.564M213.373 531.326L177.437 580.994M213.373 531.326L166.756 547.944M213.373 531.326L177.427 581.013L166.756 547.944M177.437 580.994L166.756 547.944M177.437 580.994L125.851 567.737M177.437 580.994L184.158 600.564M177.437 580.994L137.122 608.047M166.756 547.944L125.851 567.737M166.756 547.944L110.105 514.912M125.851 567.737L110.105 514.912M125.851 567.737L69.3998 525.366M125.851 567.737L85.0025 581.774M125.851 567.737L137.122 608.047M110.105 514.912L69.3998 525.366M110.105 514.912L49.4279 458.003M225.435 575.814L191.155 621.267M225.435 575.814L184.158 600.564M191.155 621.267L184.158 600.564M191.155 621.267L145.185 632.222M191.155 621.267L201.169 645.776M191.155 621.267L153.038 641.357M184.158 600.564L145.185 632.222M184.158 600.564L137.122 608.047M69.3998 525.366L85.0025 581.774M69.3998 525.366L49.4279 458.003M69.3998 525.366L11.5496 471.631M69.3998 525.366L110.096 514.912L49.4279 458.003M69.3998 525.366L30.6457 538.92M85.0025 581.774L96.2449 621.063M85.0025 581.774L45.2297 590.965M85.0025 581.774L137.122 608.047M85.0025 581.774L30.6457 538.92M145.185 632.222L137.122 608.047M145.185 632.222L96.2449 621.063M145.185 632.222L153.038 641.357M145.185 632.222L104.613 639.296M137.122 608.047L96.2449 621.063M96.2449 621.063L45.2297 590.965M96.2449 621.063L104.613 639.296M96.2449 621.063L55.549 621.286M45.2297 590.965L30.6457 538.92M45.2297 590.965L-6.37558 553.923M45.2297 590.965L55.549 621.286M45.2297 590.965L6.04746 594.01M49.4279 458.003L11.5496 471.631M49.4279 458.003L-10.8213 397.881M11.5496 471.631L-10.8213 397.881M11.5496 471.631L-44.2444 424.284M11.5496 471.631L30.6457 538.92M11.5496 471.631L-23.4727 494.321M-10.8213 397.881L-44.2444 424.284M-10.8213 397.881L-66.2059 355.157M-44.2444 424.284L-66.2059 355.157M-44.2444 424.284L-94.5265 401.038M-44.2444 424.284L-23.4727 494.321M-44.2444 424.284L-74.8972 462.83M-66.2059 355.157L-94.5265 401.038M-94.5265 401.038L-74.8972 462.83M30.6457 538.92L-6.37558 553.923M30.6457 538.92L-23.4727 494.321M30.6457 538.92L-6.38513 553.923L-23.4727 494.321M-6.37558 553.923L-23.4727 494.321M-6.37558 553.923L-57.1148 521.875M-6.37558 553.923L6.04746 594.01M-6.37558 553.923L-43.4066 566.549M-23.4727 494.321L-57.1148 521.875M-23.4727 494.321L-74.8972 462.83M-23.4727 494.321L-57.1148 521.894L-74.8972 462.83M-57.1148 521.875L-74.8972 462.83M-57.1148 521.875L-105.522 506.78M-57.1148 521.875L-43.4066 566.549M-57.1148 521.875L-92.3371 547.907M-74.8972 462.83L-105.522 506.78M-105.522 506.78L-92.3371 547.907M201.169 645.776L163.063 644.978M201.169 645.776L153.038 641.357M163.063 644.978L153.038 641.357M163.063 644.978L112.552 637.606M163.063 644.978L175.857 654.057M163.063 644.978L123.061 636.01M153.038 641.357L112.552 637.606M153.038 641.357L104.613 639.296M112.552 637.606L104.613 639.296M112.552 637.606L63.5358 629.957M112.552 637.606L123.061 636.01M112.552 637.606L72.3319 632.333M104.613 639.296L63.5358 629.957M104.613 639.296L55.549 621.286M63.5358 629.957L55.549 621.286M63.5358 629.957L14.4721 612.41M63.5358 629.957L22.897 623.941M63.5358 629.957L72.3319 632.333M55.549 621.286L14.4721 612.41M55.549 621.286L6.04746 594.01M175.857 654.057L123.061 636.01M175.857 654.057L136.77 644.514L123.061 636.01M123.061 636.01L72.3319 632.333M123.061 636.01L82.7462 631.869L72.3319 632.333M14.4721 612.41L22.897 623.941M14.4721 612.41L6.04746 594.01M14.4721 612.41L-34.6011 591.652M14.4721 612.41L-26.6047 610.851M22.897 623.941L72.3319 632.333M22.897 623.941L32.6354 630.774L72.3319 632.333M22.897 623.941L-26.6047 610.851M22.897 623.941L-17.6754 625.352L-26.6047 610.851M6.04746 594.01L-34.6011 591.652M6.04746 594.01L-43.4066 566.549M-34.6011 591.652L-43.4066 566.549M-34.6011 591.652L-83.6552 574.384M-34.6011 591.652L-26.6047 610.851M-34.6011 591.652L-76.1157 597.853M-43.4066 566.549L-83.6552 574.384M-43.4066 566.549L-92.3371 547.907M-83.6552 574.384L-92.3371 547.907M-83.6552 574.384L-132.671 567.254M-83.6552 574.384L-76.1157 597.853M-83.6552 574.384L-125.551 589.758M-92.3371 547.907L-132.671 567.254M-132.671 567.254L-125.551 589.758M-26.6047 610.851L-76.1157 597.853M-26.6047 610.851L-68.0433 618.556L-76.1157 597.853M-76.1157 597.853L-125.551 589.758M-76.1157 597.853L-118.354 613.264L-125.551 589.758M1389.47 614.676L1434.99 639.389M1389.47 614.676L1381.91 635.787M1389.47 614.676L1337.67 605.206M1434.99 639.389L1381.91 635.787M1434.99 639.389L1428.4 663.304M1381.91 635.787L1428.4 663.304M1381.91 635.787L1373.98 659.758M1381.91 635.787L1337.67 605.206M1381.91 635.787L1328.82 627.264M1381.91 635.787L1373.98 659.776L1328.82 627.264M1428.4 663.304L1373.98 659.758M1428.4 663.304L1477.31 688.834M1428.4 663.304L1421.48 688.797M1373.98 659.758L1328.82 627.264M1373.98 659.758L1319.54 653.927M1373.98 659.758L1421.48 688.797M1373.98 659.758L1365.64 686.792M1337.67 605.206L1328.82 627.264M1337.67 605.206L1285.85 591.466M1328.82 627.264L1319.54 653.927M1328.82 627.264L1285.85 591.466M1328.82 627.264L1275.73 617.071M1319.54 653.927L1275.73 617.071M1319.54 653.927L1265.1 648.06M1319.54 653.927L1365.64 686.792M1319.54 653.927L1309.79 684.118M1285.85 591.466L1275.73 617.071M1285.85 591.466L1234.04 577.652M1275.73 617.071L1265.1 648.06M1275.73 617.071L1234.04 577.652M1275.73 617.071L1222.63 608.418M1265.1 648.06L1222.63 608.418M1265.1 648.06L1210.66 644.402M1265.1 648.06L1253.92 682.076M1265.1 648.06L1309.79 684.118M1234.04 577.652L1222.63 608.418M1234.04 577.652L1182.21 567.978M1222.63 608.418L1182.21 567.978M1222.63 608.418L1210.66 644.402M1222.63 608.418L1169.52 604.556M1182.21 567.978L1169.52 604.556M1182.21 567.978L1130.39 568.312M1477.31 688.834L1421.48 688.797M1477.31 688.834L1471.5 715.739M1421.48 688.797L1471.5 715.739M1421.48 688.797L1414.18 715.739M1421.48 688.797L1365.64 686.792M1471.5 715.739H1414.18M1471.5 715.739L1524.25 743.608M1471.5 715.739L1465.36 743.683M1414.18 715.739L1365.64 686.792M1414.18 715.739L1356.84 715.442M1414.18 715.739L1465.36 743.683M1414.18 715.739L1406.46 743.757M1365.64 686.792L1356.84 715.442M1365.64 686.792L1309.79 684.118M1210.66 644.402L1253.92 682.076M1210.66 644.402L1169.52 604.556M1210.66 644.402L1156.21 644.309M1210.66 644.402L1198.06 681.909M1253.92 682.076L1299.5 715.144M1253.92 682.076L1242.15 715.126M1253.92 682.076L1309.79 684.118M1253.92 682.076L1198.06 681.909M1356.84 715.442L1309.79 684.118M1356.84 715.442L1299.5 715.144M1356.84 715.442L1406.46 743.757M1356.84 715.442L1347.55 743.831M1309.79 684.118L1299.5 715.144M1299.5 715.144L1242.15 715.126M1299.5 715.144L1347.55 743.831M1299.5 715.144L1288.63 743.887M1242.15 715.126L1198.06 681.909M1242.15 715.126L1184.79 715.107M1242.15 715.126L1288.63 743.887M1242.15 715.126L1229.71 743.961M1169.52 604.556L1156.21 644.309M1169.52 604.556L1130.39 568.312M1169.52 604.556L1116.42 610.052M1156.21 644.309L1116.42 610.052M1156.21 644.309L1101.75 650.158M1156.21 644.309L1198.06 681.909M1156.21 644.309L1142.19 682.02M1130.39 568.312L1116.42 610.052M1130.39 568.312L1078.56 584.188M1116.42 610.052L1101.75 650.158M1116.42 610.052L1078.56 584.188M1116.42 610.052L1063.3 624.776M1101.75 650.158L1063.3 624.776M1101.75 650.158L1047.28 660.445M1101.75 650.158L1142.19 682.02M1101.75 650.158L1086.31 685.511M1078.56 584.188L1063.3 624.776M1078.56 584.188L1026.71 608.344M1063.3 624.776L1047.28 660.445M1063.3 624.776L1026.71 608.344M1063.3 624.776L1010.18 643.01M1047.28 660.445L1010.18 643.01M1047.28 660.445L992.804 671.177M1047.28 660.445L1030.43 690.375M1047.28 660.445L1086.31 685.511M1026.71 608.344L1010.18 643.01M1026.71 608.344L974.869 633.336M1010.18 643.01L974.869 633.336M1010.18 643.01L992.804 671.177M1010.18 643.01L957.049 658.996M974.869 633.336L957.049 658.996M974.869 633.336L923.016 651.699M1198.06 681.909L1184.79 715.107M1198.06 681.909L1142.19 682.02M1184.79 715.107L1142.19 682.02M1184.79 715.107L1127.43 715.182M1184.79 715.107L1229.71 743.961M1184.79 715.107L1170.78 744.036M1142.19 682.02L1127.43 715.182M1142.19 682.02L1086.31 685.511M992.804 671.177L1030.43 690.375M992.804 671.177L957.049 658.996M992.804 671.177L938.333 678.362M992.804 671.177L974.536 694.367M1030.43 690.375L1086.31 685.511M1030.43 690.375L1070.06 715.85M1030.43 690.375L1012.68 716.574M1030.43 690.375L974.536 694.367M1127.43 715.182L1086.31 685.511M1127.43 715.182L1070.06 715.85M1127.43 715.182L1170.78 744.036M1127.43 715.182L1111.85 744.091M1086.31 685.511L1070.06 715.85M1070.06 715.85L1111.85 744.091M1070.06 715.85L1052.89 744.166M1070.06 715.85L1012.68 716.574M1524.25 743.608L1465.36 743.683M1524.25 743.608L1519.39 773.317M1465.36 743.683L1519.39 773.317M1465.36 743.683L1458.84 773.391M1465.36 743.683L1406.46 743.757M1519.39 773.317L1458.84 773.391M1519.39 773.317L1576.55 804.677M1519.39 773.317L1514.26 804.751M1458.84 773.391L1406.46 743.757M1458.84 773.391L1514.26 804.751M1406.46 743.757L1458.83 773.391M1406.46 743.757L1398.28 773.465M1406.46 743.757L1347.55 743.831M1458.83 773.391L1398.28 773.465M1458.83 773.391L1514.26 804.751M1458.83 773.391L1451.95 804.826M1398.28 773.465L1347.55 743.831M1398.28 773.465L1337.71 773.539M1398.28 773.465L1451.95 804.826M1398.28 773.465L1389.64 804.9M1347.55 743.831L1337.71 773.539M1347.55 743.831L1288.63 743.887M1337.71 773.539L1288.63 743.887M1337.71 773.539L1277.13 773.614M1337.71 773.539L1327.31 804.993M1337.71 773.539L1389.64 804.9M1288.63 743.887L1277.13 773.614M1288.63 743.887L1229.71 743.961M1576.55 804.677L1514.26 804.751M1576.55 804.677L1573 838.024M1514.26 804.751L1573 838.024M1514.26 804.751L1508.84 838.099M1514.26 804.751L1451.95 804.826M1573 838.024L1508.84 838.099M1573 838.024L1635.39 873.377M1573 838.024L1569.26 873.451M1508.84 838.099L1451.95 804.826M1508.84 838.099L1444.67 838.192M1508.84 838.099L1569.26 873.451M1508.84 838.099L1503.12 873.544M1451.95 804.826L1444.67 838.192M1451.95 804.826L1389.64 804.9M1277.13 773.614L1327.31 804.993M1277.13 773.614L1229.71 743.961M1277.13 773.614L1216.55 773.688M1277.13 773.614L1264.98 805.067M1327.31 804.993L1380.49 838.266M1327.31 804.993L1316.31 838.34M1327.31 804.993L1389.64 804.9M1327.31 804.993L1380.5 838.266M1327.31 804.993L1264.98 805.067M1444.67 838.192L1389.64 804.9M1444.67 838.192L1380.5 838.266M1444.67 838.192L1503.12 873.544M1444.67 838.192L1436.98 873.637M1389.64 804.9L1380.5 838.266M1380.5 838.266L1436.98 873.637M1380.49 838.266L1316.31 838.34M1380.49 838.266L1436.98 873.637M1380.49 838.266L1370.82 873.711M1316.31 838.34L1264.98 805.067M1316.31 838.34L1252.11 838.433M1316.31 838.34L1370.82 873.711M1316.31 838.34L1304.65 873.804M1229.71 743.961L1216.55 773.688M1229.71 743.961L1170.78 744.036M1216.55 773.688L1170.78 744.036M1216.55 773.688L1155.96 773.762M1216.55 773.688L1264.98 805.067M1216.55 773.688L1202.63 805.141M1170.78 744.036L1155.96 773.762M1170.78 744.036L1111.85 744.091M1155.96 773.762L1111.85 744.091M1155.96 773.762L1095.36 773.836M1155.96 773.762L1202.63 805.141M1155.96 773.762L1140.28 805.216M1111.85 744.091L1095.36 773.836M1111.85 744.091L1052.89 744.166M1095.36 773.836L1052.89 744.166M1095.36 773.836L1034.75 773.892M1095.36 773.836L1077.93 805.29M1095.36 773.836L1140.28 805.216M1052.89 744.166L1012.68 716.574M1052.89 744.166L1034.75 773.892M1052.89 744.166L993.937 744.24M1012.68 716.574L974.536 694.367M1012.68 716.574L955.297 716.834M1012.68 716.574L993.937 744.24M1264.98 805.067L1252.11 838.433M1264.98 805.067L1202.63 805.141M1252.11 838.433L1202.63 805.141M1252.11 838.433L1187.91 838.507M1252.11 838.433L1304.65 873.804M1252.11 838.433L1238.47 873.897M1202.63 805.141L1187.91 838.507M1202.63 805.141L1140.28 805.216M1034.75 773.892L1077.93 805.29M1034.75 773.892L993.937 744.24M1034.75 773.892L974.136 773.966M1034.75 773.892L1015.56 805.364M1077.93 805.29L1123.69 838.6M1077.93 805.29L1059.47 838.674M1077.93 805.29L1140.28 805.216M1077.93 805.29L1015.56 805.364M1187.91 838.507L1140.28 805.216M1187.91 838.507L1123.69 838.6M1187.91 838.507L1238.47 873.897M1187.91 838.507L1172.29 873.971M1140.28 805.216L1123.69 838.6M1123.69 838.6L1059.47 838.674M1123.69 838.6L1172.29 873.971M1123.69 838.6L1106.09 874.064M1059.47 838.674L1015.56 805.364M1059.47 838.674L995.232 838.749M1059.47 838.674L1106.09 874.064M1059.47 838.674L1039.88 874.157M957.049 658.996L938.333 678.362M957.049 658.996L923.016 651.699M957.049 658.996L903.911 667.036M938.333 678.362L903.911 667.036M938.333 678.362L883.863 678.901M938.333 678.362L974.536 694.367M938.333 678.362L918.638 695.222M923.016 651.699L903.911 667.036M923.016 651.699L871.154 655.951M903.911 667.036L883.863 678.901M903.911 667.036L871.154 655.951M903.911 667.036L850.792 664.901M883.863 678.901L850.792 664.901M883.863 678.901L829.43 676.171M883.863 678.901L918.638 695.222M883.863 678.901L862.787 694.015M871.154 655.951L850.792 664.901M871.154 655.951L819.273 650.827M850.792 664.901L829.43 676.171M850.792 664.901L819.273 650.827M850.792 664.901L797.663 661.67M850.792 664.901L829.42 676.171M829.43 676.171L862.787 694.015M819.273 650.827L797.663 661.67M819.273 650.827L767.391 650.752M797.663 661.67L829.42 676.171M797.663 661.67L767.391 650.752M797.663 661.67L774.978 676.115M797.663 661.67L744.535 667.24M829.42 676.171L774.978 676.115M829.42 676.171L806.935 692.752M829.42 676.171L862.787 694.015M767.391 650.752L744.535 667.24M767.391 650.752L715.519 665.755M974.536 694.367L955.297 716.834M974.536 694.367L918.638 695.222M955.297 716.834L918.638 695.222M955.297 716.834L897.904 716.463M955.297 716.834L993.937 744.24M955.297 716.834L934.983 744.296M918.638 695.222L897.904 716.463M918.638 695.222L862.787 694.015M774.978 676.115L806.935 692.752M774.978 676.115L744.535 667.24M774.978 676.115L720.469 683.227M774.978 676.115L751.075 694.924M806.935 692.752L840.53 716.166M806.935 692.752L783.136 716.203M806.935 692.752L862.787 694.015M806.935 692.752L751.075 694.924M806.935 692.752L751.075 694.943M897.904 716.463L862.787 694.015M897.904 716.463L840.53 716.166M897.904 716.463L934.983 744.296M897.904 716.463L875.98 744.37M862.787 694.015L840.53 716.166M840.53 716.166L783.136 716.203M840.53 716.166L875.98 744.37M840.53 716.166L816.959 744.444M783.136 716.203L751.075 694.924M783.136 716.203L725.724 716.927M783.136 716.203L751.075 694.943M783.136 716.203L816.959 744.444M783.136 716.203L757.938 744.518M744.535 667.24L720.469 683.227M744.535 667.24L715.519 665.755M744.535 667.24L691.349 679.458M720.469 683.227L691.349 679.458M720.469 683.227L665.894 689.001M720.469 683.227L751.075 694.924M720.469 683.227L695.071 698.174M715.519 665.755L691.349 679.458M715.519 665.755L663.647 680.015M691.349 679.458L665.894 689.001M691.349 679.458L663.647 680.015M691.349 679.458L638.144 686.142M665.894 689.001L638.144 686.142M665.894 689.001L611.318 691.044M665.894 689.001L695.071 698.174M665.894 689.001L639.068 699.195M663.647 680.015L638.144 686.142M663.647 680.015L611.775 684.657L638.144 686.142M638.144 686.142L611.318 691.044M611.318 691.044L639.068 699.195M751.075 694.924L725.724 716.927M751.075 694.924L695.071 698.174M725.724 716.927L695.071 698.174M725.724 716.927L751.075 694.943M725.724 716.927L668.274 717.206M725.724 716.927L757.938 744.518M725.724 716.927L698.993 744.574M751.075 694.943L695.071 698.174M695.071 698.174L668.274 717.206M695.071 698.174L639.068 699.195M668.274 717.206L639.068 699.195M668.274 717.206L610.823 718.06M668.274 717.206L698.993 744.574M668.274 717.206L640.039 744.648M639.068 699.195L610.823 718.06M610.823 718.06L640.039 744.648M993.937 744.24L974.136 773.966M993.937 744.24L934.983 744.296M974.136 773.966L934.983 744.296M974.136 773.966L913.497 774.041M974.136 773.966L1015.56 805.364M974.136 773.966L953.184 805.438M934.983 744.296L913.497 774.041M934.983 744.296L875.98 744.37M913.497 774.041L875.98 744.37M913.497 774.041L852.829 774.115M913.497 774.041L953.184 805.438M913.497 774.041L890.802 805.531M875.98 744.37L852.829 774.115M875.98 744.37L816.959 744.444M852.829 774.115L816.959 744.444M852.829 774.115L792.142 774.189M852.829 774.115L828.402 805.605M852.829 774.115L890.802 805.531M816.959 744.444L792.142 774.189M816.959 744.444L757.938 744.518M1015.56 805.364L995.232 838.749M1015.56 805.364L953.184 805.438M995.232 838.749L953.184 805.438M995.232 838.749L931.003 838.841M995.232 838.749L1039.88 874.157M995.232 838.749L973.66 874.231M953.184 805.438L931.003 838.841M953.184 805.438L890.802 805.531M792.142 774.189L828.402 805.605M792.142 774.189L757.938 744.518M792.142 774.189L731.502 774.263M792.142 774.189L766.001 805.68M828.402 805.605L866.804 838.916M828.402 805.605L802.594 839.008M828.402 805.605L890.802 805.531M828.402 805.605L766.001 805.68M931.003 838.841L890.802 805.531M931.003 838.841L866.804 838.916M931.003 838.841L973.66 874.231M931.003 838.841L907.509 874.324M890.802 805.531L866.804 838.916M866.804 838.916L802.594 839.008M866.804 838.916L907.509 874.324M866.804 838.916L841.367 874.417M802.594 839.008L766.001 805.68M802.594 839.008L738.328 839.083M802.594 839.008L841.367 874.417M802.594 839.008L775.207 874.51M757.938 744.518L731.502 774.263M757.938 744.518L698.993 744.574M731.502 774.263L698.993 744.574M731.502 774.263L670.892 774.338M731.502 774.263L766.001 805.68M731.502 774.263L703.591 805.754M698.993 744.574L670.892 774.338M698.993 744.574L640.039 744.648M670.892 774.338L640.039 744.648M670.892 774.338L610.271 775.656M670.892 774.338L703.591 805.754M670.892 774.338L641.181 805.828M640.039 744.648L610.271 775.656M610.271 775.656L641.181 805.828M766.001 805.68L738.328 839.083M766.001 805.68L703.591 805.754M738.328 839.083L703.591 805.754M738.328 839.083L673.985 839.157M738.328 839.083L775.207 874.51M738.328 839.083L708.846 874.584M703.591 805.754L673.985 839.157M703.591 805.754L641.181 805.828M673.985 839.157L641.181 805.828M673.985 839.157L609.643 839.473M673.985 839.157L708.846 874.584M673.985 839.157L642.466 874.677M641.181 805.828L609.643 839.473M609.643 839.473L642.466 874.677M1635.39 873.377L1569.26 873.451M1635.39 873.377L1633.54 911.088M1569.26 873.451L1633.54 911.088M1569.26 873.451L1565.3 911.181M1569.26 873.451L1503.12 873.544M1633.54 911.088L1565.3 911.181M1633.54 911.088L1702 951.138L1631.54 951.249M1633.54 911.088L1631.54 951.249M1565.3 911.181L1503.12 873.544M1565.3 911.181L1497.05 911.255M1565.3 911.181L1631.54 951.249M1565.3 911.181L1561.06 951.342M1503.12 873.544L1497.05 911.255M1503.12 873.544L1436.98 873.637M1503.12 873.544L1497.05 911.273L1436.98 873.637M1497.05 911.255L1436.98 873.637M1497.05 911.255L1428.8 911.348M1497.05 911.255L1561.06 951.342M1497.05 911.255L1490.57 951.435M1436.98 873.637L1428.8 911.348M1436.98 873.637L1370.82 873.711M1436.98 873.637L1428.8 911.366L1370.82 873.711M1428.8 911.348L1370.82 873.711M1428.8 911.348L1360.53 911.44M1428.8 911.348L1420.08 951.546M1428.8 911.348L1490.57 951.435M1370.82 873.711L1360.53 911.44M1370.82 873.711L1304.65 873.804M1631.54 951.249L1561.06 951.342M1561.06 951.342L1490.57 951.435M1360.53 911.44L1420.08 951.546M1360.53 911.44L1304.65 873.804M1360.53 911.44L1292.26 911.533M1360.53 911.44L1420.07 951.546L1349.57 951.639M1360.53 911.44L1349.57 951.639M1420.08 951.546L1490.57 951.435M1304.65 873.804L1292.26 911.533M1304.65 873.804L1238.47 873.897M1292.26 911.533L1238.47 873.897M1292.26 911.533L1223.98 911.626M1292.26 911.533L1349.57 951.639M1292.26 911.533L1279.05 951.732M1238.47 873.897L1223.98 911.626M1238.47 873.897L1172.29 873.971M1223.98 911.626L1172.29 873.971M1223.98 911.626L1155.68 911.719M1223.98 911.626L1279.05 951.732M1223.98 911.626L1208.52 951.843M1172.29 873.971L1155.68 911.719M1172.29 873.971L1106.09 874.064M1155.68 911.719L1106.09 874.064M1155.68 911.719L1087.37 911.812M1155.68 911.719L1137.97 951.936M1155.68 911.719L1208.52 951.843M1106.09 874.064L1087.37 911.812M1106.09 874.064L1039.88 874.157M1349.57 951.639L1279.05 951.732M1279.05 951.732L1208.52 951.843M1087.37 911.812L1137.97 951.936M1087.37 911.812L1039.88 874.157M1087.37 911.812L1019.06 911.905M1087.37 911.812L1067.42 952.029M1137.97 951.936L1208.52 951.843M1137.97 951.936L1067.42 952.029M1039.88 874.157L1019.06 911.905M1039.88 874.157L973.66 874.231M1039.88 874.157L973.66 874.25M1019.06 911.905L973.66 874.25M1019.06 911.905L973.66 874.231M1019.06 911.905L950.756 911.997M1019.06 911.905L1067.42 952.029M1019.06 911.905L996.85 952.122M973.66 874.231L950.756 911.997M973.66 874.231L907.509 874.324M973.66 874.25L907.509 874.324M973.66 874.25L950.756 911.997M950.756 911.997L907.509 874.324M950.756 911.997L882.501 912.09M950.756 911.997L996.85 952.122M950.756 911.997L926.291 952.233M907.509 874.324L882.501 912.09M907.509 874.324L841.367 874.417M882.501 912.09L841.367 874.417M882.501 912.09L814.237 912.183M882.501 912.09L855.713 952.326M882.501 912.09L926.291 952.233M841.367 874.417L814.237 912.183M841.367 874.417L775.207 874.51M1067.42 952.029L996.85 952.122M996.85 952.122L926.291 952.233M814.237 912.183L855.713 952.326M814.237 912.183L775.207 874.51M814.237 912.183L745.877 912.276M814.237 912.183L785.117 952.419M855.713 952.326L926.291 952.233M855.713 952.326L785.117 952.419M775.207 874.51L745.877 912.276M775.207 874.51L708.846 874.584M745.877 912.276L708.846 874.584M745.877 912.276L677.403 912.369M745.877 912.276L785.117 952.419M745.877 912.276L714.501 952.53M708.846 874.584L677.403 912.369M708.846 874.584L642.466 874.677M677.403 912.369L642.466 874.677M677.403 912.369L608.939 912.035M677.403 912.369L714.501 952.53M677.403 912.369L643.875 952.623M642.466 874.677L608.939 912.035M608.939 912.035L643.875 952.623M785.117 952.419L714.501 952.53M714.501 952.53L643.875 952.623M611.537 684.731L637.916 686.216M611.537 684.731L584.711 691.805M611.537 684.731L559.618 693.922M637.916 686.216L584.711 691.805M637.916 686.216L611.071 691.211M584.711 691.805L611.071 691.211M584.711 691.805L556.524 707.736M584.711 691.805L559.618 693.922M584.711 691.805L531.507 710.948M611.071 691.211L556.524 707.736M611.071 691.211L638.83 699.474M611.071 691.211L582.836 707.643M556.524 707.736L531.507 710.948M556.524 707.736L501.958 736.571M556.524 707.736L582.836 707.643M556.524 707.736L526.861 735.328M559.618 693.922L531.507 710.948M559.618 693.922L507.689 711.672M531.507 710.948L501.958 736.571M531.507 710.948L507.689 711.672M531.507 710.948L478.292 736.497M501.958 736.571L478.292 736.497M501.958 736.571L447.392 768.285M501.958 736.571L526.861 735.328M501.958 736.571L470.877 771.775M507.689 711.672L478.292 736.497M507.689 711.672L455.76 731.391M478.292 736.497L447.392 768.285M478.292 736.497L455.76 731.391M478.292 736.497L425.069 760.468M447.392 768.285L425.069 760.468M447.392 768.285L392.816 793.388M447.392 768.285L414.883 806.07M447.392 768.285L470.877 771.775M455.76 731.391L425.069 760.468M455.76 731.391L403.821 746.505M425.069 760.468L403.821 746.505M425.069 760.468L392.816 793.388M425.069 760.468L371.845 774.802M403.821 746.505L371.845 774.802M403.821 746.505L351.607 750.219M638.83 699.474L582.836 707.643M638.83 699.474L610.557 718.617M582.836 707.643L610.557 718.617M582.836 707.643L553.087 738.818M582.836 707.643L526.861 735.328M610.557 718.617L553.087 738.818M610.557 718.617L639.791 745.28M610.557 718.617L580.761 754.043M553.087 738.818L526.861 735.328M553.087 738.818L495.608 775.099M553.087 738.818L580.761 754.043M553.087 738.818L521.711 782.805M526.861 735.328L495.608 775.099M526.861 735.328L470.877 771.775M392.816 793.388L414.883 806.07M392.816 793.388L371.845 774.802M392.816 793.388L337.965 801.669M392.816 793.388L358.889 827.311M414.883 806.07L438.129 815.131M414.883 806.07L380.631 846.565M414.883 806.07L470.877 771.775M414.883 806.07L358.889 827.311M495.608 775.099L470.877 771.775M495.608 775.099L438.129 815.131M495.608 775.099L521.711 782.805M495.608 775.099L462.652 820.664M470.877 771.775L438.129 815.131M438.129 815.131L380.631 846.565M438.129 815.131L462.652 820.664M438.129 815.131L403.583 856.295M380.631 846.565L358.889 827.311M380.631 846.565L323.095 856.778M380.631 846.565L403.583 856.295M380.631 846.565L344.514 878.409M371.845 774.802L337.965 801.669M371.845 774.802L351.607 750.219M371.845 774.802L317.422 768.823M337.965 801.669L317.422 768.823M337.965 801.669L281.876 780.484M337.965 801.669L358.879 827.311M337.965 801.669L302.162 820.85M337.965 801.669L358.889 827.311M351.607 750.219L317.422 768.823M351.607 750.219L298.116 735.16M317.422 768.823L281.876 780.484M317.422 768.823L298.116 735.16M317.422 768.823L262.627 741.232M281.876 780.484L262.627 741.232M281.876 780.484L226.063 740.731M281.876 780.484L302.162 820.85M281.876 780.484L245.464 784.903M298.116 735.16L262.627 741.232M298.116 735.16L244.712 707.16M262.627 741.232L226.063 740.731M262.627 741.232L244.712 707.16M262.627 741.232L207.671 702.779M226.063 740.731L207.671 702.779M226.063 740.731L170.031 694.553M226.063 740.731L188.975 734.937M226.063 740.731L245.464 784.903M244.712 707.16L207.671 702.779M244.712 707.16L190.603 673.423M207.671 702.779L190.603 673.423M207.671 702.779L170.031 694.553M207.671 702.779L152.305 664.028M190.603 673.423L152.305 664.028M190.603 673.423L136.255 644.458M358.889 827.311L323.095 856.778M323.095 856.778L302.162 820.85M323.095 856.778L358.879 827.311M323.095 856.778L265.721 832.046M323.095 856.778L344.514 878.409M323.095 856.778L285.769 871.613M358.879 827.311L302.162 820.85M302.162 820.85L265.721 832.046M302.162 820.85L245.464 784.903M170.031 694.553L188.975 734.937M170.031 694.553L152.305 664.028M170.031 694.553L113.78 655.97M170.031 694.553L132.352 685.993M188.975 734.937L245.464 784.903M188.975 734.937L208.804 783.102M188.975 734.937L152.01 727.139M188.975 734.937L132.352 685.993M265.721 832.046L245.464 784.903M265.721 832.046L208.804 783.102M265.721 832.046L285.769 871.613M265.721 832.046L227.643 834.07M245.464 784.903L208.804 783.102M208.804 783.102L227.643 834.07M208.804 783.102L169.717 781.932M208.804 783.102L152.01 727.139M639.791 745.28L580.761 754.043M639.791 745.28L609.986 776.343M580.761 754.043L609.986 776.343M580.761 754.043L549.279 793.797M580.761 754.043L521.711 782.805M609.986 776.343L549.279 793.797M609.986 776.343L640.915 806.534M609.986 776.343L578.447 812.29M549.279 793.797L521.711 782.805M549.279 793.797L488.564 823.579M549.279 793.797L578.447 812.29M549.279 793.797L515.971 831.377M521.711 782.805L488.564 823.579M521.711 782.805L462.652 820.664M488.564 823.579L462.652 820.664M488.564 823.579L427.839 856.221M488.564 823.579L515.971 831.377M488.564 823.579L453.484 856.573M462.652 820.664L427.839 856.221M462.652 820.664L403.583 856.295M427.839 856.221L403.583 856.295M427.839 856.221L367.104 882.289M427.839 856.221L390.998 880.266M427.839 856.221L453.484 856.573M403.583 856.295L367.104 882.289M403.583 856.295L344.514 878.409M640.915 806.534L578.447 812.29M640.915 806.534L609.348 840.215M578.447 812.29L609.348 840.215M578.447 812.29L545.015 848.497M578.447 812.29L515.971 831.377M609.348 840.215L545.015 848.497M609.348 840.215L642.19 875.475M609.348 840.215L575.839 876.236M545.015 848.497L515.971 831.377M545.015 848.497L480.663 864.223M545.015 848.497L575.839 876.236M545.015 848.497L509.516 882.958M515.971 831.377L480.663 864.223M515.971 831.377L453.484 856.573M367.104 882.289L390.998 880.266M367.104 882.289L344.514 878.409M367.104 882.289L306.427 891.518M367.104 882.289L328.493 894.934M390.998 880.266L416.311 881.677M390.998 880.266L351.94 895.175M390.998 880.266L453.484 856.573M390.998 880.266L328.493 894.934M480.663 864.223L453.484 856.573M480.663 864.223L416.311 881.677M480.663 864.223L509.516 882.958M480.663 864.223L443.175 892.743M453.484 856.573L416.311 881.677M416.311 881.677L351.94 895.175M416.311 881.677L443.175 892.743M416.311 881.677L376.824 901.804M351.94 895.175L328.493 894.934M351.94 895.175L287.578 899.242M351.94 895.175L376.824 901.804M351.94 895.175L310.472 906.297M344.514 878.409L306.427 891.518M344.514 878.409L285.769 871.613M306.427 891.518L285.769 871.613M306.427 891.518L246.425 870.351M306.427 891.518L328.493 894.934M306.427 891.518L266.264 890.682M285.769 871.613L246.425 870.351M285.769 871.613L227.643 834.07M246.425 870.351L227.643 834.07M246.425 870.351L186.747 830.597M246.425 870.351L266.264 890.682M246.425 870.351L204.463 866.061M227.643 834.07L186.747 830.597M227.643 834.07L169.717 781.932M186.747 830.597L169.717 781.932M186.747 830.597L127.107 785.033M186.747 830.597L142.881 831.767M186.747 830.597L204.463 866.061M169.717 781.932L152.01 727.139M169.717 781.932L127.107 785.033M169.717 781.932L111.705 731.243M152.01 727.139L132.352 685.993M152.01 727.139L95.0168 681.593M152.01 727.139L111.705 731.243M328.493 894.934L287.578 899.242M328.493 894.934L266.264 890.682M287.578 899.242L266.264 890.682M287.578 899.242L223.455 889.382M287.578 899.242L310.472 906.297M287.578 899.242L244.055 905.443M266.264 890.682L223.455 889.382M266.264 890.682L204.463 866.061M127.107 785.033L142.881 831.767M127.107 785.033L111.705 731.243M127.107 785.033L67.3055 747.433M127.107 785.033L81.2993 798.457M142.881 831.767L159.559 868.42M142.881 831.767L95.9402 844.542M142.881 831.767L204.463 866.061M142.881 831.767L81.2993 798.457M223.455 889.382L204.463 866.061M223.455 889.382L159.569 868.42M223.455 889.382L244.055 905.443M223.455 889.382L177.742 896.698M204.463 866.061L159.569 868.42M204.463 866.061L159.559 868.42M159.569 868.42L177.742 896.698M159.559 868.42L95.9402 844.542M159.559 868.42L177.742 896.698M159.559 868.42L111.743 883.608M95.9402 844.542L81.2993 798.457M95.9402 844.542L32.2261 825.473M95.9402 844.542L111.743 883.608M95.9402 844.542L45.858 871.335M152.305 664.028L113.78 655.97M152.305 664.028L136.255 644.458M152.305 664.028L96.7685 637.904M113.78 655.97L96.7685 637.904M113.78 655.97L57.5289 639.686M113.78 655.97L132.352 685.993M113.78 655.97L75.4351 654.002M136.255 644.458L96.7685 637.904M136.255 644.458L82.2227 631.888M96.7685 637.904L57.5289 639.686M96.7685 637.904L82.2227 631.888M96.7685 637.904L43.6495 635.007M57.5289 639.686L43.6495 635.007M57.5289 639.686L4.57187 643.567M57.5289 639.686L75.4351 654.002M57.5289 639.686L19.5173 651.588M82.2227 631.888L43.6495 635.007M82.2227 631.888L32.0833 630.829M43.6495 635.007L4.57187 643.567M43.6495 635.007L32.0833 630.829M43.6495 635.007L-7.83224 635.824M4.57187 643.567L-7.83224 635.824M4.57187 643.567L-48.7186 648.803M4.57187 643.567L-35.7721 659.442M4.57187 643.567L19.5173 651.588M32.0833 630.829L-7.83224 635.824M32.0833 630.829L-18.2465 625.519M-7.83224 635.824L-18.2465 625.519M-7.83224 635.824L-48.7186 648.803M-7.83224 635.824L-59.4852 635.694M-18.2465 625.519L-59.4852 635.694M-18.2465 625.519L-68.6335 618.853M132.352 685.993L95.0168 681.593M132.352 685.993L75.4351 654.002M95.0168 681.593L75.4351 654.002M95.0168 681.593L132.343 685.994L75.4351 654.002M95.0168 681.593L37.5474 663.917M95.0168 681.593L111.705 731.243M95.0168 681.593L53.3594 698.025M75.4351 654.002L37.5474 663.917M75.4351 654.002L19.5173 651.588M-48.7186 648.803L-35.7721 659.442M-48.7186 648.803L-59.4852 635.694M-48.7186 648.803L-102.133 654.484M-48.7186 648.803L-91.3471 670.081M-35.7721 659.442L-20.0743 670.137M-35.7721 659.442L-78.191 683.338M-35.7721 659.442L19.5173 651.588M-35.7721 659.442L-91.3471 670.081M37.5474 663.917L19.5173 651.588M37.5474 663.917L-20.0743 670.137M37.5474 663.917L53.3594 698.025M37.5474 663.917L-5.84261 695.017M19.5173 651.588L-20.0743 670.137M-20.0743 670.137L-78.191 683.338M-20.0743 670.137L-5.84261 695.017M-20.0743 670.137L-65.8346 705.174M-78.191 683.338L-91.3471 670.081M-78.191 683.338L-136.479 698.842M-78.191 683.338L-65.8346 705.174M-78.191 683.338L-126.122 719.824M-59.4852 635.694L-102.133 654.484M-59.4852 635.694L-68.6335 618.853M-59.4852 635.694L-111.148 635.62M-102.133 654.484L-111.148 635.62M-102.133 654.484L-155.442 659.739M-102.133 654.484L-91.3471 670.081M-102.133 654.484L-146.932 680.702M-68.6335 618.853L-111.148 635.62M-68.6335 618.853L-118.973 613.692M-111.148 635.62L-155.442 659.739M-111.148 635.62L-118.973 613.692M-111.148 635.62L-162.639 636.548M-155.442 659.739L-162.639 636.548M-155.442 659.739L-208.418 663.62M-155.442 659.739L-146.932 680.702M-155.442 659.739L-202.24 688.5M-118.973 613.692L-162.639 636.548M-118.973 613.692L-169.112 612.912L-162.639 636.548M-162.639 636.548L-208.418 663.62M-208.418 663.62L-202.24 688.5M-91.3471 670.081L-136.479 698.842M-91.3471 670.081L-146.932 680.702M-136.479 698.842L-146.932 680.702M-136.479 698.842L-194.625 711.97M-136.479 698.842L-126.122 719.824M-136.479 698.842L-186.419 734.418M-146.932 680.702L-194.625 711.97M-146.932 680.702L-202.24 688.5M-194.625 711.97L-202.24 688.5M-194.625 711.97L-252.284 718.023M-194.625 711.97L-186.419 734.418M-194.625 711.97L-246.42 744.444M-202.24 688.5L-252.284 718.023M-252.284 718.023L-246.42 744.444M111.705 731.243L67.3055 747.433M111.705 731.243L53.3594 698.025M111.705 731.243L67.2959 747.433M67.3055 747.433L81.2993 798.457M53.3594 698.025L67.2959 747.433M53.3594 698.025L7.05627 731.187M53.3594 698.025L-5.84261 695.017M67.2959 747.433L7.05627 731.187M67.2959 747.433L81.2993 798.457M67.2959 747.433L19.4889 776.807M7.05627 731.187L-5.84261 695.017M7.05627 731.187L-54.3921 736.46M7.05627 731.187L19.4889 776.807M7.05627 731.187L-43.102 774.858M-5.84261 695.017L-54.3921 736.46M-5.84261 695.017L-65.8346 705.174M-5.84261 695.017L-54.4016 736.46L-65.8346 705.174M-54.3921 736.46L-65.8346 705.174M-54.3921 736.46L-116.222 747.378M-54.3921 736.46L-106.407 781.338M-54.3921 736.46L-43.1116 774.858M-54.3921 736.46L-43.102 774.858M-65.8346 705.174L-116.222 747.378M-65.8346 705.174L-126.122 719.824M-65.8346 705.174L-116.231 747.378L-126.122 719.824M81.2993 798.457L32.2261 825.473M81.2993 798.457L19.4889 776.807M81.2993 798.457L32.2165 825.473L19.4889 776.807M32.2261 825.473L19.4889 776.807M32.2261 825.473L-31.7739 818.974M32.2261 825.473L45.858 871.335M32.2261 825.473L-20.1504 864.929M19.4889 776.807L-31.7739 818.974M19.4889 776.807L-43.102 774.858M19.4889 776.807L-43.1116 774.858M-116.222 747.378L-106.407 781.338M-116.222 747.378L-126.122 719.824M-116.222 747.378L-178.184 760.152M-116.222 747.378L-169.912 790.789M-106.407 781.338L-96.5923 821.184M-106.407 781.338L-161.639 826.81M-106.407 781.338L-43.1116 774.858M-106.407 781.338L-169.912 790.789M-106.407 781.338L-169.912 790.807M-31.7739 818.974L-43.102 774.858M-31.7739 818.974L-96.5923 821.184M-31.7739 818.974L-43.1116 774.858M-31.7739 818.974L-20.1504 864.929M-31.7739 818.974L-86.5205 865.337M-43.102 774.858L-96.5923 821.184M-96.5923 821.184L-161.639 826.81M-96.5923 821.184L-43.1116 774.858M-96.5923 821.184L-86.5205 865.337M-96.5923 821.184L-153.224 867.491M-161.639 826.81L-169.912 790.789M-161.639 826.81L-226.772 833.531M-161.639 826.81L-169.912 790.807M-161.639 826.81L-153.224 867.491M-161.639 826.81L-220.032 871.13M-126.122 719.824L-178.184 760.152M-126.122 719.824L-186.419 734.418M-126.122 719.824L-186.419 734.436M-178.184 760.152L-186.419 734.436M-178.184 760.152L-186.419 734.418M-178.184 760.152L-240.023 770.996M-178.184 760.152L-169.912 790.807M-178.184 760.152L-233.426 800.24M-178.184 760.152L-169.912 790.789M-186.419 734.418L-240.023 770.996M-186.419 734.418L-246.42 744.444M-186.419 734.436L-246.42 744.444M-186.419 734.436L-240.023 770.996M-240.023 770.996L-246.42 744.444M-240.023 770.996L-301.5 776.139M-240.023 770.996L-233.426 800.24M-240.023 770.996L-296.741 806.627M-246.42 744.444L-301.5 776.139M-301.5 776.139L-296.741 806.627M-169.912 790.789L-226.772 833.531M-226.772 833.531L-233.426 800.24M-226.772 833.531L-169.912 790.807M-226.772 833.531L-291.829 839.101M-226.772 833.531L-220.032 871.13M-226.772 833.531L-286.85 874.751M-169.912 790.807L-233.426 800.24M-233.426 800.24L-291.829 839.101M-233.426 800.24L-296.741 806.627M-291.829 839.101L-296.741 806.627M-291.829 839.101L-356.675 841.237M-291.829 839.101L-286.85 874.751M-291.829 839.101L-353.572 876.868M-296.741 806.627L-356.675 841.237M-356.675 841.237L-353.572 876.868M642.19 875.475L575.839 876.236M642.19 875.475L608.624 912.87M575.839 876.236L608.624 912.87M575.839 876.236L540.198 913.52M575.839 876.236L509.516 882.958M575.839 876.236L540.188 913.52M608.624 912.87L540.198 913.52M608.624 912.87L643.571 953.515L572.888 953.552M608.624 912.87L572.888 953.552M540.198 913.52L572.888 953.552M509.516 882.958L540.188 913.52M509.516 882.958L471.743 916.714M509.516 882.958L443.175 892.743M540.188 913.52L471.743 916.714M540.188 913.52L572.888 953.552M540.188 913.52L502.196 953.663M471.743 916.714L443.175 892.743M471.743 916.714L403.288 920.483M471.743 916.714L502.196 953.663M471.743 916.714L431.494 953.83M443.175 892.743L403.288 920.483M443.175 892.743L376.824 901.804M403.288 920.483L376.824 901.804M403.288 920.483L334.824 922.915M403.288 920.483L360.783 953.979M403.288 920.483L431.494 953.83M376.824 901.804L334.824 922.915M376.824 901.804L310.472 906.297M572.888 953.552L502.196 953.663M502.196 953.663L431.494 953.83M334.824 922.915L360.783 953.979M334.824 922.915L310.472 906.297M334.824 922.915L266.321 922.822M334.824 922.915L290.063 954.053M360.783 953.979L431.494 953.83M360.783 953.979L290.063 954.053M310.472 906.297L266.321 922.822M310.472 906.297L244.055 905.443M310.472 906.297L266.321 922.841L244.055 905.443M266.321 922.822L244.055 905.443M266.321 922.822L197.685 922.228M266.321 922.822L290.063 954.053M266.321 922.822L219.313 954.164M244.055 905.443L197.685 922.228M244.055 905.443L177.742 896.698M197.685 922.228L177.742 896.698M197.685 922.228L129.154 917.921M197.685 922.228L219.313 954.164M197.685 922.228L148.564 954.239M177.742 896.698L129.154 917.921M177.742 896.698L111.743 883.608M129.154 917.921L111.743 883.608M129.154 917.921L60.8989 913.204M129.154 917.921L77.8056 954.276M129.154 917.921L148.564 954.239M111.743 883.608L60.8989 913.204M111.743 883.608L45.858 871.335M290.063 954.053L219.313 954.164M219.313 954.164L148.564 954.239M60.8989 913.204L77.8056 954.276M60.8989 913.204L45.858 871.335M60.8989 913.204L-7.38489 910.104M60.8989 913.204L7.04689 954.35M77.8056 954.276L148.564 954.239M77.8056 954.276L7.04689 954.35M45.858 871.335L-7.38489 910.104M45.858 871.335L-20.1504 864.929M-7.38489 910.104L-20.1504 864.929M-7.38489 910.104L-75.7731 911.069M-7.38489 910.104L7.04689 954.35M-7.38489 910.104L-63.7309 954.461M-20.1504 864.929L-75.7731 911.069M-20.1504 864.929L-86.5205 865.337M-20.1504 864.929L-86.5205 865.356M-75.7731 911.069L-86.5205 865.337M-75.7731 911.069L-144.352 911.051M-75.7731 911.069L-86.5205 865.356M-75.7731 911.069L-63.7309 954.461M-75.7731 911.069L-134.518 954.591M-86.5205 865.337L-144.352 911.051M-86.5205 865.337L-153.224 867.491M-144.352 911.051L-153.224 867.491M-144.352 911.051L-86.5205 865.356M-144.352 911.051L-213.007 912.183M-144.352 911.051L-205.324 954.703M-144.352 911.051L-134.518 954.591M-86.5205 865.356L-153.224 867.491M-153.224 867.491L-213.007 912.183M-153.224 867.491L-220.032 871.13M7.04689 954.35L-63.7309 954.461M-63.7309 954.461L-134.518 954.591M-213.007 912.183L-205.324 954.703M-213.007 912.183L-220.032 871.13M-213.007 912.183L-281.709 913.669M-213.007 912.183L-276.14 954.814M-205.324 954.703L-134.518 954.591M-205.324 954.703L-276.14 954.814M-220.032 871.13L-281.709 913.669M-220.032 871.13L-286.85 874.751M-220.032 871.13L-286.85 874.77M-281.709 913.669L-286.85 874.77M-281.709 913.669L-286.85 874.751M-281.709 913.669L-350.383 914.783M-281.709 913.669L-276.14 954.814M-281.709 913.669L-346.966 954.907M-286.85 874.751L-350.383 914.783M-286.85 874.751L-353.572 876.868M-286.85 874.77L-353.572 876.868M-286.85 874.77L-350.383 914.783M-350.383 914.783L-353.572 876.868M-350.383 914.783L-419 914.745M-350.383 914.783L-346.966 954.907M-350.383 914.783L-417.8 955M-353.572 876.868L-419 914.745M-419 914.745L-417.8 955M-276.14 954.814L-346.966 954.907M-346.966 954.907L-417.8 955" stroke="url(#paint0_linear_4_9314)" stroke-width="0.3" stroke-miterlimit="10" stroke-linejoin="round"/>
<defs>
<linearGradient id="paint0_linear_4_9314" x1="170.801" y1="38.0303" x2="527.092" y2="817.206" gradientUnits="userSpaceOnUse">
<stop stop-color="#007668"/>
<stop offset="1" stop-color="white" stop-opacity="0"/>
</linearGradient>
</defs>
</svg>
