<svg width="256" height="186" viewBox="0 0 256 186" fill="none" xmlns="http://www.w3.org/2000/svg">
<g opacity="0.3">
<path d="M207.302 95.2008H160.075V99.7155H206.919H206.969L207.018 99.7253L250.472 108.464C250.7 108.471 250.956 108.522 251.159 108.562L251.185 108.568C251.442 108.618 251.627 108.653 251.759 108.653C252.866 108.653 253.614 108.326 254.127 107.95C254.648 107.568 254.951 107.119 255.148 106.825L255.158 106.81C255.48 106.154 255.986 104.483 254.426 102.419L254.423 102.415L238.902 81.4972L238.769 81.3186L238.813 81.1005C238.993 80.2065 238.995 79.3054 238.995 78.3468V21.8687C238.995 10.1765 229.075 0.5 217.075 0.5H117.24C105.24 0.5 95.3203 10.1765 95.3203 21.8687V76.9748H100.069V21.8687C100.069 12.64 107.781 5.20487 117.24 5.20487H217.075C226.534 5.20487 234.246 12.64 234.246 21.8687V78.3468C234.246 79.3511 234.045 80.5338 233.853 81.4882L233.851 81.5L233.848 81.5116C233.701 82.0935 233.831 82.7013 234.337 83.3699L234.339 83.3725L248.519 102.389L249.296 103.431L248.021 103.178L207.828 95.2008H207.302Z" fill="#007668" stroke="#E1F3F1"/>
<path d="M188.661 56.2305L188.241 56.2986V56.7241V65.4715C188.241 66.7352 187.297 67.824 185.867 67.824C184.607 67.824 183.493 66.7131 183.493 65.4715V54.0618C183.493 52.8202 184.607 51.7094 185.867 51.7094C193.613 51.7094 199.972 45.4039 199.972 37.7078C199.972 30.0118 193.613 23.7063 185.867 23.7063C178.121 23.7063 171.762 30.0118 171.762 37.7078C171.762 38.9494 170.648 40.0603 169.388 40.0603C168.127 40.0603 167.013 38.9494 167.013 37.7078C167.013 27.3385 175.409 19.0015 185.867 19.0015C196.137 19.0015 204.721 27.3417 204.721 37.7078C204.721 46.9598 197.82 54.7467 188.661 56.2305Z" fill="#007668" stroke="#E1F3F1"/>
<path d="M186.283 78.7881C184.632 78.7881 183.314 77.4702 183.314 75.8191C183.314 74.168 184.632 72.8501 186.283 72.8501C187.935 72.8501 189.252 74.168 189.252 75.8191C189.252 77.4702 187.935 78.7881 186.283 78.7881ZM186.283 74.6446C185.955 74.6446 185.672 74.7727 185.476 74.9931C185.288 75.2043 185.205 75.4717 185.205 75.7228C185.205 76.0299 185.354 76.2952 185.532 76.4738C185.711 76.6524 185.976 76.8009 186.283 76.8009C186.591 76.8009 186.856 76.6524 187.035 76.4738C187.213 76.2952 187.362 76.0299 187.362 75.7228C187.362 75.4156 187.213 75.1503 187.035 74.9717C186.856 74.7931 186.591 74.6446 186.283 74.6446Z" fill="#007668" stroke="#E1F3F1"/>
<path d="M5.36034 184.643L5.41939 184.614L5.48401 184.601L48.9822 175.853L49.031 175.844H49.0808H138.76C150.76 175.844 160.68 166.167 160.68 154.475V98.187C160.68 86.3047 150.951 76.8184 138.76 76.8184H38.9248C26.9251 76.8184 17.0051 86.4949 17.0051 98.187V154.665C17.0051 155.624 17.0066 156.525 17.1868 157.419L17.2308 157.637L17.0982 157.816L1.57684 178.733L1.57419 178.737C0.768188 179.803 0.522064 180.703 0.501389 181.421C0.481201 182.122 0.673859 182.694 0.853043 183.144C1.03522 183.412 1.32323 183.799 1.81425 184.13C2.32724 184.476 3.0914 184.781 4.24123 184.781C4.43562 184.781 4.65126 184.781 4.86253 184.76C5.07928 184.738 5.24857 184.699 5.36034 184.643ZM138.26 81.5232V81.3331H138.76C148.219 81.3331 155.931 88.7682 155.931 97.9969V154.475C155.931 163.704 148.219 171.139 138.76 171.139H48.6976H48.6964H48.6953H48.6942H48.6931H48.6919H48.6908H48.6897H48.6886H48.6875H48.6863H48.6852H48.6841H48.683H48.6818H48.6807H48.6796H48.6785H48.6773H48.6762H48.6751H48.674H48.6729H48.6717H48.6706H48.6695H48.6684H48.6672H48.6661H48.665H48.6639H48.6628H48.6616H48.6605H48.6594H48.6583H48.6571H48.656H48.6549H48.6538H48.6526H48.6515H48.6504H48.6493H48.6482H48.647H48.6459H48.6448H48.6437H48.6425H48.6414H48.6403H48.6392H48.638H48.6369H48.6358H48.6347H48.6336H48.6324H48.6313H48.6302H48.6291H48.6279H48.6268H48.6257H48.6246H48.6235H48.6223H48.6212H48.6201H48.619H48.6178H48.6167H48.6156H48.6145H48.6133H48.6122H48.6111H48.61H48.6089H48.6077H48.6066H48.6055H48.6044H48.6032H48.6021H48.601H48.5999H48.5987H48.5976H48.5965H48.5954H48.5943H48.5931H48.592H48.5909H48.5898H48.5886H48.5875H48.5864H48.5853H48.5842H48.583H48.5819H48.5808H48.5797H48.5785H48.5774H48.5763H48.5752H48.5741H48.5729H48.5718H48.5707H48.5696H48.5684H48.5673H48.5662H48.5651H48.5639H48.5628H48.5617H48.5606H48.5595H48.5583H48.5572H48.5561H48.555H48.5538H48.5527H48.5516H48.5505H48.5493H48.5482H48.5471H48.546H48.5449H48.5437H48.5426H48.5415H48.5404H48.5392H48.5381H48.537H48.5359H48.5348H48.5336H48.5325H48.5314H48.5303H48.5291H48.528H48.5269H48.5258H48.5246H48.5235H48.5224H48.5213H48.5202H48.519H48.5179H48.5168H48.5157H48.5145H48.5134H48.5123H48.5112H48.51H48.5089H48.5078H48.5067H48.5056H48.5044H48.5033H48.5022H48.5011H48.4999H48.4988H48.4977H48.4966H48.4955H48.4943H48.4932H48.4921H48.491H48.4898H48.4887H48.4876H48.4865H48.4854H48.4842H48.4831H48.482H48.4809H48.4797H48.4786H48.4775H48.4764H48.4752H48.4741H48.473H48.4719H48.4707H48.4696H48.4685H48.4674H48.4663H48.4651H48.464H48.4629H48.4618H48.4606H48.4595H48.4584H48.4573H48.4562H48.455H48.4539H48.4528H48.4517H48.4505H48.4494H48.4483H48.4472H48.4461H48.4449H48.4438H48.4427H48.4416H48.4404H48.4393H48.4382H48.4371H48.4359H48.4348H48.4337H48.4326H48.4315H48.4303H48.4292H48.4281H48.427H48.4258H48.4247H48.4236H48.4225H48.4213H48.4202H48.4191H48.418H48.4169H48.4157H48.4146H48.4135H48.4124H48.4112H48.4101H48.409H48.4079H48.4068H48.4056H48.4045H48.4034H48.4023H48.4011H48.4H48.3989H48.3978H48.3966H48.3955H48.3944H48.3933H48.3922H48.391H48.3899H48.3888H48.3877H48.3865H48.3854H48.3843H48.3832H48.382H48.3809H48.3798H48.3787H48.3776H48.3764H48.3753H48.3742H48.3731H48.3719H48.3708H48.3697H48.3686H48.3675H48.3663H48.3652H48.3641H48.363H48.3618H48.3607H48.3596H48.3585H48.3573H48.3562H48.3551H48.354H48.3529H48.3517H48.3506H48.3495H48.3484H48.3472H48.3461H48.345H48.3439H48.3428H48.3416H48.3405H48.3394H48.3383H48.3371H48.336H48.3349H48.3338H48.3326H48.3315H48.3304H48.3293H48.3282H48.327H48.3259H48.3248H48.3237H48.3225H48.3214H48.3203H48.3192H48.3181H48.3169H48.3158H48.3147H48.3136H48.3124H48.3113H48.3102H48.3091H48.3079H48.3068H48.3057H48.3046H48.3035H48.3023H48.3012H48.3001H48.299H48.2978H48.2967H48.2956H48.2945H48.2934H48.2922H48.2911H48.29H48.2889H48.2877H48.2866H48.2855H48.2844H48.2832H48.2821H48.281H48.2799H48.2788H48.2776H48.2765H48.2754H48.2743H48.2731H48.272H48.2709H48.2698H48.2686H48.2675H48.2664H48.2653H48.2642H48.263H48.2619H48.2608H48.2597H48.2585H48.2574H48.2563H48.2552H48.2541H48.2529H48.2518H48.2507H48.2496H48.2484H48.2473H48.2462H48.2451H48.2439H48.2428H48.2417H48.2406H48.2395H48.2383H48.2372H48.2361H48.235H48.2338H48.2327H48.2316H48.2305H48.2293H48.2282H48.2271H48.226H48.2249H48.2237H48.2226H48.2215H48.2204H48.2192H48.2181H48.217H48.2159H48.2148H48.2136H48.2125H48.2114H48.2103H48.2091H48.208H48.2069H48.2058H48.2046H48.2035H48.2024H48.2013H48.2002H48.199H48.1979H48.1968H48.1957H48.1945H48.1934H48.1923H48.1912H48.19H48.1889H48.1878H48.1867H48.1856H48.1844H48.1833H48.1822H48.1811H48.1799H48.1788H48.1777H48.1766H48.1755H48.1743H48.1732H48.1721H48.171L7.9794 179.116L6.70387 179.369L7.48123 178.327L21.6534 159.321C21.9487 158.874 22.1286 158.07 22.1367 157.376C21.9475 156.43 21.7537 155.271 21.7537 154.285V98.187C21.7537 88.9584 29.4659 81.5232 38.9248 81.5232H138.26ZM3.74123 182.429V179.576H4.24123H4.74123V182.429H4.24123H3.74123Z" fill="#007668" stroke="#E1F3F1"/>
<path d="M59.237 138.001C65.0964 138.001 69.8511 133.277 69.8511 127.472C69.8511 121.666 65.0964 116.942 59.237 116.942C53.3776 116.942 48.6229 121.666 48.6229 127.472C48.6229 133.277 53.3776 138.001 59.237 138.001ZM59.237 121.457C62.5871 121.457 65.1024 124.161 65.1024 127.282C65.1024 130.615 62.3721 133.106 59.237 133.106C55.8869 133.106 53.3716 130.402 53.3716 127.282C53.3716 124.149 56.0901 121.457 59.237 121.457Z" fill="#007668" stroke="#E1F3F1"/>
<path d="M88.7468 138.001C94.6061 138.001 99.3608 133.277 99.3608 127.472C99.3608 121.666 94.6061 116.942 88.7468 116.942C82.8874 116.942 78.1327 121.666 78.1327 127.472C78.1327 133.277 82.8874 138.001 88.7468 138.001ZM88.7468 121.457C92.0969 121.457 94.6122 124.161 94.6122 127.282C94.6122 130.615 91.8819 133.106 88.7468 133.106C85.3967 133.106 82.8813 130.402 82.8813 127.282C82.8813 124.149 85.5999 121.457 88.7468 121.457Z" fill="#007668" stroke="#E1F3F1"/>
<path d="M118.257 138.001C124.116 138.001 128.871 133.277 128.871 127.472C128.871 121.666 124.116 116.942 118.257 116.942C112.397 116.942 107.642 121.666 107.642 127.472C107.642 133.277 112.397 138.001 118.257 138.001ZM118.257 121.457C121.607 121.457 124.122 124.161 124.122 127.282C124.122 130.615 121.392 133.106 118.257 133.106C114.906 133.106 112.391 130.402 112.391 127.282C112.391 124.149 115.11 121.457 118.257 121.457Z" fill="#007668" stroke="#E1F3F1"/>
</g>
</svg>
